%TF.GenerationSoftware,KiCad,Pcbnew,(6.0.0)*%
%TF.CreationDate,2022-02-03T20:14:49-05:00*%
%TF.ProjectId,numpad,6e756d70-6164-42e6-9b69-6361645f7063,rev?*%
%TF.SameCoordinates,Original*%
%TF.FileFunction,Legend,Top*%
%TF.FilePolarity,Positive*%
%FSLAX46Y46*%
G04 Gerber Fmt 4.6, Leading zero omitted, Abs format (unit mm)*
G04 Created by KiCad (PCBNEW (6.0.0)) date 2022-02-03 20:14:49*
%MOMM*%
%LPD*%
G01*
G04 APERTURE LIST*
%ADD10C,0.150000*%
%ADD11C,0.120000*%
%ADD12R,1.600000X1.600000*%
%ADD13C,1.600000*%
G04 APERTURE END LIST*
D10*
X174870930Y-88435954D02*
X175585216Y-88435954D01*
X175728073Y-88483573D01*
X175823311Y-88578811D01*
X175870930Y-88721669D01*
X175870930Y-88816907D01*
X175870930Y-87483573D02*
X175870930Y-87959764D01*
X174870930Y-87959764D01*
X175775692Y-86578811D02*
X175823311Y-86626430D01*
X175870930Y-86769288D01*
X175870930Y-86864526D01*
X175823311Y-87007383D01*
X175728073Y-87102621D01*
X175632835Y-87150240D01*
X175442359Y-87197859D01*
X175299502Y-87197859D01*
X175109026Y-87150240D01*
X175013788Y-87102621D01*
X174918550Y-87007383D01*
X174870930Y-86864526D01*
X174870930Y-86769288D01*
X174918550Y-86626430D01*
X174966169Y-86578811D01*
X174870930Y-85864526D02*
X175585216Y-85864526D01*
X175728073Y-85912145D01*
X175823311Y-86007383D01*
X175870930Y-86150240D01*
X175870930Y-86245478D01*
X175870930Y-84912145D02*
X175870930Y-85388335D01*
X174870930Y-85388335D01*
X175775692Y-84007383D02*
X175823311Y-84055002D01*
X175870930Y-84197859D01*
X175870930Y-84293097D01*
X175823311Y-84435954D01*
X175728073Y-84531192D01*
X175632835Y-84578811D01*
X175442359Y-84626430D01*
X175299502Y-84626430D01*
X175109026Y-84578811D01*
X175013788Y-84531192D01*
X174918550Y-84435954D01*
X174870930Y-84293097D01*
X174870930Y-84197859D01*
X174918550Y-84055002D01*
X174966169Y-84007383D01*
X174870930Y-83293097D02*
X175585216Y-83293097D01*
X175728073Y-83340716D01*
X175823311Y-83435954D01*
X175870930Y-83578811D01*
X175870930Y-83674050D01*
X175870930Y-82340716D02*
X175870930Y-82816907D01*
X174870930Y-82816907D01*
X175775692Y-81435954D02*
X175823311Y-81483573D01*
X175870930Y-81626430D01*
X175870930Y-81721669D01*
X175823311Y-81864526D01*
X175728073Y-81959764D01*
X175632835Y-82007383D01*
X175442359Y-82055002D01*
X175299502Y-82055002D01*
X175109026Y-82007383D01*
X175013788Y-81959764D01*
X174918550Y-81864526D01*
X174870930Y-81721669D01*
X174870930Y-81626430D01*
X174918550Y-81483573D01*
X174966169Y-81435954D01*
X174870930Y-80721669D02*
X175585216Y-80721669D01*
X175728073Y-80769288D01*
X175823311Y-80864526D01*
X175870930Y-81007383D01*
X175870930Y-81102621D01*
X175870930Y-79769288D02*
X175870930Y-80245478D01*
X174870930Y-80245478D01*
X175775692Y-78864526D02*
X175823311Y-78912145D01*
X175870930Y-79055002D01*
X175870930Y-79150240D01*
X175823311Y-79293097D01*
X175728073Y-79388335D01*
X175632835Y-79435954D01*
X175442359Y-79483573D01*
X175299502Y-79483573D01*
X175109026Y-79435954D01*
X175013788Y-79388335D01*
X174918550Y-79293097D01*
X174870930Y-79150240D01*
X174870930Y-79055002D01*
X174918550Y-78912145D01*
X174966169Y-78864526D01*
%TO.C,J1*%
X174026130Y-93672770D02*
X174740416Y-93672770D01*
X174883273Y-93720389D01*
X174978511Y-93815627D01*
X175026130Y-93958484D01*
X175026130Y-94053722D01*
X175026130Y-92672770D02*
X175026130Y-93244198D01*
X175026130Y-92958484D02*
X174026130Y-92958484D01*
X174168988Y-93053722D01*
X174264226Y-93148960D01*
X174311845Y-93244198D01*
%TO.C,OLED1*%
X167923228Y-115586580D02*
X168113704Y-115586580D01*
X168208942Y-115634200D01*
X168304180Y-115729438D01*
X168351800Y-115919914D01*
X168351800Y-116253247D01*
X168304180Y-116443723D01*
X168208942Y-116538961D01*
X168113704Y-116586580D01*
X167923228Y-116586580D01*
X167827990Y-116538961D01*
X167732752Y-116443723D01*
X167685133Y-116253247D01*
X167685133Y-115919914D01*
X167732752Y-115729438D01*
X167827990Y-115634200D01*
X167923228Y-115586580D01*
X169256561Y-116586580D02*
X168780371Y-116586580D01*
X168780371Y-115586580D01*
X169589895Y-116062771D02*
X169923228Y-116062771D01*
X170066085Y-116586580D02*
X169589895Y-116586580D01*
X169589895Y-115586580D01*
X170066085Y-115586580D01*
X170494657Y-116586580D02*
X170494657Y-115586580D01*
X170732752Y-115586580D01*
X170875609Y-115634200D01*
X170970847Y-115729438D01*
X171018466Y-115824676D01*
X171066085Y-116015152D01*
X171066085Y-116158009D01*
X171018466Y-116348485D01*
X170970847Y-116443723D01*
X170875609Y-116538961D01*
X170732752Y-116586580D01*
X170494657Y-116586580D01*
X172018466Y-116586580D02*
X171447038Y-116586580D01*
X171732752Y-116586580D02*
X171732752Y-115586580D01*
X171637514Y-115729438D01*
X171542276Y-115824676D01*
X171447038Y-115872295D01*
%TO.C,ROT2*%
X173520521Y-153697430D02*
X173187188Y-153221240D01*
X172949092Y-153697430D02*
X172949092Y-152697430D01*
X173330045Y-152697430D01*
X173425283Y-152745050D01*
X173472902Y-152792669D01*
X173520521Y-152887907D01*
X173520521Y-153030764D01*
X173472902Y-153126002D01*
X173425283Y-153173621D01*
X173330045Y-153221240D01*
X172949092Y-153221240D01*
X174139569Y-152697430D02*
X174330045Y-152697430D01*
X174425283Y-152745050D01*
X174520521Y-152840288D01*
X174568140Y-153030764D01*
X174568140Y-153364097D01*
X174520521Y-153554573D01*
X174425283Y-153649811D01*
X174330045Y-153697430D01*
X174139569Y-153697430D01*
X174044330Y-153649811D01*
X173949092Y-153554573D01*
X173901473Y-153364097D01*
X173901473Y-153030764D01*
X173949092Y-152840288D01*
X174044330Y-152745050D01*
X174139569Y-152697430D01*
X174853854Y-152697430D02*
X175425283Y-152697430D01*
X175139569Y-153697430D02*
X175139569Y-152697430D01*
X175710997Y-152792669D02*
X175758616Y-152745050D01*
X175853854Y-152697430D01*
X176091950Y-152697430D01*
X176187188Y-152745050D01*
X176234807Y-152792669D01*
X176282426Y-152887907D01*
X176282426Y-152983145D01*
X176234807Y-153126002D01*
X175663378Y-153697430D01*
X176282426Y-153697430D01*
%TO.C,J2*%
X158416666Y-62844880D02*
X158416666Y-63559166D01*
X158369047Y-63702023D01*
X158273809Y-63797261D01*
X158130952Y-63844880D01*
X158035714Y-63844880D01*
X158845238Y-62940119D02*
X158892857Y-62892500D01*
X158988095Y-62844880D01*
X159226190Y-62844880D01*
X159321428Y-62892500D01*
X159369047Y-62940119D01*
X159416666Y-63035357D01*
X159416666Y-63130595D01*
X159369047Y-63273452D01*
X158797619Y-63844880D01*
X159416666Y-63844880D01*
%TO.C,MX1*%
X87609335Y-80684930D02*
X87609335Y-79684930D01*
X87942669Y-80399216D01*
X88276002Y-79684930D01*
X88276002Y-80684930D01*
X88656954Y-79684930D02*
X89323621Y-80684930D01*
X89323621Y-79684930D02*
X88656954Y-80684930D01*
X90228383Y-80684930D02*
X89656954Y-80684930D01*
X89942669Y-80684930D02*
X89942669Y-79684930D01*
X89847430Y-79827788D01*
X89752192Y-79923026D01*
X89656954Y-79970645D01*
%TO.C,MX12*%
X87133145Y-137834930D02*
X87133145Y-136834930D01*
X87466478Y-137549216D01*
X87799811Y-136834930D01*
X87799811Y-137834930D01*
X88180764Y-136834930D02*
X88847430Y-137834930D01*
X88847430Y-136834930D02*
X88180764Y-137834930D01*
X89752192Y-137834930D02*
X89180764Y-137834930D01*
X89466478Y-137834930D02*
X89466478Y-136834930D01*
X89371240Y-136977788D01*
X89276002Y-137073026D01*
X89180764Y-137120645D01*
X90133145Y-136930169D02*
X90180764Y-136882550D01*
X90276002Y-136834930D01*
X90514097Y-136834930D01*
X90609335Y-136882550D01*
X90656954Y-136930169D01*
X90704573Y-137025407D01*
X90704573Y-137120645D01*
X90656954Y-137263502D01*
X90085526Y-137834930D01*
X90704573Y-137834930D01*
%TO.C,MX16*%
X125233145Y-156884930D02*
X125233145Y-155884930D01*
X125566478Y-156599216D01*
X125899811Y-155884930D01*
X125899811Y-156884930D01*
X126280764Y-155884930D02*
X126947430Y-156884930D01*
X126947430Y-155884930D02*
X126280764Y-156884930D01*
X127852192Y-156884930D02*
X127280764Y-156884930D01*
X127566478Y-156884930D02*
X127566478Y-155884930D01*
X127471240Y-156027788D01*
X127376002Y-156123026D01*
X127280764Y-156170645D01*
X128709335Y-155884930D02*
X128518859Y-155884930D01*
X128423621Y-155932550D01*
X128376002Y-155980169D01*
X128280764Y-156123026D01*
X128233145Y-156313502D01*
X128233145Y-156694454D01*
X128280764Y-156789692D01*
X128328383Y-156837311D01*
X128423621Y-156884930D01*
X128614097Y-156884930D01*
X128709335Y-156837311D01*
X128756954Y-156789692D01*
X128804573Y-156694454D01*
X128804573Y-156456359D01*
X128756954Y-156361121D01*
X128709335Y-156313502D01*
X128614097Y-156265883D01*
X128423621Y-156265883D01*
X128328383Y-156313502D01*
X128280764Y-156361121D01*
X128233145Y-156456359D01*
%TO.C,MX7*%
X144759335Y-80684930D02*
X144759335Y-79684930D01*
X145092669Y-80399216D01*
X145426002Y-79684930D01*
X145426002Y-80684930D01*
X145806954Y-79684930D02*
X146473621Y-80684930D01*
X146473621Y-79684930D02*
X145806954Y-80684930D01*
X146759335Y-79684930D02*
X147426002Y-79684930D01*
X146997430Y-80684930D01*
%TO.C,MX2*%
X106659335Y-80684930D02*
X106659335Y-79684930D01*
X106992669Y-80399216D01*
X107326002Y-79684930D01*
X107326002Y-80684930D01*
X107706954Y-79684930D02*
X108373621Y-80684930D01*
X108373621Y-79684930D02*
X107706954Y-80684930D01*
X108706954Y-79780169D02*
X108754573Y-79732550D01*
X108849811Y-79684930D01*
X109087907Y-79684930D01*
X109183145Y-79732550D01*
X109230764Y-79780169D01*
X109278383Y-79875407D01*
X109278383Y-79970645D01*
X109230764Y-80113502D01*
X108659335Y-80684930D01*
X109278383Y-80684930D01*
%TO.C,MX18*%
X168095645Y-156884930D02*
X168095645Y-155884930D01*
X168428978Y-156599216D01*
X168762311Y-155884930D01*
X168762311Y-156884930D01*
X169143264Y-155884930D02*
X169809930Y-156884930D01*
X169809930Y-155884930D02*
X169143264Y-156884930D01*
X170714692Y-156884930D02*
X170143264Y-156884930D01*
X170428978Y-156884930D02*
X170428978Y-155884930D01*
X170333740Y-156027788D01*
X170238502Y-156123026D01*
X170143264Y-156170645D01*
X171286121Y-156313502D02*
X171190883Y-156265883D01*
X171143264Y-156218264D01*
X171095645Y-156123026D01*
X171095645Y-156075407D01*
X171143264Y-155980169D01*
X171190883Y-155932550D01*
X171286121Y-155884930D01*
X171476597Y-155884930D01*
X171571835Y-155932550D01*
X171619454Y-155980169D01*
X171667073Y-156075407D01*
X171667073Y-156123026D01*
X171619454Y-156218264D01*
X171571835Y-156265883D01*
X171476597Y-156313502D01*
X171286121Y-156313502D01*
X171190883Y-156361121D01*
X171143264Y-156408740D01*
X171095645Y-156503978D01*
X171095645Y-156694454D01*
X171143264Y-156789692D01*
X171190883Y-156837311D01*
X171286121Y-156884930D01*
X171476597Y-156884930D01*
X171571835Y-156837311D01*
X171619454Y-156789692D01*
X171667073Y-156694454D01*
X171667073Y-156503978D01*
X171619454Y-156408740D01*
X171571835Y-156361121D01*
X171476597Y-156313502D01*
%TO.C,MX15*%
X96658145Y-156884930D02*
X96658145Y-155884930D01*
X96991478Y-156599216D01*
X97324811Y-155884930D01*
X97324811Y-156884930D01*
X97705764Y-155884930D02*
X98372430Y-156884930D01*
X98372430Y-155884930D02*
X97705764Y-156884930D01*
X99277192Y-156884930D02*
X98705764Y-156884930D01*
X98991478Y-156884930D02*
X98991478Y-155884930D01*
X98896240Y-156027788D01*
X98801002Y-156123026D01*
X98705764Y-156170645D01*
X100181954Y-155884930D02*
X99705764Y-155884930D01*
X99658145Y-156361121D01*
X99705764Y-156313502D01*
X99801002Y-156265883D01*
X100039097Y-156265883D01*
X100134335Y-156313502D01*
X100181954Y-156361121D01*
X100229573Y-156456359D01*
X100229573Y-156694454D01*
X100181954Y-156789692D01*
X100134335Y-156837311D01*
X100039097Y-156884930D01*
X99801002Y-156884930D01*
X99705764Y-156837311D01*
X99658145Y-156789692D01*
%TO.C,MX17*%
X155159930Y-157331954D02*
X154159930Y-157331954D01*
X154874216Y-156998621D01*
X154159930Y-156665288D01*
X155159930Y-156665288D01*
X154159930Y-156284335D02*
X155159930Y-155617669D01*
X154159930Y-155617669D02*
X155159930Y-156284335D01*
X155159930Y-154712907D02*
X155159930Y-155284335D01*
X155159930Y-154998621D02*
X154159930Y-154998621D01*
X154302788Y-155093859D01*
X154398026Y-155189097D01*
X154445645Y-155284335D01*
X154159930Y-154379573D02*
X154159930Y-153712907D01*
X155159930Y-154141478D01*
%TO.C,ROT1*%
X149673621Y-77497430D02*
X149340288Y-77021240D01*
X149102192Y-77497430D02*
X149102192Y-76497430D01*
X149483145Y-76497430D01*
X149578383Y-76545050D01*
X149626002Y-76592669D01*
X149673621Y-76687907D01*
X149673621Y-76830764D01*
X149626002Y-76926002D01*
X149578383Y-76973621D01*
X149483145Y-77021240D01*
X149102192Y-77021240D01*
X150292669Y-76497430D02*
X150483145Y-76497430D01*
X150578383Y-76545050D01*
X150673621Y-76640288D01*
X150721240Y-76830764D01*
X150721240Y-77164097D01*
X150673621Y-77354573D01*
X150578383Y-77449811D01*
X150483145Y-77497430D01*
X150292669Y-77497430D01*
X150197430Y-77449811D01*
X150102192Y-77354573D01*
X150054573Y-77164097D01*
X150054573Y-76830764D01*
X150102192Y-76640288D01*
X150197430Y-76545050D01*
X150292669Y-76497430D01*
X151006954Y-76497430D02*
X151578383Y-76497430D01*
X151292669Y-77497430D02*
X151292669Y-76497430D01*
X152435526Y-77497430D02*
X151864097Y-77497430D01*
X152149811Y-77497430D02*
X152149811Y-76497430D01*
X152054573Y-76640288D01*
X151959335Y-76735526D01*
X151864097Y-76783145D01*
%TO.C,MX3*%
X125709335Y-80684930D02*
X125709335Y-79684930D01*
X126042669Y-80399216D01*
X126376002Y-79684930D01*
X126376002Y-80684930D01*
X126756954Y-79684930D02*
X127423621Y-80684930D01*
X127423621Y-79684930D02*
X126756954Y-80684930D01*
X127709335Y-79684930D02*
X128328383Y-79684930D01*
X127995050Y-80065883D01*
X128137907Y-80065883D01*
X128233145Y-80113502D01*
X128280764Y-80161121D01*
X128328383Y-80256359D01*
X128328383Y-80494454D01*
X128280764Y-80589692D01*
X128233145Y-80637311D01*
X128137907Y-80684930D01*
X127852192Y-80684930D01*
X127756954Y-80637311D01*
X127709335Y-80589692D01*
%TO.C,MX6*%
X125709335Y-99734930D02*
X125709335Y-98734930D01*
X126042669Y-99449216D01*
X126376002Y-98734930D01*
X126376002Y-99734930D01*
X126756954Y-98734930D02*
X127423621Y-99734930D01*
X127423621Y-98734930D02*
X126756954Y-99734930D01*
X128233145Y-98734930D02*
X128042669Y-98734930D01*
X127947430Y-98782550D01*
X127899811Y-98830169D01*
X127804573Y-98973026D01*
X127756954Y-99163502D01*
X127756954Y-99544454D01*
X127804573Y-99639692D01*
X127852192Y-99687311D01*
X127947430Y-99734930D01*
X128137907Y-99734930D01*
X128233145Y-99687311D01*
X128280764Y-99639692D01*
X128328383Y-99544454D01*
X128328383Y-99306359D01*
X128280764Y-99211121D01*
X128233145Y-99163502D01*
X128137907Y-99115883D01*
X127947430Y-99115883D01*
X127852192Y-99163502D01*
X127804573Y-99211121D01*
X127756954Y-99306359D01*
%TO.C,MX13*%
X106183145Y-137834930D02*
X106183145Y-136834930D01*
X106516478Y-137549216D01*
X106849811Y-136834930D01*
X106849811Y-137834930D01*
X107230764Y-136834930D02*
X107897430Y-137834930D01*
X107897430Y-136834930D02*
X107230764Y-137834930D01*
X108802192Y-137834930D02*
X108230764Y-137834930D01*
X108516478Y-137834930D02*
X108516478Y-136834930D01*
X108421240Y-136977788D01*
X108326002Y-137073026D01*
X108230764Y-137120645D01*
X109135526Y-136834930D02*
X109754573Y-136834930D01*
X109421240Y-137215883D01*
X109564097Y-137215883D01*
X109659335Y-137263502D01*
X109706954Y-137311121D01*
X109754573Y-137406359D01*
X109754573Y-137644454D01*
X109706954Y-137739692D01*
X109659335Y-137787311D01*
X109564097Y-137834930D01*
X109278383Y-137834930D01*
X109183145Y-137787311D01*
X109135526Y-137739692D01*
%TO.C,MX11*%
X155159930Y-119231954D02*
X154159930Y-119231954D01*
X154874216Y-118898621D01*
X154159930Y-118565288D01*
X155159930Y-118565288D01*
X154159930Y-118184335D02*
X155159930Y-117517669D01*
X154159930Y-117517669D02*
X155159930Y-118184335D01*
X155159930Y-116612907D02*
X155159930Y-117184335D01*
X155159930Y-116898621D02*
X154159930Y-116898621D01*
X154302788Y-116993859D01*
X154398026Y-117089097D01*
X154445645Y-117184335D01*
X155159930Y-115660526D02*
X155159930Y-116231954D01*
X155159930Y-115946240D02*
X154159930Y-115946240D01*
X154302788Y-116041478D01*
X154398026Y-116136716D01*
X154445645Y-116231954D01*
%TO.C,MX5*%
X106659335Y-99734930D02*
X106659335Y-98734930D01*
X106992669Y-99449216D01*
X107326002Y-98734930D01*
X107326002Y-99734930D01*
X107706954Y-98734930D02*
X108373621Y-99734930D01*
X108373621Y-98734930D02*
X107706954Y-99734930D01*
X109230764Y-98734930D02*
X108754573Y-98734930D01*
X108706954Y-99211121D01*
X108754573Y-99163502D01*
X108849811Y-99115883D01*
X109087907Y-99115883D01*
X109183145Y-99163502D01*
X109230764Y-99211121D01*
X109278383Y-99306359D01*
X109278383Y-99544454D01*
X109230764Y-99639692D01*
X109183145Y-99687311D01*
X109087907Y-99734930D01*
X108849811Y-99734930D01*
X108754573Y-99687311D01*
X108706954Y-99639692D01*
%TO.C,MX9*%
X106659335Y-118784930D02*
X106659335Y-117784930D01*
X106992669Y-118499216D01*
X107326002Y-117784930D01*
X107326002Y-118784930D01*
X107706954Y-117784930D02*
X108373621Y-118784930D01*
X108373621Y-117784930D02*
X107706954Y-118784930D01*
X108802192Y-118784930D02*
X108992669Y-118784930D01*
X109087907Y-118737311D01*
X109135526Y-118689692D01*
X109230764Y-118546835D01*
X109278383Y-118356359D01*
X109278383Y-117975407D01*
X109230764Y-117880169D01*
X109183145Y-117832550D01*
X109087907Y-117784930D01*
X108897430Y-117784930D01*
X108802192Y-117832550D01*
X108754573Y-117880169D01*
X108706954Y-117975407D01*
X108706954Y-118213502D01*
X108754573Y-118308740D01*
X108802192Y-118356359D01*
X108897430Y-118403978D01*
X109087907Y-118403978D01*
X109183145Y-118356359D01*
X109230764Y-118308740D01*
X109278383Y-118213502D01*
%TO.C,MX10*%
X125233145Y-118784930D02*
X125233145Y-117784930D01*
X125566478Y-118499216D01*
X125899811Y-117784930D01*
X125899811Y-118784930D01*
X126280764Y-117784930D02*
X126947430Y-118784930D01*
X126947430Y-117784930D02*
X126280764Y-118784930D01*
X127852192Y-118784930D02*
X127280764Y-118784930D01*
X127566478Y-118784930D02*
X127566478Y-117784930D01*
X127471240Y-117927788D01*
X127376002Y-118023026D01*
X127280764Y-118070645D01*
X128471240Y-117784930D02*
X128566478Y-117784930D01*
X128661716Y-117832550D01*
X128709335Y-117880169D01*
X128756954Y-117975407D01*
X128804573Y-118165883D01*
X128804573Y-118403978D01*
X128756954Y-118594454D01*
X128709335Y-118689692D01*
X128661716Y-118737311D01*
X128566478Y-118784930D01*
X128471240Y-118784930D01*
X128376002Y-118737311D01*
X128328383Y-118689692D01*
X128280764Y-118594454D01*
X128233145Y-118403978D01*
X128233145Y-118165883D01*
X128280764Y-117975407D01*
X128328383Y-117880169D01*
X128376002Y-117832550D01*
X128471240Y-117784930D01*
%TO.C,MX14*%
X125233145Y-137834930D02*
X125233145Y-136834930D01*
X125566478Y-137549216D01*
X125899811Y-136834930D01*
X125899811Y-137834930D01*
X126280764Y-136834930D02*
X126947430Y-137834930D01*
X126947430Y-136834930D02*
X126280764Y-137834930D01*
X127852192Y-137834930D02*
X127280764Y-137834930D01*
X127566478Y-137834930D02*
X127566478Y-136834930D01*
X127471240Y-136977788D01*
X127376002Y-137073026D01*
X127280764Y-137120645D01*
X128709335Y-137168264D02*
X128709335Y-137834930D01*
X128471240Y-136787311D02*
X128233145Y-137501597D01*
X128852192Y-137501597D01*
%TO.C,MX4*%
X87609335Y-99734930D02*
X87609335Y-98734930D01*
X87942669Y-99449216D01*
X88276002Y-98734930D01*
X88276002Y-99734930D01*
X88656954Y-98734930D02*
X89323621Y-99734930D01*
X89323621Y-98734930D02*
X88656954Y-99734930D01*
X90133145Y-99068264D02*
X90133145Y-99734930D01*
X89895050Y-98687311D02*
X89656954Y-99401597D01*
X90276002Y-99401597D01*
%TO.C,MX8*%
X87609335Y-118784930D02*
X87609335Y-117784930D01*
X87942669Y-118499216D01*
X88276002Y-117784930D01*
X88276002Y-118784930D01*
X88656954Y-117784930D02*
X89323621Y-118784930D01*
X89323621Y-117784930D02*
X88656954Y-118784930D01*
X89847430Y-118213502D02*
X89752192Y-118165883D01*
X89704573Y-118118264D01*
X89656954Y-118023026D01*
X89656954Y-117975407D01*
X89704573Y-117880169D01*
X89752192Y-117832550D01*
X89847430Y-117784930D01*
X90037907Y-117784930D01*
X90133145Y-117832550D01*
X90180764Y-117880169D01*
X90228383Y-117975407D01*
X90228383Y-118023026D01*
X90180764Y-118118264D01*
X90133145Y-118165883D01*
X90037907Y-118213502D01*
X89847430Y-118213502D01*
X89752192Y-118261121D01*
X89704573Y-118308740D01*
X89656954Y-118403978D01*
X89656954Y-118594454D01*
X89704573Y-118689692D01*
X89752192Y-118737311D01*
X89847430Y-118784930D01*
X90037907Y-118784930D01*
X90133145Y-118737311D01*
X90180764Y-118689692D01*
X90228383Y-118594454D01*
X90228383Y-118403978D01*
X90180764Y-118308740D01*
X90133145Y-118261121D01*
X90037907Y-118213502D01*
D11*
%TO.C,J1*%
X173573750Y-95939437D02*
X165833750Y-95939437D01*
X172243750Y-90739437D02*
X173573750Y-90739437D01*
X173573750Y-90739437D02*
X173573750Y-92069437D01*
X173573750Y-93339437D02*
X173573750Y-95939437D01*
X170973750Y-93339437D02*
X173573750Y-93339437D01*
X165833750Y-90739437D02*
X165833750Y-95939437D01*
X170973750Y-90739437D02*
X165833750Y-90739437D01*
X170973750Y-90739437D02*
X170973750Y-93339437D01*
%TO.C,OLED1*%
X179973800Y-123475200D02*
X156873800Y-123475200D01*
X156451800Y-103580200D02*
X183851800Y-103580200D01*
X179973800Y-106875200D02*
X183059800Y-106875200D01*
X165152800Y-104069200D02*
X165152800Y-106482200D01*
X156451800Y-130880200D02*
X156451800Y-103580200D01*
X165152800Y-104069200D02*
X174931800Y-104069200D01*
X174931800Y-106482200D02*
X165152800Y-106482200D01*
X156873800Y-123475200D02*
X156873800Y-106875200D01*
X183851800Y-103580200D02*
X183851800Y-130880200D01*
X156873800Y-106875200D02*
X179973800Y-106875200D01*
X179973800Y-123475200D02*
X183313800Y-123500200D01*
X174931800Y-104069200D02*
X174931800Y-106482200D01*
X183313800Y-123500200D02*
X183313800Y-106863200D01*
X183851800Y-130880200D02*
X156451800Y-130880200D01*
X183313800Y-106863200D02*
X183059800Y-106875200D01*
%TO.C,ROT2*%
X167891950Y-151945050D02*
X163791950Y-151945050D01*
X163791950Y-142545050D02*
X163791950Y-140145050D01*
X175991950Y-151945050D02*
X175991950Y-140145050D01*
X177091950Y-150145050D02*
X177391950Y-149845050D01*
X170391950Y-146045050D02*
X169391950Y-146045050D01*
X171891950Y-140145050D02*
X175991950Y-140145050D01*
X163791950Y-151945050D02*
X163791950Y-149545050D01*
X163791950Y-147345050D02*
X163791950Y-144745050D01*
X163791950Y-140145050D02*
X167891950Y-140145050D01*
X169891950Y-146545050D02*
X169891950Y-145545050D01*
X177691950Y-150145050D02*
X177091950Y-150145050D01*
X171891950Y-151945050D02*
X175991950Y-151945050D01*
X177391950Y-149845050D02*
X177691950Y-150145050D01*
X172891950Y-146045050D02*
G75*
G03*
X172891950Y-146045050I-3000000J0D01*
G01*
%TO.C,J2*%
X157420000Y-74672500D02*
X160080000Y-74672500D01*
X157420000Y-65722500D02*
X157420000Y-64392500D01*
X160080000Y-66992500D02*
X160080000Y-74672500D01*
X157420000Y-66992500D02*
X157420000Y-74672500D01*
X157420000Y-66992500D02*
X160080000Y-66992500D01*
X157420000Y-64392500D02*
X158750000Y-64392500D01*
D10*
%TO.C,U1*%
X173672650Y-67305050D02*
X178752650Y-67305050D01*
X166052650Y-64765050D02*
X173672650Y-64765050D01*
X173672650Y-64765050D02*
X173672650Y-67305050D01*
X178752650Y-67305050D02*
X178752650Y-97785050D01*
X166052650Y-67305050D02*
X166052650Y-64765050D01*
X160972650Y-67305050D02*
X160972650Y-97785050D01*
X178752650Y-97785050D02*
X160972650Y-97785050D01*
X160972650Y-67305050D02*
X166052650Y-67305050D01*
D11*
%TO.C,MX1*%
X81895050Y-81895050D02*
X81895050Y-95895050D01*
X95895050Y-95895050D02*
X81895050Y-95895050D01*
X81895050Y-81895050D02*
X95895050Y-81895050D01*
X95895050Y-81895050D02*
X95895050Y-95895050D01*
%TO.C,MX12*%
X95895050Y-153045050D02*
X81895050Y-153045050D01*
X81895050Y-139045050D02*
X81895050Y-153045050D01*
X95895050Y-139045050D02*
X95895050Y-153045050D01*
X81895050Y-139045050D02*
X95895050Y-139045050D01*
%TO.C,MX16*%
X119995050Y-158095050D02*
X119995050Y-172095050D01*
X133995050Y-158095050D02*
X133995050Y-172095050D01*
X119995050Y-158095050D02*
X133995050Y-158095050D01*
X133995050Y-172095050D02*
X119995050Y-172095050D01*
%TO.C,MX7*%
X139045050Y-81895050D02*
X153045050Y-81895050D01*
X153045050Y-81895050D02*
X153045050Y-95895050D01*
X139045050Y-81895050D02*
X139045050Y-95895050D01*
X153045050Y-95895050D02*
X139045050Y-95895050D01*
%TO.C,MX2*%
X100945050Y-81895050D02*
X114945050Y-81895050D01*
X100945050Y-81895050D02*
X100945050Y-95895050D01*
X114945050Y-81895050D02*
X114945050Y-95895050D01*
X114945050Y-95895050D02*
X100945050Y-95895050D01*
%TO.C,MX18*%
X176857550Y-158095050D02*
X176857550Y-172095050D01*
X162857550Y-158095050D02*
X162857550Y-172095050D01*
X162857550Y-158095050D02*
X176857550Y-158095050D01*
X176857550Y-172095050D02*
X162857550Y-172095050D01*
%TO.C,MX15*%
X91420050Y-158095050D02*
X105420050Y-158095050D01*
X105420050Y-172095050D02*
X91420050Y-172095050D01*
X105420050Y-158095050D02*
X105420050Y-172095050D01*
X91420050Y-158095050D02*
X91420050Y-172095050D01*
%TO.C,MX17*%
X153045050Y-162570050D02*
X139045050Y-162570050D01*
X153045050Y-148570050D02*
X153045050Y-162570050D01*
X153045050Y-148570050D02*
X139045050Y-148570050D01*
X139045050Y-162570050D02*
X139045050Y-148570050D01*
%TO.C,ROT1*%
X153245050Y-73945050D02*
X153545050Y-73645050D01*
X144045050Y-75745050D02*
X139945050Y-75745050D01*
X152145050Y-75745050D02*
X152145050Y-63945050D01*
X153545050Y-73645050D02*
X153845050Y-73945050D01*
X139945050Y-71145050D02*
X139945050Y-68545050D01*
X139945050Y-66345050D02*
X139945050Y-63945050D01*
X148045050Y-75745050D02*
X152145050Y-75745050D01*
X148045050Y-63945050D02*
X152145050Y-63945050D01*
X153845050Y-73945050D02*
X153245050Y-73945050D01*
X146045050Y-70345050D02*
X146045050Y-69345050D01*
X139945050Y-75745050D02*
X139945050Y-73345050D01*
X146545050Y-69845050D02*
X145545050Y-69845050D01*
X139945050Y-63945050D02*
X144045050Y-63945050D01*
X149045050Y-69845050D02*
G75*
G03*
X149045050Y-69845050I-3000000J0D01*
G01*
%TO.C,MX3*%
X119995050Y-81895050D02*
X133995050Y-81895050D01*
X133995050Y-81895050D02*
X133995050Y-95895050D01*
X133995050Y-95895050D02*
X119995050Y-95895050D01*
X119995050Y-81895050D02*
X119995050Y-95895050D01*
%TO.C,MX6*%
X133995050Y-114945050D02*
X119995050Y-114945050D01*
X133995050Y-100945050D02*
X133995050Y-114945050D01*
X119995050Y-100945050D02*
X133995050Y-100945050D01*
X119995050Y-100945050D02*
X119995050Y-114945050D01*
%TO.C,MX13*%
X100945050Y-139045050D02*
X114945050Y-139045050D01*
X114945050Y-139045050D02*
X114945050Y-153045050D01*
X100945050Y-139045050D02*
X100945050Y-153045050D01*
X114945050Y-153045050D02*
X100945050Y-153045050D01*
%TO.C,MX11*%
X153045050Y-110470050D02*
X153045050Y-124470050D01*
X153045050Y-124470050D02*
X139045050Y-124470050D01*
X139045050Y-124470050D02*
X139045050Y-110470050D01*
X153045050Y-110470050D02*
X139045050Y-110470050D01*
%TO.C,MX5*%
X114945050Y-100945050D02*
X114945050Y-114945050D01*
X100945050Y-100945050D02*
X100945050Y-114945050D01*
X100945050Y-100945050D02*
X114945050Y-100945050D01*
X114945050Y-114945050D02*
X100945050Y-114945050D01*
%TO.C,MX9*%
X114945050Y-133995050D02*
X100945050Y-133995050D01*
X100945050Y-119995050D02*
X100945050Y-133995050D01*
X114945050Y-119995050D02*
X114945050Y-133995050D01*
X100945050Y-119995050D02*
X114945050Y-119995050D01*
%TO.C,MX10*%
X133995050Y-133995050D02*
X119995050Y-133995050D01*
X133995050Y-119995050D02*
X133995050Y-133995050D01*
X119995050Y-119995050D02*
X133995050Y-119995050D01*
X119995050Y-119995050D02*
X119995050Y-133995050D01*
%TO.C,MX14*%
X133995050Y-153045050D02*
X119995050Y-153045050D01*
X119995050Y-139045050D02*
X119995050Y-153045050D01*
X133995050Y-139045050D02*
X133995050Y-153045050D01*
X119995050Y-139045050D02*
X133995050Y-139045050D01*
%TO.C,MX4*%
X95895050Y-100945050D02*
X95895050Y-114945050D01*
X81895050Y-100945050D02*
X81895050Y-114945050D01*
X95895050Y-114945050D02*
X81895050Y-114945050D01*
X81895050Y-100945050D02*
X95895050Y-100945050D01*
%TO.C,MX8*%
X95895050Y-119995050D02*
X95895050Y-133995050D01*
X81895050Y-119995050D02*
X81895050Y-133995050D01*
X95895050Y-133995050D02*
X81895050Y-133995050D01*
X81895050Y-119995050D02*
X95895050Y-119995050D01*
%TD*%
D12*
%TO.C,U1*%
X162242650Y-68575050D03*
D13*
X162242650Y-71115050D03*
X162242650Y-73655050D03*
X162242650Y-76195050D03*
X162242650Y-78735050D03*
X162242650Y-81275050D03*
X162242650Y-83815050D03*
X162242650Y-86355050D03*
X162242650Y-88895050D03*
X162242650Y-91435050D03*
X162242650Y-93975050D03*
X162242650Y-96515050D03*
X177482650Y-96515050D03*
X177482650Y-93975050D03*
X177482650Y-91435050D03*
X177482650Y-88895050D03*
X177482650Y-86355050D03*
X177482650Y-83815050D03*
X177482650Y-81275050D03*
X177482650Y-78735050D03*
X177482650Y-76195050D03*
X177482650Y-73655050D03*
X177482650Y-71115050D03*
X177482650Y-68575050D03*
%TD*%
M02*
