M48
; DRILL file {KiCad (6.0.0)} date Wed Feb  2 23:37:18 2022
; FORMAT={-:-/ absolute / inch / decimal}
; #@! TF.CreationDate,2022-02-02T23:37:18-05:00
; #@! TF.GenerationSoftware,Kicad,Pcbnew,(6.0.0)
; #@! TF.FileFunction,NonPlated,1,2,NPTH
FMAT,2
INCH
; #@! TA.AperFunction,NonPlated,NPTH,ComponentDrill
T1C0.0689
; #@! TA.AperFunction,NonPlated,NPTH,ComponentDrill
T2C0.1181
; #@! TA.AperFunction,NonPlated,NPTH,ComponentDrill
T3C0.1201
; #@! TA.AperFunction,NonPlated,NPTH,ComponentDrill
T4C0.1575
%
G90
G05
T1
X3.2998Y-3.4998
X3.2998Y-4.2498
X3.2998Y-4.9998
X3.2998Y-5.7498
X3.6748Y-6.4998
X3.6998Y-3.4998
X3.6998Y-4.2498
X3.6998Y-4.9998
X3.6998Y-5.7498
X4.0498Y-3.4998
X4.0498Y-4.2498
X4.0498Y-4.9998
X4.0498Y-5.7498
X4.0748Y-6.4998
X4.4498Y-3.4998
X4.4498Y-4.2498
X4.4498Y-4.9998
X4.4498Y-5.7498
X4.7998Y-3.4998
X4.7998Y-4.2498
X4.7998Y-4.9998
X4.7998Y-5.7498
X4.7998Y-6.4998
X5.1998Y-3.4998
X5.1998Y-4.2498
X5.1998Y-4.9998
X5.1998Y-5.7498
X5.1998Y-6.4998
X5.5498Y-3.4998
X5.7498Y-4.4248
X5.7498Y-4.8248
X5.7498Y-5.9248
X5.7498Y-6.3248
X5.9498Y-3.4998
X6.4873Y-6.4998
X6.8873Y-6.4998
T2
X3.3498Y-3.3998
X3.3498Y-4.1498
X3.3498Y-4.8998
X3.3498Y-5.6498
X3.5998Y-3.2998
X3.5998Y-4.0498
X3.5998Y-4.7998
X3.5998Y-5.5498
X3.7248Y-6.3998
X3.9748Y-6.2998
X4.0998Y-3.3998
X4.0998Y-4.1498
X4.0998Y-4.8998
X4.0998Y-5.6498
X4.3498Y-3.2998
X4.3498Y-4.0498
X4.3498Y-4.7998
X4.3498Y-5.5498
X4.8498Y-3.3998
X4.8498Y-4.1498
X4.8498Y-4.8998
X4.8498Y-5.6498
X4.8498Y-6.3998
X5.0998Y-3.2998
X5.0998Y-4.0498
X5.0998Y-4.7998
X5.0998Y-5.5498
X5.0998Y-6.2998
X5.5998Y-3.3998
X5.8498Y-3.2998
X5.8498Y-4.4748
X5.8498Y-5.9748
X5.9498Y-4.7248
X5.9498Y-6.2248
X6.5373Y-6.3998
X6.7873Y-6.2998
T3
X3.4048Y-6.7754
X4.3448Y-6.7754
X6.0254Y-4.1548
X6.0254Y-5.0948
X6.0254Y-5.6548
X6.0254Y-6.5948
T4
X3.4048Y-6.1754
X3.4998Y-3.4998
X3.4998Y-4.2498
X3.4998Y-4.9998
X3.4998Y-5.7498
X3.8748Y-6.4998
X4.2498Y-3.4998
X4.2498Y-4.2498
X4.2498Y-4.9998
X4.2498Y-5.7498
X4.3448Y-6.1754
X4.9998Y-3.4998
X4.9998Y-4.2498
X4.9998Y-4.9998
X4.9998Y-5.7498
X4.9998Y-6.4998
X5.4254Y-4.1548
X5.4254Y-5.0948
X5.4254Y-5.6548
X5.4254Y-6.5948
X5.7498Y-3.4998
X5.7498Y-4.6248
X5.7498Y-6.1248
X6.6873Y-6.4998
T0
M30
