M48
; DRILL file {KiCad (6.0.0)} date Thu Feb  3 18:26:45 2022
; FORMAT={-:-/ absolute / inch / decimal}
; #@! TF.CreationDate,2022-02-03T18:26:45-05:00
; #@! TF.GenerationSoftware,Kicad,Pcbnew,(6.0.0)
; #@! TF.FileFunction,Plated,1,2,PTH
FMAT,2
INCH
; #@! TA.AperFunction,Plated,PTH,ViaDrill
T1C0.0157
; #@! TA.AperFunction,Plated,PTH,ComponentDrill
T2C0.0394
; #@! TA.AperFunction,Plated,PTH,ComponentDrill
T3C0.0433
; #@! TA.AperFunction,Plated,PTH,ComponentDrill
T4C0.0591
; #@! TA.AperFunction,Plated,PTH,ComponentDrill
T5C0.1260
%
G90
G05
T1
X3.1562Y-3.1562
X3.1873Y-3.2811
X3.1873Y-4.0311
X3.1873Y-4.7811
X3.1873Y-5.5311
X3.25Y-6.4688
X3.2812Y-3.8125
X3.2812Y-4.5625
X3.2812Y-5.3125
X3.3125Y-3.6562
X3.3125Y-4.4062
X3.3125Y-5.1562
X3.3125Y-5.9062
X3.4375Y-3.25
X3.4375Y-4.0312
X3.4375Y-4.7812
X3.4375Y-5.5312
X3.5623Y-6.2811
X3.5779Y-3.8123
X3.6875Y-6.6562
X3.7969Y-4.4688
X3.7969Y-5.2188
X3.7969Y-5.9688
X3.8125Y-6.2812
X3.9373Y-3.2811
X3.9373Y-4.7811
X3.9373Y-5.5311
X3.9686Y-4.0311
X4.0625Y-3.6562
X4.0625Y-4.4062
X4.0625Y-5.1562
X4.0625Y-5.9062
X4.1719Y-6.7188
X4.1875Y-3.25
X4.1875Y-4.0312
X4.1875Y-4.7812
X4.1875Y-5.5312
X4.5469Y-3.7188
X4.5469Y-4.4688
X4.5469Y-5.2188
X4.5469Y-5.9688
X4.6873Y-3.2811
X4.6873Y-4.0311
X4.6873Y-4.7811
X4.6873Y-5.5311
X4.6873Y-6.2811
X4.7188Y-6.5
X4.8125Y-3.6562
X4.8125Y-4.4062
X4.8125Y-5.1562
X4.8125Y-5.9062
X4.8125Y-6.6562
X4.875Y-6.5312
X4.9062Y-3.25
X4.9375Y-4.0312
X4.9375Y-4.7812
X4.9375Y-5.5312
X4.9375Y-6.2812
X5.25Y-5.2812
X5.2812Y-6.5938
X5.2969Y-3.7188
X5.2969Y-4.4688
X5.2969Y-5.2188
X5.2969Y-5.9688
X5.2969Y-6.7188
X5.3438Y-3.3125
X5.375Y-4.625
X5.375Y-6.125
X5.4373Y-3.2811
X5.5312Y-4.9219
X5.5312Y-6.4219
X5.5625Y-3.6562
X5.5625Y-6.6562
X5.5938Y-4.4375
X5.5938Y-5.9375
X5.6562Y-4.75
X5.6562Y-6.25
X5.75Y-2.75
X5.75Y-5.0938
X5.75Y-5.8438
X5.9688Y-4.3438
X5.9688Y-4.5625
X5.9688Y-6.0625
X6.0Y-3.7812
X6.0469Y-3.7188
X6.1875Y-3.625
X6.3748Y-6.2811
X6.375Y-4.1562
X6.5Y-6.6562
X6.625Y-6.2812
X6.7812Y-4.2812
X6.8125Y-3.2812
X6.8125Y-3.4688
X6.8125Y-3.9062
X6.9844Y-6.7188
X7.0Y-5.2188
X7.0472Y-3.0512
T2
X5.4742Y-2.6514
X5.4742Y-2.8482
X6.0451Y-2.6514
X6.0451Y-2.7498
X6.0451Y-2.8482
X6.25Y-2.5875
X6.25Y-2.6875
X6.25Y-2.7875
X6.25Y-2.8875
X6.4131Y-5.6514
X6.4131Y-5.8482
X6.5446Y-4.1449
X6.5812Y-3.6248
X6.5812Y-3.7248
X6.6446Y-4.1449
X6.6812Y-3.6248
X6.6812Y-3.7248
X6.7446Y-4.1449
X6.7812Y-3.6248
X6.7812Y-3.7248
X6.8446Y-4.1449
X6.9839Y-5.6514
X6.9839Y-5.7498
X6.9839Y-5.8482
T3
X6.3875Y-2.6998
X6.3875Y-2.7998
X6.3875Y-2.8998
X6.3875Y-2.9998
X6.3875Y-3.0998
X6.3875Y-3.1998
X6.3875Y-3.2998
X6.3875Y-3.3998
X6.3875Y-3.4998
X6.3875Y-3.5998
X6.3875Y-3.6998
X6.3875Y-3.7998
X6.9875Y-2.6998
X6.9875Y-2.7998
X6.9875Y-2.8998
X6.9875Y-2.9998
X6.9875Y-3.0998
X6.9875Y-3.1998
X6.9875Y-3.2998
X6.9875Y-3.3998
X6.9875Y-3.4998
X6.9875Y-3.5998
X6.9875Y-3.6998
X6.9875Y-3.7998
T5
X3.8748Y-3.8748
X4.5623Y-6.6248
X5.7498Y-5.3748
X5.75Y-3.9688
T4
G00X5.7754Y-2.5293
M15
G01X5.7242Y-2.5293
M16
G05
G00X5.7754Y-2.9703
M15
G01X5.7242Y-2.9703
M16
G05
G00X6.7142Y-5.5293
M15
G01X6.6631Y-5.5293
M16
G05
G00X6.7142Y-5.9703
M15
G01X6.6631Y-5.9703
M16
G05
T0
M30
