%TF.GenerationSoftware,KiCad,Pcbnew,(6.0.0)*%
%TF.CreationDate,2022-02-02T23:37:18-05:00*%
%TF.ProjectId,numpad,6e756d70-6164-42e6-9b69-6361645f7063,rev?*%
%TF.SameCoordinates,Original*%
%TF.FileFunction,Profile,NP*%
%FSLAX46Y46*%
G04 Gerber Fmt 4.6, Leading zero omitted, Abs format (unit mm)*
G04 Created by KiCad (PCBNEW (6.0.0)) date 2022-02-02 23:37:18*
%MOMM*%
%LPD*%
G01*
G04 APERTURE LIST*
%TA.AperFunction,Profile*%
%ADD10C,0.050000*%
%TD*%
%TA.AperFunction,Profile*%
%ADD11C,0.120000*%
%TD*%
G04 APERTURE END LIST*
D10*
X136516400Y-63496000D02*
X136516400Y-75401500D01*
X133341600Y-78576300D02*
X81751100Y-78576300D01*
X78576300Y-81751100D02*
X78576300Y-172232900D01*
X184932100Y-172232900D02*
X184932100Y-63496000D01*
X81751100Y-175407700D02*
X181757300Y-175407700D01*
X181757300Y-60321200D02*
X139691200Y-60321200D01*
X184932100Y-63496000D02*
G75*
G03*
X181757300Y-60321200I-3174799J1D01*
G01*
X133341600Y-78576300D02*
G75*
G03*
X136516400Y-75401500I1J3174799D01*
G01*
X81751100Y-78576300D02*
G75*
G03*
X78576300Y-81751100I-1J-3174799D01*
G01*
X181757300Y-175407700D02*
G75*
G03*
X184932100Y-172232900I1J3174799D01*
G01*
X78576300Y-172232900D02*
G75*
G03*
X81751100Y-175407700I3174799J-1D01*
G01*
X139691200Y-60321200D02*
G75*
G03*
X136516400Y-63496000I-1J-3174799D01*
G01*
D11*
%TO.C,LED8*%
X139732550Y-119270050D02*
X139732550Y-115670050D01*
X142832550Y-115670050D02*
X142832550Y-119270050D01*
X139732550Y-115670050D02*
X142832550Y-115670050D01*
X142832550Y-119270050D02*
X139732550Y-119270050D01*
%TO.C,LED18*%
X171657550Y-168307550D02*
X171657550Y-171407550D01*
X168057550Y-171407550D02*
X168057550Y-168307550D01*
X168057550Y-168307550D02*
X171657550Y-168307550D01*
X171657550Y-171407550D02*
X168057550Y-171407550D01*
%TO.C,LED9*%
X90695050Y-130207550D02*
X90695050Y-133307550D01*
X90695050Y-133307550D02*
X87095050Y-133307550D01*
X87095050Y-130207550D02*
X90695050Y-130207550D01*
X87095050Y-133307550D02*
X87095050Y-130207550D01*
%TO.C,LED6*%
X109745050Y-111157550D02*
X109745050Y-114257550D01*
X106145050Y-111157550D02*
X109745050Y-111157550D01*
X109745050Y-114257550D02*
X106145050Y-114257550D01*
X106145050Y-114257550D02*
X106145050Y-111157550D01*
%TO.C,LED1*%
X87095050Y-92107550D02*
X90695050Y-92107550D01*
X87095050Y-95207550D02*
X87095050Y-92107550D01*
X90695050Y-95207550D02*
X87095050Y-95207550D01*
X90695050Y-92107550D02*
X90695050Y-95207550D01*
%TO.C,LED15*%
X139732550Y-153770050D02*
X142832550Y-153770050D01*
X142832550Y-153770050D02*
X142832550Y-157370050D01*
X139732550Y-157370050D02*
X139732550Y-153770050D01*
X142832550Y-157370050D02*
X139732550Y-157370050D01*
%TO.C,LED2*%
X106145050Y-95207550D02*
X106145050Y-92107550D01*
X106145050Y-92107550D02*
X109745050Y-92107550D01*
X109745050Y-92107550D02*
X109745050Y-95207550D01*
X109745050Y-95207550D02*
X106145050Y-95207550D01*
%TO.C,LED4*%
X147845050Y-92107550D02*
X147845050Y-95207550D01*
X144245050Y-95207550D02*
X144245050Y-92107550D01*
X144245050Y-92107550D02*
X147845050Y-92107550D01*
X147845050Y-95207550D02*
X144245050Y-95207550D01*
%TO.C,LED11*%
X128795050Y-130207550D02*
X128795050Y-133307550D01*
X125195050Y-130207550D02*
X128795050Y-130207550D01*
X128795050Y-133307550D02*
X125195050Y-133307550D01*
X125195050Y-133307550D02*
X125195050Y-130207550D01*
%TO.C,LED10*%
X109745050Y-130207550D02*
X109745050Y-133307550D01*
X106145050Y-133307550D02*
X106145050Y-130207550D01*
X106145050Y-130207550D02*
X109745050Y-130207550D01*
X109745050Y-133307550D02*
X106145050Y-133307550D01*
%TO.C,LED14*%
X125195050Y-149257550D02*
X128795050Y-149257550D01*
X128795050Y-152357550D02*
X125195050Y-152357550D01*
X125195050Y-152357550D02*
X125195050Y-149257550D01*
X128795050Y-149257550D02*
X128795050Y-152357550D01*
%TO.C,LED7*%
X128795050Y-111157550D02*
X128795050Y-114257550D01*
X128795050Y-114257550D02*
X125195050Y-114257550D01*
X125195050Y-114257550D02*
X125195050Y-111157550D01*
X125195050Y-111157550D02*
X128795050Y-111157550D01*
%TO.C,LED17*%
X125195050Y-168307550D02*
X128795050Y-168307550D01*
X128795050Y-171407550D02*
X125195050Y-171407550D01*
X128795050Y-168307550D02*
X128795050Y-171407550D01*
X125195050Y-171407550D02*
X125195050Y-168307550D01*
%TO.C,LED5*%
X87095050Y-114257550D02*
X87095050Y-111157550D01*
X87095050Y-111157550D02*
X90695050Y-111157550D01*
X90695050Y-111157550D02*
X90695050Y-114257550D01*
X90695050Y-114257550D02*
X87095050Y-114257550D01*
%TO.C,LED12*%
X90695050Y-152357550D02*
X87095050Y-152357550D01*
X87095050Y-149257550D02*
X90695050Y-149257550D01*
X90695050Y-149257550D02*
X90695050Y-152357550D01*
X87095050Y-152357550D02*
X87095050Y-149257550D01*
%TO.C,LED16*%
X100220050Y-171407550D02*
X96620050Y-171407550D01*
X96620050Y-168307550D02*
X100220050Y-168307550D01*
X96620050Y-171407550D02*
X96620050Y-168307550D01*
X100220050Y-168307550D02*
X100220050Y-171407550D01*
%TO.C,LED3*%
X128795050Y-92107550D02*
X128795050Y-95207550D01*
X125195050Y-95207550D02*
X125195050Y-92107550D01*
X128795050Y-95207550D02*
X125195050Y-95207550D01*
X125195050Y-92107550D02*
X128795050Y-92107550D01*
%TO.C,LED13*%
X106145050Y-152357550D02*
X106145050Y-149257550D01*
X109745050Y-149257550D02*
X109745050Y-152357550D01*
X109745050Y-152357550D02*
X106145050Y-152357550D01*
X106145050Y-149257550D02*
X109745050Y-149257550D01*
%TD*%
M02*
