%TF.GenerationSoftware,KiCad,Pcbnew,(6.0.0)*%
%TF.CreationDate,2022-02-03T18:26:45-05:00*%
%TF.ProjectId,numpad,6e756d70-6164-42e6-9b69-6361645f7063,rev?*%
%TF.SameCoordinates,Original*%
%TF.FileFunction,Soldermask,Top*%
%TF.FilePolarity,Negative*%
%FSLAX46Y46*%
G04 Gerber Fmt 4.6, Leading zero omitted, Abs format (unit mm)*
G04 Created by KiCad (PCBNEW (6.0.0)) date 2022-02-03 18:26:45*
%MOMM*%
%LPD*%
G01*
G04 APERTURE LIST*
%ADD10C,1.750000*%
%ADD11C,4.000000*%
%ADD12C,3.000000*%
%ADD13R,1.700000X1.700000*%
%ADD14O,1.700000X1.700000*%
%ADD15O,1.600000X2.000000*%
%ADD16C,2.000000*%
%ADD17R,3.200000X2.000000*%
%ADD18R,2.000000X2.000000*%
%ADD19R,1.600000X1.600000*%
%ADD20C,1.600000*%
%ADD21C,6.400000*%
%ADD22C,3.050000*%
G04 APERTURE END LIST*
D10*
%TO.C,MX1*%
X93975050Y-88895050D03*
D11*
X88895050Y-88895050D03*
D12*
X85085050Y-86355050D03*
X91435050Y-83815050D03*
D10*
X83815050Y-88895050D03*
%TD*%
D13*
%TO.C,J1*%
X172243750Y-92069437D03*
D14*
X172243750Y-94609437D03*
X169703750Y-92069437D03*
X169703750Y-94609437D03*
X167163750Y-92069437D03*
X167163750Y-94609437D03*
%TD*%
D15*
%TO.C,OLED1*%
X173851800Y-105280200D03*
X171311800Y-105280200D03*
X166231800Y-105280200D03*
X168771800Y-105280200D03*
%TD*%
D16*
%TO.C,ROT2*%
X162891950Y-143545050D03*
X162891950Y-148545050D03*
D17*
X169891950Y-140445050D03*
X169891950Y-151645050D03*
D16*
X177391950Y-143545050D03*
X177391950Y-146045050D03*
D18*
X177391950Y-148545050D03*
%TD*%
D13*
%TO.C,J2*%
X158750000Y-65722500D03*
D14*
X158750000Y-68262500D03*
X158750000Y-70802500D03*
X158750000Y-73342500D03*
%TD*%
D19*
%TO.C,U1*%
X162242650Y-68575050D03*
D20*
X162242650Y-71115050D03*
X162242650Y-73655050D03*
X162242650Y-76195050D03*
X162242650Y-78735050D03*
X162242650Y-81275050D03*
X162242650Y-83815050D03*
X162242650Y-86355050D03*
X162242650Y-88895050D03*
X162242650Y-91435050D03*
X162242650Y-93975050D03*
X162242650Y-96515050D03*
X177482650Y-96515050D03*
X177482650Y-93975050D03*
X177482650Y-91435050D03*
X177482650Y-88895050D03*
X177482650Y-86355050D03*
X177482650Y-83815050D03*
X177482650Y-81275050D03*
X177482650Y-78735050D03*
X177482650Y-76195050D03*
X177482650Y-73655050D03*
X177482650Y-71115050D03*
X177482650Y-68575050D03*
%TD*%
D21*
%TO.C,H1*%
X115882550Y-168270050D03*
%TD*%
%TO.C,H2*%
X146045050Y-136520050D03*
%TD*%
%TO.C,H3*%
X98420050Y-98420050D03*
%TD*%
%TO.C,H4*%
X146050000Y-100806250D03*
%TD*%
D10*
%TO.C,MX12*%
X93975050Y-146045050D03*
D11*
X88895050Y-146045050D03*
D12*
X85085050Y-143505050D03*
X91435050Y-140965050D03*
D10*
X83815050Y-146045050D03*
%TD*%
%TO.C,MX16*%
X132075050Y-165095050D03*
D11*
X126995050Y-165095050D03*
D12*
X123185050Y-162555050D03*
X129535050Y-160015050D03*
D10*
X121915050Y-165095050D03*
%TD*%
%TO.C,MX7*%
X151125050Y-88895050D03*
D11*
X146045050Y-88895050D03*
D12*
X142235050Y-86355050D03*
X148585050Y-83815050D03*
D10*
X140965050Y-88895050D03*
%TD*%
%TO.C,MX2*%
X113025050Y-88895050D03*
D11*
X107945050Y-88895050D03*
D12*
X104135050Y-86355050D03*
X110485050Y-83815050D03*
D10*
X102865050Y-88895050D03*
%TD*%
D12*
%TO.C,MX18*%
X166047550Y-162555050D03*
D10*
X164777550Y-165095050D03*
X174937550Y-165095050D03*
D12*
X172397550Y-160015050D03*
D11*
X169857550Y-165095050D03*
%TD*%
D22*
%TO.C,MX15*%
X86482050Y-172095050D03*
D12*
X94610050Y-162555050D03*
D22*
X110358050Y-172095050D03*
D11*
X86482050Y-156855050D03*
X110358050Y-156855050D03*
D10*
X93340050Y-165095050D03*
D12*
X100960050Y-160015050D03*
D11*
X98420050Y-165095050D03*
D10*
X103500050Y-165095050D03*
%TD*%
D12*
%TO.C,MX17*%
X151125050Y-158110050D03*
D11*
X137805050Y-143632050D03*
D10*
X146045050Y-160650050D03*
D11*
X137805050Y-167508050D03*
D10*
X146045050Y-150490050D03*
D12*
X148585050Y-151760050D03*
D11*
X146045050Y-155570050D03*
D22*
X153045050Y-167508050D03*
X153045050Y-143632050D03*
%TD*%
D16*
%TO.C,ROT1*%
X139045050Y-67345050D03*
X139045050Y-72345050D03*
D17*
X146045050Y-64245050D03*
X146045050Y-75445050D03*
D16*
X153545050Y-67345050D03*
X153545050Y-69845050D03*
D18*
X153545050Y-72345050D03*
%TD*%
D10*
%TO.C,MX3*%
X132075050Y-88895050D03*
D11*
X126995050Y-88895050D03*
D12*
X123185050Y-86355050D03*
X129535050Y-83815050D03*
D10*
X121915050Y-88895050D03*
%TD*%
%TO.C,MX6*%
X132075050Y-107945050D03*
D11*
X126995050Y-107945050D03*
D12*
X123185050Y-105405050D03*
X129535050Y-102865050D03*
D10*
X121915050Y-107945050D03*
%TD*%
%TO.C,MX13*%
X113025050Y-146045050D03*
D11*
X107945050Y-146045050D03*
D12*
X104135050Y-143505050D03*
X110485050Y-140965050D03*
D10*
X102865050Y-146045050D03*
%TD*%
D12*
%TO.C,MX11*%
X151125050Y-120010050D03*
D11*
X137805050Y-105532050D03*
D10*
X146045050Y-122550050D03*
D11*
X137805050Y-129408050D03*
D10*
X146045050Y-112390050D03*
D12*
X148585050Y-113660050D03*
D11*
X146045050Y-117470050D03*
D22*
X153045050Y-129408050D03*
X153045050Y-105532050D03*
%TD*%
D10*
%TO.C,MX5*%
X113025050Y-107945050D03*
D11*
X107945050Y-107945050D03*
D12*
X104135050Y-105405050D03*
X110485050Y-102865050D03*
D10*
X102865050Y-107945050D03*
%TD*%
%TO.C,MX9*%
X113025050Y-126995050D03*
D11*
X107945050Y-126995050D03*
D12*
X104135050Y-124455050D03*
X110485050Y-121915050D03*
D10*
X102865050Y-126995050D03*
%TD*%
%TO.C,MX10*%
X132075050Y-126995050D03*
D11*
X126995050Y-126995050D03*
D12*
X123185050Y-124455050D03*
X129535050Y-121915050D03*
D10*
X121915050Y-126995050D03*
%TD*%
%TO.C,MX14*%
X132075050Y-146045050D03*
D11*
X126995050Y-146045050D03*
D12*
X123185050Y-143505050D03*
X129535050Y-140965050D03*
D10*
X121915050Y-146045050D03*
%TD*%
%TO.C,MX4*%
X93975050Y-107945050D03*
D11*
X88895050Y-107945050D03*
D12*
X85085050Y-105405050D03*
X91435050Y-102865050D03*
D10*
X83815050Y-107945050D03*
%TD*%
%TO.C,MX8*%
X93975050Y-126995050D03*
D11*
X88895050Y-126995050D03*
D12*
X85085050Y-124455050D03*
X91435050Y-121915050D03*
D10*
X83815050Y-126995050D03*
%TD*%
M02*
