%TF.GenerationSoftware,KiCad,Pcbnew,(5.1.10)-1*%
%TF.CreationDate,2021-11-21T22:57:30-05:00*%
%TF.ProjectId,numpad,6e756d70-6164-42e6-9b69-6361645f7063,rev?*%
%TF.SameCoordinates,Original*%
%TF.FileFunction,Soldermask,Top*%
%TF.FilePolarity,Negative*%
%FSLAX46Y46*%
G04 Gerber Fmt 4.6, Leading zero omitted, Abs format (unit mm)*
G04 Created by KiCad (PCBNEW (5.1.10)-1) date 2021-11-21 22:57:30*
%MOMM*%
%LPD*%
G01*
G04 APERTURE LIST*
%ADD10C,3.050000*%
%ADD11C,4.000000*%
%ADD12C,3.000000*%
%ADD13C,1.750000*%
%ADD14C,6.400000*%
%ADD15C,1.600000*%
%ADD16R,1.600000X1.600000*%
%ADD17O,1.700000X1.700000*%
%ADD18R,1.700000X1.700000*%
%ADD19R,2.000000X2.000000*%
%ADD20C,2.000000*%
%ADD21R,3.200000X2.000000*%
%ADD22O,1.600000X2.000000*%
G04 APERTURE END LIST*
D10*
%TO.C,MX17*%
X153040800Y-167503200D03*
D11*
X137800800Y-167503200D03*
X137800800Y-143627200D03*
D10*
X153040800Y-143627200D03*
D12*
X151120800Y-158105200D03*
X148580800Y-151755200D03*
D13*
X146040800Y-160645200D03*
X146040800Y-150485200D03*
D11*
X146040800Y-155565200D03*
%TD*%
D10*
%TO.C,MX15*%
X86480800Y-172089600D03*
D11*
X86480800Y-156849600D03*
X110356800Y-156849600D03*
D10*
X110356800Y-172089600D03*
D12*
X95878800Y-170169600D03*
X102228800Y-167629600D03*
D13*
X93338800Y-165089600D03*
X103498800Y-165089600D03*
D11*
X98418800Y-165089600D03*
%TD*%
D10*
%TO.C,MX11*%
X153040800Y-129405600D03*
D11*
X137800800Y-129405600D03*
X137800800Y-105529600D03*
D10*
X153040800Y-105529600D03*
D12*
X151120800Y-120007600D03*
X148580800Y-113657600D03*
D13*
X146040800Y-122547600D03*
X146040800Y-112387600D03*
D11*
X146040800Y-117467600D03*
%TD*%
D14*
%TO.C,H4*%
X98418800Y-98418800D03*
%TD*%
%TO.C,H3*%
X156358900Y-99212500D03*
%TD*%
%TO.C,H2*%
X169851800Y-134929000D03*
%TD*%
%TO.C,H1*%
X116673900Y-170645500D03*
%TD*%
D15*
%TO.C,U1*%
X180646600Y-70162200D03*
X180646600Y-72702200D03*
X180646600Y-75242200D03*
X180646600Y-77782200D03*
X180646600Y-80322200D03*
X180646600Y-82862200D03*
X180646600Y-85402200D03*
X180646600Y-87942200D03*
X180646600Y-90482200D03*
X180646600Y-93022200D03*
X180646600Y-95562200D03*
X180646600Y-98102200D03*
X165406600Y-98102200D03*
X165406600Y-95562200D03*
X165406600Y-93022200D03*
X165406600Y-90482200D03*
X165406600Y-87942200D03*
X165406600Y-85402200D03*
X165406600Y-82862200D03*
X165406600Y-80322200D03*
X165406600Y-77782200D03*
X165406600Y-75242200D03*
X165406600Y-72702200D03*
D16*
X165406600Y-70162200D03*
%TD*%
D12*
%TO.C,MX18*%
X172391800Y-160009600D03*
X166041800Y-162549600D03*
D13*
X174931800Y-165089600D03*
X164771800Y-165089600D03*
D11*
X169851800Y-165089600D03*
%TD*%
D12*
%TO.C,MX16*%
X129532000Y-160009600D03*
X123182000Y-162549600D03*
D13*
X132072000Y-165089600D03*
X121912000Y-165089600D03*
D11*
X126992000Y-165089600D03*
%TD*%
D12*
%TO.C,MX10*%
X129532000Y-121912000D03*
X123182000Y-124452000D03*
D13*
X132072000Y-126992000D03*
X121912000Y-126992000D03*
D11*
X126992000Y-126992000D03*
%TD*%
D12*
%TO.C,MX9*%
X110483200Y-121912000D03*
X104133200Y-124452000D03*
D13*
X113023200Y-126992000D03*
X102863200Y-126992000D03*
D11*
X107943200Y-126992000D03*
%TD*%
D12*
%TO.C,MX8*%
X91434400Y-121912000D03*
X85084400Y-124452000D03*
D13*
X93974400Y-126992000D03*
X83814400Y-126992000D03*
D11*
X88894400Y-126992000D03*
%TD*%
D12*
%TO.C,MX7*%
X148580800Y-83814400D03*
X142230800Y-86354400D03*
D13*
X151120800Y-88894400D03*
X140960800Y-88894400D03*
D11*
X146040800Y-88894400D03*
%TD*%
D12*
%TO.C,MX3*%
X129532000Y-83814400D03*
X123182000Y-86354400D03*
D13*
X132072000Y-88894400D03*
X121912000Y-88894400D03*
D11*
X126992000Y-88894400D03*
%TD*%
D12*
%TO.C,MX2*%
X110483200Y-83814400D03*
X104133200Y-86354400D03*
D13*
X113023200Y-88894400D03*
X102863200Y-88894400D03*
D11*
X107943200Y-88894400D03*
%TD*%
D12*
%TO.C,MX1*%
X91434400Y-83814400D03*
X85084400Y-86354400D03*
D13*
X93974400Y-88894400D03*
X83814400Y-88894400D03*
D11*
X88894400Y-88894400D03*
%TD*%
D12*
%TO.C,MX4*%
X91434400Y-102863200D03*
X85084400Y-105403200D03*
D13*
X93974400Y-107943200D03*
X83814400Y-107943200D03*
D11*
X88894400Y-107943200D03*
%TD*%
D12*
%TO.C,MX14*%
X129532000Y-140960800D03*
X123182000Y-143500800D03*
D13*
X132072000Y-146040800D03*
X121912000Y-146040800D03*
D11*
X126992000Y-146040800D03*
%TD*%
D12*
%TO.C,MX13*%
X110483200Y-140960800D03*
X104133200Y-143500800D03*
D13*
X113023200Y-146040800D03*
X102863200Y-146040800D03*
D11*
X107943200Y-146040800D03*
%TD*%
D12*
%TO.C,MX12*%
X91434400Y-140960800D03*
X85084400Y-143500800D03*
D13*
X93974400Y-146040800D03*
X83814400Y-146040800D03*
D11*
X88894400Y-146040800D03*
%TD*%
D12*
%TO.C,MX6*%
X129532000Y-102863200D03*
X123182000Y-105403200D03*
D13*
X132072000Y-107943200D03*
X121912000Y-107943200D03*
D11*
X126992000Y-107943200D03*
%TD*%
D12*
%TO.C,MX5*%
X110483200Y-102863200D03*
X104133200Y-105403200D03*
D13*
X113023200Y-107943200D03*
X102863200Y-107943200D03*
D11*
X107943200Y-107943200D03*
%TD*%
D17*
%TO.C,J2*%
X159533700Y-74290800D03*
X159533700Y-71750800D03*
X159533700Y-69210800D03*
D18*
X159533700Y-66670800D03*
%TD*%
D17*
%TO.C,J1*%
X170327700Y-96196600D03*
X170327700Y-93656600D03*
X172867700Y-96196600D03*
X172867700Y-93656600D03*
X175407700Y-96196600D03*
D18*
X175407700Y-93656600D03*
%TD*%
D19*
%TO.C,ROT2*%
X177391950Y-148421900D03*
D20*
X177391950Y-145921900D03*
X177391950Y-143421900D03*
D21*
X169891950Y-151521900D03*
X169891950Y-140321900D03*
D20*
X162891950Y-148421900D03*
X162891950Y-143421900D03*
%TD*%
D19*
%TO.C,ROT1*%
X153580950Y-72226700D03*
D20*
X153580950Y-69726700D03*
X153580950Y-67226700D03*
D21*
X146080950Y-75326700D03*
X146080950Y-64126700D03*
D20*
X139080950Y-72226700D03*
X139080950Y-67226700D03*
%TD*%
D22*
%TO.C,OLED1*%
X168771800Y-105280200D03*
X166231800Y-105280200D03*
X171311800Y-105280200D03*
X173851800Y-105280200D03*
%TD*%
M02*
