%TF.GenerationSoftware,KiCad,Pcbnew,(5.1.10)-1*%
%TF.CreationDate,2022-01-15T20:36:39-05:00*%
%TF.ProjectId,numpad,6e756d70-6164-42e6-9b69-6361645f7063,rev?*%
%TF.SameCoordinates,Original*%
%TF.FileFunction,Legend,Bot*%
%TF.FilePolarity,Positive*%
%FSLAX46Y46*%
G04 Gerber Fmt 4.6, Leading zero omitted, Abs format (unit mm)*
G04 Created by KiCad (PCBNEW (5.1.10)-1) date 2022-01-15 20:36:39*
%MOMM*%
%LPD*%
G01*
G04 APERTURE LIST*
%ADD10C,0.150000*%
%ADD11C,0.120000*%
%ADD12C,0.010000*%
%ADD13C,0.100000*%
%ADD14R,1.000000X1.000000*%
%ADD15C,4.000000*%
%ADD16C,1.750000*%
%ADD17C,3.000000*%
%ADD18R,2.550000X2.500000*%
%ADD19R,1.800000X0.900000*%
%ADD20R,2.500000X2.550000*%
%ADD21C,3.050000*%
%ADD22R,0.900000X1.800000*%
%ADD23O,1.600000X2.000000*%
%ADD24C,6.400000*%
%ADD25R,1.600000X1.600000*%
%ADD26C,1.600000*%
%ADD27O,1.700000X1.700000*%
%ADD28R,1.700000X1.700000*%
%ADD29C,2.000000*%
%ADD30R,3.200000X2.000000*%
%ADD31R,2.000000X2.000000*%
%ADD32R,1.800000X1.100000*%
G04 APERTURE END LIST*
D10*
X153731276Y-173510776D02*
X153826514Y-173463157D01*
X154016990Y-173463157D01*
X154112228Y-173510776D01*
X154207466Y-173606014D01*
X154255085Y-173701252D01*
X154255085Y-173891728D01*
X154207466Y-173986966D01*
X154112228Y-174082204D01*
X154016990Y-174129823D01*
X153826514Y-174129823D01*
X153731276Y-174082204D01*
X153921752Y-173129823D02*
X154159847Y-173177442D01*
X154397942Y-173320300D01*
X154540800Y-173558395D01*
X154588419Y-173796490D01*
X154540800Y-174034585D01*
X154397942Y-174272680D01*
X154159847Y-174415538D01*
X153921752Y-174463157D01*
X153683657Y-174415538D01*
X153445561Y-174272680D01*
X153302704Y-174034585D01*
X153255085Y-173796490D01*
X153302704Y-173558395D01*
X153445561Y-173320300D01*
X153683657Y-173177442D01*
X153921752Y-173129823D01*
X152112228Y-173367919D02*
X152064609Y-173320300D01*
X151969371Y-173272680D01*
X151731276Y-173272680D01*
X151636038Y-173320300D01*
X151588419Y-173367919D01*
X151540800Y-173463157D01*
X151540800Y-173558395D01*
X151588419Y-173701252D01*
X152159847Y-174272680D01*
X151540800Y-174272680D01*
X150921752Y-173272680D02*
X150826514Y-173272680D01*
X150731276Y-173320300D01*
X150683657Y-173367919D01*
X150636038Y-173463157D01*
X150588419Y-173653633D01*
X150588419Y-173891728D01*
X150636038Y-174082204D01*
X150683657Y-174177442D01*
X150731276Y-174225061D01*
X150826514Y-174272680D01*
X150921752Y-174272680D01*
X151016990Y-174225061D01*
X151064609Y-174177442D01*
X151112228Y-174082204D01*
X151159847Y-173891728D01*
X151159847Y-173653633D01*
X151112228Y-173463157D01*
X151064609Y-173367919D01*
X151016990Y-173320300D01*
X150921752Y-173272680D01*
X150207466Y-173367919D02*
X150159847Y-173320300D01*
X150064609Y-173272680D01*
X149826514Y-173272680D01*
X149731276Y-173320300D01*
X149683657Y-173367919D01*
X149636038Y-173463157D01*
X149636038Y-173558395D01*
X149683657Y-173701252D01*
X150255085Y-174272680D01*
X149636038Y-174272680D01*
X149255085Y-173367919D02*
X149207466Y-173320300D01*
X149112228Y-173272680D01*
X148874133Y-173272680D01*
X148778895Y-173320300D01*
X148731276Y-173367919D01*
X148683657Y-173463157D01*
X148683657Y-173558395D01*
X148731276Y-173701252D01*
X149302704Y-174272680D01*
X148683657Y-174272680D01*
X147493180Y-174272680D02*
X147493180Y-173272680D01*
X147493180Y-173748871D02*
X146921752Y-173748871D01*
X146921752Y-174272680D02*
X146921752Y-173272680D01*
X146302704Y-174272680D02*
X146397942Y-174225061D01*
X146445561Y-174177442D01*
X146493180Y-174082204D01*
X146493180Y-173796490D01*
X146445561Y-173701252D01*
X146397942Y-173653633D01*
X146302704Y-173606014D01*
X146159847Y-173606014D01*
X146064609Y-173653633D01*
X146016990Y-173701252D01*
X145969371Y-173796490D01*
X145969371Y-174082204D01*
X146016990Y-174177442D01*
X146064609Y-174225061D01*
X146159847Y-174272680D01*
X146302704Y-174272680D01*
X145636038Y-173606014D02*
X145445561Y-174272680D01*
X145255085Y-173796490D01*
X145064609Y-174272680D01*
X144874133Y-173606014D01*
X144064609Y-174272680D02*
X144064609Y-173748871D01*
X144112228Y-173653633D01*
X144207466Y-173606014D01*
X144397942Y-173606014D01*
X144493180Y-173653633D01*
X144064609Y-174225061D02*
X144159847Y-174272680D01*
X144397942Y-174272680D01*
X144493180Y-174225061D01*
X144540800Y-174129823D01*
X144540800Y-174034585D01*
X144493180Y-173939347D01*
X144397942Y-173891728D01*
X144159847Y-173891728D01*
X144064609Y-173844109D01*
X143588419Y-174272680D02*
X143588419Y-173606014D01*
X143588419Y-173796490D02*
X143540800Y-173701252D01*
X143493180Y-173653633D01*
X143397942Y-173606014D01*
X143302704Y-173606014D01*
X142540800Y-174272680D02*
X142540800Y-173272680D01*
X142540800Y-174225061D02*
X142636038Y-174272680D01*
X142826514Y-174272680D01*
X142921752Y-174225061D01*
X142969371Y-174177442D01*
X143016990Y-174082204D01*
X143016990Y-173796490D01*
X142969371Y-173701252D01*
X142921752Y-173653633D01*
X142826514Y-173606014D01*
X142636038Y-173606014D01*
X142540800Y-173653633D01*
X141445561Y-173272680D02*
X140874133Y-173272680D01*
X141159847Y-174272680D02*
X141159847Y-173272680D01*
X140588419Y-174225061D02*
X140493180Y-174272680D01*
X140302704Y-174272680D01*
X140207466Y-174225061D01*
X140159847Y-174129823D01*
X140159847Y-174082204D01*
X140207466Y-173986966D01*
X140302704Y-173939347D01*
X140445561Y-173939347D01*
X140540800Y-173891728D01*
X140588419Y-173796490D01*
X140588419Y-173748871D01*
X140540800Y-173653633D01*
X140445561Y-173606014D01*
X140302704Y-173606014D01*
X140207466Y-173653633D01*
X139350323Y-174225061D02*
X139445561Y-174272680D01*
X139636038Y-174272680D01*
X139731276Y-174225061D01*
X139778895Y-174129823D01*
X139778895Y-173748871D01*
X139731276Y-173653633D01*
X139636038Y-173606014D01*
X139445561Y-173606014D01*
X139350323Y-173653633D01*
X139302704Y-173748871D01*
X139302704Y-173844109D01*
X139778895Y-173939347D01*
X138874133Y-173606014D02*
X138874133Y-174272680D01*
X138874133Y-173701252D02*
X138826514Y-173653633D01*
X138731276Y-173606014D01*
X138588419Y-173606014D01*
X138493180Y-173653633D01*
X138445561Y-173748871D01*
X138445561Y-174272680D01*
X137540800Y-173606014D02*
X137540800Y-174415538D01*
X137588419Y-174510776D01*
X137636038Y-174558395D01*
X137731276Y-174606014D01*
X137874133Y-174606014D01*
X137969371Y-174558395D01*
X137540800Y-174225061D02*
X137636038Y-174272680D01*
X137826514Y-174272680D01*
X137921752Y-174225061D01*
X137969371Y-174177442D01*
X138016990Y-174082204D01*
X138016990Y-173796490D01*
X137969371Y-173701252D01*
X137921752Y-173653633D01*
X137826514Y-173606014D01*
X137636038Y-173606014D01*
X137540800Y-173653633D01*
X172691004Y-115538880D02*
X172691004Y-114538880D01*
X172262433Y-115538880D02*
X172262433Y-115015071D01*
X172310052Y-114919833D01*
X172405290Y-114872214D01*
X172548147Y-114872214D01*
X172643385Y-114919833D01*
X172691004Y-114967452D01*
X171643385Y-115538880D02*
X171738623Y-115491261D01*
X171786242Y-115443642D01*
X171833861Y-115348404D01*
X171833861Y-115062690D01*
X171786242Y-114967452D01*
X171738623Y-114919833D01*
X171643385Y-114872214D01*
X171500528Y-114872214D01*
X171405290Y-114919833D01*
X171357671Y-114967452D01*
X171310052Y-115062690D01*
X171310052Y-115348404D01*
X171357671Y-115443642D01*
X171405290Y-115491261D01*
X171500528Y-115538880D01*
X171643385Y-115538880D01*
X170976719Y-114872214D02*
X170786242Y-115538880D01*
X170595766Y-115062690D01*
X170405290Y-115538880D01*
X170214814Y-114872214D01*
X169405290Y-115538880D02*
X169405290Y-115015071D01*
X169452909Y-114919833D01*
X169548147Y-114872214D01*
X169738623Y-114872214D01*
X169833861Y-114919833D01*
X169405290Y-115491261D02*
X169500528Y-115538880D01*
X169738623Y-115538880D01*
X169833861Y-115491261D01*
X169881480Y-115396023D01*
X169881480Y-115300785D01*
X169833861Y-115205547D01*
X169738623Y-115157928D01*
X169500528Y-115157928D01*
X169405290Y-115110309D01*
X168929100Y-115538880D02*
X168929100Y-114872214D01*
X168929100Y-115062690D02*
X168881480Y-114967452D01*
X168833861Y-114919833D01*
X168738623Y-114872214D01*
X168643385Y-114872214D01*
X167881480Y-115538880D02*
X167881480Y-114538880D01*
X167881480Y-115491261D02*
X167976719Y-115538880D01*
X168167195Y-115538880D01*
X168262433Y-115491261D01*
X168310052Y-115443642D01*
X168357671Y-115348404D01*
X168357671Y-115062690D01*
X168310052Y-114967452D01*
X168262433Y-114919833D01*
X168167195Y-114872214D01*
X167976719Y-114872214D01*
X167881480Y-114919833D01*
X167548147Y-114872214D02*
X167167195Y-114872214D01*
X167405290Y-114538880D02*
X167405290Y-115396023D01*
X167357671Y-115491261D01*
X167262433Y-115538880D01*
X167167195Y-115538880D01*
X166310052Y-115538880D02*
X166881480Y-115538880D01*
X166595766Y-115538880D02*
X166595766Y-114538880D01*
X166691004Y-114681738D01*
X166786242Y-114776976D01*
X166881480Y-114824595D01*
X165929100Y-114634119D02*
X165881480Y-114586500D01*
X165786242Y-114538880D01*
X165548147Y-114538880D01*
X165452909Y-114586500D01*
X165405290Y-114634119D01*
X165357671Y-114729357D01*
X165357671Y-114824595D01*
X165405290Y-114967452D01*
X165976719Y-115538880D01*
X165357671Y-115538880D01*
X165024338Y-114538880D02*
X164405290Y-114538880D01*
X164738623Y-114919833D01*
X164595766Y-114919833D01*
X164500528Y-114967452D01*
X164452909Y-115015071D01*
X164405290Y-115110309D01*
X164405290Y-115348404D01*
X164452909Y-115443642D01*
X164500528Y-115491261D01*
X164595766Y-115538880D01*
X164881480Y-115538880D01*
X164976719Y-115491261D01*
X165024338Y-115443642D01*
X163548147Y-114872214D02*
X163548147Y-115538880D01*
X163786242Y-114491261D02*
X164024338Y-115205547D01*
X163405290Y-115205547D01*
X162548147Y-114538880D02*
X163024338Y-114538880D01*
X163071957Y-115015071D01*
X163024338Y-114967452D01*
X162929100Y-114919833D01*
X162691004Y-114919833D01*
X162595766Y-114967452D01*
X162548147Y-115015071D01*
X162500528Y-115110309D01*
X162500528Y-115348404D01*
X162548147Y-115443642D01*
X162595766Y-115491261D01*
X162691004Y-115538880D01*
X162929100Y-115538880D01*
X163024338Y-115491261D01*
X163071957Y-115443642D01*
X162071957Y-115443642D02*
X162024338Y-115491261D01*
X162071957Y-115538880D01*
X162119576Y-115491261D01*
X162071957Y-115443642D01*
X162071957Y-115538880D01*
X161167195Y-115491261D02*
X161262433Y-115538880D01*
X161452909Y-115538880D01*
X161548147Y-115491261D01*
X161595766Y-115443642D01*
X161643385Y-115348404D01*
X161643385Y-115062690D01*
X161595766Y-114967452D01*
X161548147Y-114919833D01*
X161452909Y-114872214D01*
X161262433Y-114872214D01*
X161167195Y-114919833D01*
X160595766Y-115538880D02*
X160691004Y-115491261D01*
X160738623Y-115443642D01*
X160786242Y-115348404D01*
X160786242Y-115062690D01*
X160738623Y-114967452D01*
X160691004Y-114919833D01*
X160595766Y-114872214D01*
X160452909Y-114872214D01*
X160357671Y-114919833D01*
X160310052Y-114967452D01*
X160262433Y-115062690D01*
X160262433Y-115348404D01*
X160310052Y-115443642D01*
X160357671Y-115491261D01*
X160452909Y-115538880D01*
X160595766Y-115538880D01*
X159833861Y-115538880D02*
X159833861Y-114872214D01*
X159833861Y-114967452D02*
X159786242Y-114919833D01*
X159691004Y-114872214D01*
X159548147Y-114872214D01*
X159452909Y-114919833D01*
X159405290Y-115015071D01*
X159405290Y-115538880D01*
X159405290Y-115015071D02*
X159357671Y-114919833D01*
X159262433Y-114872214D01*
X159119576Y-114872214D01*
X159024338Y-114919833D01*
X158976719Y-115015071D01*
X158976719Y-115538880D01*
X172691004Y-111697414D02*
X172691004Y-112364080D01*
X172691004Y-111792652D02*
X172643385Y-111745033D01*
X172548147Y-111697414D01*
X172405290Y-111697414D01*
X172310052Y-111745033D01*
X172262433Y-111840271D01*
X172262433Y-112364080D01*
X171357671Y-111697414D02*
X171357671Y-112364080D01*
X171786242Y-111697414D02*
X171786242Y-112221223D01*
X171738623Y-112316461D01*
X171643385Y-112364080D01*
X171500528Y-112364080D01*
X171405290Y-112316461D01*
X171357671Y-112268842D01*
X170881480Y-112364080D02*
X170881480Y-111697414D01*
X170881480Y-111792652D02*
X170833861Y-111745033D01*
X170738623Y-111697414D01*
X170595766Y-111697414D01*
X170500528Y-111745033D01*
X170452909Y-111840271D01*
X170452909Y-112364080D01*
X170452909Y-111840271D02*
X170405290Y-111745033D01*
X170310052Y-111697414D01*
X170167195Y-111697414D01*
X170071957Y-111745033D01*
X170024338Y-111840271D01*
X170024338Y-112364080D01*
X169548147Y-111697414D02*
X169548147Y-112697414D01*
X169548147Y-111745033D02*
X169452909Y-111697414D01*
X169262433Y-111697414D01*
X169167195Y-111745033D01*
X169119576Y-111792652D01*
X169071957Y-111887890D01*
X169071957Y-112173604D01*
X169119576Y-112268842D01*
X169167195Y-112316461D01*
X169262433Y-112364080D01*
X169452909Y-112364080D01*
X169548147Y-112316461D01*
X168214814Y-112364080D02*
X168214814Y-111840271D01*
X168262433Y-111745033D01*
X168357671Y-111697414D01*
X168548147Y-111697414D01*
X168643385Y-111745033D01*
X168214814Y-112316461D02*
X168310052Y-112364080D01*
X168548147Y-112364080D01*
X168643385Y-112316461D01*
X168691004Y-112221223D01*
X168691004Y-112125985D01*
X168643385Y-112030747D01*
X168548147Y-111983128D01*
X168310052Y-111983128D01*
X168214814Y-111935509D01*
X167310052Y-112364080D02*
X167310052Y-111364080D01*
X167310052Y-112316461D02*
X167405290Y-112364080D01*
X167595766Y-112364080D01*
X167691004Y-112316461D01*
X167738623Y-112268842D01*
X167786242Y-112173604D01*
X167786242Y-111887890D01*
X167738623Y-111792652D01*
X167691004Y-111745033D01*
X167595766Y-111697414D01*
X167405290Y-111697414D01*
X167310052Y-111745033D01*
X166071957Y-111697414D02*
X166071957Y-112697414D01*
X166071957Y-111745033D02*
X165976719Y-111697414D01*
X165786242Y-111697414D01*
X165691004Y-111745033D01*
X165643385Y-111792652D01*
X165595766Y-111887890D01*
X165595766Y-112173604D01*
X165643385Y-112268842D01*
X165691004Y-112316461D01*
X165786242Y-112364080D01*
X165976719Y-112364080D01*
X166071957Y-112316461D01*
X165167195Y-112364080D02*
X165167195Y-111697414D01*
X165167195Y-111887890D02*
X165119576Y-111792652D01*
X165071957Y-111745033D01*
X164976719Y-111697414D01*
X164881480Y-111697414D01*
X164405290Y-112364080D02*
X164500528Y-112316461D01*
X164548147Y-112268842D01*
X164595766Y-112173604D01*
X164595766Y-111887890D01*
X164548147Y-111792652D01*
X164500528Y-111745033D01*
X164405290Y-111697414D01*
X164262433Y-111697414D01*
X164167195Y-111745033D01*
X164119576Y-111792652D01*
X164071957Y-111887890D01*
X164071957Y-112173604D01*
X164119576Y-112268842D01*
X164167195Y-112316461D01*
X164262433Y-112364080D01*
X164405290Y-112364080D01*
X163786242Y-111697414D02*
X163405290Y-111697414D01*
X163643385Y-111364080D02*
X163643385Y-112221223D01*
X163595766Y-112316461D01*
X163500528Y-112364080D01*
X163405290Y-112364080D01*
X162929100Y-112364080D02*
X163024338Y-112316461D01*
X163071957Y-112268842D01*
X163119576Y-112173604D01*
X163119576Y-111887890D01*
X163071957Y-111792652D01*
X163024338Y-111745033D01*
X162929100Y-111697414D01*
X162786242Y-111697414D01*
X162691004Y-111745033D01*
X162643385Y-111792652D01*
X162595766Y-111887890D01*
X162595766Y-112173604D01*
X162643385Y-112268842D01*
X162691004Y-112316461D01*
X162786242Y-112364080D01*
X162929100Y-112364080D01*
X162310052Y-111697414D02*
X161929100Y-111697414D01*
X162167195Y-111364080D02*
X162167195Y-112221223D01*
X162119576Y-112316461D01*
X162024338Y-112364080D01*
X161929100Y-112364080D01*
X161691004Y-111697414D02*
X161452909Y-112364080D01*
X161214814Y-111697414D02*
X161452909Y-112364080D01*
X161548147Y-112602176D01*
X161595766Y-112649795D01*
X161691004Y-112697414D01*
X160833861Y-111697414D02*
X160833861Y-112697414D01*
X160833861Y-111745033D02*
X160738623Y-111697414D01*
X160548147Y-111697414D01*
X160452909Y-111745033D01*
X160405290Y-111792652D01*
X160357671Y-111887890D01*
X160357671Y-112173604D01*
X160405290Y-112268842D01*
X160452909Y-112316461D01*
X160548147Y-112364080D01*
X160738623Y-112364080D01*
X160833861Y-112316461D01*
X159548147Y-112316461D02*
X159643385Y-112364080D01*
X159833861Y-112364080D01*
X159929100Y-112316461D01*
X159976719Y-112221223D01*
X159976719Y-111840271D01*
X159929100Y-111745033D01*
X159833861Y-111697414D01*
X159643385Y-111697414D01*
X159548147Y-111745033D01*
X159500528Y-111840271D01*
X159500528Y-111935509D01*
X159976719Y-112030747D01*
X157786242Y-112364080D02*
X158357671Y-112364080D01*
X158071957Y-112364080D02*
X158071957Y-111364080D01*
X158167195Y-111506938D01*
X158262433Y-111602176D01*
X158357671Y-111649795D01*
X172691004Y-113951480D02*
X172691004Y-112951480D01*
X172595766Y-113570528D02*
X172310052Y-113951480D01*
X172310052Y-113284814D02*
X172691004Y-113665766D01*
X171881480Y-113951480D02*
X171881480Y-112951480D01*
X171881480Y-113332433D02*
X171786242Y-113284814D01*
X171595766Y-113284814D01*
X171500528Y-113332433D01*
X171452909Y-113380052D01*
X171405290Y-113475290D01*
X171405290Y-113761004D01*
X171452909Y-113856242D01*
X171500528Y-113903861D01*
X171595766Y-113951480D01*
X171786242Y-113951480D01*
X171881480Y-113903861D01*
X170976719Y-113856242D02*
X170929100Y-113903861D01*
X170976719Y-113951480D01*
X171024338Y-113903861D01*
X170976719Y-113856242D01*
X170976719Y-113951480D01*
X170500528Y-113951480D02*
X170500528Y-112951480D01*
X170071957Y-113951480D02*
X170071957Y-113427671D01*
X170119576Y-113332433D01*
X170214814Y-113284814D01*
X170357671Y-113284814D01*
X170452909Y-113332433D01*
X170500528Y-113380052D01*
X169738623Y-113284814D02*
X169357671Y-113284814D01*
X169595766Y-112951480D02*
X169595766Y-113808623D01*
X169548147Y-113903861D01*
X169452909Y-113951480D01*
X169357671Y-113951480D01*
X168500528Y-113951480D02*
X169071957Y-113951480D01*
X168786242Y-113951480D02*
X168786242Y-112951480D01*
X168881480Y-113094338D01*
X168976719Y-113189576D01*
X169071957Y-113237195D01*
X168119576Y-113046719D02*
X168071957Y-112999100D01*
X167976719Y-112951480D01*
X167738623Y-112951480D01*
X167643385Y-112999100D01*
X167595766Y-113046719D01*
X167548147Y-113141957D01*
X167548147Y-113237195D01*
X167595766Y-113380052D01*
X168167195Y-113951480D01*
X167548147Y-113951480D01*
X167214814Y-112951480D02*
X166595766Y-112951480D01*
X166929100Y-113332433D01*
X166786242Y-113332433D01*
X166691004Y-113380052D01*
X166643385Y-113427671D01*
X166595766Y-113522909D01*
X166595766Y-113761004D01*
X166643385Y-113856242D01*
X166691004Y-113903861D01*
X166786242Y-113951480D01*
X167071957Y-113951480D01*
X167167195Y-113903861D01*
X167214814Y-113856242D01*
X165738623Y-113284814D02*
X165738623Y-113951480D01*
X165976719Y-112903861D02*
X166214814Y-113618147D01*
X165595766Y-113618147D01*
X164738623Y-112951480D02*
X165214814Y-112951480D01*
X165262433Y-113427671D01*
X165214814Y-113380052D01*
X165119576Y-113332433D01*
X164881480Y-113332433D01*
X164786242Y-113380052D01*
X164738623Y-113427671D01*
X164691004Y-113522909D01*
X164691004Y-113761004D01*
X164738623Y-113856242D01*
X164786242Y-113903861D01*
X164881480Y-113951480D01*
X165119576Y-113951480D01*
X165214814Y-113903861D01*
X165262433Y-113856242D01*
X164262433Y-113856242D02*
X164214814Y-113903861D01*
X164262433Y-113951480D01*
X164310052Y-113903861D01*
X164262433Y-113856242D01*
X164262433Y-113951480D01*
X163881480Y-113951480D02*
X163357671Y-113284814D01*
X163881480Y-113284814D02*
X163357671Y-113951480D01*
X163071957Y-113284814D02*
X162833861Y-113951480D01*
X162595766Y-113284814D02*
X162833861Y-113951480D01*
X162929100Y-114189576D01*
X162976719Y-114237195D01*
X163071957Y-114284814D01*
X162310052Y-113284814D02*
X161786242Y-113284814D01*
X162310052Y-113951480D01*
X161786242Y-113951480D01*
X160691004Y-112903861D02*
X161548147Y-114189576D01*
X160357671Y-113284814D02*
X160357671Y-113951480D01*
X160357671Y-113380052D02*
X160310052Y-113332433D01*
X160214814Y-113284814D01*
X160071957Y-113284814D01*
X159976719Y-113332433D01*
X159929100Y-113427671D01*
X159929100Y-113951480D01*
X159024338Y-113284814D02*
X159024338Y-113951480D01*
X159452909Y-113284814D02*
X159452909Y-113808623D01*
X159405290Y-113903861D01*
X159310052Y-113951480D01*
X159167195Y-113951480D01*
X159071957Y-113903861D01*
X159024338Y-113856242D01*
X158548147Y-113951480D02*
X158548147Y-113284814D01*
X158548147Y-113380052D02*
X158500528Y-113332433D01*
X158405290Y-113284814D01*
X158262433Y-113284814D01*
X158167195Y-113332433D01*
X158119576Y-113427671D01*
X158119576Y-113951480D01*
X158119576Y-113427671D02*
X158071957Y-113332433D01*
X157976719Y-113284814D01*
X157833861Y-113284814D01*
X157738623Y-113332433D01*
X157691004Y-113427671D01*
X157691004Y-113951480D01*
X157214814Y-113284814D02*
X157214814Y-114284814D01*
X157214814Y-113332433D02*
X157119576Y-113284814D01*
X156929100Y-113284814D01*
X156833861Y-113332433D01*
X156786242Y-113380052D01*
X156738623Y-113475290D01*
X156738623Y-113761004D01*
X156786242Y-113856242D01*
X156833861Y-113903861D01*
X156929100Y-113951480D01*
X157119576Y-113951480D01*
X157214814Y-113903861D01*
X155881480Y-113951480D02*
X155881480Y-113427671D01*
X155929100Y-113332433D01*
X156024338Y-113284814D01*
X156214814Y-113284814D01*
X156310052Y-113332433D01*
X155881480Y-113903861D02*
X155976719Y-113951480D01*
X156214814Y-113951480D01*
X156310052Y-113903861D01*
X156357671Y-113808623D01*
X156357671Y-113713385D01*
X156310052Y-113618147D01*
X156214814Y-113570528D01*
X155976719Y-113570528D01*
X155881480Y-113522909D01*
X154976719Y-113951480D02*
X154976719Y-112951480D01*
X154976719Y-113903861D02*
X155071957Y-113951480D01*
X155262433Y-113951480D01*
X155357671Y-113903861D01*
X155405290Y-113856242D01*
X155452909Y-113761004D01*
X155452909Y-113475290D01*
X155405290Y-113380052D01*
X155357671Y-113332433D01*
X155262433Y-113284814D01*
X155071957Y-113284814D01*
X154976719Y-113332433D01*
X173820300Y-110324300D02*
X173820300Y-116673900D01*
X169738476Y-91727880D02*
X170071809Y-91251690D01*
X170309904Y-91727880D02*
X170309904Y-90727880D01*
X169928952Y-90727880D01*
X169833714Y-90775500D01*
X169786095Y-90823119D01*
X169738476Y-90918357D01*
X169738476Y-91061214D01*
X169786095Y-91156452D01*
X169833714Y-91204071D01*
X169928952Y-91251690D01*
X170309904Y-91251690D01*
X169357523Y-91680261D02*
X169214666Y-91727880D01*
X168976571Y-91727880D01*
X168881333Y-91680261D01*
X168833714Y-91632642D01*
X168786095Y-91537404D01*
X168786095Y-91442166D01*
X168833714Y-91346928D01*
X168881333Y-91299309D01*
X168976571Y-91251690D01*
X169167047Y-91204071D01*
X169262285Y-91156452D01*
X169309904Y-91108833D01*
X169357523Y-91013595D01*
X169357523Y-90918357D01*
X169309904Y-90823119D01*
X169262285Y-90775500D01*
X169167047Y-90727880D01*
X168928952Y-90727880D01*
X168786095Y-90775500D01*
X168500380Y-90727880D02*
X167928952Y-90727880D01*
X168214666Y-91727880D02*
X168214666Y-90727880D01*
X174717076Y-91680261D02*
X174574219Y-91727880D01*
X174336123Y-91727880D01*
X174240885Y-91680261D01*
X174193266Y-91632642D01*
X174145647Y-91537404D01*
X174145647Y-91442166D01*
X174193266Y-91346928D01*
X174240885Y-91299309D01*
X174336123Y-91251690D01*
X174526600Y-91204071D01*
X174621838Y-91156452D01*
X174669457Y-91108833D01*
X174717076Y-91013595D01*
X174717076Y-90918357D01*
X174669457Y-90823119D01*
X174621838Y-90775500D01*
X174526600Y-90727880D01*
X174288504Y-90727880D01*
X174145647Y-90775500D01*
X173145647Y-91632642D02*
X173193266Y-91680261D01*
X173336123Y-91727880D01*
X173431361Y-91727880D01*
X173574219Y-91680261D01*
X173669457Y-91585023D01*
X173717076Y-91489785D01*
X173764695Y-91299309D01*
X173764695Y-91156452D01*
X173717076Y-90965976D01*
X173669457Y-90870738D01*
X173574219Y-90775500D01*
X173431361Y-90727880D01*
X173336123Y-90727880D01*
X173193266Y-90775500D01*
X173145647Y-90823119D01*
X172240885Y-91727880D02*
X172717076Y-91727880D01*
X172717076Y-90727880D01*
X171907552Y-91727880D02*
X171907552Y-90727880D01*
X171336123Y-91727880D02*
X171764695Y-91156452D01*
X171336123Y-90727880D02*
X171907552Y-91299309D01*
X178886152Y-91727880D02*
X178886152Y-90727880D01*
X178552819Y-91442166D01*
X178219485Y-90727880D01*
X178219485Y-91727880D01*
X177743295Y-91727880D02*
X177743295Y-90727880D01*
X177314723Y-91680261D02*
X177171866Y-91727880D01*
X176933771Y-91727880D01*
X176838533Y-91680261D01*
X176790914Y-91632642D01*
X176743295Y-91537404D01*
X176743295Y-91442166D01*
X176790914Y-91346928D01*
X176838533Y-91299309D01*
X176933771Y-91251690D01*
X177124247Y-91204071D01*
X177219485Y-91156452D01*
X177267104Y-91108833D01*
X177314723Y-91013595D01*
X177314723Y-90918357D01*
X177267104Y-90823119D01*
X177219485Y-90775500D01*
X177124247Y-90727880D01*
X176886152Y-90727880D01*
X176743295Y-90775500D01*
X176124247Y-90727880D02*
X175933771Y-90727880D01*
X175838533Y-90775500D01*
X175743295Y-90870738D01*
X175695676Y-91061214D01*
X175695676Y-91394547D01*
X175743295Y-91585023D01*
X175838533Y-91680261D01*
X175933771Y-91727880D01*
X176124247Y-91727880D01*
X176219485Y-91680261D01*
X176314723Y-91585023D01*
X176362342Y-91394547D01*
X176362342Y-91061214D01*
X176314723Y-90870738D01*
X176219485Y-90775500D01*
X176124247Y-90727880D01*
X178267104Y-97871180D02*
X177933771Y-98871180D01*
X177600438Y-97871180D01*
X176695676Y-98775942D02*
X176743295Y-98823561D01*
X176886152Y-98871180D01*
X176981390Y-98871180D01*
X177124247Y-98823561D01*
X177219485Y-98728323D01*
X177267104Y-98633085D01*
X177314723Y-98442609D01*
X177314723Y-98299752D01*
X177267104Y-98109276D01*
X177219485Y-98014038D01*
X177124247Y-97918800D01*
X176981390Y-97871180D01*
X176886152Y-97871180D01*
X176743295Y-97918800D01*
X176695676Y-97966419D01*
X175695676Y-98775942D02*
X175743295Y-98823561D01*
X175886152Y-98871180D01*
X175981390Y-98871180D01*
X176124247Y-98823561D01*
X176219485Y-98728323D01*
X176267104Y-98633085D01*
X176314723Y-98442609D01*
X176314723Y-98299752D01*
X176267104Y-98109276D01*
X176219485Y-98014038D01*
X176124247Y-97918800D01*
X175981390Y-97871180D01*
X175886152Y-97871180D01*
X175743295Y-97918800D01*
X175695676Y-97966419D01*
X174598028Y-98871180D02*
X174598028Y-97871180D01*
X174264695Y-98585466D01*
X173931361Y-97871180D01*
X173931361Y-98871180D01*
X173264695Y-97871180D02*
X173074219Y-97871180D01*
X172978980Y-97918800D01*
X172883742Y-98014038D01*
X172836123Y-98204514D01*
X172836123Y-98537847D01*
X172883742Y-98728323D01*
X172978980Y-98823561D01*
X173074219Y-98871180D01*
X173264695Y-98871180D01*
X173359933Y-98823561D01*
X173455171Y-98728323D01*
X173502790Y-98537847D01*
X173502790Y-98204514D01*
X173455171Y-98014038D01*
X173359933Y-97918800D01*
X173264695Y-97871180D01*
X172455171Y-98823561D02*
X172312314Y-98871180D01*
X172074219Y-98871180D01*
X171978980Y-98823561D01*
X171931361Y-98775942D01*
X171883742Y-98680704D01*
X171883742Y-98585466D01*
X171931361Y-98490228D01*
X171978980Y-98442609D01*
X172074219Y-98394990D01*
X172264695Y-98347371D01*
X172359933Y-98299752D01*
X172407552Y-98252133D01*
X172455171Y-98156895D01*
X172455171Y-98061657D01*
X172407552Y-97966419D01*
X172359933Y-97918800D01*
X172264695Y-97871180D01*
X172026600Y-97871180D01*
X171883742Y-97918800D01*
X171455171Y-98871180D02*
X171455171Y-97871180D01*
X169786095Y-97918800D02*
X169881333Y-97871180D01*
X170024190Y-97871180D01*
X170167047Y-97918800D01*
X170262285Y-98014038D01*
X170309904Y-98109276D01*
X170357523Y-98299752D01*
X170357523Y-98442609D01*
X170309904Y-98633085D01*
X170262285Y-98728323D01*
X170167047Y-98823561D01*
X170024190Y-98871180D01*
X169928952Y-98871180D01*
X169786095Y-98823561D01*
X169738476Y-98775942D01*
X169738476Y-98442609D01*
X169928952Y-98442609D01*
X169309904Y-98871180D02*
X169309904Y-97871180D01*
X168738476Y-98871180D01*
X168738476Y-97871180D01*
X168262285Y-98871180D02*
X168262285Y-97871180D01*
X168024190Y-97871180D01*
X167881333Y-97918800D01*
X167786095Y-98014038D01*
X167738476Y-98109276D01*
X167690857Y-98299752D01*
X167690857Y-98442609D01*
X167738476Y-98633085D01*
X167786095Y-98728323D01*
X167881333Y-98823561D01*
X168024190Y-98871180D01*
X168262285Y-98871180D01*
X157753561Y-66123180D02*
X157420228Y-67123180D01*
X157086895Y-66123180D01*
X156182133Y-67027942D02*
X156229752Y-67075561D01*
X156372609Y-67123180D01*
X156467847Y-67123180D01*
X156610704Y-67075561D01*
X156705942Y-66980323D01*
X156753561Y-66885085D01*
X156801180Y-66694609D01*
X156801180Y-66551752D01*
X156753561Y-66361276D01*
X156705942Y-66266038D01*
X156610704Y-66170800D01*
X156467847Y-66123180D01*
X156372609Y-66123180D01*
X156229752Y-66170800D01*
X156182133Y-66218419D01*
X155182133Y-67027942D02*
X155229752Y-67075561D01*
X155372609Y-67123180D01*
X155467847Y-67123180D01*
X155610704Y-67075561D01*
X155705942Y-66980323D01*
X155753561Y-66885085D01*
X155801180Y-66694609D01*
X155801180Y-66551752D01*
X155753561Y-66361276D01*
X155705942Y-66266038D01*
X155610704Y-66170800D01*
X155467847Y-66123180D01*
X155372609Y-66123180D01*
X155229752Y-66170800D01*
X155182133Y-66218419D01*
X157086895Y-74107800D02*
X157182133Y-74060180D01*
X157324990Y-74060180D01*
X157467847Y-74107800D01*
X157563085Y-74203038D01*
X157610704Y-74298276D01*
X157658323Y-74488752D01*
X157658323Y-74631609D01*
X157610704Y-74822085D01*
X157563085Y-74917323D01*
X157467847Y-75012561D01*
X157324990Y-75060180D01*
X157229752Y-75060180D01*
X157086895Y-75012561D01*
X157039276Y-74964942D01*
X157039276Y-74631609D01*
X157229752Y-74631609D01*
X156610704Y-75060180D02*
X156610704Y-74060180D01*
X156039276Y-75060180D01*
X156039276Y-74060180D01*
X155563085Y-75060180D02*
X155563085Y-74060180D01*
X155324990Y-74060180D01*
X155182133Y-74107800D01*
X155086895Y-74203038D01*
X155039276Y-74298276D01*
X154991657Y-74488752D01*
X154991657Y-74631609D01*
X155039276Y-74822085D01*
X155086895Y-74917323D01*
X155182133Y-75012561D01*
X155324990Y-75060180D01*
X155563085Y-75060180D01*
X157039276Y-72282230D02*
X157372609Y-71806040D01*
X157610704Y-72282230D02*
X157610704Y-71282230D01*
X157229752Y-71282230D01*
X157134514Y-71329850D01*
X157086895Y-71377469D01*
X157039276Y-71472707D01*
X157039276Y-71615564D01*
X157086895Y-71710802D01*
X157134514Y-71758421D01*
X157229752Y-71806040D01*
X157610704Y-71806040D01*
X156705942Y-71282230D02*
X156039276Y-72282230D01*
X156039276Y-71282230D02*
X156705942Y-72282230D01*
X157753561Y-68901130D02*
X157182133Y-68901130D01*
X157467847Y-69901130D02*
X157467847Y-68901130D01*
X156944038Y-68901130D02*
X156277371Y-69901130D01*
X156277371Y-68901130D02*
X156944038Y-69901130D01*
D11*
%TO.C,RD2*%
X156840000Y-143716000D02*
X159990000Y-143716000D01*
X156840000Y-142016000D02*
X159990000Y-142016000D01*
X156840000Y-143716000D02*
X156840000Y-142016000D01*
%TO.C,RD1*%
X142128600Y-78888900D02*
X142128600Y-75738900D01*
X140428600Y-78888900D02*
X140428600Y-75738900D01*
X142128600Y-78888900D02*
X140428600Y-78888900D01*
%TO.C,D18*%
X178638800Y-166989600D02*
X178638800Y-163839600D01*
X176938800Y-166989600D02*
X176938800Y-163839600D01*
X178638800Y-166989600D02*
X176938800Y-166989600D01*
%TO.C,D17*%
X144140800Y-165145900D02*
X147290800Y-165145900D01*
X144140800Y-163445900D02*
X147290800Y-163445900D01*
X144140800Y-165145900D02*
X144140800Y-163445900D01*
%TO.C,D16*%
X137366400Y-163021100D02*
X137366400Y-159871100D01*
X135666400Y-163021100D02*
X135666400Y-159871100D01*
X137366400Y-163021100D02*
X135666400Y-163021100D01*
%TO.C,D15*%
X89631800Y-163189600D02*
X89631800Y-166339600D01*
X91331800Y-163189600D02*
X91331800Y-166339600D01*
X89631800Y-163189600D02*
X91331800Y-163189600D01*
%TO.C,D14*%
X140003800Y-137253800D02*
X136853800Y-137253800D01*
X140003800Y-138953800D02*
X136853800Y-138953800D01*
X140003800Y-137253800D02*
X140003800Y-138953800D01*
%TO.C,D13*%
X116730200Y-147940800D02*
X116730200Y-144790800D01*
X115030200Y-147940800D02*
X115030200Y-144790800D01*
X116730200Y-147940800D02*
X115030200Y-147940800D01*
%TO.C,D12*%
X97681400Y-147940800D02*
X97681400Y-144790800D01*
X95981400Y-147940800D02*
X95981400Y-144790800D01*
X97681400Y-147940800D02*
X95981400Y-147940800D01*
%TO.C,D11*%
X144140800Y-127048300D02*
X147290800Y-127048300D01*
X144140800Y-125348300D02*
X147290800Y-125348300D01*
X144140800Y-127048300D02*
X144140800Y-125348300D01*
%TO.C,D10*%
X137366400Y-124923500D02*
X137366400Y-121773500D01*
X135666400Y-124923500D02*
X135666400Y-121773500D01*
X137366400Y-124923500D02*
X135666400Y-124923500D01*
%TO.C,D9*%
X116730200Y-128892000D02*
X116730200Y-125742000D01*
X115030200Y-128892000D02*
X115030200Y-125742000D01*
X116730200Y-128892000D02*
X115030200Y-128892000D01*
%TO.C,D8*%
X97681400Y-128892000D02*
X97681400Y-125742000D01*
X95981400Y-128892000D02*
X95981400Y-125742000D01*
X97681400Y-128892000D02*
X95981400Y-128892000D01*
%TO.C,D7*%
X154827800Y-90794400D02*
X154827800Y-87644400D01*
X153127800Y-90794400D02*
X153127800Y-87644400D01*
X154827800Y-90794400D02*
X153127800Y-90794400D01*
%TO.C,D6*%
X140003800Y-98362500D02*
X136853800Y-98362500D01*
X140003800Y-100062500D02*
X136853800Y-100062500D01*
X140003800Y-98362500D02*
X140003800Y-100062500D01*
%TO.C,D5*%
X116730200Y-109843200D02*
X116730200Y-106693200D01*
X115030200Y-109843200D02*
X115030200Y-106693200D01*
X116730200Y-109843200D02*
X115030200Y-109843200D01*
%TO.C,D4*%
X97681400Y-109843200D02*
X97681400Y-106693200D01*
X95981400Y-109843200D02*
X95981400Y-106693200D01*
X97681400Y-109843200D02*
X95981400Y-109843200D01*
%TO.C,D3*%
X135779000Y-90794400D02*
X135779000Y-87644400D01*
X134079000Y-90794400D02*
X134079000Y-87644400D01*
X135779000Y-90794400D02*
X134079000Y-90794400D01*
%TO.C,D2*%
X116730200Y-90794400D02*
X116730200Y-87644400D01*
X115030200Y-90794400D02*
X115030200Y-87644400D01*
X116730200Y-90794400D02*
X115030200Y-90794400D01*
%TO.C,D1*%
X97681400Y-90794400D02*
X97681400Y-87644400D01*
X95981400Y-90794400D02*
X95981400Y-87644400D01*
X97681400Y-90794400D02*
X95981400Y-90794400D01*
%TO.C,MX7*%
X144040800Y-92144400D02*
X144040800Y-92444400D01*
X144340800Y-92144400D02*
X144040800Y-92144400D01*
%TO.C,MX18*%
X168151800Y-168339600D02*
X167851800Y-168339600D01*
X167851800Y-168339600D02*
X167851800Y-168639600D01*
D12*
%TO.C,LOGO3*%
G36*
X161973321Y-122371344D02*
G01*
X161912414Y-122381195D01*
X161866487Y-122404974D01*
X161817646Y-122448706D01*
X161810560Y-122455759D01*
X161757055Y-122516454D01*
X161731607Y-122573314D01*
X161724341Y-122650986D01*
X161724200Y-122671259D01*
X161745189Y-122796693D01*
X161805285Y-122892775D01*
X161900184Y-122956533D01*
X162025583Y-122985000D01*
X162167246Y-122976954D01*
X162279832Y-122935202D01*
X162359846Y-122856519D01*
X162403224Y-122746024D01*
X162410000Y-122671259D01*
X162405193Y-122586441D01*
X162384187Y-122527381D01*
X162337104Y-122469433D01*
X162323640Y-122455760D01*
X162273205Y-122409157D01*
X162227885Y-122383248D01*
X162169786Y-122372008D01*
X162081017Y-122369416D01*
X162067100Y-122369399D01*
X161973321Y-122371344D01*
G37*
X161973321Y-122371344D02*
X161912414Y-122381195D01*
X161866487Y-122404974D01*
X161817646Y-122448706D01*
X161810560Y-122455759D01*
X161757055Y-122516454D01*
X161731607Y-122573314D01*
X161724341Y-122650986D01*
X161724200Y-122671259D01*
X161745189Y-122796693D01*
X161805285Y-122892775D01*
X161900184Y-122956533D01*
X162025583Y-122985000D01*
X162167246Y-122976954D01*
X162279832Y-122935202D01*
X162359846Y-122856519D01*
X162403224Y-122746024D01*
X162410000Y-122671259D01*
X162405193Y-122586441D01*
X162384187Y-122527381D01*
X162337104Y-122469433D01*
X162323640Y-122455760D01*
X162273205Y-122409157D01*
X162227885Y-122383248D01*
X162169786Y-122372008D01*
X162081017Y-122369416D01*
X162067100Y-122369399D01*
X161973321Y-122371344D01*
G36*
X157507800Y-125214200D02*
G01*
X158117400Y-125214200D01*
X158117400Y-122369400D01*
X157507800Y-122369400D01*
X157507800Y-125214200D01*
G37*
X157507800Y-125214200D02*
X158117400Y-125214200D01*
X158117400Y-122369400D01*
X157507800Y-122369400D01*
X157507800Y-125214200D01*
G36*
X161775000Y-125214200D02*
G01*
X162384600Y-125214200D01*
X162384600Y-123283800D01*
X161775000Y-123283800D01*
X161775000Y-125214200D01*
G37*
X161775000Y-125214200D02*
X162384600Y-125214200D01*
X162384600Y-123283800D01*
X161775000Y-123283800D01*
X161775000Y-125214200D01*
G36*
X165029206Y-122604350D02*
G01*
X165008760Y-122670241D01*
X164977246Y-122774097D01*
X164936675Y-122909111D01*
X164889060Y-123068474D01*
X164836413Y-123245379D01*
X164780745Y-123433019D01*
X164724069Y-123624586D01*
X164668396Y-123813273D01*
X164615740Y-123992273D01*
X164568111Y-124154777D01*
X164527522Y-124293979D01*
X164495986Y-124403070D01*
X164475513Y-124475244D01*
X164468722Y-124500658D01*
X164454299Y-124549365D01*
X164445971Y-124549795D01*
X164444552Y-124535922D01*
X164437124Y-124502818D01*
X164416983Y-124427445D01*
X164385997Y-124316197D01*
X164346034Y-124175469D01*
X164298962Y-124011654D01*
X164246649Y-123831146D01*
X164190963Y-123640339D01*
X164133772Y-123445627D01*
X164076945Y-123253403D01*
X164022350Y-123070061D01*
X163971854Y-122901996D01*
X163927325Y-122755602D01*
X163890633Y-122637271D01*
X163880205Y-122604350D01*
X163853861Y-122521800D01*
X163522913Y-122521800D01*
X163382096Y-122522934D01*
X163286114Y-122526730D01*
X163229042Y-122533778D01*
X163204957Y-122544666D01*
X163203971Y-122553550D01*
X163214298Y-122582927D01*
X163239622Y-122655847D01*
X163278393Y-122767823D01*
X163329062Y-122914368D01*
X163390078Y-123090995D01*
X163459891Y-123293217D01*
X163536951Y-123516548D01*
X163619707Y-123756502D01*
X163669093Y-123899750D01*
X164122209Y-125214200D01*
X164818462Y-125214200D01*
X164894315Y-124991950D01*
X164918269Y-124921695D01*
X164956531Y-124809382D01*
X165007049Y-124661043D01*
X165067768Y-124482711D01*
X165136634Y-124280419D01*
X165211593Y-124060202D01*
X165290591Y-123828092D01*
X165352643Y-123645750D01*
X165735118Y-122521800D01*
X165055540Y-122521800D01*
X165029206Y-122604350D01*
G37*
X165029206Y-122604350D02*
X165008760Y-122670241D01*
X164977246Y-122774097D01*
X164936675Y-122909111D01*
X164889060Y-123068474D01*
X164836413Y-123245379D01*
X164780745Y-123433019D01*
X164724069Y-123624586D01*
X164668396Y-123813273D01*
X164615740Y-123992273D01*
X164568111Y-124154777D01*
X164527522Y-124293979D01*
X164495986Y-124403070D01*
X164475513Y-124475244D01*
X164468722Y-124500658D01*
X164454299Y-124549365D01*
X164445971Y-124549795D01*
X164444552Y-124535922D01*
X164437124Y-124502818D01*
X164416983Y-124427445D01*
X164385997Y-124316197D01*
X164346034Y-124175469D01*
X164298962Y-124011654D01*
X164246649Y-123831146D01*
X164190963Y-123640339D01*
X164133772Y-123445627D01*
X164076945Y-123253403D01*
X164022350Y-123070061D01*
X163971854Y-122901996D01*
X163927325Y-122755602D01*
X163890633Y-122637271D01*
X163880205Y-122604350D01*
X163853861Y-122521800D01*
X163522913Y-122521800D01*
X163382096Y-122522934D01*
X163286114Y-122526730D01*
X163229042Y-122533778D01*
X163204957Y-122544666D01*
X163203971Y-122553550D01*
X163214298Y-122582927D01*
X163239622Y-122655847D01*
X163278393Y-122767823D01*
X163329062Y-122914368D01*
X163390078Y-123090995D01*
X163459891Y-123293217D01*
X163536951Y-123516548D01*
X163619707Y-123756502D01*
X163669093Y-123899750D01*
X164122209Y-125214200D01*
X164818462Y-125214200D01*
X164894315Y-124991950D01*
X164918269Y-124921695D01*
X164956531Y-124809382D01*
X165007049Y-124661043D01*
X165067768Y-124482711D01*
X165136634Y-124280419D01*
X165211593Y-124060202D01*
X165290591Y-123828092D01*
X165352643Y-123645750D01*
X165735118Y-122521800D01*
X165055540Y-122521800D01*
X165029206Y-122604350D01*
G36*
X159817433Y-123246607D02*
G01*
X159715767Y-123248609D01*
X159642905Y-123254333D01*
X159587851Y-123265502D01*
X159539606Y-123283842D01*
X159487173Y-123311077D01*
X159463600Y-123324265D01*
X159325532Y-123430351D01*
X159221204Y-123573130D01*
X159152486Y-123749735D01*
X159135796Y-123826848D01*
X159127853Y-123898156D01*
X159120795Y-124010733D01*
X159114964Y-124155049D01*
X159110702Y-124321576D01*
X159108353Y-124500784D01*
X159108000Y-124600330D01*
X159108000Y-125214200D01*
X159692200Y-125214200D01*
X159692200Y-124975290D01*
X159787450Y-125068104D01*
X159889517Y-125152069D01*
X159997891Y-125205202D01*
X160127065Y-125232636D01*
X160271590Y-125239600D01*
X160390052Y-125236004D01*
X160476979Y-125222831D01*
X160551281Y-125196496D01*
X160583555Y-125180499D01*
X160668124Y-125121592D01*
X160747850Y-125043664D01*
X160771288Y-125013799D01*
X160813515Y-124945794D01*
X160838397Y-124878626D01*
X160851598Y-124792728D01*
X160856507Y-124719418D01*
X160854719Y-124618870D01*
X160292147Y-124618870D01*
X160266418Y-124701502D01*
X160223191Y-124766569D01*
X160203220Y-124782229D01*
X160124635Y-124805507D01*
X160024616Y-124806355D01*
X159926278Y-124786752D01*
X159857535Y-124752646D01*
X159783151Y-124668329D01*
X159725867Y-124554840D01*
X159695336Y-124433260D01*
X159692758Y-124392817D01*
X159692200Y-124295334D01*
X159800150Y-124311692D01*
X159968611Y-124340213D01*
X160093365Y-124369591D01*
X160181449Y-124403126D01*
X160239896Y-124444119D01*
X160275742Y-124495871D01*
X160291670Y-124542296D01*
X160292147Y-124618870D01*
X160854719Y-124618870D01*
X160853351Y-124541999D01*
X160821988Y-124394856D01*
X160758914Y-124274714D01*
X160660625Y-124178292D01*
X160523615Y-124102313D01*
X160344381Y-124043499D01*
X160119417Y-123998571D01*
X160079426Y-123992522D01*
X159954581Y-123974655D01*
X159846435Y-123959797D01*
X159765737Y-123949383D01*
X159723235Y-123944846D01*
X159721197Y-123944764D01*
X159697416Y-123926428D01*
X159701101Y-123880918D01*
X159727786Y-123820568D01*
X159773001Y-123757708D01*
X159798388Y-123731719D01*
X159839046Y-123696679D01*
X159876642Y-123675852D01*
X159924918Y-123666372D01*
X159997614Y-123665373D01*
X160096993Y-123669438D01*
X160218073Y-123678142D01*
X160310943Y-123694418D01*
X160398159Y-123723982D01*
X160500605Y-123771715D01*
X160684586Y-123863492D01*
X160670100Y-123372700D01*
X160492300Y-123310103D01*
X160412643Y-123284154D01*
X160338652Y-123266392D01*
X160257453Y-123255283D01*
X160156169Y-123249295D01*
X160021925Y-123246895D01*
X159958900Y-123246603D01*
X159817433Y-123246607D01*
G37*
X159817433Y-123246607D02*
X159715767Y-123248609D01*
X159642905Y-123254333D01*
X159587851Y-123265502D01*
X159539606Y-123283842D01*
X159487173Y-123311077D01*
X159463600Y-123324265D01*
X159325532Y-123430351D01*
X159221204Y-123573130D01*
X159152486Y-123749735D01*
X159135796Y-123826848D01*
X159127853Y-123898156D01*
X159120795Y-124010733D01*
X159114964Y-124155049D01*
X159110702Y-124321576D01*
X159108353Y-124500784D01*
X159108000Y-124600330D01*
X159108000Y-125214200D01*
X159692200Y-125214200D01*
X159692200Y-124975290D01*
X159787450Y-125068104D01*
X159889517Y-125152069D01*
X159997891Y-125205202D01*
X160127065Y-125232636D01*
X160271590Y-125239600D01*
X160390052Y-125236004D01*
X160476979Y-125222831D01*
X160551281Y-125196496D01*
X160583555Y-125180499D01*
X160668124Y-125121592D01*
X160747850Y-125043664D01*
X160771288Y-125013799D01*
X160813515Y-124945794D01*
X160838397Y-124878626D01*
X160851598Y-124792728D01*
X160856507Y-124719418D01*
X160854719Y-124618870D01*
X160292147Y-124618870D01*
X160266418Y-124701502D01*
X160223191Y-124766569D01*
X160203220Y-124782229D01*
X160124635Y-124805507D01*
X160024616Y-124806355D01*
X159926278Y-124786752D01*
X159857535Y-124752646D01*
X159783151Y-124668329D01*
X159725867Y-124554840D01*
X159695336Y-124433260D01*
X159692758Y-124392817D01*
X159692200Y-124295334D01*
X159800150Y-124311692D01*
X159968611Y-124340213D01*
X160093365Y-124369591D01*
X160181449Y-124403126D01*
X160239896Y-124444119D01*
X160275742Y-124495871D01*
X160291670Y-124542296D01*
X160292147Y-124618870D01*
X160854719Y-124618870D01*
X160853351Y-124541999D01*
X160821988Y-124394856D01*
X160758914Y-124274714D01*
X160660625Y-124178292D01*
X160523615Y-124102313D01*
X160344381Y-124043499D01*
X160119417Y-123998571D01*
X160079426Y-123992522D01*
X159954581Y-123974655D01*
X159846435Y-123959797D01*
X159765737Y-123949383D01*
X159723235Y-123944846D01*
X159721197Y-123944764D01*
X159697416Y-123926428D01*
X159701101Y-123880918D01*
X159727786Y-123820568D01*
X159773001Y-123757708D01*
X159798388Y-123731719D01*
X159839046Y-123696679D01*
X159876642Y-123675852D01*
X159924918Y-123666372D01*
X159997614Y-123665373D01*
X160096993Y-123669438D01*
X160218073Y-123678142D01*
X160310943Y-123694418D01*
X160398159Y-123723982D01*
X160500605Y-123771715D01*
X160684586Y-123863492D01*
X160670100Y-123372700D01*
X160492300Y-123310103D01*
X160412643Y-123284154D01*
X160338652Y-123266392D01*
X160257453Y-123255283D01*
X160156169Y-123249295D01*
X160021925Y-123246895D01*
X159958900Y-123246603D01*
X159817433Y-123246607D01*
G36*
X167718600Y-121455000D02*
G01*
X168150400Y-121455000D01*
X168150400Y-122242400D01*
X168149705Y-122439936D01*
X168147729Y-122618491D01*
X168144640Y-122772192D01*
X168140605Y-122895165D01*
X168135793Y-122981538D01*
X168130369Y-123025439D01*
X168127963Y-123029799D01*
X168101919Y-123050417D01*
X168090159Y-123074249D01*
X168065092Y-123127332D01*
X168030046Y-123185803D01*
X167994163Y-123241162D01*
X167942673Y-123322439D01*
X167886569Y-123412278D01*
X167885252Y-123414403D01*
X167835115Y-123494042D01*
X167794886Y-123555568D01*
X167772293Y-123587203D01*
X167770952Y-123588600D01*
X167743347Y-123623939D01*
X167707293Y-123681427D01*
X167677261Y-123737873D01*
X167675842Y-123741000D01*
X167651750Y-123781973D01*
X167642628Y-123791800D01*
X167623954Y-123817370D01*
X167585024Y-123877651D01*
X167531508Y-123963664D01*
X167469078Y-124066434D01*
X167468359Y-124067630D01*
X167403481Y-124173633D01*
X167344841Y-124265848D01*
X167299019Y-124334151D01*
X167273135Y-124367894D01*
X167242153Y-124415218D01*
X167236000Y-124441314D01*
X167221959Y-124473938D01*
X167211084Y-124477600D01*
X167187009Y-124499151D01*
X167170231Y-124541100D01*
X167152612Y-124588586D01*
X167137423Y-124604600D01*
X167115881Y-124624783D01*
X167082975Y-124675060D01*
X167072677Y-124693500D01*
X167037087Y-124749879D01*
X167007561Y-124780539D01*
X167001902Y-124782400D01*
X166989169Y-124797476D01*
X166991755Y-124803034D01*
X166985150Y-124833694D01*
X166952687Y-124883473D01*
X166942454Y-124895885D01*
X166901534Y-124952038D01*
X166880972Y-124996959D01*
X166880400Y-125002250D01*
X166865605Y-125033438D01*
X166855484Y-125036400D01*
X166831409Y-125057951D01*
X166814631Y-125099900D01*
X166797012Y-125147386D01*
X166781823Y-125163400D01*
X166760281Y-125183583D01*
X166727375Y-125233860D01*
X166717077Y-125252300D01*
X166682135Y-125308619D01*
X166654126Y-125339306D01*
X166648952Y-125341200D01*
X166631446Y-125363377D01*
X166614492Y-125417959D01*
X166612025Y-125430100D01*
X166595395Y-125488706D01*
X166575999Y-125518174D01*
X166572774Y-125519000D01*
X166562833Y-125542505D01*
X166555126Y-125605467D01*
X166550772Y-125696554D01*
X166550200Y-125747600D01*
X166552486Y-125848266D01*
X166558607Y-125926316D01*
X166567463Y-125970416D01*
X166572425Y-125976200D01*
X166592270Y-125998170D01*
X166609657Y-126051295D01*
X166610185Y-126053874D01*
X166634370Y-126124524D01*
X166665672Y-126174524D01*
X166777021Y-126290922D01*
X166862343Y-126371840D01*
X166926881Y-126421830D01*
X166975879Y-126445446D01*
X166978466Y-126446130D01*
X167034951Y-126468970D01*
X167063359Y-126492563D01*
X167080667Y-126498753D01*
X167126105Y-126504165D01*
X167202164Y-126508843D01*
X167311332Y-126512834D01*
X167456100Y-126516183D01*
X167638958Y-126518935D01*
X167862394Y-126521135D01*
X168128900Y-126522829D01*
X168440964Y-126524061D01*
X168801077Y-126524879D01*
X168841613Y-126524942D01*
X169138627Y-126525236D01*
X169422613Y-126525224D01*
X169689185Y-126524925D01*
X169933957Y-126524357D01*
X170152545Y-126523539D01*
X170340563Y-126522490D01*
X170493626Y-126521227D01*
X170607349Y-126519770D01*
X170677345Y-126518138D01*
X170696750Y-126517059D01*
X170757983Y-126505319D01*
X170790436Y-126489403D01*
X170792000Y-126485420D01*
X170813559Y-126464403D01*
X170857675Y-126447823D01*
X170946700Y-126406447D01*
X171041336Y-126331927D01*
X171131503Y-126236286D01*
X171207119Y-126131547D01*
X171258105Y-126029733D01*
X171274600Y-125950562D01*
X171284183Y-125914654D01*
X171300000Y-125912700D01*
X171314471Y-125898786D01*
X171323158Y-125839126D01*
X171325400Y-125761799D01*
X171321841Y-125674933D01*
X171312397Y-125615394D01*
X171300000Y-125595200D01*
X171278129Y-125574359D01*
X171274600Y-125552934D01*
X171265253Y-125504787D01*
X171242285Y-125439745D01*
X171213307Y-125375206D01*
X171185930Y-125328568D01*
X171170866Y-125315800D01*
X171152195Y-125294332D01*
X171137170Y-125252300D01*
X171116774Y-125204728D01*
X171096317Y-125188800D01*
X171073915Y-125168351D01*
X171071400Y-125152514D01*
X171054677Y-125105126D01*
X171035592Y-125080420D01*
X171003690Y-125040277D01*
X170957257Y-124972454D01*
X170915944Y-124907155D01*
X170869348Y-124834354D01*
X170831335Y-124781392D01*
X170812052Y-124761233D01*
X170793183Y-124732004D01*
X170792000Y-124720669D01*
X170776513Y-124679793D01*
X170759214Y-124655400D01*
X170411000Y-124655400D01*
X170390583Y-124678284D01*
X170375017Y-124680800D01*
X170337044Y-124692435D01*
X170330567Y-124700284D01*
X170304798Y-124730037D01*
X170252432Y-124776196D01*
X170187536Y-124827840D01*
X170124177Y-124874045D01*
X170076422Y-124903889D01*
X170061251Y-124909400D01*
X170028373Y-124924154D01*
X170025767Y-124928450D01*
X169992333Y-124960271D01*
X169929607Y-124995037D01*
X169857609Y-125023478D01*
X169796357Y-125036323D01*
X169792631Y-125036400D01*
X169737893Y-125045425D01*
X169712500Y-125061800D01*
X169680957Y-125074525D01*
X169613191Y-125083638D01*
X169523749Y-125087198D01*
X169522000Y-125087200D01*
X169432297Y-125083759D01*
X169364003Y-125074730D01*
X169331666Y-125062053D01*
X169331500Y-125061800D01*
X169298197Y-125045564D01*
X169235026Y-125036864D01*
X169215701Y-125036400D01*
X169152635Y-125030687D01*
X169117929Y-125016442D01*
X169115600Y-125011000D01*
X169101417Y-124989628D01*
X169096550Y-124989875D01*
X169052779Y-124988760D01*
X168991045Y-124976357D01*
X168930989Y-124958094D01*
X168892254Y-124939396D01*
X168887000Y-124931973D01*
X168865782Y-124913403D01*
X168838015Y-124909400D01*
X168779779Y-124892128D01*
X168750929Y-124871300D01*
X168708914Y-124840126D01*
X168687429Y-124833200D01*
X168648842Y-124817413D01*
X168628465Y-124801405D01*
X168565418Y-124751420D01*
X168481436Y-124696636D01*
X168395586Y-124648453D01*
X168326937Y-124618269D01*
X168317556Y-124615546D01*
X168269085Y-124597020D01*
X168252000Y-124579731D01*
X168228747Y-124567512D01*
X168166787Y-124551782D01*
X168077824Y-124535322D01*
X168042450Y-124529901D01*
X167925353Y-124513217D01*
X167844721Y-124503557D01*
X167786774Y-124500464D01*
X167737729Y-124503487D01*
X167683807Y-124512170D01*
X167657317Y-124517216D01*
X167557934Y-124536388D01*
X167695417Y-124335544D01*
X167756283Y-124247625D01*
X167806880Y-124176389D01*
X167840112Y-124131735D01*
X167848527Y-124122000D01*
X167867669Y-124090054D01*
X167881989Y-124052150D01*
X167902395Y-124007916D01*
X167917736Y-123995000D01*
X167939953Y-123974797D01*
X167973240Y-123924477D01*
X167983524Y-123906100D01*
X168017330Y-123849887D01*
X168042684Y-123819152D01*
X168046981Y-123817200D01*
X168066932Y-123796865D01*
X168101011Y-123744816D01*
X168125000Y-123702900D01*
X168163983Y-123637934D01*
X168195543Y-123596526D01*
X168207020Y-123588600D01*
X168226321Y-123569437D01*
X168226600Y-123565560D01*
X168239577Y-123535988D01*
X168273413Y-123476512D01*
X168320465Y-123399278D01*
X168373089Y-123316435D01*
X168423644Y-123240128D01*
X168464487Y-123182506D01*
X168479119Y-123164222D01*
X168487656Y-123128272D01*
X168494588Y-123042093D01*
X168499898Y-122906227D01*
X168503569Y-122721221D01*
X168505584Y-122487617D01*
X168506000Y-122294272D01*
X168506000Y-121455000D01*
X169344200Y-121455000D01*
X169344200Y-122289774D01*
X169344331Y-122518296D01*
X169344932Y-122701542D01*
X169346313Y-122845035D01*
X169348789Y-122954300D01*
X169352669Y-123034860D01*
X169358268Y-123092238D01*
X169365896Y-123131960D01*
X169375865Y-123159547D01*
X169388488Y-123180524D01*
X169395000Y-123189130D01*
X169430144Y-123238313D01*
X169445753Y-123269071D01*
X169445800Y-123269828D01*
X169457434Y-123296174D01*
X169496001Y-123345740D01*
X169541050Y-123397167D01*
X169568211Y-123439594D01*
X169572800Y-123457669D01*
X169588558Y-123489392D01*
X169591850Y-123491233D01*
X169620621Y-123518497D01*
X169660544Y-123570925D01*
X169698808Y-123629704D01*
X169722603Y-123676021D01*
X169725200Y-123687054D01*
X169741409Y-123718298D01*
X169744250Y-123719833D01*
X169773678Y-123747633D01*
X169813863Y-123800782D01*
X169852005Y-123860280D01*
X169875302Y-123907125D01*
X169877600Y-123917771D01*
X169891754Y-123943345D01*
X169896650Y-123944249D01*
X169919566Y-123963797D01*
X169960396Y-124014708D01*
X170004600Y-124077593D01*
X170056688Y-124153535D01*
X170101591Y-124215263D01*
X170125250Y-124244458D01*
X170152468Y-124282384D01*
X170157000Y-124296824D01*
X170172654Y-124327058D01*
X170208790Y-124371210D01*
X170240650Y-124409884D01*
X170246302Y-124426772D01*
X170245862Y-124426800D01*
X170251415Y-124442917D01*
X170283503Y-124482967D01*
X170295673Y-124496390D01*
X170338183Y-124550213D01*
X170359590Y-124592938D01*
X170360200Y-124597990D01*
X170376134Y-124627681D01*
X170385600Y-124630000D01*
X170410262Y-124649328D01*
X170411000Y-124655400D01*
X170759214Y-124655400D01*
X170741200Y-124630000D01*
X170704703Y-124577442D01*
X170690400Y-124537213D01*
X170678590Y-124505943D01*
X170670562Y-124503000D01*
X170649915Y-124482637D01*
X170609936Y-124427683D01*
X170557038Y-124347339D01*
X170515655Y-124280750D01*
X170432681Y-124145268D01*
X170346453Y-124006296D01*
X170261779Y-123871390D01*
X170183465Y-123748108D01*
X170116319Y-123644006D01*
X170065146Y-123566644D01*
X170034755Y-123523577D01*
X170031662Y-123519822D01*
X170007674Y-123485092D01*
X170004600Y-123475152D01*
X169990921Y-123448292D01*
X169955936Y-123394931D01*
X169928400Y-123355969D01*
X169884496Y-123289443D01*
X169856957Y-123236333D01*
X169852200Y-123218605D01*
X169838894Y-123182752D01*
X169832069Y-123177966D01*
X169807352Y-123152693D01*
X169769731Y-123099622D01*
X169755869Y-123077601D01*
X169739942Y-123049873D01*
X169727356Y-123020798D01*
X169717718Y-122984368D01*
X169710637Y-122934575D01*
X169705717Y-122865411D01*
X169702567Y-122770867D01*
X169700794Y-122644936D01*
X169700004Y-122481608D01*
X169699804Y-122274875D01*
X169699800Y-122220351D01*
X169699800Y-121455000D01*
X170159055Y-121455000D01*
X170151678Y-121245450D01*
X170144300Y-121035900D01*
X168931450Y-121029303D01*
X167718600Y-121022707D01*
X167718600Y-121455000D01*
G37*
X167718600Y-121455000D02*
X168150400Y-121455000D01*
X168150400Y-122242400D01*
X168149705Y-122439936D01*
X168147729Y-122618491D01*
X168144640Y-122772192D01*
X168140605Y-122895165D01*
X168135793Y-122981538D01*
X168130369Y-123025439D01*
X168127963Y-123029799D01*
X168101919Y-123050417D01*
X168090159Y-123074249D01*
X168065092Y-123127332D01*
X168030046Y-123185803D01*
X167994163Y-123241162D01*
X167942673Y-123322439D01*
X167886569Y-123412278D01*
X167885252Y-123414403D01*
X167835115Y-123494042D01*
X167794886Y-123555568D01*
X167772293Y-123587203D01*
X167770952Y-123588600D01*
X167743347Y-123623939D01*
X167707293Y-123681427D01*
X167677261Y-123737873D01*
X167675842Y-123741000D01*
X167651750Y-123781973D01*
X167642628Y-123791800D01*
X167623954Y-123817370D01*
X167585024Y-123877651D01*
X167531508Y-123963664D01*
X167469078Y-124066434D01*
X167468359Y-124067630D01*
X167403481Y-124173633D01*
X167344841Y-124265848D01*
X167299019Y-124334151D01*
X167273135Y-124367894D01*
X167242153Y-124415218D01*
X167236000Y-124441314D01*
X167221959Y-124473938D01*
X167211084Y-124477600D01*
X167187009Y-124499151D01*
X167170231Y-124541100D01*
X167152612Y-124588586D01*
X167137423Y-124604600D01*
X167115881Y-124624783D01*
X167082975Y-124675060D01*
X167072677Y-124693500D01*
X167037087Y-124749879D01*
X167007561Y-124780539D01*
X167001902Y-124782400D01*
X166989169Y-124797476D01*
X166991755Y-124803034D01*
X166985150Y-124833694D01*
X166952687Y-124883473D01*
X166942454Y-124895885D01*
X166901534Y-124952038D01*
X166880972Y-124996959D01*
X166880400Y-125002250D01*
X166865605Y-125033438D01*
X166855484Y-125036400D01*
X166831409Y-125057951D01*
X166814631Y-125099900D01*
X166797012Y-125147386D01*
X166781823Y-125163400D01*
X166760281Y-125183583D01*
X166727375Y-125233860D01*
X166717077Y-125252300D01*
X166682135Y-125308619D01*
X166654126Y-125339306D01*
X166648952Y-125341200D01*
X166631446Y-125363377D01*
X166614492Y-125417959D01*
X166612025Y-125430100D01*
X166595395Y-125488706D01*
X166575999Y-125518174D01*
X166572774Y-125519000D01*
X166562833Y-125542505D01*
X166555126Y-125605467D01*
X166550772Y-125696554D01*
X166550200Y-125747600D01*
X166552486Y-125848266D01*
X166558607Y-125926316D01*
X166567463Y-125970416D01*
X166572425Y-125976200D01*
X166592270Y-125998170D01*
X166609657Y-126051295D01*
X166610185Y-126053874D01*
X166634370Y-126124524D01*
X166665672Y-126174524D01*
X166777021Y-126290922D01*
X166862343Y-126371840D01*
X166926881Y-126421830D01*
X166975879Y-126445446D01*
X166978466Y-126446130D01*
X167034951Y-126468970D01*
X167063359Y-126492563D01*
X167080667Y-126498753D01*
X167126105Y-126504165D01*
X167202164Y-126508843D01*
X167311332Y-126512834D01*
X167456100Y-126516183D01*
X167638958Y-126518935D01*
X167862394Y-126521135D01*
X168128900Y-126522829D01*
X168440964Y-126524061D01*
X168801077Y-126524879D01*
X168841613Y-126524942D01*
X169138627Y-126525236D01*
X169422613Y-126525224D01*
X169689185Y-126524925D01*
X169933957Y-126524357D01*
X170152545Y-126523539D01*
X170340563Y-126522490D01*
X170493626Y-126521227D01*
X170607349Y-126519770D01*
X170677345Y-126518138D01*
X170696750Y-126517059D01*
X170757983Y-126505319D01*
X170790436Y-126489403D01*
X170792000Y-126485420D01*
X170813559Y-126464403D01*
X170857675Y-126447823D01*
X170946700Y-126406447D01*
X171041336Y-126331927D01*
X171131503Y-126236286D01*
X171207119Y-126131547D01*
X171258105Y-126029733D01*
X171274600Y-125950562D01*
X171284183Y-125914654D01*
X171300000Y-125912700D01*
X171314471Y-125898786D01*
X171323158Y-125839126D01*
X171325400Y-125761799D01*
X171321841Y-125674933D01*
X171312397Y-125615394D01*
X171300000Y-125595200D01*
X171278129Y-125574359D01*
X171274600Y-125552934D01*
X171265253Y-125504787D01*
X171242285Y-125439745D01*
X171213307Y-125375206D01*
X171185930Y-125328568D01*
X171170866Y-125315800D01*
X171152195Y-125294332D01*
X171137170Y-125252300D01*
X171116774Y-125204728D01*
X171096317Y-125188800D01*
X171073915Y-125168351D01*
X171071400Y-125152514D01*
X171054677Y-125105126D01*
X171035592Y-125080420D01*
X171003690Y-125040277D01*
X170957257Y-124972454D01*
X170915944Y-124907155D01*
X170869348Y-124834354D01*
X170831335Y-124781392D01*
X170812052Y-124761233D01*
X170793183Y-124732004D01*
X170792000Y-124720669D01*
X170776513Y-124679793D01*
X170759214Y-124655400D01*
X170411000Y-124655400D01*
X170390583Y-124678284D01*
X170375017Y-124680800D01*
X170337044Y-124692435D01*
X170330567Y-124700284D01*
X170304798Y-124730037D01*
X170252432Y-124776196D01*
X170187536Y-124827840D01*
X170124177Y-124874045D01*
X170076422Y-124903889D01*
X170061251Y-124909400D01*
X170028373Y-124924154D01*
X170025767Y-124928450D01*
X169992333Y-124960271D01*
X169929607Y-124995037D01*
X169857609Y-125023478D01*
X169796357Y-125036323D01*
X169792631Y-125036400D01*
X169737893Y-125045425D01*
X169712500Y-125061800D01*
X169680957Y-125074525D01*
X169613191Y-125083638D01*
X169523749Y-125087198D01*
X169522000Y-125087200D01*
X169432297Y-125083759D01*
X169364003Y-125074730D01*
X169331666Y-125062053D01*
X169331500Y-125061800D01*
X169298197Y-125045564D01*
X169235026Y-125036864D01*
X169215701Y-125036400D01*
X169152635Y-125030687D01*
X169117929Y-125016442D01*
X169115600Y-125011000D01*
X169101417Y-124989628D01*
X169096550Y-124989875D01*
X169052779Y-124988760D01*
X168991045Y-124976357D01*
X168930989Y-124958094D01*
X168892254Y-124939396D01*
X168887000Y-124931973D01*
X168865782Y-124913403D01*
X168838015Y-124909400D01*
X168779779Y-124892128D01*
X168750929Y-124871300D01*
X168708914Y-124840126D01*
X168687429Y-124833200D01*
X168648842Y-124817413D01*
X168628465Y-124801405D01*
X168565418Y-124751420D01*
X168481436Y-124696636D01*
X168395586Y-124648453D01*
X168326937Y-124618269D01*
X168317556Y-124615546D01*
X168269085Y-124597020D01*
X168252000Y-124579731D01*
X168228747Y-124567512D01*
X168166787Y-124551782D01*
X168077824Y-124535322D01*
X168042450Y-124529901D01*
X167925353Y-124513217D01*
X167844721Y-124503557D01*
X167786774Y-124500464D01*
X167737729Y-124503487D01*
X167683807Y-124512170D01*
X167657317Y-124517216D01*
X167557934Y-124536388D01*
X167695417Y-124335544D01*
X167756283Y-124247625D01*
X167806880Y-124176389D01*
X167840112Y-124131735D01*
X167848527Y-124122000D01*
X167867669Y-124090054D01*
X167881989Y-124052150D01*
X167902395Y-124007916D01*
X167917736Y-123995000D01*
X167939953Y-123974797D01*
X167973240Y-123924477D01*
X167983524Y-123906100D01*
X168017330Y-123849887D01*
X168042684Y-123819152D01*
X168046981Y-123817200D01*
X168066932Y-123796865D01*
X168101011Y-123744816D01*
X168125000Y-123702900D01*
X168163983Y-123637934D01*
X168195543Y-123596526D01*
X168207020Y-123588600D01*
X168226321Y-123569437D01*
X168226600Y-123565560D01*
X168239577Y-123535988D01*
X168273413Y-123476512D01*
X168320465Y-123399278D01*
X168373089Y-123316435D01*
X168423644Y-123240128D01*
X168464487Y-123182506D01*
X168479119Y-123164222D01*
X168487656Y-123128272D01*
X168494588Y-123042093D01*
X168499898Y-122906227D01*
X168503569Y-122721221D01*
X168505584Y-122487617D01*
X168506000Y-122294272D01*
X168506000Y-121455000D01*
X169344200Y-121455000D01*
X169344200Y-122289774D01*
X169344331Y-122518296D01*
X169344932Y-122701542D01*
X169346313Y-122845035D01*
X169348789Y-122954300D01*
X169352669Y-123034860D01*
X169358268Y-123092238D01*
X169365896Y-123131960D01*
X169375865Y-123159547D01*
X169388488Y-123180524D01*
X169395000Y-123189130D01*
X169430144Y-123238313D01*
X169445753Y-123269071D01*
X169445800Y-123269828D01*
X169457434Y-123296174D01*
X169496001Y-123345740D01*
X169541050Y-123397167D01*
X169568211Y-123439594D01*
X169572800Y-123457669D01*
X169588558Y-123489392D01*
X169591850Y-123491233D01*
X169620621Y-123518497D01*
X169660544Y-123570925D01*
X169698808Y-123629704D01*
X169722603Y-123676021D01*
X169725200Y-123687054D01*
X169741409Y-123718298D01*
X169744250Y-123719833D01*
X169773678Y-123747633D01*
X169813863Y-123800782D01*
X169852005Y-123860280D01*
X169875302Y-123907125D01*
X169877600Y-123917771D01*
X169891754Y-123943345D01*
X169896650Y-123944249D01*
X169919566Y-123963797D01*
X169960396Y-124014708D01*
X170004600Y-124077593D01*
X170056688Y-124153535D01*
X170101591Y-124215263D01*
X170125250Y-124244458D01*
X170152468Y-124282384D01*
X170157000Y-124296824D01*
X170172654Y-124327058D01*
X170208790Y-124371210D01*
X170240650Y-124409884D01*
X170246302Y-124426772D01*
X170245862Y-124426800D01*
X170251415Y-124442917D01*
X170283503Y-124482967D01*
X170295673Y-124496390D01*
X170338183Y-124550213D01*
X170359590Y-124592938D01*
X170360200Y-124597990D01*
X170376134Y-124627681D01*
X170385600Y-124630000D01*
X170410262Y-124649328D01*
X170411000Y-124655400D01*
X170759214Y-124655400D01*
X170741200Y-124630000D01*
X170704703Y-124577442D01*
X170690400Y-124537213D01*
X170678590Y-124505943D01*
X170670562Y-124503000D01*
X170649915Y-124482637D01*
X170609936Y-124427683D01*
X170557038Y-124347339D01*
X170515655Y-124280750D01*
X170432681Y-124145268D01*
X170346453Y-124006296D01*
X170261779Y-123871390D01*
X170183465Y-123748108D01*
X170116319Y-123644006D01*
X170065146Y-123566644D01*
X170034755Y-123523577D01*
X170031662Y-123519822D01*
X170007674Y-123485092D01*
X170004600Y-123475152D01*
X169990921Y-123448292D01*
X169955936Y-123394931D01*
X169928400Y-123355969D01*
X169884496Y-123289443D01*
X169856957Y-123236333D01*
X169852200Y-123218605D01*
X169838894Y-123182752D01*
X169832069Y-123177966D01*
X169807352Y-123152693D01*
X169769731Y-123099622D01*
X169755869Y-123077601D01*
X169739942Y-123049873D01*
X169727356Y-123020798D01*
X169717718Y-122984368D01*
X169710637Y-122934575D01*
X169705717Y-122865411D01*
X169702567Y-122770867D01*
X169700794Y-122644936D01*
X169700004Y-122481608D01*
X169699804Y-122274875D01*
X169699800Y-122220351D01*
X169699800Y-121455000D01*
X170159055Y-121455000D01*
X170151678Y-121245450D01*
X170144300Y-121035900D01*
X168931450Y-121029303D01*
X167718600Y-121022707D01*
X167718600Y-121455000D01*
%TO.C,LOGO2*%
G36*
X179864863Y-128318074D02*
G01*
X179776863Y-128328245D01*
X179730499Y-128337838D01*
X179592663Y-128387376D01*
X179468160Y-128458000D01*
X179361498Y-128546462D01*
X179277179Y-128649514D01*
X179260326Y-128676818D01*
X179200589Y-128805504D01*
X179157115Y-128953391D01*
X179129885Y-129114623D01*
X179118877Y-129283345D01*
X179124071Y-129453703D01*
X179145448Y-129619841D01*
X179182985Y-129775905D01*
X179236663Y-129916039D01*
X179264861Y-129970221D01*
X179294225Y-130017210D01*
X179323307Y-130056798D01*
X179338468Y-130073390D01*
X179360912Y-130097601D01*
X179368824Y-130112732D01*
X179356611Y-130128941D01*
X179323211Y-130156544D01*
X179273485Y-130192284D01*
X179212291Y-130232906D01*
X179144488Y-130275154D01*
X179074935Y-130315772D01*
X179025833Y-130342532D01*
X178883235Y-130417465D01*
X178878766Y-130502988D01*
X178879038Y-130555744D01*
X178884511Y-130600050D01*
X178890498Y-130618782D01*
X178914902Y-130644407D01*
X178942959Y-130647409D01*
X178954625Y-130639919D01*
X178971801Y-130630034D01*
X179009236Y-130611948D01*
X179059681Y-130589128D01*
X179073809Y-130582944D01*
X179155172Y-130543126D01*
X179247074Y-130491039D01*
X179340333Y-130432485D01*
X179425766Y-130373270D01*
X179494192Y-130319196D01*
X179501884Y-130312374D01*
X179563211Y-130256968D01*
X179636612Y-130288545D01*
X179774488Y-130334889D01*
X179919893Y-130360400D01*
X180068014Y-130365807D01*
X180214036Y-130351838D01*
X180353145Y-130319222D01*
X180480528Y-130268685D01*
X180591371Y-130200958D01*
X180666937Y-130132673D01*
X180749659Y-130021137D01*
X180815627Y-129887246D01*
X180864062Y-129733901D01*
X180894185Y-129564000D01*
X180905218Y-129380443D01*
X180904097Y-129338595D01*
X180623623Y-129338595D01*
X180616081Y-129519108D01*
X180592723Y-129674886D01*
X180553234Y-129806742D01*
X180497303Y-129915488D01*
X180424615Y-130001935D01*
X180344883Y-130061183D01*
X180276778Y-130096987D01*
X180212134Y-130120286D01*
X180141783Y-130133064D01*
X180056556Y-130137307D01*
X179996353Y-130136631D01*
X179918980Y-130133532D01*
X179862342Y-130127789D01*
X179817312Y-130117769D01*
X179774759Y-130101839D01*
X179757294Y-130093875D01*
X179654415Y-130032657D01*
X179570420Y-129953722D01*
X179503235Y-129854295D01*
X179450785Y-129731601D01*
X179427332Y-129652685D01*
X179408989Y-129554953D01*
X179398271Y-129438523D01*
X179395187Y-129313359D01*
X179399747Y-129189420D01*
X179411960Y-129076669D01*
X179426721Y-129003221D01*
X179467440Y-128875756D01*
X179518059Y-128773180D01*
X179581725Y-128691276D01*
X179661581Y-128625825D01*
X179741029Y-128581625D01*
X179787167Y-128560838D01*
X179825870Y-128547371D01*
X179866001Y-128539659D01*
X179916422Y-128536138D01*
X179985997Y-128535244D01*
X180003824Y-128535244D01*
X180080093Y-128536088D01*
X180135103Y-128539363D01*
X180177460Y-128546445D01*
X180215767Y-128558709D01*
X180253611Y-128575184D01*
X180365190Y-128643186D01*
X180458433Y-128733963D01*
X180531998Y-128845711D01*
X180584544Y-128976625D01*
X180601307Y-129042877D01*
X180611004Y-129106286D01*
X180618419Y-129189374D01*
X180622785Y-129281979D01*
X180623623Y-129338595D01*
X180904097Y-129338595D01*
X180901926Y-129257563D01*
X180879466Y-129065080D01*
X180836308Y-128893172D01*
X180772749Y-128742248D01*
X180689083Y-128612718D01*
X180585606Y-128504992D01*
X180462611Y-128419479D01*
X180320394Y-128356589D01*
X180235412Y-128332107D01*
X180160726Y-128320156D01*
X180067161Y-128313912D01*
X179965085Y-128313257D01*
X179864863Y-128318074D01*
G37*
X179864863Y-128318074D02*
X179776863Y-128328245D01*
X179730499Y-128337838D01*
X179592663Y-128387376D01*
X179468160Y-128458000D01*
X179361498Y-128546462D01*
X179277179Y-128649514D01*
X179260326Y-128676818D01*
X179200589Y-128805504D01*
X179157115Y-128953391D01*
X179129885Y-129114623D01*
X179118877Y-129283345D01*
X179124071Y-129453703D01*
X179145448Y-129619841D01*
X179182985Y-129775905D01*
X179236663Y-129916039D01*
X179264861Y-129970221D01*
X179294225Y-130017210D01*
X179323307Y-130056798D01*
X179338468Y-130073390D01*
X179360912Y-130097601D01*
X179368824Y-130112732D01*
X179356611Y-130128941D01*
X179323211Y-130156544D01*
X179273485Y-130192284D01*
X179212291Y-130232906D01*
X179144488Y-130275154D01*
X179074935Y-130315772D01*
X179025833Y-130342532D01*
X178883235Y-130417465D01*
X178878766Y-130502988D01*
X178879038Y-130555744D01*
X178884511Y-130600050D01*
X178890498Y-130618782D01*
X178914902Y-130644407D01*
X178942959Y-130647409D01*
X178954625Y-130639919D01*
X178971801Y-130630034D01*
X179009236Y-130611948D01*
X179059681Y-130589128D01*
X179073809Y-130582944D01*
X179155172Y-130543126D01*
X179247074Y-130491039D01*
X179340333Y-130432485D01*
X179425766Y-130373270D01*
X179494192Y-130319196D01*
X179501884Y-130312374D01*
X179563211Y-130256968D01*
X179636612Y-130288545D01*
X179774488Y-130334889D01*
X179919893Y-130360400D01*
X180068014Y-130365807D01*
X180214036Y-130351838D01*
X180353145Y-130319222D01*
X180480528Y-130268685D01*
X180591371Y-130200958D01*
X180666937Y-130132673D01*
X180749659Y-130021137D01*
X180815627Y-129887246D01*
X180864062Y-129733901D01*
X180894185Y-129564000D01*
X180905218Y-129380443D01*
X180904097Y-129338595D01*
X180623623Y-129338595D01*
X180616081Y-129519108D01*
X180592723Y-129674886D01*
X180553234Y-129806742D01*
X180497303Y-129915488D01*
X180424615Y-130001935D01*
X180344883Y-130061183D01*
X180276778Y-130096987D01*
X180212134Y-130120286D01*
X180141783Y-130133064D01*
X180056556Y-130137307D01*
X179996353Y-130136631D01*
X179918980Y-130133532D01*
X179862342Y-130127789D01*
X179817312Y-130117769D01*
X179774759Y-130101839D01*
X179757294Y-130093875D01*
X179654415Y-130032657D01*
X179570420Y-129953722D01*
X179503235Y-129854295D01*
X179450785Y-129731601D01*
X179427332Y-129652685D01*
X179408989Y-129554953D01*
X179398271Y-129438523D01*
X179395187Y-129313359D01*
X179399747Y-129189420D01*
X179411960Y-129076669D01*
X179426721Y-129003221D01*
X179467440Y-128875756D01*
X179518059Y-128773180D01*
X179581725Y-128691276D01*
X179661581Y-128625825D01*
X179741029Y-128581625D01*
X179787167Y-128560838D01*
X179825870Y-128547371D01*
X179866001Y-128539659D01*
X179916422Y-128536138D01*
X179985997Y-128535244D01*
X180003824Y-128535244D01*
X180080093Y-128536088D01*
X180135103Y-128539363D01*
X180177460Y-128546445D01*
X180215767Y-128558709D01*
X180253611Y-128575184D01*
X180365190Y-128643186D01*
X180458433Y-128733963D01*
X180531998Y-128845711D01*
X180584544Y-128976625D01*
X180601307Y-129042877D01*
X180611004Y-129106286D01*
X180618419Y-129189374D01*
X180622785Y-129281979D01*
X180623623Y-129338595D01*
X180904097Y-129338595D01*
X180901926Y-129257563D01*
X180879466Y-129065080D01*
X180836308Y-128893172D01*
X180772749Y-128742248D01*
X180689083Y-128612718D01*
X180585606Y-128504992D01*
X180462611Y-128419479D01*
X180320394Y-128356589D01*
X180235412Y-128332107D01*
X180160726Y-128320156D01*
X180067161Y-128313912D01*
X179965085Y-128313257D01*
X179864863Y-128318074D01*
G36*
X178348337Y-128340348D02*
G01*
X178278880Y-128357565D01*
X178225546Y-128382679D01*
X178209853Y-128395628D01*
X178196931Y-128417214D01*
X178174295Y-128464548D01*
X178142863Y-128535454D01*
X178103553Y-128627753D01*
X178057284Y-128739268D01*
X178004973Y-128867821D01*
X177947539Y-129011233D01*
X177905454Y-129117583D01*
X177851098Y-129255564D01*
X177799338Y-129386928D01*
X177751354Y-129508682D01*
X177708325Y-129617836D01*
X177671429Y-129711400D01*
X177641847Y-129786382D01*
X177620758Y-129839791D01*
X177609341Y-129868635D01*
X177608863Y-129869836D01*
X177590912Y-129908764D01*
X177574978Y-129933189D01*
X177569571Y-129937072D01*
X177561528Y-129924090D01*
X177543283Y-129885938D01*
X177515916Y-129825116D01*
X177480502Y-129744124D01*
X177438121Y-129645463D01*
X177389849Y-129531635D01*
X177336765Y-129405141D01*
X177279947Y-129268480D01*
X177246046Y-129186372D01*
X177174075Y-129012163D01*
X177112267Y-128863836D01*
X177059777Y-128739494D01*
X177015757Y-128637239D01*
X176979363Y-128555174D01*
X176949747Y-128491400D01*
X176926063Y-128444020D01*
X176907465Y-128411136D01*
X176893108Y-128390850D01*
X176889583Y-128387019D01*
X176867978Y-128366412D01*
X176848048Y-128353043D01*
X176822901Y-128345345D01*
X176785645Y-128341754D01*
X176729389Y-128340704D01*
X176685431Y-128340642D01*
X176613589Y-128341244D01*
X176565610Y-128343700D01*
X176535488Y-128348982D01*
X176517217Y-128358063D01*
X176506410Y-128369644D01*
X176502060Y-128379466D01*
X176498327Y-128397544D01*
X176495166Y-128425950D01*
X176492534Y-128466752D01*
X176490385Y-128522020D01*
X176488677Y-128593822D01*
X176487365Y-128684229D01*
X176486404Y-128795310D01*
X176485752Y-128929134D01*
X176485362Y-129087770D01*
X176485193Y-129273288D01*
X176485176Y-129366052D01*
X176485176Y-130333458D01*
X176554793Y-130343897D01*
X176610594Y-130347493D01*
X176664747Y-130343707D01*
X176678057Y-130341077D01*
X176731706Y-130327818D01*
X176739176Y-129438818D01*
X176746647Y-128549818D01*
X176954181Y-129065289D01*
X177040793Y-129280428D01*
X177116949Y-129469551D01*
X177183372Y-129634349D01*
X177240785Y-129776519D01*
X177289913Y-129897754D01*
X177331478Y-129999748D01*
X177366205Y-130084196D01*
X177394817Y-130152792D01*
X177418038Y-130207231D01*
X177436592Y-130249206D01*
X177451201Y-130280412D01*
X177462590Y-130302543D01*
X177471483Y-130317294D01*
X177478603Y-130326358D01*
X177484673Y-130331431D01*
X177490418Y-130334206D01*
X177496561Y-130336377D01*
X177497180Y-130336610D01*
X177538240Y-130346381D01*
X177583353Y-130350230D01*
X177620549Y-130349320D01*
X177650110Y-130344239D01*
X177674715Y-130331462D01*
X177697045Y-130307465D01*
X177719779Y-130268722D01*
X177745596Y-130211708D01*
X177777177Y-130132898D01*
X177806536Y-130056635D01*
X177838441Y-129973366D01*
X177878673Y-129868477D01*
X177924827Y-129748236D01*
X177974496Y-129618911D01*
X178025272Y-129486769D01*
X178074750Y-129358078D01*
X178086796Y-129326759D01*
X178132443Y-129208060D01*
X178177228Y-129091544D01*
X178219344Y-128981916D01*
X178256985Y-128883879D01*
X178288346Y-128802138D01*
X178311618Y-128741396D01*
X178319171Y-128721642D01*
X178343162Y-128660473D01*
X178364323Y-128609508D01*
X178379805Y-128575450D01*
X178385514Y-128565506D01*
X178387698Y-128577409D01*
X178389755Y-128616650D01*
X178391651Y-128680685D01*
X178393350Y-128766970D01*
X178394816Y-128872962D01*
X178396014Y-128996117D01*
X178396909Y-129133890D01*
X178397465Y-129283737D01*
X178397647Y-129436200D01*
X178397647Y-130321087D01*
X178435973Y-130335658D01*
X178491809Y-130347227D01*
X178556855Y-130347490D01*
X178613518Y-130336527D01*
X178618029Y-130334823D01*
X178651647Y-130321310D01*
X178651647Y-128395105D01*
X178612279Y-128364138D01*
X178565887Y-128342921D01*
X178500596Y-128332341D01*
X178425161Y-128331711D01*
X178348337Y-128340348D01*
G37*
X178348337Y-128340348D02*
X178278880Y-128357565D01*
X178225546Y-128382679D01*
X178209853Y-128395628D01*
X178196931Y-128417214D01*
X178174295Y-128464548D01*
X178142863Y-128535454D01*
X178103553Y-128627753D01*
X178057284Y-128739268D01*
X178004973Y-128867821D01*
X177947539Y-129011233D01*
X177905454Y-129117583D01*
X177851098Y-129255564D01*
X177799338Y-129386928D01*
X177751354Y-129508682D01*
X177708325Y-129617836D01*
X177671429Y-129711400D01*
X177641847Y-129786382D01*
X177620758Y-129839791D01*
X177609341Y-129868635D01*
X177608863Y-129869836D01*
X177590912Y-129908764D01*
X177574978Y-129933189D01*
X177569571Y-129937072D01*
X177561528Y-129924090D01*
X177543283Y-129885938D01*
X177515916Y-129825116D01*
X177480502Y-129744124D01*
X177438121Y-129645463D01*
X177389849Y-129531635D01*
X177336765Y-129405141D01*
X177279947Y-129268480D01*
X177246046Y-129186372D01*
X177174075Y-129012163D01*
X177112267Y-128863836D01*
X177059777Y-128739494D01*
X177015757Y-128637239D01*
X176979363Y-128555174D01*
X176949747Y-128491400D01*
X176926063Y-128444020D01*
X176907465Y-128411136D01*
X176893108Y-128390850D01*
X176889583Y-128387019D01*
X176867978Y-128366412D01*
X176848048Y-128353043D01*
X176822901Y-128345345D01*
X176785645Y-128341754D01*
X176729389Y-128340704D01*
X176685431Y-128340642D01*
X176613589Y-128341244D01*
X176565610Y-128343700D01*
X176535488Y-128348982D01*
X176517217Y-128358063D01*
X176506410Y-128369644D01*
X176502060Y-128379466D01*
X176498327Y-128397544D01*
X176495166Y-128425950D01*
X176492534Y-128466752D01*
X176490385Y-128522020D01*
X176488677Y-128593822D01*
X176487365Y-128684229D01*
X176486404Y-128795310D01*
X176485752Y-128929134D01*
X176485362Y-129087770D01*
X176485193Y-129273288D01*
X176485176Y-129366052D01*
X176485176Y-130333458D01*
X176554793Y-130343897D01*
X176610594Y-130347493D01*
X176664747Y-130343707D01*
X176678057Y-130341077D01*
X176731706Y-130327818D01*
X176739176Y-129438818D01*
X176746647Y-128549818D01*
X176954181Y-129065289D01*
X177040793Y-129280428D01*
X177116949Y-129469551D01*
X177183372Y-129634349D01*
X177240785Y-129776519D01*
X177289913Y-129897754D01*
X177331478Y-129999748D01*
X177366205Y-130084196D01*
X177394817Y-130152792D01*
X177418038Y-130207231D01*
X177436592Y-130249206D01*
X177451201Y-130280412D01*
X177462590Y-130302543D01*
X177471483Y-130317294D01*
X177478603Y-130326358D01*
X177484673Y-130331431D01*
X177490418Y-130334206D01*
X177496561Y-130336377D01*
X177497180Y-130336610D01*
X177538240Y-130346381D01*
X177583353Y-130350230D01*
X177620549Y-130349320D01*
X177650110Y-130344239D01*
X177674715Y-130331462D01*
X177697045Y-130307465D01*
X177719779Y-130268722D01*
X177745596Y-130211708D01*
X177777177Y-130132898D01*
X177806536Y-130056635D01*
X177838441Y-129973366D01*
X177878673Y-129868477D01*
X177924827Y-129748236D01*
X177974496Y-129618911D01*
X178025272Y-129486769D01*
X178074750Y-129358078D01*
X178086796Y-129326759D01*
X178132443Y-129208060D01*
X178177228Y-129091544D01*
X178219344Y-128981916D01*
X178256985Y-128883879D01*
X178288346Y-128802138D01*
X178311618Y-128741396D01*
X178319171Y-128721642D01*
X178343162Y-128660473D01*
X178364323Y-128609508D01*
X178379805Y-128575450D01*
X178385514Y-128565506D01*
X178387698Y-128577409D01*
X178389755Y-128616650D01*
X178391651Y-128680685D01*
X178393350Y-128766970D01*
X178394816Y-128872962D01*
X178396014Y-128996117D01*
X178396909Y-129133890D01*
X178397465Y-129283737D01*
X178397647Y-129436200D01*
X178397647Y-130321087D01*
X178435973Y-130335658D01*
X178491809Y-130347227D01*
X178556855Y-130347490D01*
X178613518Y-130336527D01*
X178618029Y-130334823D01*
X178651647Y-130321310D01*
X178651647Y-128395105D01*
X178612279Y-128364138D01*
X178565887Y-128342921D01*
X178500596Y-128332341D01*
X178425161Y-128331711D01*
X178348337Y-128340348D01*
G36*
X174750408Y-128335256D02*
G01*
X174708660Y-128341165D01*
X174693948Y-128346737D01*
X174680066Y-128372094D01*
X174682484Y-128396640D01*
X174693970Y-128416314D01*
X174722542Y-128455944D01*
X174765963Y-128512691D01*
X174821997Y-128583717D01*
X174888406Y-128666184D01*
X174962953Y-128757255D01*
X175038284Y-128847976D01*
X175129065Y-128956726D01*
X175202294Y-129045004D01*
X175259694Y-129115167D01*
X175302992Y-129169576D01*
X175333912Y-129210588D01*
X175354179Y-129240563D01*
X175365519Y-129261859D01*
X175369657Y-129276836D01*
X175368319Y-129287853D01*
X175364944Y-129294638D01*
X175351642Y-129313535D01*
X175322404Y-129353403D01*
X175279350Y-129411401D01*
X175224603Y-129484692D01*
X175160284Y-129570435D01*
X175088513Y-129665793D01*
X175011412Y-129767925D01*
X175003578Y-129778285D01*
X174926080Y-129881156D01*
X174853830Y-129977813D01*
X174788938Y-130065376D01*
X174733515Y-130140964D01*
X174689673Y-130201696D01*
X174659522Y-130244692D01*
X174645173Y-130267072D01*
X174644711Y-130268013D01*
X174634824Y-130301075D01*
X174644115Y-130322977D01*
X174645576Y-130324488D01*
X174671511Y-130335033D01*
X174717319Y-130341163D01*
X174773329Y-130342944D01*
X174829870Y-130340442D01*
X174877270Y-130333724D01*
X174905858Y-130322856D01*
X174906042Y-130322705D01*
X174919874Y-130306660D01*
X174949374Y-130269138D01*
X174992556Y-130212774D01*
X175047431Y-130140199D01*
X175112014Y-130054048D01*
X175184318Y-129956954D01*
X175262357Y-129851551D01*
X175300544Y-129799764D01*
X175670882Y-129296877D01*
X175678746Y-130321237D01*
X175716875Y-130335733D01*
X175772545Y-130347243D01*
X175837493Y-130347492D01*
X175894105Y-130336569D01*
X175898735Y-130334823D01*
X175932353Y-130321310D01*
X175932353Y-129336310D01*
X175932299Y-129139282D01*
X175932102Y-128970038D01*
X175931714Y-128826477D01*
X175931084Y-128706501D01*
X175930162Y-128608011D01*
X175928898Y-128528908D01*
X175927243Y-128467092D01*
X175925146Y-128420465D01*
X175922558Y-128386927D01*
X175919429Y-128364379D01*
X175915709Y-128350722D01*
X175911347Y-128343858D01*
X175908719Y-128342240D01*
X175877381Y-128336386D01*
X175829920Y-128333780D01*
X175777280Y-128334263D01*
X175730405Y-128337672D01*
X175700238Y-128343848D01*
X175697253Y-128345349D01*
X175691599Y-128356851D01*
X175686929Y-128385040D01*
X175683134Y-128432225D01*
X175680101Y-128500717D01*
X175677721Y-128592825D01*
X175675882Y-128710859D01*
X175674841Y-128812032D01*
X175670882Y-129266995D01*
X175314336Y-128818759D01*
X175233920Y-128717943D01*
X175158623Y-128624076D01*
X175090626Y-128539840D01*
X175032109Y-128467912D01*
X174985256Y-128410973D01*
X174952246Y-128371702D01*
X174935261Y-128352778D01*
X174934215Y-128351848D01*
X174906658Y-128342111D01*
X174859865Y-128335952D01*
X174804296Y-128333593D01*
X174750408Y-128335256D01*
G37*
X174750408Y-128335256D02*
X174708660Y-128341165D01*
X174693948Y-128346737D01*
X174680066Y-128372094D01*
X174682484Y-128396640D01*
X174693970Y-128416314D01*
X174722542Y-128455944D01*
X174765963Y-128512691D01*
X174821997Y-128583717D01*
X174888406Y-128666184D01*
X174962953Y-128757255D01*
X175038284Y-128847976D01*
X175129065Y-128956726D01*
X175202294Y-129045004D01*
X175259694Y-129115167D01*
X175302992Y-129169576D01*
X175333912Y-129210588D01*
X175354179Y-129240563D01*
X175365519Y-129261859D01*
X175369657Y-129276836D01*
X175368319Y-129287853D01*
X175364944Y-129294638D01*
X175351642Y-129313535D01*
X175322404Y-129353403D01*
X175279350Y-129411401D01*
X175224603Y-129484692D01*
X175160284Y-129570435D01*
X175088513Y-129665793D01*
X175011412Y-129767925D01*
X175003578Y-129778285D01*
X174926080Y-129881156D01*
X174853830Y-129977813D01*
X174788938Y-130065376D01*
X174733515Y-130140964D01*
X174689673Y-130201696D01*
X174659522Y-130244692D01*
X174645173Y-130267072D01*
X174644711Y-130268013D01*
X174634824Y-130301075D01*
X174644115Y-130322977D01*
X174645576Y-130324488D01*
X174671511Y-130335033D01*
X174717319Y-130341163D01*
X174773329Y-130342944D01*
X174829870Y-130340442D01*
X174877270Y-130333724D01*
X174905858Y-130322856D01*
X174906042Y-130322705D01*
X174919874Y-130306660D01*
X174949374Y-130269138D01*
X174992556Y-130212774D01*
X175047431Y-130140199D01*
X175112014Y-130054048D01*
X175184318Y-129956954D01*
X175262357Y-129851551D01*
X175300544Y-129799764D01*
X175670882Y-129296877D01*
X175678746Y-130321237D01*
X175716875Y-130335733D01*
X175772545Y-130347243D01*
X175837493Y-130347492D01*
X175894105Y-130336569D01*
X175898735Y-130334823D01*
X175932353Y-130321310D01*
X175932353Y-129336310D01*
X175932299Y-129139282D01*
X175932102Y-128970038D01*
X175931714Y-128826477D01*
X175931084Y-128706501D01*
X175930162Y-128608011D01*
X175928898Y-128528908D01*
X175927243Y-128467092D01*
X175925146Y-128420465D01*
X175922558Y-128386927D01*
X175919429Y-128364379D01*
X175915709Y-128350722D01*
X175911347Y-128343858D01*
X175908719Y-128342240D01*
X175877381Y-128336386D01*
X175829920Y-128333780D01*
X175777280Y-128334263D01*
X175730405Y-128337672D01*
X175700238Y-128343848D01*
X175697253Y-128345349D01*
X175691599Y-128356851D01*
X175686929Y-128385040D01*
X175683134Y-128432225D01*
X175680101Y-128500717D01*
X175677721Y-128592825D01*
X175675882Y-128710859D01*
X175674841Y-128812032D01*
X175670882Y-129266995D01*
X175314336Y-128818759D01*
X175233920Y-128717943D01*
X175158623Y-128624076D01*
X175090626Y-128539840D01*
X175032109Y-128467912D01*
X174985256Y-128410973D01*
X174952246Y-128371702D01*
X174935261Y-128352778D01*
X174934215Y-128351848D01*
X174906658Y-128342111D01*
X174859865Y-128335952D01*
X174804296Y-128333593D01*
X174750408Y-128335256D01*
G36*
X175981732Y-120161294D02*
G01*
X175940461Y-120165380D01*
X175912486Y-120174475D01*
X175889528Y-120190446D01*
X175882241Y-120196987D01*
X175842706Y-120233627D01*
X175842706Y-120937289D01*
X175737488Y-120937289D01*
X175566647Y-120950725D01*
X175407310Y-120990226D01*
X175261571Y-121054581D01*
X175131523Y-121142579D01*
X175019259Y-121253009D01*
X174926872Y-121384659D01*
X174909364Y-121416462D01*
X174866343Y-121509387D01*
X174835821Y-121603827D01*
X174815428Y-121709073D01*
X174802797Y-121834417D01*
X174802794Y-121834456D01*
X174792552Y-121983171D01*
X174452263Y-121983171D01*
X174353256Y-121983566D01*
X174263436Y-121984671D01*
X174187401Y-121986371D01*
X174129749Y-121988547D01*
X174095076Y-121991083D01*
X174087787Y-121992452D01*
X174055444Y-122020251D01*
X174032775Y-122072880D01*
X174021148Y-122146462D01*
X174019882Y-122184877D01*
X174026163Y-122266528D01*
X174044093Y-122328948D01*
X174072306Y-122368260D01*
X174087787Y-122377302D01*
X174109220Y-122379975D01*
X174155933Y-122382347D01*
X174223327Y-122384301D01*
X174306801Y-122385718D01*
X174401755Y-122386482D01*
X174451908Y-122386583D01*
X174549546Y-122386843D01*
X174636768Y-122387572D01*
X174709279Y-122388693D01*
X174762782Y-122390129D01*
X174792980Y-122391804D01*
X174798069Y-122392764D01*
X174799954Y-122409077D01*
X174801016Y-122449925D01*
X174801216Y-122509970D01*
X174800513Y-122583876D01*
X174799810Y-122624352D01*
X174795326Y-122849759D01*
X174097245Y-122849759D01*
X174058563Y-122895729D01*
X174038207Y-122923503D01*
X174026512Y-122952612D01*
X174021173Y-122992493D01*
X174019883Y-123052584D01*
X174019882Y-123054040D01*
X174021781Y-123119181D01*
X174028687Y-123163748D01*
X174042412Y-123196881D01*
X174050782Y-123209776D01*
X174081682Y-123253171D01*
X174796824Y-123253171D01*
X174796824Y-123716348D01*
X174107231Y-123716348D01*
X174063557Y-123760022D01*
X174040744Y-123785340D01*
X174027641Y-123810396D01*
X174021599Y-123844490D01*
X174019968Y-123896924D01*
X174019938Y-123913169D01*
X174022700Y-123982971D01*
X174032067Y-124032633D01*
X174049436Y-124070929D01*
X174078878Y-124119217D01*
X174434115Y-124123223D01*
X174789353Y-124127230D01*
X174793473Y-124354313D01*
X174797594Y-124581395D01*
X174444651Y-124585901D01*
X174091709Y-124590406D01*
X174055870Y-124635230D01*
X174036917Y-124663227D01*
X174026010Y-124694179D01*
X174021055Y-124737352D01*
X174019957Y-124794267D01*
X174020863Y-124853994D01*
X174025323Y-124893024D01*
X174035806Y-124920522D01*
X174054781Y-124945653D01*
X174063230Y-124954885D01*
X174106577Y-125001289D01*
X174797602Y-125001289D01*
X174793477Y-125225566D01*
X174789353Y-125449843D01*
X174440540Y-125453419D01*
X174091726Y-125456995D01*
X174055878Y-125501818D01*
X174037155Y-125529344D01*
X174026269Y-125559665D01*
X174021207Y-125601845D01*
X174019957Y-125663585D01*
X174020742Y-125723697D01*
X174024778Y-125762699D01*
X174034441Y-125789351D01*
X174052110Y-125812412D01*
X174063557Y-125824203D01*
X174107231Y-125867877D01*
X174792413Y-125867877D01*
X174802650Y-126013553D01*
X174809803Y-126089292D01*
X174820042Y-126165560D01*
X174831557Y-126229564D01*
X174835839Y-126247810D01*
X174887863Y-126391537D01*
X174965078Y-126524811D01*
X175063838Y-126643257D01*
X175180500Y-126742499D01*
X175310462Y-126817725D01*
X175405732Y-126856346D01*
X175500171Y-126882960D01*
X175604787Y-126900150D01*
X175697029Y-126908444D01*
X175842706Y-126918251D01*
X175842706Y-127257637D01*
X175842846Y-127367366D01*
X175843488Y-127451273D01*
X175844964Y-127513421D01*
X175847605Y-127557870D01*
X175851744Y-127588681D01*
X175857713Y-127609916D01*
X175865844Y-127625636D01*
X175873673Y-127636391D01*
X175890078Y-127654980D01*
X175908384Y-127666560D01*
X175935656Y-127672782D01*
X175978958Y-127675299D01*
X176042172Y-127675759D01*
X176102927Y-127676029D01*
X176150277Y-127674640D01*
X176185886Y-127668293D01*
X176211419Y-127653688D01*
X176228540Y-127627526D01*
X176238914Y-127586507D01*
X176244205Y-127527333D01*
X176246078Y-127446703D01*
X176246197Y-127341320D01*
X176246118Y-127271500D01*
X176246118Y-126913759D01*
X176707759Y-126913759D01*
X176712262Y-127263340D01*
X176713760Y-127385033D01*
X176715838Y-127480132D01*
X176720132Y-127551908D01*
X176728277Y-127603629D01*
X176741906Y-127638567D01*
X176762656Y-127659990D01*
X176792162Y-127671170D01*
X176832058Y-127675376D01*
X176883979Y-127675877D01*
X176918471Y-127675759D01*
X176977748Y-127675902D01*
X177024095Y-127674150D01*
X177059147Y-127667233D01*
X177084539Y-127651881D01*
X177101906Y-127624824D01*
X177112883Y-127582793D01*
X177119105Y-127522517D01*
X177122208Y-127440727D01*
X177123825Y-127334152D01*
X177124679Y-127263340D01*
X177129182Y-126913759D01*
X177574347Y-126913759D01*
X177578850Y-127266221D01*
X177580340Y-127387427D01*
X177582490Y-127482053D01*
X177587016Y-127553379D01*
X177595637Y-127604688D01*
X177610069Y-127639262D01*
X177632029Y-127660384D01*
X177663234Y-127671336D01*
X177705402Y-127675399D01*
X177760250Y-127675857D01*
X177793100Y-127675759D01*
X177858879Y-127675265D01*
X177901781Y-127672701D01*
X177928812Y-127666448D01*
X177946973Y-127654885D01*
X177963268Y-127636392D01*
X177963269Y-127636391D01*
X177973235Y-127622196D01*
X177980802Y-127605581D01*
X177986298Y-127582501D01*
X177990053Y-127548913D01*
X177992396Y-127500772D01*
X177993654Y-127434033D01*
X177994156Y-127344651D01*
X177994235Y-127255391D01*
X177994235Y-126913759D01*
X178457412Y-126913759D01*
X178457412Y-127271500D01*
X178457274Y-127391930D01*
X178457972Y-127485788D01*
X178461174Y-127556373D01*
X178468550Y-127606985D01*
X178481768Y-127640923D01*
X178502495Y-127661487D01*
X178532402Y-127671974D01*
X178573155Y-127675685D01*
X178626424Y-127675918D01*
X178661860Y-127675759D01*
X178720479Y-127675804D01*
X178766301Y-127673759D01*
X178800899Y-127666353D01*
X178825847Y-127650317D01*
X178842716Y-127622381D01*
X178853079Y-127579275D01*
X178858510Y-127517729D01*
X178860579Y-127434472D01*
X178860862Y-127326236D01*
X178860824Y-127262060D01*
X178860824Y-126913759D01*
X179324000Y-126913759D01*
X179324000Y-127264877D01*
X179323926Y-127386341D01*
X179324777Y-127481208D01*
X179328161Y-127552755D01*
X179335689Y-127604261D01*
X179348967Y-127639003D01*
X179369607Y-127660257D01*
X179399216Y-127671303D01*
X179439404Y-127675417D01*
X179491779Y-127675877D01*
X179525706Y-127675759D01*
X179594443Y-127674922D01*
X179640163Y-127671616D01*
X179669706Y-127664652D01*
X179689910Y-127652842D01*
X179697529Y-127645877D01*
X179707054Y-127634787D01*
X179714312Y-127620449D01*
X179719608Y-127598978D01*
X179723251Y-127566488D01*
X179725546Y-127519095D01*
X179726800Y-127452913D01*
X179727319Y-127364057D01*
X179727412Y-127267123D01*
X179727412Y-126918251D01*
X179873088Y-126908697D01*
X180004648Y-126895235D01*
X180116537Y-126872214D01*
X180218094Y-126837250D01*
X180294121Y-126801219D01*
X180430033Y-126713688D01*
X180544644Y-126605856D01*
X180636972Y-126479333D01*
X180706037Y-126335729D01*
X180750858Y-126176652D01*
X180769686Y-126021024D01*
X180777586Y-125867877D01*
X181126558Y-125867877D01*
X181247679Y-125867967D01*
X181342213Y-125867127D01*
X181413443Y-125863696D01*
X181464655Y-125856010D01*
X181499134Y-125842408D01*
X181520165Y-125821227D01*
X181531032Y-125790803D01*
X181535021Y-125749476D01*
X181535418Y-125695581D01*
X181535294Y-125661016D01*
X181535440Y-125600764D01*
X181533688Y-125553719D01*
X181526752Y-125518213D01*
X181511348Y-125492576D01*
X181484192Y-125475141D01*
X181441997Y-125464239D01*
X181381479Y-125458202D01*
X181299353Y-125455359D01*
X181192335Y-125454044D01*
X181126599Y-125453419D01*
X180780765Y-125449843D01*
X180776640Y-125225566D01*
X180772516Y-125001289D01*
X181110064Y-125001289D01*
X181228732Y-125000858D01*
X181321182Y-124999266D01*
X181391070Y-124996064D01*
X181442052Y-124990804D01*
X181477783Y-124983037D01*
X181501919Y-124972313D01*
X181518117Y-124958185D01*
X181523859Y-124950493D01*
X181529088Y-124927836D01*
X181532580Y-124883711D01*
X181534342Y-124826480D01*
X181534384Y-124764508D01*
X181532713Y-124706156D01*
X181529337Y-124659787D01*
X181524264Y-124633766D01*
X181523555Y-124632429D01*
X181508655Y-124616897D01*
X181483847Y-124604839D01*
X181445779Y-124595863D01*
X181391097Y-124589578D01*
X181316449Y-124585590D01*
X181218481Y-124583507D01*
X181100638Y-124582936D01*
X180772516Y-124582936D01*
X180776640Y-124355083D01*
X180780765Y-124127230D01*
X181131018Y-124123212D01*
X181244838Y-124121654D01*
X181332488Y-124119732D01*
X181397682Y-124117167D01*
X181444133Y-124113677D01*
X181475553Y-124108984D01*
X181495655Y-124102807D01*
X181508153Y-124094866D01*
X181508283Y-124094749D01*
X181521110Y-124078432D01*
X181529211Y-124053383D01*
X181533576Y-124013323D01*
X181535194Y-123951973D01*
X181535294Y-123923208D01*
X181535479Y-123862049D01*
X181533849Y-123814281D01*
X181527127Y-123778253D01*
X181512038Y-123752317D01*
X181485306Y-123734823D01*
X181443654Y-123724122D01*
X181383806Y-123718564D01*
X181302485Y-123716500D01*
X181196417Y-123716280D01*
X181124412Y-123716347D01*
X180773294Y-123716348D01*
X180773294Y-123253171D01*
X181129567Y-123253171D01*
X181250257Y-123253320D01*
X181344369Y-123252690D01*
X181415194Y-123249665D01*
X181466025Y-123242630D01*
X181500153Y-123229968D01*
X181520871Y-123210063D01*
X181531469Y-123181301D01*
X181535241Y-123142064D01*
X181535479Y-123090737D01*
X181535294Y-123054024D01*
X181535462Y-122993636D01*
X181533781Y-122946471D01*
X181526973Y-122910898D01*
X181511763Y-122885291D01*
X181484873Y-122868018D01*
X181443027Y-122857451D01*
X181382947Y-122851961D01*
X181301356Y-122849920D01*
X181194978Y-122849697D01*
X181124412Y-122849759D01*
X180773294Y-122849759D01*
X180773294Y-122469339D01*
X179487174Y-122469339D01*
X179487149Y-122573132D01*
X179486673Y-122699643D01*
X179485801Y-122851206D01*
X179484584Y-123030160D01*
X179484493Y-123042982D01*
X179483165Y-123223959D01*
X179481894Y-123377705D01*
X179480573Y-123506874D01*
X179479096Y-123614115D01*
X179477359Y-123702083D01*
X179475255Y-123773427D01*
X179472680Y-123830801D01*
X179469527Y-123876856D01*
X179465691Y-123914243D01*
X179461067Y-123945616D01*
X179455548Y-123973624D01*
X179449030Y-124000921D01*
X179445871Y-124013189D01*
X179383251Y-124205069D01*
X179301014Y-124374596D01*
X179198510Y-124522507D01*
X179075090Y-124649542D01*
X178930103Y-124756437D01*
X178762899Y-124843932D01*
X178687414Y-124874502D01*
X178562388Y-124917804D01*
X178449905Y-124947977D01*
X178337180Y-124967741D01*
X178211423Y-124979820D01*
X178184735Y-124981486D01*
X178024118Y-124990824D01*
X178024118Y-125329377D01*
X178023899Y-125445983D01*
X178022705Y-125536329D01*
X178019726Y-125604039D01*
X178014153Y-125652735D01*
X178005177Y-125686040D01*
X177991989Y-125707576D01*
X177973780Y-125720966D01*
X177949742Y-125729832D01*
X177933741Y-125734094D01*
X177889209Y-125740489D01*
X177828159Y-125743026D01*
X177759545Y-125742072D01*
X177692319Y-125737997D01*
X177635436Y-125731168D01*
X177597848Y-125721954D01*
X177593917Y-125720121D01*
X177583677Y-125713703D01*
X177575802Y-125704326D01*
X177569928Y-125688271D01*
X177565690Y-125661821D01*
X177562723Y-125621255D01*
X177560664Y-125562856D01*
X177559148Y-125482905D01*
X177557810Y-125377682D01*
X177557475Y-125348290D01*
X177553471Y-124993818D01*
X177404059Y-124983849D01*
X177274325Y-124971091D01*
X177155697Y-124949584D01*
X177036459Y-124916620D01*
X176904896Y-124869491D01*
X176898378Y-124866947D01*
X176777148Y-124814554D01*
X176675267Y-124758165D01*
X176582323Y-124691117D01*
X176487901Y-124606749D01*
X176480712Y-124599774D01*
X176363363Y-124467276D01*
X176266546Y-124317760D01*
X176188980Y-124148779D01*
X176129387Y-123957884D01*
X176116400Y-123903112D01*
X176110568Y-123862685D01*
X176105210Y-123797990D01*
X176100353Y-123712368D01*
X176096026Y-123609159D01*
X176092256Y-123491706D01*
X176089072Y-123363347D01*
X176086502Y-123227424D01*
X176084574Y-123087277D01*
X176083316Y-122946247D01*
X176082757Y-122807675D01*
X176082924Y-122674900D01*
X176083846Y-122551265D01*
X176085551Y-122440108D01*
X176088066Y-122344772D01*
X176091421Y-122268596D01*
X176095643Y-122214922D01*
X176100761Y-122187089D01*
X176101924Y-122184877D01*
X176113837Y-122172320D01*
X176131099Y-122163851D01*
X176159200Y-122158678D01*
X176203632Y-122156014D01*
X176269885Y-122155069D01*
X176309852Y-122154995D01*
X176397799Y-122156110D01*
X176459717Y-122159704D01*
X176499385Y-122166142D01*
X176520233Y-122175500D01*
X176525866Y-122182328D01*
X176530583Y-122194309D01*
X176534465Y-122213925D01*
X176537594Y-122243655D01*
X176540051Y-122285982D01*
X176541917Y-122343385D01*
X176543274Y-122418346D01*
X176544204Y-122513345D01*
X176544787Y-122630863D01*
X176545105Y-122773381D01*
X176545237Y-122937500D01*
X176545598Y-123089486D01*
X176546518Y-123234928D01*
X176547937Y-123370495D01*
X176549795Y-123492853D01*
X176552033Y-123598669D01*
X176554590Y-123684610D01*
X176557407Y-123747343D01*
X176560424Y-123783534D01*
X176560431Y-123783583D01*
X176598122Y-123957978D01*
X176658303Y-124112897D01*
X176740218Y-124247643D01*
X176843112Y-124361518D01*
X176966229Y-124453825D01*
X177108813Y-124523865D01*
X177270109Y-124570942D01*
X177437676Y-124593602D01*
X177560941Y-124602089D01*
X177560941Y-123389279D01*
X177560970Y-123170210D01*
X177561083Y-122979102D01*
X177561321Y-122814035D01*
X177561725Y-122673086D01*
X177562338Y-122554336D01*
X177563198Y-122455863D01*
X177564349Y-122375746D01*
X177565830Y-122312063D01*
X177567682Y-122262895D01*
X177569948Y-122226319D01*
X177572667Y-122200416D01*
X177575881Y-122183262D01*
X177579631Y-122172939D01*
X177583958Y-122167524D01*
X177587088Y-122165732D01*
X177611635Y-122161577D01*
X177659237Y-122158171D01*
X177723071Y-122155861D01*
X177796312Y-122154995D01*
X177797481Y-122154995D01*
X177875632Y-122155436D01*
X177929376Y-122157273D01*
X177964183Y-122161280D01*
X177985524Y-122168227D01*
X177998867Y-122178888D01*
X178002922Y-122183997D01*
X178006854Y-122193099D01*
X178010284Y-122210167D01*
X178013244Y-122237060D01*
X178015767Y-122275637D01*
X178017885Y-122327756D01*
X178019630Y-122395275D01*
X178021035Y-122480054D01*
X178022131Y-122583950D01*
X178022951Y-122708823D01*
X178023527Y-122856531D01*
X178023892Y-123028933D01*
X178024077Y-123227887D01*
X178024118Y-123405438D01*
X178024118Y-124597877D01*
X178092741Y-124597877D01*
X178155879Y-124593485D01*
X178235299Y-124581671D01*
X178321757Y-124564473D01*
X178406008Y-124543931D01*
X178478809Y-124522084D01*
X178530147Y-124501369D01*
X178658547Y-124423934D01*
X178764951Y-124333061D01*
X178852230Y-124225157D01*
X178923253Y-124096631D01*
X178980890Y-123943890D01*
X178984255Y-123932995D01*
X178991185Y-123909161D01*
X178997077Y-123884985D01*
X179002044Y-123857827D01*
X179006202Y-123825047D01*
X179009664Y-123784008D01*
X179012545Y-123732070D01*
X179014959Y-123666595D01*
X179017021Y-123584943D01*
X179018846Y-123484475D01*
X179020547Y-123362553D01*
X179022239Y-123216539D01*
X179024037Y-123043792D01*
X179024407Y-123007071D01*
X179032647Y-122185736D01*
X179070000Y-122166188D01*
X179103958Y-122156958D01*
X179158052Y-122151414D01*
X179224465Y-122149354D01*
X179295382Y-122150575D01*
X179362987Y-122154875D01*
X179419464Y-122162052D01*
X179456998Y-122171904D01*
X179464773Y-122176394D01*
X179470266Y-122182574D01*
X179474884Y-122192777D01*
X179478679Y-122209340D01*
X179481704Y-122234600D01*
X179484013Y-122270893D01*
X179485659Y-122320556D01*
X179486695Y-122385926D01*
X179487174Y-122469339D01*
X180773294Y-122469339D01*
X180773294Y-122386583D01*
X181129567Y-122386583D01*
X181250257Y-122386732D01*
X181344369Y-122386102D01*
X181415194Y-122383077D01*
X181466025Y-122376042D01*
X181500153Y-122363380D01*
X181520871Y-122343475D01*
X181531469Y-122314713D01*
X181535241Y-122275476D01*
X181535479Y-122224149D01*
X181535294Y-122187436D01*
X181535454Y-122126903D01*
X181533743Y-122079661D01*
X181526874Y-122044066D01*
X181511562Y-122018476D01*
X181484521Y-122001249D01*
X181442464Y-121990742D01*
X181382106Y-121985312D01*
X181300160Y-121983317D01*
X181193341Y-121983114D01*
X181126650Y-121983171D01*
X180777771Y-121983171D01*
X180769194Y-121820588D01*
X180751886Y-121663787D01*
X180716083Y-121526213D01*
X180659309Y-121401868D01*
X180579090Y-121284753D01*
X180520210Y-121217097D01*
X180407989Y-121114986D01*
X180284263Y-121037456D01*
X180146022Y-120983196D01*
X179990258Y-120950895D01*
X179888029Y-120941557D01*
X179727412Y-120932812D01*
X179727412Y-120233695D01*
X179690738Y-120197021D01*
X179669655Y-120178819D01*
X179645951Y-120167856D01*
X179611691Y-120162338D01*
X179558937Y-120160473D01*
X179528400Y-120160348D01*
X179462172Y-120161613D01*
X179417681Y-120166420D01*
X179386849Y-120176285D01*
X179363368Y-120191314D01*
X179324000Y-120222281D01*
X179324000Y-120937289D01*
X178860824Y-120937289D01*
X178860824Y-120233627D01*
X178821289Y-120196987D01*
X178798212Y-120178541D01*
X178772649Y-120167543D01*
X178736321Y-120162124D01*
X178680949Y-120160416D01*
X178658951Y-120160348D01*
X178593304Y-120161691D01*
X178549237Y-120166767D01*
X178518526Y-120177147D01*
X178496780Y-120191314D01*
X178457412Y-120222281D01*
X178457412Y-120937289D01*
X177994235Y-120937289D01*
X177994235Y-120600130D01*
X177993921Y-120474334D01*
X177991986Y-120375229D01*
X177986945Y-120299627D01*
X177977313Y-120244337D01*
X177961604Y-120206169D01*
X177938331Y-120181934D01*
X177906010Y-120168441D01*
X177863155Y-120162500D01*
X177808279Y-120160921D01*
X177789627Y-120160823D01*
X177726451Y-120161591D01*
X177684646Y-120165713D01*
X177655744Y-120175023D01*
X177631271Y-120191351D01*
X177625274Y-120196382D01*
X177583353Y-120232416D01*
X177578850Y-120584852D01*
X177574347Y-120937289D01*
X177127647Y-120937289D01*
X177127647Y-120600130D01*
X177127349Y-120474288D01*
X177125445Y-120375146D01*
X177120416Y-120299519D01*
X177110745Y-120244224D01*
X177094916Y-120206079D01*
X177071410Y-120181900D01*
X177038711Y-120168504D01*
X176995301Y-120162707D01*
X176939662Y-120161327D01*
X176918471Y-120161298D01*
X176858510Y-120161920D01*
X176811265Y-120165909D01*
X176775221Y-120176445D01*
X176748862Y-120196711D01*
X176730672Y-120229889D01*
X176719138Y-120279160D01*
X176712743Y-120347707D01*
X176709971Y-120438710D01*
X176709308Y-120555353D01*
X176709294Y-120600519D01*
X176709294Y-120938067D01*
X176481441Y-120933943D01*
X176253588Y-120929818D01*
X176249585Y-120575838D01*
X176245581Y-120221859D01*
X176206481Y-120191103D01*
X176180685Y-120175070D01*
X176148314Y-120165642D01*
X176101177Y-120161263D01*
X176044579Y-120160348D01*
X175981732Y-120161294D01*
G37*
X175981732Y-120161294D02*
X175940461Y-120165380D01*
X175912486Y-120174475D01*
X175889528Y-120190446D01*
X175882241Y-120196987D01*
X175842706Y-120233627D01*
X175842706Y-120937289D01*
X175737488Y-120937289D01*
X175566647Y-120950725D01*
X175407310Y-120990226D01*
X175261571Y-121054581D01*
X175131523Y-121142579D01*
X175019259Y-121253009D01*
X174926872Y-121384659D01*
X174909364Y-121416462D01*
X174866343Y-121509387D01*
X174835821Y-121603827D01*
X174815428Y-121709073D01*
X174802797Y-121834417D01*
X174802794Y-121834456D01*
X174792552Y-121983171D01*
X174452263Y-121983171D01*
X174353256Y-121983566D01*
X174263436Y-121984671D01*
X174187401Y-121986371D01*
X174129749Y-121988547D01*
X174095076Y-121991083D01*
X174087787Y-121992452D01*
X174055444Y-122020251D01*
X174032775Y-122072880D01*
X174021148Y-122146462D01*
X174019882Y-122184877D01*
X174026163Y-122266528D01*
X174044093Y-122328948D01*
X174072306Y-122368260D01*
X174087787Y-122377302D01*
X174109220Y-122379975D01*
X174155933Y-122382347D01*
X174223327Y-122384301D01*
X174306801Y-122385718D01*
X174401755Y-122386482D01*
X174451908Y-122386583D01*
X174549546Y-122386843D01*
X174636768Y-122387572D01*
X174709279Y-122388693D01*
X174762782Y-122390129D01*
X174792980Y-122391804D01*
X174798069Y-122392764D01*
X174799954Y-122409077D01*
X174801016Y-122449925D01*
X174801216Y-122509970D01*
X174800513Y-122583876D01*
X174799810Y-122624352D01*
X174795326Y-122849759D01*
X174097245Y-122849759D01*
X174058563Y-122895729D01*
X174038207Y-122923503D01*
X174026512Y-122952612D01*
X174021173Y-122992493D01*
X174019883Y-123052584D01*
X174019882Y-123054040D01*
X174021781Y-123119181D01*
X174028687Y-123163748D01*
X174042412Y-123196881D01*
X174050782Y-123209776D01*
X174081682Y-123253171D01*
X174796824Y-123253171D01*
X174796824Y-123716348D01*
X174107231Y-123716348D01*
X174063557Y-123760022D01*
X174040744Y-123785340D01*
X174027641Y-123810396D01*
X174021599Y-123844490D01*
X174019968Y-123896924D01*
X174019938Y-123913169D01*
X174022700Y-123982971D01*
X174032067Y-124032633D01*
X174049436Y-124070929D01*
X174078878Y-124119217D01*
X174434115Y-124123223D01*
X174789353Y-124127230D01*
X174793473Y-124354313D01*
X174797594Y-124581395D01*
X174444651Y-124585901D01*
X174091709Y-124590406D01*
X174055870Y-124635230D01*
X174036917Y-124663227D01*
X174026010Y-124694179D01*
X174021055Y-124737352D01*
X174019957Y-124794267D01*
X174020863Y-124853994D01*
X174025323Y-124893024D01*
X174035806Y-124920522D01*
X174054781Y-124945653D01*
X174063230Y-124954885D01*
X174106577Y-125001289D01*
X174797602Y-125001289D01*
X174793477Y-125225566D01*
X174789353Y-125449843D01*
X174440540Y-125453419D01*
X174091726Y-125456995D01*
X174055878Y-125501818D01*
X174037155Y-125529344D01*
X174026269Y-125559665D01*
X174021207Y-125601845D01*
X174019957Y-125663585D01*
X174020742Y-125723697D01*
X174024778Y-125762699D01*
X174034441Y-125789351D01*
X174052110Y-125812412D01*
X174063557Y-125824203D01*
X174107231Y-125867877D01*
X174792413Y-125867877D01*
X174802650Y-126013553D01*
X174809803Y-126089292D01*
X174820042Y-126165560D01*
X174831557Y-126229564D01*
X174835839Y-126247810D01*
X174887863Y-126391537D01*
X174965078Y-126524811D01*
X175063838Y-126643257D01*
X175180500Y-126742499D01*
X175310462Y-126817725D01*
X175405732Y-126856346D01*
X175500171Y-126882960D01*
X175604787Y-126900150D01*
X175697029Y-126908444D01*
X175842706Y-126918251D01*
X175842706Y-127257637D01*
X175842846Y-127367366D01*
X175843488Y-127451273D01*
X175844964Y-127513421D01*
X175847605Y-127557870D01*
X175851744Y-127588681D01*
X175857713Y-127609916D01*
X175865844Y-127625636D01*
X175873673Y-127636391D01*
X175890078Y-127654980D01*
X175908384Y-127666560D01*
X175935656Y-127672782D01*
X175978958Y-127675299D01*
X176042172Y-127675759D01*
X176102927Y-127676029D01*
X176150277Y-127674640D01*
X176185886Y-127668293D01*
X176211419Y-127653688D01*
X176228540Y-127627526D01*
X176238914Y-127586507D01*
X176244205Y-127527333D01*
X176246078Y-127446703D01*
X176246197Y-127341320D01*
X176246118Y-127271500D01*
X176246118Y-126913759D01*
X176707759Y-126913759D01*
X176712262Y-127263340D01*
X176713760Y-127385033D01*
X176715838Y-127480132D01*
X176720132Y-127551908D01*
X176728277Y-127603629D01*
X176741906Y-127638567D01*
X176762656Y-127659990D01*
X176792162Y-127671170D01*
X176832058Y-127675376D01*
X176883979Y-127675877D01*
X176918471Y-127675759D01*
X176977748Y-127675902D01*
X177024095Y-127674150D01*
X177059147Y-127667233D01*
X177084539Y-127651881D01*
X177101906Y-127624824D01*
X177112883Y-127582793D01*
X177119105Y-127522517D01*
X177122208Y-127440727D01*
X177123825Y-127334152D01*
X177124679Y-127263340D01*
X177129182Y-126913759D01*
X177574347Y-126913759D01*
X177578850Y-127266221D01*
X177580340Y-127387427D01*
X177582490Y-127482053D01*
X177587016Y-127553379D01*
X177595637Y-127604688D01*
X177610069Y-127639262D01*
X177632029Y-127660384D01*
X177663234Y-127671336D01*
X177705402Y-127675399D01*
X177760250Y-127675857D01*
X177793100Y-127675759D01*
X177858879Y-127675265D01*
X177901781Y-127672701D01*
X177928812Y-127666448D01*
X177946973Y-127654885D01*
X177963268Y-127636392D01*
X177963269Y-127636391D01*
X177973235Y-127622196D01*
X177980802Y-127605581D01*
X177986298Y-127582501D01*
X177990053Y-127548913D01*
X177992396Y-127500772D01*
X177993654Y-127434033D01*
X177994156Y-127344651D01*
X177994235Y-127255391D01*
X177994235Y-126913759D01*
X178457412Y-126913759D01*
X178457412Y-127271500D01*
X178457274Y-127391930D01*
X178457972Y-127485788D01*
X178461174Y-127556373D01*
X178468550Y-127606985D01*
X178481768Y-127640923D01*
X178502495Y-127661487D01*
X178532402Y-127671974D01*
X178573155Y-127675685D01*
X178626424Y-127675918D01*
X178661860Y-127675759D01*
X178720479Y-127675804D01*
X178766301Y-127673759D01*
X178800899Y-127666353D01*
X178825847Y-127650317D01*
X178842716Y-127622381D01*
X178853079Y-127579275D01*
X178858510Y-127517729D01*
X178860579Y-127434472D01*
X178860862Y-127326236D01*
X178860824Y-127262060D01*
X178860824Y-126913759D01*
X179324000Y-126913759D01*
X179324000Y-127264877D01*
X179323926Y-127386341D01*
X179324777Y-127481208D01*
X179328161Y-127552755D01*
X179335689Y-127604261D01*
X179348967Y-127639003D01*
X179369607Y-127660257D01*
X179399216Y-127671303D01*
X179439404Y-127675417D01*
X179491779Y-127675877D01*
X179525706Y-127675759D01*
X179594443Y-127674922D01*
X179640163Y-127671616D01*
X179669706Y-127664652D01*
X179689910Y-127652842D01*
X179697529Y-127645877D01*
X179707054Y-127634787D01*
X179714312Y-127620449D01*
X179719608Y-127598978D01*
X179723251Y-127566488D01*
X179725546Y-127519095D01*
X179726800Y-127452913D01*
X179727319Y-127364057D01*
X179727412Y-127267123D01*
X179727412Y-126918251D01*
X179873088Y-126908697D01*
X180004648Y-126895235D01*
X180116537Y-126872214D01*
X180218094Y-126837250D01*
X180294121Y-126801219D01*
X180430033Y-126713688D01*
X180544644Y-126605856D01*
X180636972Y-126479333D01*
X180706037Y-126335729D01*
X180750858Y-126176652D01*
X180769686Y-126021024D01*
X180777586Y-125867877D01*
X181126558Y-125867877D01*
X181247679Y-125867967D01*
X181342213Y-125867127D01*
X181413443Y-125863696D01*
X181464655Y-125856010D01*
X181499134Y-125842408D01*
X181520165Y-125821227D01*
X181531032Y-125790803D01*
X181535021Y-125749476D01*
X181535418Y-125695581D01*
X181535294Y-125661016D01*
X181535440Y-125600764D01*
X181533688Y-125553719D01*
X181526752Y-125518213D01*
X181511348Y-125492576D01*
X181484192Y-125475141D01*
X181441997Y-125464239D01*
X181381479Y-125458202D01*
X181299353Y-125455359D01*
X181192335Y-125454044D01*
X181126599Y-125453419D01*
X180780765Y-125449843D01*
X180776640Y-125225566D01*
X180772516Y-125001289D01*
X181110064Y-125001289D01*
X181228732Y-125000858D01*
X181321182Y-124999266D01*
X181391070Y-124996064D01*
X181442052Y-124990804D01*
X181477783Y-124983037D01*
X181501919Y-124972313D01*
X181518117Y-124958185D01*
X181523859Y-124950493D01*
X181529088Y-124927836D01*
X181532580Y-124883711D01*
X181534342Y-124826480D01*
X181534384Y-124764508D01*
X181532713Y-124706156D01*
X181529337Y-124659787D01*
X181524264Y-124633766D01*
X181523555Y-124632429D01*
X181508655Y-124616897D01*
X181483847Y-124604839D01*
X181445779Y-124595863D01*
X181391097Y-124589578D01*
X181316449Y-124585590D01*
X181218481Y-124583507D01*
X181100638Y-124582936D01*
X180772516Y-124582936D01*
X180776640Y-124355083D01*
X180780765Y-124127230D01*
X181131018Y-124123212D01*
X181244838Y-124121654D01*
X181332488Y-124119732D01*
X181397682Y-124117167D01*
X181444133Y-124113677D01*
X181475553Y-124108984D01*
X181495655Y-124102807D01*
X181508153Y-124094866D01*
X181508283Y-124094749D01*
X181521110Y-124078432D01*
X181529211Y-124053383D01*
X181533576Y-124013323D01*
X181535194Y-123951973D01*
X181535294Y-123923208D01*
X181535479Y-123862049D01*
X181533849Y-123814281D01*
X181527127Y-123778253D01*
X181512038Y-123752317D01*
X181485306Y-123734823D01*
X181443654Y-123724122D01*
X181383806Y-123718564D01*
X181302485Y-123716500D01*
X181196417Y-123716280D01*
X181124412Y-123716347D01*
X180773294Y-123716348D01*
X180773294Y-123253171D01*
X181129567Y-123253171D01*
X181250257Y-123253320D01*
X181344369Y-123252690D01*
X181415194Y-123249665D01*
X181466025Y-123242630D01*
X181500153Y-123229968D01*
X181520871Y-123210063D01*
X181531469Y-123181301D01*
X181535241Y-123142064D01*
X181535479Y-123090737D01*
X181535294Y-123054024D01*
X181535462Y-122993636D01*
X181533781Y-122946471D01*
X181526973Y-122910898D01*
X181511763Y-122885291D01*
X181484873Y-122868018D01*
X181443027Y-122857451D01*
X181382947Y-122851961D01*
X181301356Y-122849920D01*
X181194978Y-122849697D01*
X181124412Y-122849759D01*
X180773294Y-122849759D01*
X180773294Y-122469339D01*
X179487174Y-122469339D01*
X179487149Y-122573132D01*
X179486673Y-122699643D01*
X179485801Y-122851206D01*
X179484584Y-123030160D01*
X179484493Y-123042982D01*
X179483165Y-123223959D01*
X179481894Y-123377705D01*
X179480573Y-123506874D01*
X179479096Y-123614115D01*
X179477359Y-123702083D01*
X179475255Y-123773427D01*
X179472680Y-123830801D01*
X179469527Y-123876856D01*
X179465691Y-123914243D01*
X179461067Y-123945616D01*
X179455548Y-123973624D01*
X179449030Y-124000921D01*
X179445871Y-124013189D01*
X179383251Y-124205069D01*
X179301014Y-124374596D01*
X179198510Y-124522507D01*
X179075090Y-124649542D01*
X178930103Y-124756437D01*
X178762899Y-124843932D01*
X178687414Y-124874502D01*
X178562388Y-124917804D01*
X178449905Y-124947977D01*
X178337180Y-124967741D01*
X178211423Y-124979820D01*
X178184735Y-124981486D01*
X178024118Y-124990824D01*
X178024118Y-125329377D01*
X178023899Y-125445983D01*
X178022705Y-125536329D01*
X178019726Y-125604039D01*
X178014153Y-125652735D01*
X178005177Y-125686040D01*
X177991989Y-125707576D01*
X177973780Y-125720966D01*
X177949742Y-125729832D01*
X177933741Y-125734094D01*
X177889209Y-125740489D01*
X177828159Y-125743026D01*
X177759545Y-125742072D01*
X177692319Y-125737997D01*
X177635436Y-125731168D01*
X177597848Y-125721954D01*
X177593917Y-125720121D01*
X177583677Y-125713703D01*
X177575802Y-125704326D01*
X177569928Y-125688271D01*
X177565690Y-125661821D01*
X177562723Y-125621255D01*
X177560664Y-125562856D01*
X177559148Y-125482905D01*
X177557810Y-125377682D01*
X177557475Y-125348290D01*
X177553471Y-124993818D01*
X177404059Y-124983849D01*
X177274325Y-124971091D01*
X177155697Y-124949584D01*
X177036459Y-124916620D01*
X176904896Y-124869491D01*
X176898378Y-124866947D01*
X176777148Y-124814554D01*
X176675267Y-124758165D01*
X176582323Y-124691117D01*
X176487901Y-124606749D01*
X176480712Y-124599774D01*
X176363363Y-124467276D01*
X176266546Y-124317760D01*
X176188980Y-124148779D01*
X176129387Y-123957884D01*
X176116400Y-123903112D01*
X176110568Y-123862685D01*
X176105210Y-123797990D01*
X176100353Y-123712368D01*
X176096026Y-123609159D01*
X176092256Y-123491706D01*
X176089072Y-123363347D01*
X176086502Y-123227424D01*
X176084574Y-123087277D01*
X176083316Y-122946247D01*
X176082757Y-122807675D01*
X176082924Y-122674900D01*
X176083846Y-122551265D01*
X176085551Y-122440108D01*
X176088066Y-122344772D01*
X176091421Y-122268596D01*
X176095643Y-122214922D01*
X176100761Y-122187089D01*
X176101924Y-122184877D01*
X176113837Y-122172320D01*
X176131099Y-122163851D01*
X176159200Y-122158678D01*
X176203632Y-122156014D01*
X176269885Y-122155069D01*
X176309852Y-122154995D01*
X176397799Y-122156110D01*
X176459717Y-122159704D01*
X176499385Y-122166142D01*
X176520233Y-122175500D01*
X176525866Y-122182328D01*
X176530583Y-122194309D01*
X176534465Y-122213925D01*
X176537594Y-122243655D01*
X176540051Y-122285982D01*
X176541917Y-122343385D01*
X176543274Y-122418346D01*
X176544204Y-122513345D01*
X176544787Y-122630863D01*
X176545105Y-122773381D01*
X176545237Y-122937500D01*
X176545598Y-123089486D01*
X176546518Y-123234928D01*
X176547937Y-123370495D01*
X176549795Y-123492853D01*
X176552033Y-123598669D01*
X176554590Y-123684610D01*
X176557407Y-123747343D01*
X176560424Y-123783534D01*
X176560431Y-123783583D01*
X176598122Y-123957978D01*
X176658303Y-124112897D01*
X176740218Y-124247643D01*
X176843112Y-124361518D01*
X176966229Y-124453825D01*
X177108813Y-124523865D01*
X177270109Y-124570942D01*
X177437676Y-124593602D01*
X177560941Y-124602089D01*
X177560941Y-123389279D01*
X177560970Y-123170210D01*
X177561083Y-122979102D01*
X177561321Y-122814035D01*
X177561725Y-122673086D01*
X177562338Y-122554336D01*
X177563198Y-122455863D01*
X177564349Y-122375746D01*
X177565830Y-122312063D01*
X177567682Y-122262895D01*
X177569948Y-122226319D01*
X177572667Y-122200416D01*
X177575881Y-122183262D01*
X177579631Y-122172939D01*
X177583958Y-122167524D01*
X177587088Y-122165732D01*
X177611635Y-122161577D01*
X177659237Y-122158171D01*
X177723071Y-122155861D01*
X177796312Y-122154995D01*
X177797481Y-122154995D01*
X177875632Y-122155436D01*
X177929376Y-122157273D01*
X177964183Y-122161280D01*
X177985524Y-122168227D01*
X177998867Y-122178888D01*
X178002922Y-122183997D01*
X178006854Y-122193099D01*
X178010284Y-122210167D01*
X178013244Y-122237060D01*
X178015767Y-122275637D01*
X178017885Y-122327756D01*
X178019630Y-122395275D01*
X178021035Y-122480054D01*
X178022131Y-122583950D01*
X178022951Y-122708823D01*
X178023527Y-122856531D01*
X178023892Y-123028933D01*
X178024077Y-123227887D01*
X178024118Y-123405438D01*
X178024118Y-124597877D01*
X178092741Y-124597877D01*
X178155879Y-124593485D01*
X178235299Y-124581671D01*
X178321757Y-124564473D01*
X178406008Y-124543931D01*
X178478809Y-124522084D01*
X178530147Y-124501369D01*
X178658547Y-124423934D01*
X178764951Y-124333061D01*
X178852230Y-124225157D01*
X178923253Y-124096631D01*
X178980890Y-123943890D01*
X178984255Y-123932995D01*
X178991185Y-123909161D01*
X178997077Y-123884985D01*
X179002044Y-123857827D01*
X179006202Y-123825047D01*
X179009664Y-123784008D01*
X179012545Y-123732070D01*
X179014959Y-123666595D01*
X179017021Y-123584943D01*
X179018846Y-123484475D01*
X179020547Y-123362553D01*
X179022239Y-123216539D01*
X179024037Y-123043792D01*
X179024407Y-123007071D01*
X179032647Y-122185736D01*
X179070000Y-122166188D01*
X179103958Y-122156958D01*
X179158052Y-122151414D01*
X179224465Y-122149354D01*
X179295382Y-122150575D01*
X179362987Y-122154875D01*
X179419464Y-122162052D01*
X179456998Y-122171904D01*
X179464773Y-122176394D01*
X179470266Y-122182574D01*
X179474884Y-122192777D01*
X179478679Y-122209340D01*
X179481704Y-122234600D01*
X179484013Y-122270893D01*
X179485659Y-122320556D01*
X179486695Y-122385926D01*
X179487174Y-122469339D01*
X180773294Y-122469339D01*
X180773294Y-122386583D01*
X181129567Y-122386583D01*
X181250257Y-122386732D01*
X181344369Y-122386102D01*
X181415194Y-122383077D01*
X181466025Y-122376042D01*
X181500153Y-122363380D01*
X181520871Y-122343475D01*
X181531469Y-122314713D01*
X181535241Y-122275476D01*
X181535479Y-122224149D01*
X181535294Y-122187436D01*
X181535454Y-122126903D01*
X181533743Y-122079661D01*
X181526874Y-122044066D01*
X181511562Y-122018476D01*
X181484521Y-122001249D01*
X181442464Y-121990742D01*
X181382106Y-121985312D01*
X181300160Y-121983317D01*
X181193341Y-121983114D01*
X181126650Y-121983171D01*
X180777771Y-121983171D01*
X180769194Y-121820588D01*
X180751886Y-121663787D01*
X180716083Y-121526213D01*
X180659309Y-121401868D01*
X180579090Y-121284753D01*
X180520210Y-121217097D01*
X180407989Y-121114986D01*
X180284263Y-121037456D01*
X180146022Y-120983196D01*
X179990258Y-120950895D01*
X179888029Y-120941557D01*
X179727412Y-120932812D01*
X179727412Y-120233695D01*
X179690738Y-120197021D01*
X179669655Y-120178819D01*
X179645951Y-120167856D01*
X179611691Y-120162338D01*
X179558937Y-120160473D01*
X179528400Y-120160348D01*
X179462172Y-120161613D01*
X179417681Y-120166420D01*
X179386849Y-120176285D01*
X179363368Y-120191314D01*
X179324000Y-120222281D01*
X179324000Y-120937289D01*
X178860824Y-120937289D01*
X178860824Y-120233627D01*
X178821289Y-120196987D01*
X178798212Y-120178541D01*
X178772649Y-120167543D01*
X178736321Y-120162124D01*
X178680949Y-120160416D01*
X178658951Y-120160348D01*
X178593304Y-120161691D01*
X178549237Y-120166767D01*
X178518526Y-120177147D01*
X178496780Y-120191314D01*
X178457412Y-120222281D01*
X178457412Y-120937289D01*
X177994235Y-120937289D01*
X177994235Y-120600130D01*
X177993921Y-120474334D01*
X177991986Y-120375229D01*
X177986945Y-120299627D01*
X177977313Y-120244337D01*
X177961604Y-120206169D01*
X177938331Y-120181934D01*
X177906010Y-120168441D01*
X177863155Y-120162500D01*
X177808279Y-120160921D01*
X177789627Y-120160823D01*
X177726451Y-120161591D01*
X177684646Y-120165713D01*
X177655744Y-120175023D01*
X177631271Y-120191351D01*
X177625274Y-120196382D01*
X177583353Y-120232416D01*
X177578850Y-120584852D01*
X177574347Y-120937289D01*
X177127647Y-120937289D01*
X177127647Y-120600130D01*
X177127349Y-120474288D01*
X177125445Y-120375146D01*
X177120416Y-120299519D01*
X177110745Y-120244224D01*
X177094916Y-120206079D01*
X177071410Y-120181900D01*
X177038711Y-120168504D01*
X176995301Y-120162707D01*
X176939662Y-120161327D01*
X176918471Y-120161298D01*
X176858510Y-120161920D01*
X176811265Y-120165909D01*
X176775221Y-120176445D01*
X176748862Y-120196711D01*
X176730672Y-120229889D01*
X176719138Y-120279160D01*
X176712743Y-120347707D01*
X176709971Y-120438710D01*
X176709308Y-120555353D01*
X176709294Y-120600519D01*
X176709294Y-120938067D01*
X176481441Y-120933943D01*
X176253588Y-120929818D01*
X176249585Y-120575838D01*
X176245581Y-120221859D01*
X176206481Y-120191103D01*
X176180685Y-120175070D01*
X176148314Y-120165642D01*
X176101177Y-120161263D01*
X176044579Y-120160348D01*
X175981732Y-120161294D01*
D13*
%TO.C,LOGO1*%
G36*
X176391750Y-113496654D02*
G01*
X177286042Y-112602363D01*
X176968542Y-112271633D01*
X174772500Y-114470321D01*
X175103229Y-114798404D01*
X175992229Y-113906758D01*
X178820625Y-116751029D01*
X179230729Y-116338279D01*
X176391750Y-113496654D01*
G37*
G36*
X179085208Y-115930821D02*
G01*
X182260208Y-112755821D01*
X181847458Y-112351008D01*
X180482208Y-113718904D01*
X178876187Y-112110238D01*
X180244083Y-110739696D01*
X179828687Y-110324300D01*
X176653687Y-113499300D01*
X177074375Y-113909404D01*
X178534875Y-112443613D01*
X180143542Y-114046988D01*
X178677750Y-115512779D01*
X179085208Y-115930821D01*
G37*
D11*
%TO.C,MX11*%
X142790800Y-115767600D02*
X142790800Y-115467600D01*
X142790800Y-115467600D02*
X142490800Y-115467600D01*
%TO.C,MX17*%
X142790800Y-153865200D02*
X142790800Y-153565200D01*
X142790800Y-153565200D02*
X142490800Y-153565200D01*
%TO.C,MX15*%
X100118800Y-161839600D02*
X100418800Y-161839600D01*
X100418800Y-161839600D02*
X100418800Y-161539600D01*
D10*
%TO.C,U1*%
X181916600Y-68892200D02*
X181916600Y-99372200D01*
X176836600Y-68892200D02*
X181916600Y-68892200D01*
X176836600Y-66352200D02*
X176836600Y-68892200D01*
X169216600Y-66352200D02*
X176836600Y-66352200D01*
X169216600Y-68892200D02*
X169216600Y-66352200D01*
X164136600Y-68892200D02*
X169216600Y-68892200D01*
X164136600Y-99372200D02*
X164136600Y-68892200D01*
X181916600Y-99372200D02*
X164136600Y-99372200D01*
D11*
%TO.C,MX16*%
X124992000Y-168339600D02*
X124992000Y-168639600D01*
X125292000Y-168339600D02*
X124992000Y-168339600D01*
%TO.C,MX10*%
X124992000Y-130242000D02*
X124992000Y-130542000D01*
X125292000Y-130242000D02*
X124992000Y-130242000D01*
%TO.C,MX9*%
X105943200Y-130242000D02*
X105943200Y-130542000D01*
X106243200Y-130242000D02*
X105943200Y-130242000D01*
%TO.C,MX8*%
X86894400Y-130242000D02*
X86894400Y-130542000D01*
X87194400Y-130242000D02*
X86894400Y-130242000D01*
%TO.C,MX3*%
X124992000Y-92144400D02*
X124992000Y-92444400D01*
X125292000Y-92144400D02*
X124992000Y-92144400D01*
%TO.C,MX2*%
X105943200Y-92144400D02*
X105943200Y-92444400D01*
X106243200Y-92144400D02*
X105943200Y-92144400D01*
%TO.C,MX1*%
X86894400Y-92144400D02*
X86894400Y-92444400D01*
X87194400Y-92144400D02*
X86894400Y-92144400D01*
%TO.C,LC11*%
X139749900Y-123712248D02*
X139749900Y-124234752D01*
X141219900Y-123712248D02*
X141219900Y-124234752D01*
%TO.C,MX4*%
X86894400Y-111193200D02*
X86894400Y-111493200D01*
X87194400Y-111193200D02*
X86894400Y-111193200D01*
%TO.C,LC16*%
X133080348Y-171380500D02*
X133602852Y-171380500D01*
X133080348Y-169910500D02*
X133602852Y-169910500D01*
%TO.C,LC18*%
X175940148Y-172967900D02*
X176462652Y-172967900D01*
X175940148Y-171497900D02*
X176462652Y-171497900D01*
%TO.C,LC17*%
X139749900Y-161653548D02*
X139749900Y-162176052D01*
X141219900Y-161653548D02*
X141219900Y-162176052D01*
%TO.C,LC10*%
X133236648Y-134870300D02*
X133759152Y-134870300D01*
X133236648Y-133400300D02*
X133759152Y-133400300D01*
%TO.C,LC9*%
X114187848Y-134870300D02*
X114710352Y-134870300D01*
X114187848Y-133400300D02*
X114710352Y-133400300D01*
%TO.C,LC4*%
X94982748Y-115821500D02*
X95505252Y-115821500D01*
X94982748Y-114351500D02*
X95505252Y-114351500D01*
%TO.C,LC3*%
X133236648Y-96772700D02*
X133759152Y-96772700D01*
X133236648Y-95302700D02*
X133759152Y-95302700D01*
%TO.C,LC2*%
X114187848Y-96772700D02*
X114710352Y-96772700D01*
X114187848Y-95302700D02*
X114710352Y-95302700D01*
%TO.C,MX14*%
X124992000Y-149290800D02*
X124992000Y-149590800D01*
X125292000Y-149290800D02*
X124992000Y-149290800D01*
%TO.C,MX13*%
X105943200Y-149290800D02*
X105943200Y-149590800D01*
X106243200Y-149290800D02*
X105943200Y-149290800D01*
%TO.C,MX12*%
X86894400Y-149290800D02*
X86894400Y-149590800D01*
X87194400Y-149290800D02*
X86894400Y-149290800D01*
%TO.C,MX6*%
X124992000Y-111193200D02*
X124992000Y-111493200D01*
X125292000Y-111193200D02*
X124992000Y-111193200D01*
%TO.C,MX5*%
X105943200Y-111193200D02*
X105943200Y-111493200D01*
X106243200Y-111193200D02*
X105943200Y-111193200D01*
%TO.C,R1*%
X84073500Y-93089964D02*
X84073500Y-92635836D01*
X82603500Y-93089964D02*
X82603500Y-92635836D01*
%TO.C,LC15*%
X92330452Y-157211300D02*
X91807948Y-157211300D01*
X92330452Y-158681300D02*
X91807948Y-158681300D01*
%TO.C,LC14*%
X133080348Y-153919100D02*
X133602852Y-153919100D01*
X133080348Y-152449100D02*
X133602852Y-152449100D01*
%TO.C,LC13*%
X114031548Y-153919100D02*
X114554052Y-153919100D01*
X114031548Y-152449100D02*
X114554052Y-152449100D01*
%TO.C,LC12*%
X95139048Y-153919100D02*
X95661552Y-153919100D01*
X95139048Y-152449100D02*
X95661552Y-152449100D01*
%TO.C,LC8*%
X95139048Y-134870300D02*
X95661552Y-134870300D01*
X95139048Y-133400300D02*
X95661552Y-133400300D01*
%TO.C,LC7*%
X152331700Y-93917852D02*
X152331700Y-93395348D01*
X150861700Y-93917852D02*
X150861700Y-93395348D01*
%TO.C,LC6*%
X133080348Y-115821500D02*
X133602852Y-115821500D01*
X133080348Y-114351500D02*
X133602852Y-114351500D01*
%TO.C,LC5*%
X114031548Y-115821500D02*
X114554052Y-115821500D01*
X114031548Y-114351500D02*
X114554052Y-114351500D01*
%TO.C,LC1*%
X95185300Y-93917852D02*
X95185300Y-93395348D01*
X93715300Y-93917852D02*
X93715300Y-93395348D01*
D10*
%TO.C,SW1*%
X175626600Y-70420400D02*
X170426600Y-70420400D01*
X170426600Y-70420400D02*
X170426600Y-75620400D01*
X170426600Y-75620400D02*
X175626600Y-75620400D01*
X175626600Y-75620400D02*
X175626600Y-70420400D01*
X174026600Y-73020400D02*
G75*
G03*
X174026600Y-73020400I-1000000J0D01*
G01*
D11*
%TO.C,R2*%
X177222164Y-77047600D02*
X176768036Y-77047600D01*
X177222164Y-78517600D02*
X176768036Y-78517600D01*
%TO.C,RD2*%
D10*
X159406666Y-145168380D02*
X159740000Y-144692190D01*
X159978095Y-145168380D02*
X159978095Y-144168380D01*
X159597142Y-144168380D01*
X159501904Y-144216000D01*
X159454285Y-144263619D01*
X159406666Y-144358857D01*
X159406666Y-144501714D01*
X159454285Y-144596952D01*
X159501904Y-144644571D01*
X159597142Y-144692190D01*
X159978095Y-144692190D01*
X158978095Y-145168380D02*
X158978095Y-144168380D01*
X158740000Y-144168380D01*
X158597142Y-144216000D01*
X158501904Y-144311238D01*
X158454285Y-144406476D01*
X158406666Y-144596952D01*
X158406666Y-144739809D01*
X158454285Y-144930285D01*
X158501904Y-145025523D01*
X158597142Y-145120761D01*
X158740000Y-145168380D01*
X158978095Y-145168380D01*
X158025714Y-144263619D02*
X157978095Y-144216000D01*
X157882857Y-144168380D01*
X157644761Y-144168380D01*
X157549523Y-144216000D01*
X157501904Y-144263619D01*
X157454285Y-144358857D01*
X157454285Y-144454095D01*
X157501904Y-144596952D01*
X158073333Y-145168380D01*
X157454285Y-145168380D01*
%TO.C,RD1*%
X140143580Y-76322233D02*
X139667390Y-75988900D01*
X140143580Y-75750804D02*
X139143580Y-75750804D01*
X139143580Y-76131757D01*
X139191200Y-76226995D01*
X139238819Y-76274614D01*
X139334057Y-76322233D01*
X139476914Y-76322233D01*
X139572152Y-76274614D01*
X139619771Y-76226995D01*
X139667390Y-76131757D01*
X139667390Y-75750804D01*
X140143580Y-76750804D02*
X139143580Y-76750804D01*
X139143580Y-76988900D01*
X139191200Y-77131757D01*
X139286438Y-77226995D01*
X139381676Y-77274614D01*
X139572152Y-77322233D01*
X139715009Y-77322233D01*
X139905485Y-77274614D01*
X140000723Y-77226995D01*
X140095961Y-77131757D01*
X140143580Y-76988900D01*
X140143580Y-76750804D01*
X140143580Y-78274614D02*
X140143580Y-77703185D01*
X140143580Y-77988900D02*
X139143580Y-77988900D01*
X139286438Y-77893661D01*
X139381676Y-77798423D01*
X139429295Y-77703185D01*
%TO.C,D18*%
X180091180Y-163875314D02*
X179091180Y-163875314D01*
X179091180Y-164113409D01*
X179138800Y-164256266D01*
X179234038Y-164351504D01*
X179329276Y-164399123D01*
X179519752Y-164446742D01*
X179662609Y-164446742D01*
X179853085Y-164399123D01*
X179948323Y-164351504D01*
X180043561Y-164256266D01*
X180091180Y-164113409D01*
X180091180Y-163875314D01*
X180091180Y-165399123D02*
X180091180Y-164827695D01*
X180091180Y-165113409D02*
X179091180Y-165113409D01*
X179234038Y-165018171D01*
X179329276Y-164922933D01*
X179376895Y-164827695D01*
X179519752Y-165970552D02*
X179472133Y-165875314D01*
X179424514Y-165827695D01*
X179329276Y-165780076D01*
X179281657Y-165780076D01*
X179186419Y-165827695D01*
X179138800Y-165875314D01*
X179091180Y-165970552D01*
X179091180Y-166161028D01*
X179138800Y-166256266D01*
X179186419Y-166303885D01*
X179281657Y-166351504D01*
X179329276Y-166351504D01*
X179424514Y-166303885D01*
X179472133Y-166256266D01*
X179519752Y-166161028D01*
X179519752Y-165970552D01*
X179567371Y-165875314D01*
X179614990Y-165827695D01*
X179710228Y-165780076D01*
X179900704Y-165780076D01*
X179995942Y-165827695D01*
X180043561Y-165875314D01*
X180091180Y-165970552D01*
X180091180Y-166161028D01*
X180043561Y-166256266D01*
X179995942Y-166303885D01*
X179900704Y-166351504D01*
X179710228Y-166351504D01*
X179614990Y-166303885D01*
X179567371Y-166256266D01*
X179519752Y-166161028D01*
%TO.C,D17*%
X147255085Y-166598280D02*
X147255085Y-165598280D01*
X147016990Y-165598280D01*
X146874133Y-165645900D01*
X146778895Y-165741138D01*
X146731276Y-165836376D01*
X146683657Y-166026852D01*
X146683657Y-166169709D01*
X146731276Y-166360185D01*
X146778895Y-166455423D01*
X146874133Y-166550661D01*
X147016990Y-166598280D01*
X147255085Y-166598280D01*
X145731276Y-166598280D02*
X146302704Y-166598280D01*
X146016990Y-166598280D02*
X146016990Y-165598280D01*
X146112228Y-165741138D01*
X146207466Y-165836376D01*
X146302704Y-165883995D01*
X145397942Y-165598280D02*
X144731276Y-165598280D01*
X145159847Y-166598280D01*
%TO.C,D16*%
X138818780Y-159906814D02*
X137818780Y-159906814D01*
X137818780Y-160144909D01*
X137866400Y-160287766D01*
X137961638Y-160383004D01*
X138056876Y-160430623D01*
X138247352Y-160478242D01*
X138390209Y-160478242D01*
X138580685Y-160430623D01*
X138675923Y-160383004D01*
X138771161Y-160287766D01*
X138818780Y-160144909D01*
X138818780Y-159906814D01*
X138818780Y-161430623D02*
X138818780Y-160859195D01*
X138818780Y-161144909D02*
X137818780Y-161144909D01*
X137961638Y-161049671D01*
X138056876Y-160954433D01*
X138104495Y-160859195D01*
X137818780Y-162287766D02*
X137818780Y-162097290D01*
X137866400Y-162002052D01*
X137914019Y-161954433D01*
X138056876Y-161859195D01*
X138247352Y-161811576D01*
X138628304Y-161811576D01*
X138723542Y-161859195D01*
X138771161Y-161906814D01*
X138818780Y-162002052D01*
X138818780Y-162192528D01*
X138771161Y-162287766D01*
X138723542Y-162335385D01*
X138628304Y-162383004D01*
X138390209Y-162383004D01*
X138294971Y-162335385D01*
X138247352Y-162287766D01*
X138199733Y-162192528D01*
X138199733Y-162002052D01*
X138247352Y-161906814D01*
X138294971Y-161859195D01*
X138390209Y-161811576D01*
%TO.C,D15*%
X89084180Y-163875314D02*
X88084180Y-163875314D01*
X88084180Y-164113409D01*
X88131800Y-164256266D01*
X88227038Y-164351504D01*
X88322276Y-164399123D01*
X88512752Y-164446742D01*
X88655609Y-164446742D01*
X88846085Y-164399123D01*
X88941323Y-164351504D01*
X89036561Y-164256266D01*
X89084180Y-164113409D01*
X89084180Y-163875314D01*
X89084180Y-165399123D02*
X89084180Y-164827695D01*
X89084180Y-165113409D02*
X88084180Y-165113409D01*
X88227038Y-165018171D01*
X88322276Y-164922933D01*
X88369895Y-164827695D01*
X88084180Y-166303885D02*
X88084180Y-165827695D01*
X88560371Y-165780076D01*
X88512752Y-165827695D01*
X88465133Y-165922933D01*
X88465133Y-166161028D01*
X88512752Y-166256266D01*
X88560371Y-166303885D01*
X88655609Y-166351504D01*
X88893704Y-166351504D01*
X88988942Y-166303885D01*
X89036561Y-166256266D01*
X89084180Y-166161028D01*
X89084180Y-165922933D01*
X89036561Y-165827695D01*
X88988942Y-165780076D01*
%TO.C,D14*%
X139318085Y-136706180D02*
X139318085Y-135706180D01*
X139079990Y-135706180D01*
X138937133Y-135753800D01*
X138841895Y-135849038D01*
X138794276Y-135944276D01*
X138746657Y-136134752D01*
X138746657Y-136277609D01*
X138794276Y-136468085D01*
X138841895Y-136563323D01*
X138937133Y-136658561D01*
X139079990Y-136706180D01*
X139318085Y-136706180D01*
X137794276Y-136706180D02*
X138365704Y-136706180D01*
X138079990Y-136706180D02*
X138079990Y-135706180D01*
X138175228Y-135849038D01*
X138270466Y-135944276D01*
X138365704Y-135991895D01*
X136937133Y-136039514D02*
X136937133Y-136706180D01*
X137175228Y-135658561D02*
X137413323Y-136372847D01*
X136794276Y-136372847D01*
%TO.C,D13*%
X118182580Y-144826514D02*
X117182580Y-144826514D01*
X117182580Y-145064609D01*
X117230200Y-145207466D01*
X117325438Y-145302704D01*
X117420676Y-145350323D01*
X117611152Y-145397942D01*
X117754009Y-145397942D01*
X117944485Y-145350323D01*
X118039723Y-145302704D01*
X118134961Y-145207466D01*
X118182580Y-145064609D01*
X118182580Y-144826514D01*
X118182580Y-146350323D02*
X118182580Y-145778895D01*
X118182580Y-146064609D02*
X117182580Y-146064609D01*
X117325438Y-145969371D01*
X117420676Y-145874133D01*
X117468295Y-145778895D01*
X117182580Y-146683657D02*
X117182580Y-147302704D01*
X117563533Y-146969371D01*
X117563533Y-147112228D01*
X117611152Y-147207466D01*
X117658771Y-147255085D01*
X117754009Y-147302704D01*
X117992104Y-147302704D01*
X118087342Y-147255085D01*
X118134961Y-147207466D01*
X118182580Y-147112228D01*
X118182580Y-146826514D01*
X118134961Y-146731276D01*
X118087342Y-146683657D01*
%TO.C,D12*%
X99133780Y-144826514D02*
X98133780Y-144826514D01*
X98133780Y-145064609D01*
X98181400Y-145207466D01*
X98276638Y-145302704D01*
X98371876Y-145350323D01*
X98562352Y-145397942D01*
X98705209Y-145397942D01*
X98895685Y-145350323D01*
X98990923Y-145302704D01*
X99086161Y-145207466D01*
X99133780Y-145064609D01*
X99133780Y-144826514D01*
X99133780Y-146350323D02*
X99133780Y-145778895D01*
X99133780Y-146064609D02*
X98133780Y-146064609D01*
X98276638Y-145969371D01*
X98371876Y-145874133D01*
X98419495Y-145778895D01*
X98229019Y-146731276D02*
X98181400Y-146778895D01*
X98133780Y-146874133D01*
X98133780Y-147112228D01*
X98181400Y-147207466D01*
X98229019Y-147255085D01*
X98324257Y-147302704D01*
X98419495Y-147302704D01*
X98562352Y-147255085D01*
X99133780Y-146683657D01*
X99133780Y-147302704D01*
%TO.C,D11*%
X147255085Y-128500680D02*
X147255085Y-127500680D01*
X147016990Y-127500680D01*
X146874133Y-127548300D01*
X146778895Y-127643538D01*
X146731276Y-127738776D01*
X146683657Y-127929252D01*
X146683657Y-128072109D01*
X146731276Y-128262585D01*
X146778895Y-128357823D01*
X146874133Y-128453061D01*
X147016990Y-128500680D01*
X147255085Y-128500680D01*
X145731276Y-128500680D02*
X146302704Y-128500680D01*
X146016990Y-128500680D02*
X146016990Y-127500680D01*
X146112228Y-127643538D01*
X146207466Y-127738776D01*
X146302704Y-127786395D01*
X144778895Y-128500680D02*
X145350323Y-128500680D01*
X145064609Y-128500680D02*
X145064609Y-127500680D01*
X145159847Y-127643538D01*
X145255085Y-127738776D01*
X145350323Y-127786395D01*
%TO.C,D10*%
X138818780Y-121809214D02*
X137818780Y-121809214D01*
X137818780Y-122047309D01*
X137866400Y-122190166D01*
X137961638Y-122285404D01*
X138056876Y-122333023D01*
X138247352Y-122380642D01*
X138390209Y-122380642D01*
X138580685Y-122333023D01*
X138675923Y-122285404D01*
X138771161Y-122190166D01*
X138818780Y-122047309D01*
X138818780Y-121809214D01*
X138818780Y-123333023D02*
X138818780Y-122761595D01*
X138818780Y-123047309D02*
X137818780Y-123047309D01*
X137961638Y-122952071D01*
X138056876Y-122856833D01*
X138104495Y-122761595D01*
X137818780Y-123952071D02*
X137818780Y-124047309D01*
X137866400Y-124142547D01*
X137914019Y-124190166D01*
X138009257Y-124237785D01*
X138199733Y-124285404D01*
X138437828Y-124285404D01*
X138628304Y-124237785D01*
X138723542Y-124190166D01*
X138771161Y-124142547D01*
X138818780Y-124047309D01*
X138818780Y-123952071D01*
X138771161Y-123856833D01*
X138723542Y-123809214D01*
X138628304Y-123761595D01*
X138437828Y-123713976D01*
X138199733Y-123713976D01*
X138009257Y-123761595D01*
X137914019Y-123809214D01*
X137866400Y-123856833D01*
X137818780Y-123952071D01*
%TO.C,D9*%
X118182580Y-126253904D02*
X117182580Y-126253904D01*
X117182580Y-126492000D01*
X117230200Y-126634857D01*
X117325438Y-126730095D01*
X117420676Y-126777714D01*
X117611152Y-126825333D01*
X117754009Y-126825333D01*
X117944485Y-126777714D01*
X118039723Y-126730095D01*
X118134961Y-126634857D01*
X118182580Y-126492000D01*
X118182580Y-126253904D01*
X118182580Y-127301523D02*
X118182580Y-127492000D01*
X118134961Y-127587238D01*
X118087342Y-127634857D01*
X117944485Y-127730095D01*
X117754009Y-127777714D01*
X117373057Y-127777714D01*
X117277819Y-127730095D01*
X117230200Y-127682476D01*
X117182580Y-127587238D01*
X117182580Y-127396761D01*
X117230200Y-127301523D01*
X117277819Y-127253904D01*
X117373057Y-127206285D01*
X117611152Y-127206285D01*
X117706390Y-127253904D01*
X117754009Y-127301523D01*
X117801628Y-127396761D01*
X117801628Y-127587238D01*
X117754009Y-127682476D01*
X117706390Y-127730095D01*
X117611152Y-127777714D01*
%TO.C,D8*%
X99133780Y-126253904D02*
X98133780Y-126253904D01*
X98133780Y-126492000D01*
X98181400Y-126634857D01*
X98276638Y-126730095D01*
X98371876Y-126777714D01*
X98562352Y-126825333D01*
X98705209Y-126825333D01*
X98895685Y-126777714D01*
X98990923Y-126730095D01*
X99086161Y-126634857D01*
X99133780Y-126492000D01*
X99133780Y-126253904D01*
X98562352Y-127396761D02*
X98514733Y-127301523D01*
X98467114Y-127253904D01*
X98371876Y-127206285D01*
X98324257Y-127206285D01*
X98229019Y-127253904D01*
X98181400Y-127301523D01*
X98133780Y-127396761D01*
X98133780Y-127587238D01*
X98181400Y-127682476D01*
X98229019Y-127730095D01*
X98324257Y-127777714D01*
X98371876Y-127777714D01*
X98467114Y-127730095D01*
X98514733Y-127682476D01*
X98562352Y-127587238D01*
X98562352Y-127396761D01*
X98609971Y-127301523D01*
X98657590Y-127253904D01*
X98752828Y-127206285D01*
X98943304Y-127206285D01*
X99038542Y-127253904D01*
X99086161Y-127301523D01*
X99133780Y-127396761D01*
X99133780Y-127587238D01*
X99086161Y-127682476D01*
X99038542Y-127730095D01*
X98943304Y-127777714D01*
X98752828Y-127777714D01*
X98657590Y-127730095D01*
X98609971Y-127682476D01*
X98562352Y-127587238D01*
%TO.C,D7*%
X156280180Y-88156304D02*
X155280180Y-88156304D01*
X155280180Y-88394400D01*
X155327800Y-88537257D01*
X155423038Y-88632495D01*
X155518276Y-88680114D01*
X155708752Y-88727733D01*
X155851609Y-88727733D01*
X156042085Y-88680114D01*
X156137323Y-88632495D01*
X156232561Y-88537257D01*
X156280180Y-88394400D01*
X156280180Y-88156304D01*
X155280180Y-89061066D02*
X155280180Y-89727733D01*
X156280180Y-89299161D01*
%TO.C,D6*%
X138841895Y-97814880D02*
X138841895Y-96814880D01*
X138603800Y-96814880D01*
X138460942Y-96862500D01*
X138365704Y-96957738D01*
X138318085Y-97052976D01*
X138270466Y-97243452D01*
X138270466Y-97386309D01*
X138318085Y-97576785D01*
X138365704Y-97672023D01*
X138460942Y-97767261D01*
X138603800Y-97814880D01*
X138841895Y-97814880D01*
X137413323Y-96814880D02*
X137603800Y-96814880D01*
X137699038Y-96862500D01*
X137746657Y-96910119D01*
X137841895Y-97052976D01*
X137889514Y-97243452D01*
X137889514Y-97624404D01*
X137841895Y-97719642D01*
X137794276Y-97767261D01*
X137699038Y-97814880D01*
X137508561Y-97814880D01*
X137413323Y-97767261D01*
X137365704Y-97719642D01*
X137318085Y-97624404D01*
X137318085Y-97386309D01*
X137365704Y-97291071D01*
X137413323Y-97243452D01*
X137508561Y-97195833D01*
X137699038Y-97195833D01*
X137794276Y-97243452D01*
X137841895Y-97291071D01*
X137889514Y-97386309D01*
%TO.C,D5*%
X118182580Y-107205104D02*
X117182580Y-107205104D01*
X117182580Y-107443200D01*
X117230200Y-107586057D01*
X117325438Y-107681295D01*
X117420676Y-107728914D01*
X117611152Y-107776533D01*
X117754009Y-107776533D01*
X117944485Y-107728914D01*
X118039723Y-107681295D01*
X118134961Y-107586057D01*
X118182580Y-107443200D01*
X118182580Y-107205104D01*
X117182580Y-108681295D02*
X117182580Y-108205104D01*
X117658771Y-108157485D01*
X117611152Y-108205104D01*
X117563533Y-108300342D01*
X117563533Y-108538438D01*
X117611152Y-108633676D01*
X117658771Y-108681295D01*
X117754009Y-108728914D01*
X117992104Y-108728914D01*
X118087342Y-108681295D01*
X118134961Y-108633676D01*
X118182580Y-108538438D01*
X118182580Y-108300342D01*
X118134961Y-108205104D01*
X118087342Y-108157485D01*
%TO.C,D4*%
X99133780Y-107205104D02*
X98133780Y-107205104D01*
X98133780Y-107443200D01*
X98181400Y-107586057D01*
X98276638Y-107681295D01*
X98371876Y-107728914D01*
X98562352Y-107776533D01*
X98705209Y-107776533D01*
X98895685Y-107728914D01*
X98990923Y-107681295D01*
X99086161Y-107586057D01*
X99133780Y-107443200D01*
X99133780Y-107205104D01*
X98467114Y-108633676D02*
X99133780Y-108633676D01*
X98086161Y-108395580D02*
X98800447Y-108157485D01*
X98800447Y-108776533D01*
%TO.C,D3*%
X137231380Y-88156304D02*
X136231380Y-88156304D01*
X136231380Y-88394400D01*
X136279000Y-88537257D01*
X136374238Y-88632495D01*
X136469476Y-88680114D01*
X136659952Y-88727733D01*
X136802809Y-88727733D01*
X136993285Y-88680114D01*
X137088523Y-88632495D01*
X137183761Y-88537257D01*
X137231380Y-88394400D01*
X137231380Y-88156304D01*
X136231380Y-89061066D02*
X136231380Y-89680114D01*
X136612333Y-89346780D01*
X136612333Y-89489638D01*
X136659952Y-89584876D01*
X136707571Y-89632495D01*
X136802809Y-89680114D01*
X137040904Y-89680114D01*
X137136142Y-89632495D01*
X137183761Y-89584876D01*
X137231380Y-89489638D01*
X137231380Y-89203923D01*
X137183761Y-89108685D01*
X137136142Y-89061066D01*
%TO.C,D2*%
X118182580Y-88156304D02*
X117182580Y-88156304D01*
X117182580Y-88394400D01*
X117230200Y-88537257D01*
X117325438Y-88632495D01*
X117420676Y-88680114D01*
X117611152Y-88727733D01*
X117754009Y-88727733D01*
X117944485Y-88680114D01*
X118039723Y-88632495D01*
X118134961Y-88537257D01*
X118182580Y-88394400D01*
X118182580Y-88156304D01*
X117277819Y-89108685D02*
X117230200Y-89156304D01*
X117182580Y-89251542D01*
X117182580Y-89489638D01*
X117230200Y-89584876D01*
X117277819Y-89632495D01*
X117373057Y-89680114D01*
X117468295Y-89680114D01*
X117611152Y-89632495D01*
X118182580Y-89061066D01*
X118182580Y-89680114D01*
%TO.C,D1*%
X99133780Y-88156304D02*
X98133780Y-88156304D01*
X98133780Y-88394400D01*
X98181400Y-88537257D01*
X98276638Y-88632495D01*
X98371876Y-88680114D01*
X98562352Y-88727733D01*
X98705209Y-88727733D01*
X98895685Y-88680114D01*
X98990923Y-88632495D01*
X99086161Y-88537257D01*
X99133780Y-88394400D01*
X99133780Y-88156304D01*
X99133780Y-89680114D02*
X99133780Y-89108685D01*
X99133780Y-89394400D02*
X98133780Y-89394400D01*
X98276638Y-89299161D01*
X98371876Y-89203923D01*
X98419495Y-89108685D01*
%TO.C,LC11*%
X141627757Y-126650680D02*
X142103947Y-126650680D01*
X142103947Y-125650680D01*
X140722995Y-126555442D02*
X140770614Y-126603061D01*
X140913471Y-126650680D01*
X141008709Y-126650680D01*
X141151566Y-126603061D01*
X141246804Y-126507823D01*
X141294423Y-126412585D01*
X141342042Y-126222109D01*
X141342042Y-126079252D01*
X141294423Y-125888776D01*
X141246804Y-125793538D01*
X141151566Y-125698300D01*
X141008709Y-125650680D01*
X140913471Y-125650680D01*
X140770614Y-125698300D01*
X140722995Y-125745919D01*
X139770614Y-126650680D02*
X140342042Y-126650680D01*
X140056328Y-126650680D02*
X140056328Y-125650680D01*
X140151566Y-125793538D01*
X140246804Y-125888776D01*
X140342042Y-125936395D01*
X138818233Y-126650680D02*
X139389661Y-126650680D01*
X139103947Y-126650680D02*
X139103947Y-125650680D01*
X139199185Y-125793538D01*
X139294423Y-125888776D01*
X139389661Y-125936395D01*
%TO.C,LC16*%
X134484457Y-172685280D02*
X134960647Y-172685280D01*
X134960647Y-171685280D01*
X133579695Y-172590042D02*
X133627314Y-172637661D01*
X133770171Y-172685280D01*
X133865409Y-172685280D01*
X134008266Y-172637661D01*
X134103504Y-172542423D01*
X134151123Y-172447185D01*
X134198742Y-172256709D01*
X134198742Y-172113852D01*
X134151123Y-171923376D01*
X134103504Y-171828138D01*
X134008266Y-171732900D01*
X133865409Y-171685280D01*
X133770171Y-171685280D01*
X133627314Y-171732900D01*
X133579695Y-171780519D01*
X132627314Y-172685280D02*
X133198742Y-172685280D01*
X132913028Y-172685280D02*
X132913028Y-171685280D01*
X133008266Y-171828138D01*
X133103504Y-171923376D01*
X133198742Y-171970995D01*
X131770171Y-171685280D02*
X131960647Y-171685280D01*
X132055885Y-171732900D01*
X132103504Y-171780519D01*
X132198742Y-171923376D01*
X132246361Y-172113852D01*
X132246361Y-172494804D01*
X132198742Y-172590042D01*
X132151123Y-172637661D01*
X132055885Y-172685280D01*
X131865409Y-172685280D01*
X131770171Y-172637661D01*
X131722552Y-172590042D01*
X131674933Y-172494804D01*
X131674933Y-172256709D01*
X131722552Y-172161471D01*
X131770171Y-172113852D01*
X131865409Y-172066233D01*
X132055885Y-172066233D01*
X132151123Y-172113852D01*
X132198742Y-172161471D01*
X132246361Y-172256709D01*
%TO.C,LC18*%
X177344257Y-174365280D02*
X177820447Y-174365280D01*
X177820447Y-173365280D01*
X176439495Y-174270042D02*
X176487114Y-174317661D01*
X176629971Y-174365280D01*
X176725209Y-174365280D01*
X176868066Y-174317661D01*
X176963304Y-174222423D01*
X177010923Y-174127185D01*
X177058542Y-173936709D01*
X177058542Y-173793852D01*
X177010923Y-173603376D01*
X176963304Y-173508138D01*
X176868066Y-173412900D01*
X176725209Y-173365280D01*
X176629971Y-173365280D01*
X176487114Y-173412900D01*
X176439495Y-173460519D01*
X175487114Y-174365280D02*
X176058542Y-174365280D01*
X175772828Y-174365280D02*
X175772828Y-173365280D01*
X175868066Y-173508138D01*
X175963304Y-173603376D01*
X176058542Y-173650995D01*
X174915685Y-173793852D02*
X175010923Y-173746233D01*
X175058542Y-173698614D01*
X175106161Y-173603376D01*
X175106161Y-173555757D01*
X175058542Y-173460519D01*
X175010923Y-173412900D01*
X174915685Y-173365280D01*
X174725209Y-173365280D01*
X174629971Y-173412900D01*
X174582352Y-173460519D01*
X174534733Y-173555757D01*
X174534733Y-173603376D01*
X174582352Y-173698614D01*
X174629971Y-173746233D01*
X174725209Y-173793852D01*
X174915685Y-173793852D01*
X175010923Y-173841471D01*
X175058542Y-173889090D01*
X175106161Y-173984328D01*
X175106161Y-174174804D01*
X175058542Y-174270042D01*
X175010923Y-174317661D01*
X174915685Y-174365280D01*
X174725209Y-174365280D01*
X174629971Y-174317661D01*
X174582352Y-174270042D01*
X174534733Y-174174804D01*
X174534733Y-173984328D01*
X174582352Y-173889090D01*
X174629971Y-173841471D01*
X174725209Y-173793852D01*
%TO.C,LC17*%
X141627757Y-164748280D02*
X142103947Y-164748280D01*
X142103947Y-163748280D01*
X140722995Y-164653042D02*
X140770614Y-164700661D01*
X140913471Y-164748280D01*
X141008709Y-164748280D01*
X141151566Y-164700661D01*
X141246804Y-164605423D01*
X141294423Y-164510185D01*
X141342042Y-164319709D01*
X141342042Y-164176852D01*
X141294423Y-163986376D01*
X141246804Y-163891138D01*
X141151566Y-163795900D01*
X141008709Y-163748280D01*
X140913471Y-163748280D01*
X140770614Y-163795900D01*
X140722995Y-163843519D01*
X139770614Y-164748280D02*
X140342042Y-164748280D01*
X140056328Y-164748280D02*
X140056328Y-163748280D01*
X140151566Y-163891138D01*
X140246804Y-163986376D01*
X140342042Y-164033995D01*
X139437280Y-163748280D02*
X138770614Y-163748280D01*
X139199185Y-164748280D01*
%TO.C,LC10*%
X134640757Y-136267680D02*
X135116947Y-136267680D01*
X135116947Y-135267680D01*
X133735995Y-136172442D02*
X133783614Y-136220061D01*
X133926471Y-136267680D01*
X134021709Y-136267680D01*
X134164566Y-136220061D01*
X134259804Y-136124823D01*
X134307423Y-136029585D01*
X134355042Y-135839109D01*
X134355042Y-135696252D01*
X134307423Y-135505776D01*
X134259804Y-135410538D01*
X134164566Y-135315300D01*
X134021709Y-135267680D01*
X133926471Y-135267680D01*
X133783614Y-135315300D01*
X133735995Y-135362919D01*
X132783614Y-136267680D02*
X133355042Y-136267680D01*
X133069328Y-136267680D02*
X133069328Y-135267680D01*
X133164566Y-135410538D01*
X133259804Y-135505776D01*
X133355042Y-135553395D01*
X132164566Y-135267680D02*
X132069328Y-135267680D01*
X131974090Y-135315300D01*
X131926471Y-135362919D01*
X131878852Y-135458157D01*
X131831233Y-135648633D01*
X131831233Y-135886728D01*
X131878852Y-136077204D01*
X131926471Y-136172442D01*
X131974090Y-136220061D01*
X132069328Y-136267680D01*
X132164566Y-136267680D01*
X132259804Y-136220061D01*
X132307423Y-136172442D01*
X132355042Y-136077204D01*
X132402661Y-135886728D01*
X132402661Y-135648633D01*
X132355042Y-135458157D01*
X132307423Y-135362919D01*
X132259804Y-135315300D01*
X132164566Y-135267680D01*
%TO.C,LC9*%
X115115766Y-136267680D02*
X115591957Y-136267680D01*
X115591957Y-135267680D01*
X114211004Y-136172442D02*
X114258623Y-136220061D01*
X114401480Y-136267680D01*
X114496719Y-136267680D01*
X114639576Y-136220061D01*
X114734814Y-136124823D01*
X114782433Y-136029585D01*
X114830052Y-135839109D01*
X114830052Y-135696252D01*
X114782433Y-135505776D01*
X114734814Y-135410538D01*
X114639576Y-135315300D01*
X114496719Y-135267680D01*
X114401480Y-135267680D01*
X114258623Y-135315300D01*
X114211004Y-135362919D01*
X113734814Y-136267680D02*
X113544338Y-136267680D01*
X113449100Y-136220061D01*
X113401480Y-136172442D01*
X113306242Y-136029585D01*
X113258623Y-135839109D01*
X113258623Y-135458157D01*
X113306242Y-135362919D01*
X113353861Y-135315300D01*
X113449100Y-135267680D01*
X113639576Y-135267680D01*
X113734814Y-135315300D01*
X113782433Y-135362919D01*
X113830052Y-135458157D01*
X113830052Y-135696252D01*
X113782433Y-135791490D01*
X113734814Y-135839109D01*
X113639576Y-135886728D01*
X113449100Y-135886728D01*
X113353861Y-135839109D01*
X113306242Y-135791490D01*
X113258623Y-135696252D01*
%TO.C,LC4*%
X95910666Y-117218880D02*
X96386857Y-117218880D01*
X96386857Y-116218880D01*
X95005904Y-117123642D02*
X95053523Y-117171261D01*
X95196380Y-117218880D01*
X95291619Y-117218880D01*
X95434476Y-117171261D01*
X95529714Y-117076023D01*
X95577333Y-116980785D01*
X95624952Y-116790309D01*
X95624952Y-116647452D01*
X95577333Y-116456976D01*
X95529714Y-116361738D01*
X95434476Y-116266500D01*
X95291619Y-116218880D01*
X95196380Y-116218880D01*
X95053523Y-116266500D01*
X95005904Y-116314119D01*
X94148761Y-116552214D02*
X94148761Y-117218880D01*
X94386857Y-116171261D02*
X94624952Y-116885547D01*
X94005904Y-116885547D01*
%TO.C,LC3*%
X134164566Y-98170080D02*
X134640757Y-98170080D01*
X134640757Y-97170080D01*
X133259804Y-98074842D02*
X133307423Y-98122461D01*
X133450280Y-98170080D01*
X133545519Y-98170080D01*
X133688376Y-98122461D01*
X133783614Y-98027223D01*
X133831233Y-97931985D01*
X133878852Y-97741509D01*
X133878852Y-97598652D01*
X133831233Y-97408176D01*
X133783614Y-97312938D01*
X133688376Y-97217700D01*
X133545519Y-97170080D01*
X133450280Y-97170080D01*
X133307423Y-97217700D01*
X133259804Y-97265319D01*
X132926471Y-97170080D02*
X132307423Y-97170080D01*
X132640757Y-97551033D01*
X132497900Y-97551033D01*
X132402661Y-97598652D01*
X132355042Y-97646271D01*
X132307423Y-97741509D01*
X132307423Y-97979604D01*
X132355042Y-98074842D01*
X132402661Y-98122461D01*
X132497900Y-98170080D01*
X132783614Y-98170080D01*
X132878852Y-98122461D01*
X132926471Y-98074842D01*
%TO.C,LC2*%
X115115766Y-98077480D02*
X115591957Y-98077480D01*
X115591957Y-97077480D01*
X114211004Y-97982242D02*
X114258623Y-98029861D01*
X114401480Y-98077480D01*
X114496719Y-98077480D01*
X114639576Y-98029861D01*
X114734814Y-97934623D01*
X114782433Y-97839385D01*
X114830052Y-97648909D01*
X114830052Y-97506052D01*
X114782433Y-97315576D01*
X114734814Y-97220338D01*
X114639576Y-97125100D01*
X114496719Y-97077480D01*
X114401480Y-97077480D01*
X114258623Y-97125100D01*
X114211004Y-97172719D01*
X113830052Y-97172719D02*
X113782433Y-97125100D01*
X113687195Y-97077480D01*
X113449100Y-97077480D01*
X113353861Y-97125100D01*
X113306242Y-97172719D01*
X113258623Y-97267957D01*
X113258623Y-97363195D01*
X113306242Y-97506052D01*
X113877671Y-98077480D01*
X113258623Y-98077480D01*
%TO.C,R1*%
X82203480Y-92696233D02*
X81727290Y-92362900D01*
X82203480Y-92124804D02*
X81203480Y-92124804D01*
X81203480Y-92505757D01*
X81251100Y-92600995D01*
X81298719Y-92648614D01*
X81393957Y-92696233D01*
X81536814Y-92696233D01*
X81632052Y-92648614D01*
X81679671Y-92600995D01*
X81727290Y-92505757D01*
X81727290Y-92124804D01*
X82203480Y-93648614D02*
X82203480Y-93077185D01*
X82203480Y-93362900D02*
X81203480Y-93362900D01*
X81346338Y-93267661D01*
X81441576Y-93172423D01*
X81489195Y-93077185D01*
%TO.C,LC15*%
X93212057Y-156811280D02*
X93688247Y-156811280D01*
X93688247Y-155811280D01*
X92307295Y-156716042D02*
X92354914Y-156763661D01*
X92497771Y-156811280D01*
X92593009Y-156811280D01*
X92735866Y-156763661D01*
X92831104Y-156668423D01*
X92878723Y-156573185D01*
X92926342Y-156382709D01*
X92926342Y-156239852D01*
X92878723Y-156049376D01*
X92831104Y-155954138D01*
X92735866Y-155858900D01*
X92593009Y-155811280D01*
X92497771Y-155811280D01*
X92354914Y-155858900D01*
X92307295Y-155906519D01*
X91354914Y-156811280D02*
X91926342Y-156811280D01*
X91640628Y-156811280D02*
X91640628Y-155811280D01*
X91735866Y-155954138D01*
X91831104Y-156049376D01*
X91926342Y-156096995D01*
X90450152Y-155811280D02*
X90926342Y-155811280D01*
X90973961Y-156287471D01*
X90926342Y-156239852D01*
X90831104Y-156192233D01*
X90593009Y-156192233D01*
X90497771Y-156239852D01*
X90450152Y-156287471D01*
X90402533Y-156382709D01*
X90402533Y-156620804D01*
X90450152Y-156716042D01*
X90497771Y-156763661D01*
X90593009Y-156811280D01*
X90831104Y-156811280D01*
X90926342Y-156763661D01*
X90973961Y-156716042D01*
%TO.C,LC14*%
X134484457Y-155316480D02*
X134960647Y-155316480D01*
X134960647Y-154316480D01*
X133579695Y-155221242D02*
X133627314Y-155268861D01*
X133770171Y-155316480D01*
X133865409Y-155316480D01*
X134008266Y-155268861D01*
X134103504Y-155173623D01*
X134151123Y-155078385D01*
X134198742Y-154887909D01*
X134198742Y-154745052D01*
X134151123Y-154554576D01*
X134103504Y-154459338D01*
X134008266Y-154364100D01*
X133865409Y-154316480D01*
X133770171Y-154316480D01*
X133627314Y-154364100D01*
X133579695Y-154411719D01*
X132627314Y-155316480D02*
X133198742Y-155316480D01*
X132913028Y-155316480D02*
X132913028Y-154316480D01*
X133008266Y-154459338D01*
X133103504Y-154554576D01*
X133198742Y-154602195D01*
X131770171Y-154649814D02*
X131770171Y-155316480D01*
X132008266Y-154268861D02*
X132246361Y-154983147D01*
X131627314Y-154983147D01*
%TO.C,LC13*%
X115435657Y-155316480D02*
X115911847Y-155316480D01*
X115911847Y-154316480D01*
X114530895Y-155221242D02*
X114578514Y-155268861D01*
X114721371Y-155316480D01*
X114816609Y-155316480D01*
X114959466Y-155268861D01*
X115054704Y-155173623D01*
X115102323Y-155078385D01*
X115149942Y-154887909D01*
X115149942Y-154745052D01*
X115102323Y-154554576D01*
X115054704Y-154459338D01*
X114959466Y-154364100D01*
X114816609Y-154316480D01*
X114721371Y-154316480D01*
X114578514Y-154364100D01*
X114530895Y-154411719D01*
X113578514Y-155316480D02*
X114149942Y-155316480D01*
X113864228Y-155316480D02*
X113864228Y-154316480D01*
X113959466Y-154459338D01*
X114054704Y-154554576D01*
X114149942Y-154602195D01*
X113245180Y-154316480D02*
X112626133Y-154316480D01*
X112959466Y-154697433D01*
X112816609Y-154697433D01*
X112721371Y-154745052D01*
X112673752Y-154792671D01*
X112626133Y-154887909D01*
X112626133Y-155126004D01*
X112673752Y-155221242D01*
X112721371Y-155268861D01*
X112816609Y-155316480D01*
X113102323Y-155316480D01*
X113197561Y-155268861D01*
X113245180Y-155221242D01*
%TO.C,LC12*%
X96543157Y-155316480D02*
X97019347Y-155316480D01*
X97019347Y-154316480D01*
X95638395Y-155221242D02*
X95686014Y-155268861D01*
X95828871Y-155316480D01*
X95924109Y-155316480D01*
X96066966Y-155268861D01*
X96162204Y-155173623D01*
X96209823Y-155078385D01*
X96257442Y-154887909D01*
X96257442Y-154745052D01*
X96209823Y-154554576D01*
X96162204Y-154459338D01*
X96066966Y-154364100D01*
X95924109Y-154316480D01*
X95828871Y-154316480D01*
X95686014Y-154364100D01*
X95638395Y-154411719D01*
X94686014Y-155316480D02*
X95257442Y-155316480D01*
X94971728Y-155316480D02*
X94971728Y-154316480D01*
X95066966Y-154459338D01*
X95162204Y-154554576D01*
X95257442Y-154602195D01*
X94305061Y-154411719D02*
X94257442Y-154364100D01*
X94162204Y-154316480D01*
X93924109Y-154316480D01*
X93828871Y-154364100D01*
X93781252Y-154411719D01*
X93733633Y-154506957D01*
X93733633Y-154602195D01*
X93781252Y-154745052D01*
X94352680Y-155316480D01*
X93733633Y-155316480D01*
%TO.C,LC8*%
X96066966Y-136267680D02*
X96543157Y-136267680D01*
X96543157Y-135267680D01*
X95162204Y-136172442D02*
X95209823Y-136220061D01*
X95352680Y-136267680D01*
X95447919Y-136267680D01*
X95590776Y-136220061D01*
X95686014Y-136124823D01*
X95733633Y-136029585D01*
X95781252Y-135839109D01*
X95781252Y-135696252D01*
X95733633Y-135505776D01*
X95686014Y-135410538D01*
X95590776Y-135315300D01*
X95447919Y-135267680D01*
X95352680Y-135267680D01*
X95209823Y-135315300D01*
X95162204Y-135362919D01*
X94590776Y-135696252D02*
X94686014Y-135648633D01*
X94733633Y-135601014D01*
X94781252Y-135505776D01*
X94781252Y-135458157D01*
X94733633Y-135362919D01*
X94686014Y-135315300D01*
X94590776Y-135267680D01*
X94400300Y-135267680D01*
X94305061Y-135315300D01*
X94257442Y-135362919D01*
X94209823Y-135458157D01*
X94209823Y-135505776D01*
X94257442Y-135601014D01*
X94305061Y-135648633D01*
X94400300Y-135696252D01*
X94590776Y-135696252D01*
X94686014Y-135743871D01*
X94733633Y-135791490D01*
X94781252Y-135886728D01*
X94781252Y-136077204D01*
X94733633Y-136172442D01*
X94686014Y-136220061D01*
X94590776Y-136267680D01*
X94400300Y-136267680D01*
X94305061Y-136220061D01*
X94257442Y-136172442D01*
X94209823Y-136077204D01*
X94209823Y-135886728D01*
X94257442Y-135791490D01*
X94305061Y-135743871D01*
X94400300Y-135696252D01*
%TO.C,LC7*%
X153636480Y-92989933D02*
X153636480Y-92513742D01*
X152636480Y-92513742D01*
X153541242Y-93894695D02*
X153588861Y-93847076D01*
X153636480Y-93704219D01*
X153636480Y-93608980D01*
X153588861Y-93466123D01*
X153493623Y-93370885D01*
X153398385Y-93323266D01*
X153207909Y-93275647D01*
X153065052Y-93275647D01*
X152874576Y-93323266D01*
X152779338Y-93370885D01*
X152684100Y-93466123D01*
X152636480Y-93608980D01*
X152636480Y-93704219D01*
X152684100Y-93847076D01*
X152731719Y-93894695D01*
X152636480Y-94228028D02*
X152636480Y-94894695D01*
X153636480Y-94466123D01*
%TO.C,LC6*%
X134008266Y-117218880D02*
X134484457Y-117218880D01*
X134484457Y-116218880D01*
X133103504Y-117123642D02*
X133151123Y-117171261D01*
X133293980Y-117218880D01*
X133389219Y-117218880D01*
X133532076Y-117171261D01*
X133627314Y-117076023D01*
X133674933Y-116980785D01*
X133722552Y-116790309D01*
X133722552Y-116647452D01*
X133674933Y-116456976D01*
X133627314Y-116361738D01*
X133532076Y-116266500D01*
X133389219Y-116218880D01*
X133293980Y-116218880D01*
X133151123Y-116266500D01*
X133103504Y-116314119D01*
X132246361Y-116218880D02*
X132436838Y-116218880D01*
X132532076Y-116266500D01*
X132579695Y-116314119D01*
X132674933Y-116456976D01*
X132722552Y-116647452D01*
X132722552Y-117028404D01*
X132674933Y-117123642D01*
X132627314Y-117171261D01*
X132532076Y-117218880D01*
X132341600Y-117218880D01*
X132246361Y-117171261D01*
X132198742Y-117123642D01*
X132151123Y-117028404D01*
X132151123Y-116790309D01*
X132198742Y-116695071D01*
X132246361Y-116647452D01*
X132341600Y-116599833D01*
X132532076Y-116599833D01*
X132627314Y-116647452D01*
X132674933Y-116695071D01*
X132722552Y-116790309D01*
%TO.C,LC5*%
X114959466Y-117218880D02*
X115435657Y-117218880D01*
X115435657Y-116218880D01*
X114054704Y-117123642D02*
X114102323Y-117171261D01*
X114245180Y-117218880D01*
X114340419Y-117218880D01*
X114483276Y-117171261D01*
X114578514Y-117076023D01*
X114626133Y-116980785D01*
X114673752Y-116790309D01*
X114673752Y-116647452D01*
X114626133Y-116456976D01*
X114578514Y-116361738D01*
X114483276Y-116266500D01*
X114340419Y-116218880D01*
X114245180Y-116218880D01*
X114102323Y-116266500D01*
X114054704Y-116314119D01*
X113149942Y-116218880D02*
X113626133Y-116218880D01*
X113673752Y-116695071D01*
X113626133Y-116647452D01*
X113530895Y-116599833D01*
X113292800Y-116599833D01*
X113197561Y-116647452D01*
X113149942Y-116695071D01*
X113102323Y-116790309D01*
X113102323Y-117028404D01*
X113149942Y-117123642D01*
X113197561Y-117171261D01*
X113292800Y-117218880D01*
X113530895Y-117218880D01*
X113626133Y-117171261D01*
X113673752Y-117123642D01*
%TO.C,LC1*%
X96582680Y-92989933D02*
X96582680Y-92513742D01*
X95582680Y-92513742D01*
X96487442Y-93894695D02*
X96535061Y-93847076D01*
X96582680Y-93704219D01*
X96582680Y-93608980D01*
X96535061Y-93466123D01*
X96439823Y-93370885D01*
X96344585Y-93323266D01*
X96154109Y-93275647D01*
X96011252Y-93275647D01*
X95820776Y-93323266D01*
X95725538Y-93370885D01*
X95630300Y-93466123D01*
X95582680Y-93608980D01*
X95582680Y-93704219D01*
X95630300Y-93847076D01*
X95677919Y-93894695D01*
X96582680Y-94847076D02*
X96582680Y-94275647D01*
X96582680Y-94561361D02*
X95582680Y-94561361D01*
X95725538Y-94466123D01*
X95820776Y-94370885D01*
X95868395Y-94275647D01*
%TO.C,SW1*%
X174359933Y-76996811D02*
X174217076Y-77044430D01*
X173978980Y-77044430D01*
X173883742Y-76996811D01*
X173836123Y-76949192D01*
X173788504Y-76853954D01*
X173788504Y-76758716D01*
X173836123Y-76663478D01*
X173883742Y-76615859D01*
X173978980Y-76568240D01*
X174169457Y-76520621D01*
X174264695Y-76473002D01*
X174312314Y-76425383D01*
X174359933Y-76330145D01*
X174359933Y-76234907D01*
X174312314Y-76139669D01*
X174264695Y-76092050D01*
X174169457Y-76044430D01*
X173931361Y-76044430D01*
X173788504Y-76092050D01*
X173455171Y-76044430D02*
X173217076Y-77044430D01*
X173026600Y-76330145D01*
X172836123Y-77044430D01*
X172598028Y-76044430D01*
X171693266Y-77044430D02*
X172264695Y-77044430D01*
X171978980Y-77044430D02*
X171978980Y-76044430D01*
X172074219Y-76187288D01*
X172169457Y-76282526D01*
X172264695Y-76330145D01*
%TO.C,R2*%
X177161766Y-80219230D02*
X177495100Y-79743040D01*
X177733195Y-80219230D02*
X177733195Y-79219230D01*
X177352242Y-79219230D01*
X177257004Y-79266850D01*
X177209385Y-79314469D01*
X177161766Y-79409707D01*
X177161766Y-79552564D01*
X177209385Y-79647802D01*
X177257004Y-79695421D01*
X177352242Y-79743040D01*
X177733195Y-79743040D01*
X176780814Y-79314469D02*
X176733195Y-79266850D01*
X176637957Y-79219230D01*
X176399861Y-79219230D01*
X176304623Y-79266850D01*
X176257004Y-79314469D01*
X176209385Y-79409707D01*
X176209385Y-79504945D01*
X176257004Y-79647802D01*
X176828433Y-80219230D01*
X176209385Y-80219230D01*
%TD*%
%LPC*%
D14*
%TO.C,RD2*%
X159990000Y-142866000D03*
X157490000Y-142866000D03*
%TD*%
%TO.C,RD1*%
X141278600Y-75738900D03*
X141278600Y-78238900D03*
%TD*%
%TO.C,D18*%
X177788800Y-163839600D03*
X177788800Y-166339600D03*
%TD*%
%TO.C,D17*%
X147290800Y-164295900D03*
X144790800Y-164295900D03*
%TD*%
%TO.C,D16*%
X136516400Y-159871100D03*
X136516400Y-162371100D03*
%TD*%
%TO.C,D15*%
X90481800Y-166339600D03*
X90481800Y-163839600D03*
%TD*%
%TO.C,D14*%
X136853800Y-138103800D03*
X139353800Y-138103800D03*
%TD*%
%TO.C,D13*%
X115880200Y-144790800D03*
X115880200Y-147290800D03*
%TD*%
%TO.C,D12*%
X96831400Y-144790800D03*
X96831400Y-147290800D03*
%TD*%
%TO.C,D11*%
X147290800Y-126198300D03*
X144790800Y-126198300D03*
%TD*%
%TO.C,D10*%
X136516400Y-121773500D03*
X136516400Y-124273500D03*
%TD*%
%TO.C,D9*%
X115880200Y-125742000D03*
X115880200Y-128242000D03*
%TD*%
%TO.C,D8*%
X96831400Y-125742000D03*
X96831400Y-128242000D03*
%TD*%
%TO.C,D7*%
X153977800Y-87644400D03*
X153977800Y-90144400D03*
%TD*%
%TO.C,D6*%
X136853800Y-99212500D03*
X139353800Y-99212500D03*
%TD*%
%TO.C,D5*%
X115880200Y-106693200D03*
X115880200Y-109193200D03*
%TD*%
%TO.C,D4*%
X96831400Y-106693200D03*
X96831400Y-109193200D03*
%TD*%
%TO.C,D3*%
X134929000Y-87644400D03*
X134929000Y-90144400D03*
%TD*%
%TO.C,D2*%
X115880200Y-87644400D03*
X115880200Y-90144400D03*
%TD*%
%TO.C,D1*%
X96831400Y-87644400D03*
X96831400Y-90144400D03*
%TD*%
D15*
%TO.C,MX7*%
X146040800Y-88894400D03*
D16*
X140960800Y-88894400D03*
X151120800Y-88894400D03*
D17*
X142230800Y-86354400D03*
X148580800Y-83814400D03*
D18*
X138630800Y-86354400D03*
X152055800Y-83814400D03*
D19*
X143440800Y-93194400D03*
X143440800Y-94694400D03*
X148640800Y-93194400D03*
X148640800Y-94694400D03*
%TD*%
D15*
%TO.C,MX18*%
X169851800Y-165089600D03*
D16*
X164771800Y-165089600D03*
X174931800Y-165089600D03*
D17*
X166041800Y-162549600D03*
X172391800Y-160009600D03*
D18*
X162441800Y-162549600D03*
X175866800Y-160009600D03*
D19*
X167251800Y-169389600D03*
X167251800Y-170889600D03*
X172451800Y-169389600D03*
X172451800Y-170889600D03*
%TD*%
D15*
%TO.C,MX11*%
X146040800Y-117467600D03*
D16*
X146040800Y-112387600D03*
X146040800Y-122547600D03*
D17*
X148580800Y-113657600D03*
X151120800Y-120007600D03*
D20*
X148580800Y-110057600D03*
X151120800Y-123482600D03*
D21*
X153040800Y-105529600D03*
D15*
X137800800Y-105529600D03*
X137800800Y-129405600D03*
D21*
X153040800Y-129405600D03*
D22*
X141740800Y-114867600D03*
X140240800Y-114867600D03*
X141740800Y-120067600D03*
X140240800Y-120067600D03*
%TD*%
D23*
%TO.C,OLED1*%
X168771800Y-105280200D03*
X166231800Y-105280200D03*
X171311800Y-105280200D03*
X173851800Y-105280200D03*
%TD*%
D15*
%TO.C,MX17*%
X146040800Y-155565200D03*
D16*
X146040800Y-150485200D03*
X146040800Y-160645200D03*
D17*
X148580800Y-151755200D03*
X151120800Y-158105200D03*
D20*
X148580800Y-148155200D03*
X151120800Y-161580200D03*
D21*
X153040800Y-143627200D03*
D15*
X137800800Y-143627200D03*
X137800800Y-167503200D03*
D21*
X153040800Y-167503200D03*
D22*
X141740800Y-152965200D03*
X140240800Y-152965200D03*
X141740800Y-158165200D03*
X140240800Y-158165200D03*
%TD*%
D15*
%TO.C,MX15*%
X98418800Y-165089600D03*
D16*
X103498800Y-165089600D03*
X93338800Y-165089600D03*
D17*
X102228800Y-167629600D03*
X95878800Y-170169600D03*
D18*
X105828800Y-167629600D03*
X92403800Y-170169600D03*
D21*
X110356800Y-172089600D03*
D15*
X110356800Y-156849600D03*
X86480800Y-156849600D03*
D21*
X86480800Y-172089600D03*
D19*
X101018800Y-160789600D03*
X101018800Y-159289600D03*
X95818800Y-160789600D03*
X95818800Y-159289600D03*
%TD*%
D24*
%TO.C,H4*%
X98418800Y-98418800D03*
%TD*%
%TO.C,H3*%
X158750000Y-99212500D03*
%TD*%
%TO.C,H2*%
X158750000Y-134929000D03*
%TD*%
%TO.C,H1*%
X115880200Y-169851800D03*
%TD*%
D25*
%TO.C,U1*%
X165406600Y-70162200D03*
D26*
X165406600Y-72702200D03*
X165406600Y-75242200D03*
X165406600Y-77782200D03*
X165406600Y-80322200D03*
X165406600Y-82862200D03*
X165406600Y-85402200D03*
X165406600Y-87942200D03*
X165406600Y-90482200D03*
X165406600Y-93022200D03*
X165406600Y-95562200D03*
X165406600Y-98102200D03*
X180646600Y-98102200D03*
X180646600Y-95562200D03*
X180646600Y-93022200D03*
X180646600Y-90482200D03*
X180646600Y-87942200D03*
X180646600Y-85402200D03*
X180646600Y-82862200D03*
X180646600Y-80322200D03*
X180646600Y-77782200D03*
X180646600Y-75242200D03*
X180646600Y-72702200D03*
X180646600Y-70162200D03*
%TD*%
D15*
%TO.C,MX16*%
X126992000Y-165089600D03*
D16*
X121912000Y-165089600D03*
X132072000Y-165089600D03*
D17*
X123182000Y-162549600D03*
X129532000Y-160009600D03*
D18*
X119582000Y-162549600D03*
X133007000Y-160009600D03*
D19*
X124392000Y-169389600D03*
X124392000Y-170889600D03*
X129592000Y-169389600D03*
X129592000Y-170889600D03*
%TD*%
D15*
%TO.C,MX10*%
X126992000Y-126992000D03*
D16*
X121912000Y-126992000D03*
X132072000Y-126992000D03*
D17*
X123182000Y-124452000D03*
X129532000Y-121912000D03*
D18*
X119582000Y-124452000D03*
X133007000Y-121912000D03*
D19*
X124392000Y-131292000D03*
X124392000Y-132792000D03*
X129592000Y-131292000D03*
X129592000Y-132792000D03*
%TD*%
D15*
%TO.C,MX9*%
X107943200Y-126992000D03*
D16*
X102863200Y-126992000D03*
X113023200Y-126992000D03*
D17*
X104133200Y-124452000D03*
X110483200Y-121912000D03*
D18*
X100533200Y-124452000D03*
X113958200Y-121912000D03*
D19*
X105343200Y-131292000D03*
X105343200Y-132792000D03*
X110543200Y-131292000D03*
X110543200Y-132792000D03*
%TD*%
D15*
%TO.C,MX8*%
X88894400Y-126992000D03*
D16*
X83814400Y-126992000D03*
X93974400Y-126992000D03*
D17*
X85084400Y-124452000D03*
X91434400Y-121912000D03*
D18*
X81484400Y-124452000D03*
X94909400Y-121912000D03*
D19*
X86294400Y-131292000D03*
X86294400Y-132792000D03*
X91494400Y-131292000D03*
X91494400Y-132792000D03*
%TD*%
D15*
%TO.C,MX3*%
X126992000Y-88894400D03*
D16*
X121912000Y-88894400D03*
X132072000Y-88894400D03*
D17*
X123182000Y-86354400D03*
X129532000Y-83814400D03*
D18*
X119582000Y-86354400D03*
X133007000Y-83814400D03*
D19*
X124392000Y-93194400D03*
X124392000Y-94694400D03*
X129592000Y-93194400D03*
X129592000Y-94694400D03*
%TD*%
D15*
%TO.C,MX2*%
X107943200Y-88894400D03*
D16*
X102863200Y-88894400D03*
X113023200Y-88894400D03*
D17*
X104133200Y-86354400D03*
X110483200Y-83814400D03*
D18*
X100533200Y-86354400D03*
X113958200Y-83814400D03*
D19*
X105343200Y-93194400D03*
X105343200Y-94694400D03*
X110543200Y-93194400D03*
X110543200Y-94694400D03*
%TD*%
D15*
%TO.C,MX1*%
X88894400Y-88894400D03*
D16*
X83814400Y-88894400D03*
X93974400Y-88894400D03*
D17*
X85084400Y-86354400D03*
X91434400Y-83814400D03*
D18*
X81484400Y-86354400D03*
X94909400Y-83814400D03*
D19*
X86294400Y-93194400D03*
X86294400Y-94694400D03*
X91494400Y-93194400D03*
X91494400Y-94694400D03*
%TD*%
%TO.C,LC11*%
G36*
G01*
X140009900Y-124423500D02*
X140959900Y-124423500D01*
G75*
G02*
X141209900Y-124673500I0J-250000D01*
G01*
X141209900Y-125173500D01*
G75*
G02*
X140959900Y-125423500I-250000J0D01*
G01*
X140009900Y-125423500D01*
G75*
G02*
X139759900Y-125173500I0J250000D01*
G01*
X139759900Y-124673500D01*
G75*
G02*
X140009900Y-124423500I250000J0D01*
G01*
G37*
G36*
G01*
X140009900Y-122523500D02*
X140959900Y-122523500D01*
G75*
G02*
X141209900Y-122773500I0J-250000D01*
G01*
X141209900Y-123273500D01*
G75*
G02*
X140959900Y-123523500I-250000J0D01*
G01*
X140009900Y-123523500D01*
G75*
G02*
X139759900Y-123273500I0J250000D01*
G01*
X139759900Y-122773500D01*
G75*
G02*
X140009900Y-122523500I250000J0D01*
G01*
G37*
%TD*%
D15*
%TO.C,MX4*%
X88894400Y-107943200D03*
D16*
X83814400Y-107943200D03*
X93974400Y-107943200D03*
D17*
X85084400Y-105403200D03*
X91434400Y-102863200D03*
D18*
X81484400Y-105403200D03*
X94909400Y-102863200D03*
D19*
X86294400Y-112243200D03*
X86294400Y-113743200D03*
X91494400Y-112243200D03*
X91494400Y-113743200D03*
%TD*%
%TO.C,LC16*%
G36*
G01*
X133791600Y-171120500D02*
X133791600Y-170170500D01*
G75*
G02*
X134041600Y-169920500I250000J0D01*
G01*
X134541600Y-169920500D01*
G75*
G02*
X134791600Y-170170500I0J-250000D01*
G01*
X134791600Y-171120500D01*
G75*
G02*
X134541600Y-171370500I-250000J0D01*
G01*
X134041600Y-171370500D01*
G75*
G02*
X133791600Y-171120500I0J250000D01*
G01*
G37*
G36*
G01*
X131891600Y-171120500D02*
X131891600Y-170170500D01*
G75*
G02*
X132141600Y-169920500I250000J0D01*
G01*
X132641600Y-169920500D01*
G75*
G02*
X132891600Y-170170500I0J-250000D01*
G01*
X132891600Y-171120500D01*
G75*
G02*
X132641600Y-171370500I-250000J0D01*
G01*
X132141600Y-171370500D01*
G75*
G02*
X131891600Y-171120500I0J250000D01*
G01*
G37*
%TD*%
%TO.C,LC18*%
G36*
G01*
X176651400Y-172707900D02*
X176651400Y-171757900D01*
G75*
G02*
X176901400Y-171507900I250000J0D01*
G01*
X177401400Y-171507900D01*
G75*
G02*
X177651400Y-171757900I0J-250000D01*
G01*
X177651400Y-172707900D01*
G75*
G02*
X177401400Y-172957900I-250000J0D01*
G01*
X176901400Y-172957900D01*
G75*
G02*
X176651400Y-172707900I0J250000D01*
G01*
G37*
G36*
G01*
X174751400Y-172707900D02*
X174751400Y-171757900D01*
G75*
G02*
X175001400Y-171507900I250000J0D01*
G01*
X175501400Y-171507900D01*
G75*
G02*
X175751400Y-171757900I0J-250000D01*
G01*
X175751400Y-172707900D01*
G75*
G02*
X175501400Y-172957900I-250000J0D01*
G01*
X175001400Y-172957900D01*
G75*
G02*
X174751400Y-172707900I0J250000D01*
G01*
G37*
%TD*%
%TO.C,LC17*%
G36*
G01*
X140009900Y-162364800D02*
X140959900Y-162364800D01*
G75*
G02*
X141209900Y-162614800I0J-250000D01*
G01*
X141209900Y-163114800D01*
G75*
G02*
X140959900Y-163364800I-250000J0D01*
G01*
X140009900Y-163364800D01*
G75*
G02*
X139759900Y-163114800I0J250000D01*
G01*
X139759900Y-162614800D01*
G75*
G02*
X140009900Y-162364800I250000J0D01*
G01*
G37*
G36*
G01*
X140009900Y-160464800D02*
X140959900Y-160464800D01*
G75*
G02*
X141209900Y-160714800I0J-250000D01*
G01*
X141209900Y-161214800D01*
G75*
G02*
X140959900Y-161464800I-250000J0D01*
G01*
X140009900Y-161464800D01*
G75*
G02*
X139759900Y-161214800I0J250000D01*
G01*
X139759900Y-160714800D01*
G75*
G02*
X140009900Y-160464800I250000J0D01*
G01*
G37*
%TD*%
%TO.C,LC10*%
G36*
G01*
X133947900Y-134610300D02*
X133947900Y-133660300D01*
G75*
G02*
X134197900Y-133410300I250000J0D01*
G01*
X134697900Y-133410300D01*
G75*
G02*
X134947900Y-133660300I0J-250000D01*
G01*
X134947900Y-134610300D01*
G75*
G02*
X134697900Y-134860300I-250000J0D01*
G01*
X134197900Y-134860300D01*
G75*
G02*
X133947900Y-134610300I0J250000D01*
G01*
G37*
G36*
G01*
X132047900Y-134610300D02*
X132047900Y-133660300D01*
G75*
G02*
X132297900Y-133410300I250000J0D01*
G01*
X132797900Y-133410300D01*
G75*
G02*
X133047900Y-133660300I0J-250000D01*
G01*
X133047900Y-134610300D01*
G75*
G02*
X132797900Y-134860300I-250000J0D01*
G01*
X132297900Y-134860300D01*
G75*
G02*
X132047900Y-134610300I0J250000D01*
G01*
G37*
%TD*%
%TO.C,LC9*%
G36*
G01*
X114899100Y-134610300D02*
X114899100Y-133660300D01*
G75*
G02*
X115149100Y-133410300I250000J0D01*
G01*
X115649100Y-133410300D01*
G75*
G02*
X115899100Y-133660300I0J-250000D01*
G01*
X115899100Y-134610300D01*
G75*
G02*
X115649100Y-134860300I-250000J0D01*
G01*
X115149100Y-134860300D01*
G75*
G02*
X114899100Y-134610300I0J250000D01*
G01*
G37*
G36*
G01*
X112999100Y-134610300D02*
X112999100Y-133660300D01*
G75*
G02*
X113249100Y-133410300I250000J0D01*
G01*
X113749100Y-133410300D01*
G75*
G02*
X113999100Y-133660300I0J-250000D01*
G01*
X113999100Y-134610300D01*
G75*
G02*
X113749100Y-134860300I-250000J0D01*
G01*
X113249100Y-134860300D01*
G75*
G02*
X112999100Y-134610300I0J250000D01*
G01*
G37*
%TD*%
%TO.C,LC4*%
G36*
G01*
X95694000Y-115561500D02*
X95694000Y-114611500D01*
G75*
G02*
X95944000Y-114361500I250000J0D01*
G01*
X96444000Y-114361500D01*
G75*
G02*
X96694000Y-114611500I0J-250000D01*
G01*
X96694000Y-115561500D01*
G75*
G02*
X96444000Y-115811500I-250000J0D01*
G01*
X95944000Y-115811500D01*
G75*
G02*
X95694000Y-115561500I0J250000D01*
G01*
G37*
G36*
G01*
X93794000Y-115561500D02*
X93794000Y-114611500D01*
G75*
G02*
X94044000Y-114361500I250000J0D01*
G01*
X94544000Y-114361500D01*
G75*
G02*
X94794000Y-114611500I0J-250000D01*
G01*
X94794000Y-115561500D01*
G75*
G02*
X94544000Y-115811500I-250000J0D01*
G01*
X94044000Y-115811500D01*
G75*
G02*
X93794000Y-115561500I0J250000D01*
G01*
G37*
%TD*%
%TO.C,LC3*%
G36*
G01*
X133947900Y-96512700D02*
X133947900Y-95562700D01*
G75*
G02*
X134197900Y-95312700I250000J0D01*
G01*
X134697900Y-95312700D01*
G75*
G02*
X134947900Y-95562700I0J-250000D01*
G01*
X134947900Y-96512700D01*
G75*
G02*
X134697900Y-96762700I-250000J0D01*
G01*
X134197900Y-96762700D01*
G75*
G02*
X133947900Y-96512700I0J250000D01*
G01*
G37*
G36*
G01*
X132047900Y-96512700D02*
X132047900Y-95562700D01*
G75*
G02*
X132297900Y-95312700I250000J0D01*
G01*
X132797900Y-95312700D01*
G75*
G02*
X133047900Y-95562700I0J-250000D01*
G01*
X133047900Y-96512700D01*
G75*
G02*
X132797900Y-96762700I-250000J0D01*
G01*
X132297900Y-96762700D01*
G75*
G02*
X132047900Y-96512700I0J250000D01*
G01*
G37*
%TD*%
%TO.C,LC2*%
G36*
G01*
X114899100Y-96512700D02*
X114899100Y-95562700D01*
G75*
G02*
X115149100Y-95312700I250000J0D01*
G01*
X115649100Y-95312700D01*
G75*
G02*
X115899100Y-95562700I0J-250000D01*
G01*
X115899100Y-96512700D01*
G75*
G02*
X115649100Y-96762700I-250000J0D01*
G01*
X115149100Y-96762700D01*
G75*
G02*
X114899100Y-96512700I0J250000D01*
G01*
G37*
G36*
G01*
X112999100Y-96512700D02*
X112999100Y-95562700D01*
G75*
G02*
X113249100Y-95312700I250000J0D01*
G01*
X113749100Y-95312700D01*
G75*
G02*
X113999100Y-95562700I0J-250000D01*
G01*
X113999100Y-96512700D01*
G75*
G02*
X113749100Y-96762700I-250000J0D01*
G01*
X113249100Y-96762700D01*
G75*
G02*
X112999100Y-96512700I0J250000D01*
G01*
G37*
%TD*%
D15*
%TO.C,MX14*%
X126992000Y-146040800D03*
D16*
X121912000Y-146040800D03*
X132072000Y-146040800D03*
D17*
X123182000Y-143500800D03*
X129532000Y-140960800D03*
D18*
X119582000Y-143500800D03*
X133007000Y-140960800D03*
D19*
X124392000Y-150340800D03*
X124392000Y-151840800D03*
X129592000Y-150340800D03*
X129592000Y-151840800D03*
%TD*%
D15*
%TO.C,MX13*%
X107943200Y-146040800D03*
D16*
X102863200Y-146040800D03*
X113023200Y-146040800D03*
D17*
X104133200Y-143500800D03*
X110483200Y-140960800D03*
D18*
X100533200Y-143500800D03*
X113958200Y-140960800D03*
D19*
X105343200Y-150340800D03*
X105343200Y-151840800D03*
X110543200Y-150340800D03*
X110543200Y-151840800D03*
%TD*%
D15*
%TO.C,MX12*%
X88894400Y-146040800D03*
D16*
X83814400Y-146040800D03*
X93974400Y-146040800D03*
D17*
X85084400Y-143500800D03*
X91434400Y-140960800D03*
D18*
X81484400Y-143500800D03*
X94909400Y-140960800D03*
D19*
X86294400Y-150340800D03*
X86294400Y-151840800D03*
X91494400Y-150340800D03*
X91494400Y-151840800D03*
%TD*%
D15*
%TO.C,MX6*%
X126992000Y-107943200D03*
D16*
X121912000Y-107943200D03*
X132072000Y-107943200D03*
D17*
X123182000Y-105403200D03*
X129532000Y-102863200D03*
D18*
X119582000Y-105403200D03*
X133007000Y-102863200D03*
D19*
X124392000Y-112243200D03*
X124392000Y-113743200D03*
X129592000Y-112243200D03*
X129592000Y-113743200D03*
%TD*%
D15*
%TO.C,MX5*%
X107943200Y-107943200D03*
D16*
X102863200Y-107943200D03*
X113023200Y-107943200D03*
D17*
X104133200Y-105403200D03*
X110483200Y-102863200D03*
D18*
X100533200Y-105403200D03*
X113958200Y-102863200D03*
D19*
X105343200Y-112243200D03*
X105343200Y-113743200D03*
X110543200Y-112243200D03*
X110543200Y-113743200D03*
%TD*%
D27*
%TO.C,J2*%
X159533700Y-74290800D03*
X159533700Y-71750800D03*
X159533700Y-69210800D03*
D28*
X159533700Y-66670800D03*
%TD*%
D27*
%TO.C,J1*%
X170327700Y-96196600D03*
X170327700Y-93656600D03*
X172867700Y-96196600D03*
X172867700Y-93656600D03*
X175407700Y-96196600D03*
D28*
X175407700Y-93656600D03*
%TD*%
D29*
%TO.C,ROT2*%
X162891950Y-143421900D03*
X162891950Y-148421900D03*
D30*
X169891950Y-140321900D03*
X169891950Y-151521900D03*
D29*
X177391950Y-143421900D03*
X177391950Y-145921900D03*
D31*
X177391950Y-148421900D03*
%TD*%
D29*
%TO.C,ROT1*%
X139080950Y-67226700D03*
X139080950Y-72226700D03*
D30*
X146080950Y-64126700D03*
X146080950Y-75326700D03*
D29*
X153580950Y-67226700D03*
X153580950Y-69726700D03*
D31*
X153580950Y-72226700D03*
%TD*%
%TO.C,R1*%
G36*
G01*
X83788502Y-92462900D02*
X82888498Y-92462900D01*
G75*
G02*
X82638500Y-92212902I0J249998D01*
G01*
X82638500Y-91687898D01*
G75*
G02*
X82888498Y-91437900I249998J0D01*
G01*
X83788502Y-91437900D01*
G75*
G02*
X84038500Y-91687898I0J-249998D01*
G01*
X84038500Y-92212902D01*
G75*
G02*
X83788502Y-92462900I-249998J0D01*
G01*
G37*
G36*
G01*
X83788502Y-94287900D02*
X82888498Y-94287900D01*
G75*
G02*
X82638500Y-94037902I0J249998D01*
G01*
X82638500Y-93512898D01*
G75*
G02*
X82888498Y-93262900I249998J0D01*
G01*
X83788502Y-93262900D01*
G75*
G02*
X84038500Y-93512898I0J-249998D01*
G01*
X84038500Y-94037902D01*
G75*
G02*
X83788502Y-94287900I-249998J0D01*
G01*
G37*
%TD*%
%TO.C,LC15*%
G36*
G01*
X91619200Y-157471300D02*
X91619200Y-158421300D01*
G75*
G02*
X91369200Y-158671300I-250000J0D01*
G01*
X90869200Y-158671300D01*
G75*
G02*
X90619200Y-158421300I0J250000D01*
G01*
X90619200Y-157471300D01*
G75*
G02*
X90869200Y-157221300I250000J0D01*
G01*
X91369200Y-157221300D01*
G75*
G02*
X91619200Y-157471300I0J-250000D01*
G01*
G37*
G36*
G01*
X93519200Y-157471300D02*
X93519200Y-158421300D01*
G75*
G02*
X93269200Y-158671300I-250000J0D01*
G01*
X92769200Y-158671300D01*
G75*
G02*
X92519200Y-158421300I0J250000D01*
G01*
X92519200Y-157471300D01*
G75*
G02*
X92769200Y-157221300I250000J0D01*
G01*
X93269200Y-157221300D01*
G75*
G02*
X93519200Y-157471300I0J-250000D01*
G01*
G37*
%TD*%
%TO.C,LC14*%
G36*
G01*
X133791600Y-153659100D02*
X133791600Y-152709100D01*
G75*
G02*
X134041600Y-152459100I250000J0D01*
G01*
X134541600Y-152459100D01*
G75*
G02*
X134791600Y-152709100I0J-250000D01*
G01*
X134791600Y-153659100D01*
G75*
G02*
X134541600Y-153909100I-250000J0D01*
G01*
X134041600Y-153909100D01*
G75*
G02*
X133791600Y-153659100I0J250000D01*
G01*
G37*
G36*
G01*
X131891600Y-153659100D02*
X131891600Y-152709100D01*
G75*
G02*
X132141600Y-152459100I250000J0D01*
G01*
X132641600Y-152459100D01*
G75*
G02*
X132891600Y-152709100I0J-250000D01*
G01*
X132891600Y-153659100D01*
G75*
G02*
X132641600Y-153909100I-250000J0D01*
G01*
X132141600Y-153909100D01*
G75*
G02*
X131891600Y-153659100I0J250000D01*
G01*
G37*
%TD*%
%TO.C,LC13*%
G36*
G01*
X114742800Y-153659100D02*
X114742800Y-152709100D01*
G75*
G02*
X114992800Y-152459100I250000J0D01*
G01*
X115492800Y-152459100D01*
G75*
G02*
X115742800Y-152709100I0J-250000D01*
G01*
X115742800Y-153659100D01*
G75*
G02*
X115492800Y-153909100I-250000J0D01*
G01*
X114992800Y-153909100D01*
G75*
G02*
X114742800Y-153659100I0J250000D01*
G01*
G37*
G36*
G01*
X112842800Y-153659100D02*
X112842800Y-152709100D01*
G75*
G02*
X113092800Y-152459100I250000J0D01*
G01*
X113592800Y-152459100D01*
G75*
G02*
X113842800Y-152709100I0J-250000D01*
G01*
X113842800Y-153659100D01*
G75*
G02*
X113592800Y-153909100I-250000J0D01*
G01*
X113092800Y-153909100D01*
G75*
G02*
X112842800Y-153659100I0J250000D01*
G01*
G37*
%TD*%
%TO.C,LC12*%
G36*
G01*
X95850300Y-153659100D02*
X95850300Y-152709100D01*
G75*
G02*
X96100300Y-152459100I250000J0D01*
G01*
X96600300Y-152459100D01*
G75*
G02*
X96850300Y-152709100I0J-250000D01*
G01*
X96850300Y-153659100D01*
G75*
G02*
X96600300Y-153909100I-250000J0D01*
G01*
X96100300Y-153909100D01*
G75*
G02*
X95850300Y-153659100I0J250000D01*
G01*
G37*
G36*
G01*
X93950300Y-153659100D02*
X93950300Y-152709100D01*
G75*
G02*
X94200300Y-152459100I250000J0D01*
G01*
X94700300Y-152459100D01*
G75*
G02*
X94950300Y-152709100I0J-250000D01*
G01*
X94950300Y-153659100D01*
G75*
G02*
X94700300Y-153909100I-250000J0D01*
G01*
X94200300Y-153909100D01*
G75*
G02*
X93950300Y-153659100I0J250000D01*
G01*
G37*
%TD*%
%TO.C,LC8*%
G36*
G01*
X95850300Y-134610300D02*
X95850300Y-133660300D01*
G75*
G02*
X96100300Y-133410300I250000J0D01*
G01*
X96600300Y-133410300D01*
G75*
G02*
X96850300Y-133660300I0J-250000D01*
G01*
X96850300Y-134610300D01*
G75*
G02*
X96600300Y-134860300I-250000J0D01*
G01*
X96100300Y-134860300D01*
G75*
G02*
X95850300Y-134610300I0J250000D01*
G01*
G37*
G36*
G01*
X93950300Y-134610300D02*
X93950300Y-133660300D01*
G75*
G02*
X94200300Y-133410300I250000J0D01*
G01*
X94700300Y-133410300D01*
G75*
G02*
X94950300Y-133660300I0J-250000D01*
G01*
X94950300Y-134610300D01*
G75*
G02*
X94700300Y-134860300I-250000J0D01*
G01*
X94200300Y-134860300D01*
G75*
G02*
X93950300Y-134610300I0J250000D01*
G01*
G37*
%TD*%
%TO.C,LC7*%
G36*
G01*
X152071700Y-93206600D02*
X151121700Y-93206600D01*
G75*
G02*
X150871700Y-92956600I0J250000D01*
G01*
X150871700Y-92456600D01*
G75*
G02*
X151121700Y-92206600I250000J0D01*
G01*
X152071700Y-92206600D01*
G75*
G02*
X152321700Y-92456600I0J-250000D01*
G01*
X152321700Y-92956600D01*
G75*
G02*
X152071700Y-93206600I-250000J0D01*
G01*
G37*
G36*
G01*
X152071700Y-95106600D02*
X151121700Y-95106600D01*
G75*
G02*
X150871700Y-94856600I0J250000D01*
G01*
X150871700Y-94356600D01*
G75*
G02*
X151121700Y-94106600I250000J0D01*
G01*
X152071700Y-94106600D01*
G75*
G02*
X152321700Y-94356600I0J-250000D01*
G01*
X152321700Y-94856600D01*
G75*
G02*
X152071700Y-95106600I-250000J0D01*
G01*
G37*
%TD*%
%TO.C,LC6*%
G36*
G01*
X133791600Y-115561500D02*
X133791600Y-114611500D01*
G75*
G02*
X134041600Y-114361500I250000J0D01*
G01*
X134541600Y-114361500D01*
G75*
G02*
X134791600Y-114611500I0J-250000D01*
G01*
X134791600Y-115561500D01*
G75*
G02*
X134541600Y-115811500I-250000J0D01*
G01*
X134041600Y-115811500D01*
G75*
G02*
X133791600Y-115561500I0J250000D01*
G01*
G37*
G36*
G01*
X131891600Y-115561500D02*
X131891600Y-114611500D01*
G75*
G02*
X132141600Y-114361500I250000J0D01*
G01*
X132641600Y-114361500D01*
G75*
G02*
X132891600Y-114611500I0J-250000D01*
G01*
X132891600Y-115561500D01*
G75*
G02*
X132641600Y-115811500I-250000J0D01*
G01*
X132141600Y-115811500D01*
G75*
G02*
X131891600Y-115561500I0J250000D01*
G01*
G37*
%TD*%
%TO.C,LC5*%
G36*
G01*
X114742800Y-115561500D02*
X114742800Y-114611500D01*
G75*
G02*
X114992800Y-114361500I250000J0D01*
G01*
X115492800Y-114361500D01*
G75*
G02*
X115742800Y-114611500I0J-250000D01*
G01*
X115742800Y-115561500D01*
G75*
G02*
X115492800Y-115811500I-250000J0D01*
G01*
X114992800Y-115811500D01*
G75*
G02*
X114742800Y-115561500I0J250000D01*
G01*
G37*
G36*
G01*
X112842800Y-115561500D02*
X112842800Y-114611500D01*
G75*
G02*
X113092800Y-114361500I250000J0D01*
G01*
X113592800Y-114361500D01*
G75*
G02*
X113842800Y-114611500I0J-250000D01*
G01*
X113842800Y-115561500D01*
G75*
G02*
X113592800Y-115811500I-250000J0D01*
G01*
X113092800Y-115811500D01*
G75*
G02*
X112842800Y-115561500I0J250000D01*
G01*
G37*
%TD*%
%TO.C,LC1*%
G36*
G01*
X94925300Y-93206600D02*
X93975300Y-93206600D01*
G75*
G02*
X93725300Y-92956600I0J250000D01*
G01*
X93725300Y-92456600D01*
G75*
G02*
X93975300Y-92206600I250000J0D01*
G01*
X94925300Y-92206600D01*
G75*
G02*
X95175300Y-92456600I0J-250000D01*
G01*
X95175300Y-92956600D01*
G75*
G02*
X94925300Y-93206600I-250000J0D01*
G01*
G37*
G36*
G01*
X94925300Y-95106600D02*
X93975300Y-95106600D01*
G75*
G02*
X93725300Y-94856600I0J250000D01*
G01*
X93725300Y-94356600D01*
G75*
G02*
X93975300Y-94106600I250000J0D01*
G01*
X94925300Y-94106600D01*
G75*
G02*
X95175300Y-94356600I0J-250000D01*
G01*
X95175300Y-94856600D01*
G75*
G02*
X94925300Y-95106600I-250000J0D01*
G01*
G37*
%TD*%
D32*
%TO.C,SW1*%
X176126600Y-74870400D03*
X169926600Y-71170400D03*
X176126600Y-71170400D03*
X169926600Y-74870400D03*
%TD*%
%TO.C,R2*%
G36*
G01*
X176595100Y-77332598D02*
X176595100Y-78232602D01*
G75*
G02*
X176345102Y-78482600I-249998J0D01*
G01*
X175820098Y-78482600D01*
G75*
G02*
X175570100Y-78232602I0J249998D01*
G01*
X175570100Y-77332598D01*
G75*
G02*
X175820098Y-77082600I249998J0D01*
G01*
X176345102Y-77082600D01*
G75*
G02*
X176595100Y-77332598I0J-249998D01*
G01*
G37*
G36*
G01*
X178420100Y-77332598D02*
X178420100Y-78232602D01*
G75*
G02*
X178170102Y-78482600I-249998J0D01*
G01*
X177645098Y-78482600D01*
G75*
G02*
X177395100Y-78232602I0J249998D01*
G01*
X177395100Y-77332598D01*
G75*
G02*
X177645098Y-77082600I249998J0D01*
G01*
X178170102Y-77082600D01*
G75*
G02*
X178420100Y-77332598I0J-249998D01*
G01*
G37*
%TD*%
M02*
