M48
; DRILL file {KiCad (5.1.10)-1} date 01/15/22 20:36:41
; FORMAT={-:-/ absolute / metric / decimal}
; #@! TF.CreationDate,2022-01-15T20:36:41-05:00
; #@! TF.GenerationSoftware,Kicad,Pcbnew,(5.1.10)-1
; #@! TF.FileFunction,Plated,1,2,PTH
FMAT,2
METRIC
T1C0.400
T2C1.000
T3C1.100
T4C1.500
T5C3.200
%
G90
G05
T1
X80.164Y-80.957
X80.957Y-83.338
X80.957Y-102.387
X80.957Y-121.436
X80.957Y-140.485
X80.957Y-173.027
X82.545Y-96.831
X82.545Y-116.674
X82.545Y-135.723
X84.132Y-81.751
X84.132Y-100.8
X84.132Y-111.118
X84.132Y-119.055
X84.132Y-130.167
X84.132Y-138.897
X84.132Y-149.216
X84.138Y-152.4
X84.926Y-134.135
X85.72Y-90.482
X90.482Y-161.915
X92.069Y-115.087
X93.657Y-167.471
X96.831Y-111.118
X96.831Y-130.167
X96.831Y-149.216
X96.837Y-92.075
X98.419Y-115.087
X98.419Y-134.135
X98.419Y-153.184
X100.006Y-83.338
X100.006Y-121.436
X100.006Y-140.485
X100.012Y-103.188
X103.181Y-156.359
X103.181Y-160.327
X104.768Y-170.645
X107.149Y-155.565
X109.537Y-165.1
X115.88Y-111.118
X115.88Y-130.167
X115.88Y-149.216
X115.887Y-92.075
X116.681Y-162.719
X117.468Y-96.038
X117.468Y-115.087
X117.468Y-134.135
X117.468Y-153.184
X117.475Y-157.162
X119.055Y-83.338
X119.055Y-102.387
X119.055Y-121.436
X119.055Y-140.485
X120.642Y-153.184
X123.817Y-146.834
X123.825Y-166.688
X126.992Y-173.027
X130.96Y-161.915
X131.754Y-169.058
X132.548Y-151.597
X134.135Y-150.803
X136.516Y-96.038
X136.516Y-115.087
X136.516Y-126.198
X136.516Y-134.135
X137.31Y-150.803
X138.104Y-83.338
X139.691Y-79.37
X141.279Y-93.657
X141.279Y-150.803
X141.91Y-160.165
X142.866Y-140.485
X143.66Y-148.422
X144.453Y-103.181
X148.422Y-123.817
X151.597Y-109.531
X155.565Y-123.817
X155.565Y-161.121
X155.565Y-169.058
X158.74Y-62.702
X160.327Y-79.37
X160.327Y-89.688
X160.327Y-165.883
X161.915Y-159.534
X164.296Y-170.645
X169.058Y-79.37
X171.439Y-132.548
X172.233Y-87.307
X173.027Y-78.576
X175.408Y-169.852
X176.995Y-82.545
X176.995Y-132.548
X177.789Y-96.038
X177.789Y-100.8
X177.789Y-168.264
X181.757Y-63.496
X181.757Y-172.233
X182.551Y-102.387
X182.551Y-118.261
X182.551Y-135.723
X182.551Y-155.565
T2
X139.081Y-67.227
X139.081Y-72.227
X153.581Y-67.227
X153.581Y-69.727
X153.581Y-72.227
X159.534Y-66.671
X159.534Y-69.211
X159.534Y-71.751
X159.534Y-74.291
X162.892Y-143.422
X162.892Y-148.422
X166.232Y-105.28
X168.772Y-105.28
X170.328Y-93.657
X170.328Y-96.197
X171.312Y-105.28
X172.868Y-93.657
X172.868Y-96.197
X173.852Y-105.28
X175.408Y-93.657
X175.408Y-96.197
X177.392Y-143.422
X177.392Y-145.922
X177.392Y-148.422
T3
X165.407Y-70.162
X165.407Y-72.702
X165.407Y-75.242
X165.407Y-77.782
X165.407Y-80.322
X165.407Y-82.862
X165.407Y-85.402
X165.407Y-87.942
X165.407Y-90.482
X165.407Y-93.022
X165.407Y-95.562
X165.407Y-98.102
X180.647Y-70.162
X180.647Y-72.702
X180.647Y-75.242
X180.647Y-77.782
X180.647Y-80.322
X180.647Y-82.862
X180.647Y-85.402
X180.647Y-87.942
X180.647Y-90.482
X180.647Y-93.022
X180.647Y-95.562
X180.647Y-98.102
T5
X98.419Y-98.419
X115.88Y-169.852
X158.75Y-99.212
X158.75Y-134.929
T4
X146.731Y-64.127G85X145.431Y-64.127
G05
X146.731Y-75.327G85X145.431Y-75.327
G05
X170.542Y-140.322G85X169.242Y-140.322
G05
X170.542Y-151.522G85X169.242Y-151.522
G05
T0
M30
