M48
; DRILL file {KiCad (5.1.10)-1} date 11/21/21 22:57:47
; FORMAT={-:-/ absolute / metric / decimal}
; #@! TF.CreationDate,2021-11-21T22:57:47-05:00
; #@! TF.GenerationSoftware,Kicad,Pcbnew,(5.1.10)-1
; #@! TF.FileFunction,NonPlated,1,2,NPTH
FMAT,2
METRIC
T1C1.750
T2C3.000
T3C3.050
T4C4.000
%
G90
G05
T1
X83.814Y-88.894
X83.814Y-107.943
X83.814Y-126.992
X83.814Y-146.041
X93.339Y-165.09
X93.974Y-88.894
X93.974Y-107.943
X93.974Y-126.992
X93.974Y-146.041
X102.863Y-88.894
X102.863Y-107.943
X102.863Y-126.992
X102.863Y-146.041
X103.499Y-165.09
X113.023Y-88.894
X113.023Y-107.943
X113.023Y-126.992
X113.023Y-146.041
X121.912Y-88.894
X121.912Y-107.943
X121.912Y-126.992
X121.912Y-146.041
X121.912Y-165.09
X132.072Y-88.894
X132.072Y-107.943
X132.072Y-126.992
X132.072Y-146.041
X132.072Y-165.09
X140.961Y-88.894
X146.041Y-112.388
X146.041Y-122.548
X146.041Y-150.485
X146.041Y-160.645
X151.121Y-88.894
X164.772Y-165.09
X174.932Y-165.09
T2
X85.084Y-86.354
X85.084Y-105.403
X85.084Y-124.452
X85.084Y-143.501
X91.434Y-83.814
X91.434Y-102.863
X91.434Y-121.912
X91.434Y-140.961
X95.879Y-170.17
X102.229Y-167.63
X104.133Y-86.354
X104.133Y-105.403
X104.133Y-124.452
X104.133Y-143.501
X110.483Y-83.814
X110.483Y-102.863
X110.483Y-121.912
X110.483Y-140.961
X123.182Y-86.354
X123.182Y-105.403
X123.182Y-124.452
X123.182Y-143.501
X123.182Y-162.55
X129.532Y-83.814
X129.532Y-102.863
X129.532Y-121.912
X129.532Y-140.961
X129.532Y-160.01
X142.231Y-86.354
X148.581Y-83.814
X148.581Y-113.658
X148.581Y-151.755
X151.121Y-120.008
X151.121Y-158.105
X166.042Y-162.55
X172.392Y-160.01
T3
X86.481Y-172.09
X110.357Y-172.09
X153.041Y-105.53
X153.041Y-129.406
X153.041Y-143.627
X153.041Y-167.503
T4
X86.481Y-156.85
X88.894Y-88.894
X88.894Y-107.943
X88.894Y-126.992
X88.894Y-146.041
X98.419Y-165.09
X107.943Y-88.894
X107.943Y-107.943
X107.943Y-126.992
X107.943Y-146.041
X110.357Y-156.85
X126.992Y-88.894
X126.992Y-107.943
X126.992Y-126.992
X126.992Y-146.041
X126.992Y-165.09
X137.801Y-105.53
X137.801Y-129.406
X137.801Y-143.627
X137.801Y-167.503
X146.041Y-88.894
X146.041Y-117.468
X146.041Y-155.565
X169.852Y-165.09
T0
M30
