%TF.GenerationSoftware,KiCad,Pcbnew,(5.1.10)-1*%
%TF.CreationDate,2021-11-21T17:13:44-05:00*%
%TF.ProjectId,numpad,6e756d70-6164-42e6-9b69-6361645f7063,rev?*%
%TF.SameCoordinates,Original*%
%TF.FileFunction,Legend,Top*%
%TF.FilePolarity,Positive*%
%FSLAX46Y46*%
G04 Gerber Fmt 4.6, Leading zero omitted, Abs format (unit mm)*
G04 Created by KiCad (PCBNEW (5.1.10)-1) date 2021-11-21 17:13:44*
%MOMM*%
%LPD*%
G01*
G04 APERTURE LIST*
%ADD10C,0.120000*%
%ADD11C,0.150000*%
G04 APERTURE END LIST*
D10*
%TO.C,MX17*%
X139040800Y-162565200D02*
X139040800Y-148565200D01*
X153040800Y-162565200D02*
X139040800Y-162565200D01*
X153040800Y-148565200D02*
X153040800Y-162565200D01*
X153040800Y-148565200D02*
X139040800Y-148565200D01*
%TO.C,MX11*%
X139040800Y-124467600D02*
X139040800Y-110467600D01*
X153040800Y-124467600D02*
X139040800Y-124467600D01*
X153040800Y-110467600D02*
X153040800Y-124467600D01*
X153040800Y-110467600D02*
X139040800Y-110467600D01*
%TO.C,MX15*%
X91418800Y-158089600D02*
X105418800Y-158089600D01*
X91418800Y-172089600D02*
X91418800Y-158089600D01*
X105418800Y-172089600D02*
X91418800Y-172089600D01*
X105418800Y-172089600D02*
X105418800Y-158089600D01*
D11*
%TO.C,U1*%
X160961800Y-68892200D02*
X160961800Y-99372200D01*
X160961800Y-68892200D02*
X166041800Y-68892200D01*
X166041800Y-68892200D02*
X166041800Y-66352200D01*
X166041800Y-66352200D02*
X173661800Y-66352200D01*
X173661800Y-66352200D02*
X173661800Y-68892200D01*
X173661800Y-68892200D02*
X178741800Y-68892200D01*
X178741800Y-68892200D02*
X178741800Y-99372200D01*
X178741800Y-99372200D02*
X160961800Y-99372200D01*
D10*
%TO.C,MX18*%
X176851800Y-172089600D02*
X162851800Y-172089600D01*
X176851800Y-158089600D02*
X176851800Y-172089600D01*
X162851800Y-158089600D02*
X176851800Y-158089600D01*
X162851800Y-158089600D02*
X162851800Y-172089600D01*
%TO.C,MX16*%
X133992000Y-172089600D02*
X119992000Y-172089600D01*
X133992000Y-158089600D02*
X133992000Y-172089600D01*
X119992000Y-158089600D02*
X133992000Y-158089600D01*
X119992000Y-158089600D02*
X119992000Y-172089600D01*
%TO.C,MX10*%
X133992000Y-133992000D02*
X119992000Y-133992000D01*
X133992000Y-119992000D02*
X133992000Y-133992000D01*
X119992000Y-119992000D02*
X133992000Y-119992000D01*
X119992000Y-119992000D02*
X119992000Y-133992000D01*
%TO.C,MX9*%
X114943200Y-133992000D02*
X100943200Y-133992000D01*
X114943200Y-119992000D02*
X114943200Y-133992000D01*
X100943200Y-119992000D02*
X114943200Y-119992000D01*
X100943200Y-119992000D02*
X100943200Y-133992000D01*
%TO.C,MX8*%
X95894400Y-133992000D02*
X81894400Y-133992000D01*
X95894400Y-119992000D02*
X95894400Y-133992000D01*
X81894400Y-119992000D02*
X95894400Y-119992000D01*
X81894400Y-119992000D02*
X81894400Y-133992000D01*
%TO.C,MX7*%
X153040800Y-95894400D02*
X139040800Y-95894400D01*
X153040800Y-81894400D02*
X153040800Y-95894400D01*
X139040800Y-81894400D02*
X153040800Y-81894400D01*
X139040800Y-81894400D02*
X139040800Y-95894400D01*
%TO.C,MX3*%
X133992000Y-95894400D02*
X119992000Y-95894400D01*
X133992000Y-81894400D02*
X133992000Y-95894400D01*
X119992000Y-81894400D02*
X133992000Y-81894400D01*
X119992000Y-81894400D02*
X119992000Y-95894400D01*
%TO.C,MX2*%
X114943200Y-95894400D02*
X100943200Y-95894400D01*
X114943200Y-81894400D02*
X114943200Y-95894400D01*
X100943200Y-81894400D02*
X114943200Y-81894400D01*
X100943200Y-81894400D02*
X100943200Y-95894400D01*
%TO.C,MX1*%
X95894400Y-95894400D02*
X81894400Y-95894400D01*
X95894400Y-81894400D02*
X95894400Y-95894400D01*
X81894400Y-81894400D02*
X95894400Y-81894400D01*
X81894400Y-81894400D02*
X81894400Y-95894400D01*
%TO.C,MX4*%
X95894400Y-114943200D02*
X81894400Y-114943200D01*
X95894400Y-100943200D02*
X95894400Y-114943200D01*
X81894400Y-100943200D02*
X95894400Y-100943200D01*
X81894400Y-100943200D02*
X81894400Y-114943200D01*
%TO.C,MX14*%
X133992000Y-153040800D02*
X119992000Y-153040800D01*
X133992000Y-139040800D02*
X133992000Y-153040800D01*
X119992000Y-139040800D02*
X133992000Y-139040800D01*
X119992000Y-139040800D02*
X119992000Y-153040800D01*
%TO.C,MX13*%
X114943200Y-153040800D02*
X100943200Y-153040800D01*
X114943200Y-139040800D02*
X114943200Y-153040800D01*
X100943200Y-139040800D02*
X114943200Y-139040800D01*
X100943200Y-139040800D02*
X100943200Y-153040800D01*
%TO.C,MX12*%
X95894400Y-153040800D02*
X81894400Y-153040800D01*
X95894400Y-139040800D02*
X95894400Y-153040800D01*
X81894400Y-139040800D02*
X95894400Y-139040800D01*
X81894400Y-139040800D02*
X81894400Y-153040800D01*
%TO.C,MX6*%
X133992000Y-114943200D02*
X119992000Y-114943200D01*
X133992000Y-100943200D02*
X133992000Y-114943200D01*
X119992000Y-100943200D02*
X133992000Y-100943200D01*
X119992000Y-100943200D02*
X119992000Y-114943200D01*
%TO.C,MX5*%
X114943200Y-114943200D02*
X100943200Y-114943200D01*
X114943200Y-100943200D02*
X114943200Y-114943200D01*
X100943200Y-100943200D02*
X114943200Y-100943200D01*
X100943200Y-100943200D02*
X100943200Y-114943200D01*
%TO.C,J2*%
X157410000Y-76414500D02*
X160070000Y-76414500D01*
X157410000Y-68734500D02*
X157410000Y-76414500D01*
X160070000Y-68734500D02*
X160070000Y-76414500D01*
X157410000Y-68734500D02*
X160070000Y-68734500D01*
X157410000Y-67464500D02*
X157410000Y-66134500D01*
X157410000Y-66134500D02*
X158740000Y-66134500D01*
%TO.C,J1*%
X165822900Y-92326600D02*
X165822900Y-97526600D01*
X170962900Y-92326600D02*
X165822900Y-92326600D01*
X173562900Y-97526600D02*
X165822900Y-97526600D01*
X170962900Y-92326600D02*
X170962900Y-94926600D01*
X170962900Y-94926600D02*
X173562900Y-94926600D01*
X173562900Y-94926600D02*
X173562900Y-97526600D01*
X172232900Y-92326600D02*
X173562900Y-92326600D01*
X173562900Y-92326600D02*
X173562900Y-93656600D01*
%TO.C,ROT2*%
X169995100Y-145921900D02*
X168995100Y-145921900D01*
X169495100Y-146421900D02*
X169495100Y-145421900D01*
X163395100Y-142421900D02*
X163395100Y-140021900D01*
X163395100Y-147221900D02*
X163395100Y-144621900D01*
X163395100Y-151821900D02*
X163395100Y-149421900D01*
X176695100Y-150021900D02*
X176995100Y-149721900D01*
X177295100Y-150021900D02*
X176695100Y-150021900D01*
X176995100Y-149721900D02*
X177295100Y-150021900D01*
X175595100Y-151821900D02*
X175595100Y-140021900D01*
X171495100Y-151821900D02*
X175595100Y-151821900D01*
X171495100Y-140021900D02*
X175595100Y-140021900D01*
X163395100Y-140021900D02*
X167495100Y-140021900D01*
X167495100Y-151821900D02*
X163395100Y-151821900D01*
X172495100Y-145921900D02*
G75*
G03*
X172495100Y-145921900I-3000000J0D01*
G01*
%TO.C,ROT1*%
X146184100Y-70520400D02*
X145184100Y-70520400D01*
X145684100Y-71020400D02*
X145684100Y-70020400D01*
X139584100Y-67020400D02*
X139584100Y-64620400D01*
X139584100Y-71820400D02*
X139584100Y-69220400D01*
X139584100Y-76420400D02*
X139584100Y-74020400D01*
X152884100Y-74620400D02*
X153184100Y-74320400D01*
X153484100Y-74620400D02*
X152884100Y-74620400D01*
X153184100Y-74320400D02*
X153484100Y-74620400D01*
X151784100Y-76420400D02*
X151784100Y-64620400D01*
X147684100Y-76420400D02*
X151784100Y-76420400D01*
X147684100Y-64620400D02*
X151784100Y-64620400D01*
X139584100Y-64620400D02*
X143684100Y-64620400D01*
X143684100Y-76420400D02*
X139584100Y-76420400D01*
X148684100Y-70520400D02*
G75*
G03*
X148684100Y-70520400I-3000000J0D01*
G01*
%TO.C,OLED1*%
X183313800Y-106863200D02*
X183059800Y-106875200D01*
X183313800Y-123500200D02*
X183313800Y-106863200D01*
X179973800Y-123475200D02*
X183313800Y-123500200D01*
X179973800Y-106875200D02*
X183059800Y-106875200D01*
X165152800Y-104069200D02*
X165152800Y-106482200D01*
X174931800Y-106482200D02*
X165152800Y-106482200D01*
X174931800Y-104069200D02*
X174931800Y-106482200D01*
X165152800Y-104069200D02*
X174931800Y-104069200D01*
X156873800Y-106875200D02*
X179973800Y-106875200D01*
X156873800Y-123475200D02*
X156873800Y-106875200D01*
X179973800Y-123475200D02*
X156873800Y-123475200D01*
X156451800Y-130880200D02*
X156451800Y-103580200D01*
X183851800Y-130880200D02*
X156451800Y-130880200D01*
X183851800Y-103580200D02*
X183851800Y-130880200D01*
X156451800Y-103580200D02*
X183851800Y-103580200D01*
%TO.C,MX17*%
D11*
X155155680Y-157327104D02*
X154155680Y-157327104D01*
X154869966Y-156993771D01*
X154155680Y-156660438D01*
X155155680Y-156660438D01*
X154155680Y-156279485D02*
X155155680Y-155612819D01*
X154155680Y-155612819D02*
X155155680Y-156279485D01*
X155155680Y-154708057D02*
X155155680Y-155279485D01*
X155155680Y-154993771D02*
X154155680Y-154993771D01*
X154298538Y-155089009D01*
X154393776Y-155184247D01*
X154441395Y-155279485D01*
X154155680Y-154374723D02*
X154155680Y-153708057D01*
X155155680Y-154136628D01*
%TO.C,MX11*%
X155155680Y-119229504D02*
X154155680Y-119229504D01*
X154869966Y-118896171D01*
X154155680Y-118562838D01*
X155155680Y-118562838D01*
X154155680Y-118181885D02*
X155155680Y-117515219D01*
X154155680Y-117515219D02*
X155155680Y-118181885D01*
X155155680Y-116610457D02*
X155155680Y-117181885D01*
X155155680Y-116896171D02*
X154155680Y-116896171D01*
X154298538Y-116991409D01*
X154393776Y-117086647D01*
X154441395Y-117181885D01*
X155155680Y-115658076D02*
X155155680Y-116229504D01*
X155155680Y-115943790D02*
X154155680Y-115943790D01*
X154298538Y-116039028D01*
X154393776Y-116134266D01*
X154441395Y-116229504D01*
%TO.C,MX15*%
X96656895Y-156811280D02*
X96656895Y-155811280D01*
X96990228Y-156525566D01*
X97323561Y-155811280D01*
X97323561Y-156811280D01*
X97704514Y-155811280D02*
X98371180Y-156811280D01*
X98371180Y-155811280D02*
X97704514Y-156811280D01*
X99275942Y-156811280D02*
X98704514Y-156811280D01*
X98990228Y-156811280D02*
X98990228Y-155811280D01*
X98894990Y-155954138D01*
X98799752Y-156049376D01*
X98704514Y-156096995D01*
X100180704Y-155811280D02*
X99704514Y-155811280D01*
X99656895Y-156287471D01*
X99704514Y-156239852D01*
X99799752Y-156192233D01*
X100037847Y-156192233D01*
X100133085Y-156239852D01*
X100180704Y-156287471D01*
X100228323Y-156382709D01*
X100228323Y-156620804D01*
X100180704Y-156716042D01*
X100133085Y-156763661D01*
X100037847Y-156811280D01*
X99799752Y-156811280D01*
X99704514Y-156763661D01*
X99656895Y-156716042D01*
%TO.C,MX18*%
X168089895Y-156879480D02*
X168089895Y-155879480D01*
X168423228Y-156593766D01*
X168756561Y-155879480D01*
X168756561Y-156879480D01*
X169137514Y-155879480D02*
X169804180Y-156879480D01*
X169804180Y-155879480D02*
X169137514Y-156879480D01*
X170708942Y-156879480D02*
X170137514Y-156879480D01*
X170423228Y-156879480D02*
X170423228Y-155879480D01*
X170327990Y-156022338D01*
X170232752Y-156117576D01*
X170137514Y-156165195D01*
X171280371Y-156308052D02*
X171185133Y-156260433D01*
X171137514Y-156212814D01*
X171089895Y-156117576D01*
X171089895Y-156069957D01*
X171137514Y-155974719D01*
X171185133Y-155927100D01*
X171280371Y-155879480D01*
X171470847Y-155879480D01*
X171566085Y-155927100D01*
X171613704Y-155974719D01*
X171661323Y-156069957D01*
X171661323Y-156117576D01*
X171613704Y-156212814D01*
X171566085Y-156260433D01*
X171470847Y-156308052D01*
X171280371Y-156308052D01*
X171185133Y-156355671D01*
X171137514Y-156403290D01*
X171089895Y-156498528D01*
X171089895Y-156689004D01*
X171137514Y-156784242D01*
X171185133Y-156831861D01*
X171280371Y-156879480D01*
X171470847Y-156879480D01*
X171566085Y-156831861D01*
X171613704Y-156784242D01*
X171661323Y-156689004D01*
X171661323Y-156498528D01*
X171613704Y-156403290D01*
X171566085Y-156355671D01*
X171470847Y-156308052D01*
%TO.C,MX16*%
X125230095Y-156879480D02*
X125230095Y-155879480D01*
X125563428Y-156593766D01*
X125896761Y-155879480D01*
X125896761Y-156879480D01*
X126277714Y-155879480D02*
X126944380Y-156879480D01*
X126944380Y-155879480D02*
X126277714Y-156879480D01*
X127849142Y-156879480D02*
X127277714Y-156879480D01*
X127563428Y-156879480D02*
X127563428Y-155879480D01*
X127468190Y-156022338D01*
X127372952Y-156117576D01*
X127277714Y-156165195D01*
X128706285Y-155879480D02*
X128515809Y-155879480D01*
X128420571Y-155927100D01*
X128372952Y-155974719D01*
X128277714Y-156117576D01*
X128230095Y-156308052D01*
X128230095Y-156689004D01*
X128277714Y-156784242D01*
X128325333Y-156831861D01*
X128420571Y-156879480D01*
X128611047Y-156879480D01*
X128706285Y-156831861D01*
X128753904Y-156784242D01*
X128801523Y-156689004D01*
X128801523Y-156450909D01*
X128753904Y-156355671D01*
X128706285Y-156308052D01*
X128611047Y-156260433D01*
X128420571Y-156260433D01*
X128325333Y-156308052D01*
X128277714Y-156355671D01*
X128230095Y-156450909D01*
%TO.C,MX10*%
X125230095Y-118781880D02*
X125230095Y-117781880D01*
X125563428Y-118496166D01*
X125896761Y-117781880D01*
X125896761Y-118781880D01*
X126277714Y-117781880D02*
X126944380Y-118781880D01*
X126944380Y-117781880D02*
X126277714Y-118781880D01*
X127849142Y-118781880D02*
X127277714Y-118781880D01*
X127563428Y-118781880D02*
X127563428Y-117781880D01*
X127468190Y-117924738D01*
X127372952Y-118019976D01*
X127277714Y-118067595D01*
X128468190Y-117781880D02*
X128563428Y-117781880D01*
X128658666Y-117829500D01*
X128706285Y-117877119D01*
X128753904Y-117972357D01*
X128801523Y-118162833D01*
X128801523Y-118400928D01*
X128753904Y-118591404D01*
X128706285Y-118686642D01*
X128658666Y-118734261D01*
X128563428Y-118781880D01*
X128468190Y-118781880D01*
X128372952Y-118734261D01*
X128325333Y-118686642D01*
X128277714Y-118591404D01*
X128230095Y-118400928D01*
X128230095Y-118162833D01*
X128277714Y-117972357D01*
X128325333Y-117877119D01*
X128372952Y-117829500D01*
X128468190Y-117781880D01*
%TO.C,MX9*%
X106657485Y-118781880D02*
X106657485Y-117781880D01*
X106990819Y-118496166D01*
X107324152Y-117781880D01*
X107324152Y-118781880D01*
X107705104Y-117781880D02*
X108371771Y-118781880D01*
X108371771Y-117781880D02*
X107705104Y-118781880D01*
X108800342Y-118781880D02*
X108990819Y-118781880D01*
X109086057Y-118734261D01*
X109133676Y-118686642D01*
X109228914Y-118543785D01*
X109276533Y-118353309D01*
X109276533Y-117972357D01*
X109228914Y-117877119D01*
X109181295Y-117829500D01*
X109086057Y-117781880D01*
X108895580Y-117781880D01*
X108800342Y-117829500D01*
X108752723Y-117877119D01*
X108705104Y-117972357D01*
X108705104Y-118210452D01*
X108752723Y-118305690D01*
X108800342Y-118353309D01*
X108895580Y-118400928D01*
X109086057Y-118400928D01*
X109181295Y-118353309D01*
X109228914Y-118305690D01*
X109276533Y-118210452D01*
%TO.C,MX8*%
X87608685Y-118781880D02*
X87608685Y-117781880D01*
X87942019Y-118496166D01*
X88275352Y-117781880D01*
X88275352Y-118781880D01*
X88656304Y-117781880D02*
X89322971Y-118781880D01*
X89322971Y-117781880D02*
X88656304Y-118781880D01*
X89846780Y-118210452D02*
X89751542Y-118162833D01*
X89703923Y-118115214D01*
X89656304Y-118019976D01*
X89656304Y-117972357D01*
X89703923Y-117877119D01*
X89751542Y-117829500D01*
X89846780Y-117781880D01*
X90037257Y-117781880D01*
X90132495Y-117829500D01*
X90180114Y-117877119D01*
X90227733Y-117972357D01*
X90227733Y-118019976D01*
X90180114Y-118115214D01*
X90132495Y-118162833D01*
X90037257Y-118210452D01*
X89846780Y-118210452D01*
X89751542Y-118258071D01*
X89703923Y-118305690D01*
X89656304Y-118400928D01*
X89656304Y-118591404D01*
X89703923Y-118686642D01*
X89751542Y-118734261D01*
X89846780Y-118781880D01*
X90037257Y-118781880D01*
X90132495Y-118734261D01*
X90180114Y-118686642D01*
X90227733Y-118591404D01*
X90227733Y-118400928D01*
X90180114Y-118305690D01*
X90132495Y-118258071D01*
X90037257Y-118210452D01*
%TO.C,MX7*%
X144755085Y-80684280D02*
X144755085Y-79684280D01*
X145088419Y-80398566D01*
X145421752Y-79684280D01*
X145421752Y-80684280D01*
X145802704Y-79684280D02*
X146469371Y-80684280D01*
X146469371Y-79684280D02*
X145802704Y-80684280D01*
X146755085Y-79684280D02*
X147421752Y-79684280D01*
X146993180Y-80684280D01*
%TO.C,MX3*%
X125706285Y-80684280D02*
X125706285Y-79684280D01*
X126039619Y-80398566D01*
X126372952Y-79684280D01*
X126372952Y-80684280D01*
X126753904Y-79684280D02*
X127420571Y-80684280D01*
X127420571Y-79684280D02*
X126753904Y-80684280D01*
X127706285Y-79684280D02*
X128325333Y-79684280D01*
X127992000Y-80065233D01*
X128134857Y-80065233D01*
X128230095Y-80112852D01*
X128277714Y-80160471D01*
X128325333Y-80255709D01*
X128325333Y-80493804D01*
X128277714Y-80589042D01*
X128230095Y-80636661D01*
X128134857Y-80684280D01*
X127849142Y-80684280D01*
X127753904Y-80636661D01*
X127706285Y-80589042D01*
%TO.C,MX2*%
X106657485Y-80684280D02*
X106657485Y-79684280D01*
X106990819Y-80398566D01*
X107324152Y-79684280D01*
X107324152Y-80684280D01*
X107705104Y-79684280D02*
X108371771Y-80684280D01*
X108371771Y-79684280D02*
X107705104Y-80684280D01*
X108705104Y-79779519D02*
X108752723Y-79731900D01*
X108847961Y-79684280D01*
X109086057Y-79684280D01*
X109181295Y-79731900D01*
X109228914Y-79779519D01*
X109276533Y-79874757D01*
X109276533Y-79969995D01*
X109228914Y-80112852D01*
X108657485Y-80684280D01*
X109276533Y-80684280D01*
%TO.C,MX1*%
X87608685Y-80684280D02*
X87608685Y-79684280D01*
X87942019Y-80398566D01*
X88275352Y-79684280D01*
X88275352Y-80684280D01*
X88656304Y-79684280D02*
X89322971Y-80684280D01*
X89322971Y-79684280D02*
X88656304Y-80684280D01*
X90227733Y-80684280D02*
X89656304Y-80684280D01*
X89942019Y-80684280D02*
X89942019Y-79684280D01*
X89846780Y-79827138D01*
X89751542Y-79922376D01*
X89656304Y-79969995D01*
%TO.C,MX4*%
X87608685Y-99733080D02*
X87608685Y-98733080D01*
X87942019Y-99447366D01*
X88275352Y-98733080D01*
X88275352Y-99733080D01*
X88656304Y-98733080D02*
X89322971Y-99733080D01*
X89322971Y-98733080D02*
X88656304Y-99733080D01*
X90132495Y-99066414D02*
X90132495Y-99733080D01*
X89894400Y-98685461D02*
X89656304Y-99399747D01*
X90275352Y-99399747D01*
%TO.C,MX14*%
X125230095Y-137830680D02*
X125230095Y-136830680D01*
X125563428Y-137544966D01*
X125896761Y-136830680D01*
X125896761Y-137830680D01*
X126277714Y-136830680D02*
X126944380Y-137830680D01*
X126944380Y-136830680D02*
X126277714Y-137830680D01*
X127849142Y-137830680D02*
X127277714Y-137830680D01*
X127563428Y-137830680D02*
X127563428Y-136830680D01*
X127468190Y-136973538D01*
X127372952Y-137068776D01*
X127277714Y-137116395D01*
X128706285Y-137164014D02*
X128706285Y-137830680D01*
X128468190Y-136783061D02*
X128230095Y-137497347D01*
X128849142Y-137497347D01*
%TO.C,MX13*%
X106181295Y-137830680D02*
X106181295Y-136830680D01*
X106514628Y-137544966D01*
X106847961Y-136830680D01*
X106847961Y-137830680D01*
X107228914Y-136830680D02*
X107895580Y-137830680D01*
X107895580Y-136830680D02*
X107228914Y-137830680D01*
X108800342Y-137830680D02*
X108228914Y-137830680D01*
X108514628Y-137830680D02*
X108514628Y-136830680D01*
X108419390Y-136973538D01*
X108324152Y-137068776D01*
X108228914Y-137116395D01*
X109133676Y-136830680D02*
X109752723Y-136830680D01*
X109419390Y-137211633D01*
X109562247Y-137211633D01*
X109657485Y-137259252D01*
X109705104Y-137306871D01*
X109752723Y-137402109D01*
X109752723Y-137640204D01*
X109705104Y-137735442D01*
X109657485Y-137783061D01*
X109562247Y-137830680D01*
X109276533Y-137830680D01*
X109181295Y-137783061D01*
X109133676Y-137735442D01*
%TO.C,MX12*%
X87132495Y-137830680D02*
X87132495Y-136830680D01*
X87465828Y-137544966D01*
X87799161Y-136830680D01*
X87799161Y-137830680D01*
X88180114Y-136830680D02*
X88846780Y-137830680D01*
X88846780Y-136830680D02*
X88180114Y-137830680D01*
X89751542Y-137830680D02*
X89180114Y-137830680D01*
X89465828Y-137830680D02*
X89465828Y-136830680D01*
X89370590Y-136973538D01*
X89275352Y-137068776D01*
X89180114Y-137116395D01*
X90132495Y-136925919D02*
X90180114Y-136878300D01*
X90275352Y-136830680D01*
X90513447Y-136830680D01*
X90608685Y-136878300D01*
X90656304Y-136925919D01*
X90703923Y-137021157D01*
X90703923Y-137116395D01*
X90656304Y-137259252D01*
X90084876Y-137830680D01*
X90703923Y-137830680D01*
%TO.C,MX6*%
X125706285Y-99733080D02*
X125706285Y-98733080D01*
X126039619Y-99447366D01*
X126372952Y-98733080D01*
X126372952Y-99733080D01*
X126753904Y-98733080D02*
X127420571Y-99733080D01*
X127420571Y-98733080D02*
X126753904Y-99733080D01*
X128230095Y-98733080D02*
X128039619Y-98733080D01*
X127944380Y-98780700D01*
X127896761Y-98828319D01*
X127801523Y-98971176D01*
X127753904Y-99161652D01*
X127753904Y-99542604D01*
X127801523Y-99637842D01*
X127849142Y-99685461D01*
X127944380Y-99733080D01*
X128134857Y-99733080D01*
X128230095Y-99685461D01*
X128277714Y-99637842D01*
X128325333Y-99542604D01*
X128325333Y-99304509D01*
X128277714Y-99209271D01*
X128230095Y-99161652D01*
X128134857Y-99114033D01*
X127944380Y-99114033D01*
X127849142Y-99161652D01*
X127801523Y-99209271D01*
X127753904Y-99304509D01*
%TO.C,MX5*%
X106657485Y-99733080D02*
X106657485Y-98733080D01*
X106990819Y-99447366D01*
X107324152Y-98733080D01*
X107324152Y-99733080D01*
X107705104Y-98733080D02*
X108371771Y-99733080D01*
X108371771Y-98733080D02*
X107705104Y-99733080D01*
X109228914Y-98733080D02*
X108752723Y-98733080D01*
X108705104Y-99209271D01*
X108752723Y-99161652D01*
X108847961Y-99114033D01*
X109086057Y-99114033D01*
X109181295Y-99161652D01*
X109228914Y-99209271D01*
X109276533Y-99304509D01*
X109276533Y-99542604D01*
X109228914Y-99637842D01*
X109181295Y-99685461D01*
X109086057Y-99733080D01*
X108847961Y-99733080D01*
X108752723Y-99685461D01*
X108705104Y-99637842D01*
%TO.C,J2*%
X158406666Y-64586880D02*
X158406666Y-65301166D01*
X158359047Y-65444023D01*
X158263809Y-65539261D01*
X158120952Y-65586880D01*
X158025714Y-65586880D01*
X158835238Y-64682119D02*
X158882857Y-64634500D01*
X158978095Y-64586880D01*
X159216190Y-64586880D01*
X159311428Y-64634500D01*
X159359047Y-64682119D01*
X159406666Y-64777357D01*
X159406666Y-64872595D01*
X159359047Y-65015452D01*
X158787619Y-65586880D01*
X159406666Y-65586880D01*
%TO.C,J1*%
X174015280Y-95259933D02*
X174729566Y-95259933D01*
X174872423Y-95307552D01*
X174967661Y-95402790D01*
X175015280Y-95545647D01*
X175015280Y-95640885D01*
X175015280Y-94259933D02*
X175015280Y-94831361D01*
X175015280Y-94545647D02*
X174015280Y-94545647D01*
X174158138Y-94640885D01*
X174253376Y-94736123D01*
X174300995Y-94831361D01*
%TO.C,ROT2*%
X173123671Y-153574280D02*
X172790338Y-153098090D01*
X172552242Y-153574280D02*
X172552242Y-152574280D01*
X172933195Y-152574280D01*
X173028433Y-152621900D01*
X173076052Y-152669519D01*
X173123671Y-152764757D01*
X173123671Y-152907614D01*
X173076052Y-153002852D01*
X173028433Y-153050471D01*
X172933195Y-153098090D01*
X172552242Y-153098090D01*
X173742719Y-152574280D02*
X173933195Y-152574280D01*
X174028433Y-152621900D01*
X174123671Y-152717138D01*
X174171290Y-152907614D01*
X174171290Y-153240947D01*
X174123671Y-153431423D01*
X174028433Y-153526661D01*
X173933195Y-153574280D01*
X173742719Y-153574280D01*
X173647480Y-153526661D01*
X173552242Y-153431423D01*
X173504623Y-153240947D01*
X173504623Y-152907614D01*
X173552242Y-152717138D01*
X173647480Y-152621900D01*
X173742719Y-152574280D01*
X174457004Y-152574280D02*
X175028433Y-152574280D01*
X174742719Y-153574280D02*
X174742719Y-152574280D01*
X175314147Y-152669519D02*
X175361766Y-152621900D01*
X175457004Y-152574280D01*
X175695100Y-152574280D01*
X175790338Y-152621900D01*
X175837957Y-152669519D01*
X175885576Y-152764757D01*
X175885576Y-152859995D01*
X175837957Y-153002852D01*
X175266528Y-153574280D01*
X175885576Y-153574280D01*
%TO.C,ROT1*%
X149312671Y-78172780D02*
X148979338Y-77696590D01*
X148741242Y-78172780D02*
X148741242Y-77172780D01*
X149122195Y-77172780D01*
X149217433Y-77220400D01*
X149265052Y-77268019D01*
X149312671Y-77363257D01*
X149312671Y-77506114D01*
X149265052Y-77601352D01*
X149217433Y-77648971D01*
X149122195Y-77696590D01*
X148741242Y-77696590D01*
X149931719Y-77172780D02*
X150122195Y-77172780D01*
X150217433Y-77220400D01*
X150312671Y-77315638D01*
X150360290Y-77506114D01*
X150360290Y-77839447D01*
X150312671Y-78029923D01*
X150217433Y-78125161D01*
X150122195Y-78172780D01*
X149931719Y-78172780D01*
X149836480Y-78125161D01*
X149741242Y-78029923D01*
X149693623Y-77839447D01*
X149693623Y-77506114D01*
X149741242Y-77315638D01*
X149836480Y-77220400D01*
X149931719Y-77172780D01*
X150646004Y-77172780D02*
X151217433Y-77172780D01*
X150931719Y-78172780D02*
X150931719Y-77172780D01*
X152074576Y-78172780D02*
X151503147Y-78172780D01*
X151788861Y-78172780D02*
X151788861Y-77172780D01*
X151693623Y-77315638D01*
X151598385Y-77410876D01*
X151503147Y-77458495D01*
%TO.C,OLED1*%
X167923228Y-115586580D02*
X168113704Y-115586580D01*
X168208942Y-115634200D01*
X168304180Y-115729438D01*
X168351800Y-115919914D01*
X168351800Y-116253247D01*
X168304180Y-116443723D01*
X168208942Y-116538961D01*
X168113704Y-116586580D01*
X167923228Y-116586580D01*
X167827990Y-116538961D01*
X167732752Y-116443723D01*
X167685133Y-116253247D01*
X167685133Y-115919914D01*
X167732752Y-115729438D01*
X167827990Y-115634200D01*
X167923228Y-115586580D01*
X169256561Y-116586580D02*
X168780371Y-116586580D01*
X168780371Y-115586580D01*
X169589895Y-116062771D02*
X169923228Y-116062771D01*
X170066085Y-116586580D02*
X169589895Y-116586580D01*
X169589895Y-115586580D01*
X170066085Y-115586580D01*
X170494657Y-116586580D02*
X170494657Y-115586580D01*
X170732752Y-115586580D01*
X170875609Y-115634200D01*
X170970847Y-115729438D01*
X171018466Y-115824676D01*
X171066085Y-116015152D01*
X171066085Y-116158009D01*
X171018466Y-116348485D01*
X170970847Y-116443723D01*
X170875609Y-116538961D01*
X170732752Y-116586580D01*
X170494657Y-116586580D01*
X172018466Y-116586580D02*
X171447038Y-116586580D01*
X171732752Y-116586580D02*
X171732752Y-115586580D01*
X171637514Y-115729438D01*
X171542276Y-115824676D01*
X171447038Y-115872295D01*
%TD*%
M02*
