%FSLAX45Y45*%
G04 Gerber Fmt 4.5, Leading zero omitted, Abs format (unit mm)*
G04 Created by KiCad (PCBNEW (6.0.0)) date 2022-02-13 19:48:54*
%MOMM*%
%LPD*%
G01*
G04 APERTURE LIST*
%TA.AperFunction,Profile*%
%ADD10C,0.050000*%
%TD*%
%ADD11C,0.200000*%
%ADD12C,0.175000*%
%ADD13C,0.300000*%
%ADD14C,0.305000*%
%ADD15C,0.400000*%
G04 APERTURE END LIST*
D10*
X13651640Y-6349600D02*
X13651640Y-7540150D01*
X13334160Y-7857630D02*
X8175110Y-7857630D01*
X7857630Y-8175110D02*
X7857630Y-17223290D01*
X18493210Y-17223290D02*
X18493210Y-6349600D01*
X8175110Y-17540770D02*
X18175730Y-17540770D01*
X18175730Y-6032120D02*
X13969120Y-6032120D01*
X18493210Y-6349600D02*
G75*
G03*
X18175730Y-6032120I-317480J0D01*
G01*
X13334160Y-7857630D02*
G75*
G03*
X13651640Y-7540150I0J317480D01*
G01*
X8175110Y-7857630D02*
G75*
G03*
X7857630Y-8175110I0J-317480D01*
G01*
X18175730Y-17540770D02*
G75*
G03*
X18493210Y-17223290I0J317480D01*
G01*
X7857630Y-17223290D02*
G75*
G03*
X8175110Y-17540770I317480J0D01*
G01*
X13969120Y-6032120D02*
G75*
G03*
X13651640Y-6349600I0J-317480D01*
G01*
D11*
D12*
X8294005Y-8802005D02*
X8469005Y-8977005D01*
X8469005Y-8802005D02*
X8294005Y-8977005D01*
X8294005Y-10707005D02*
X8469005Y-10882005D01*
X8469005Y-10707005D02*
X8294005Y-10882005D01*
X8294005Y-12612005D02*
X8469005Y-12787005D01*
X8469005Y-12612005D02*
X8294005Y-12787005D01*
X8294005Y-14517005D02*
X8469005Y-14692005D01*
X8469005Y-14517005D02*
X8294005Y-14692005D01*
X9246505Y-16422005D02*
X9421505Y-16597005D01*
X9421505Y-16422005D02*
X9246505Y-16597005D01*
X9310005Y-8802005D02*
X9485005Y-8977005D01*
X9485005Y-8802005D02*
X9310005Y-8977005D01*
X9310005Y-10707005D02*
X9485005Y-10882005D01*
X9485005Y-10707005D02*
X9310005Y-10882005D01*
X9310005Y-12612005D02*
X9485005Y-12787005D01*
X9485005Y-12612005D02*
X9310005Y-12787005D01*
X9310005Y-14517005D02*
X9485005Y-14692005D01*
X9485005Y-14517005D02*
X9310005Y-14692005D01*
X10199005Y-8802005D02*
X10374005Y-8977005D01*
X10374005Y-8802005D02*
X10199005Y-8977005D01*
X10199005Y-10707005D02*
X10374005Y-10882005D01*
X10374005Y-10707005D02*
X10199005Y-10882005D01*
X10199005Y-12612005D02*
X10374005Y-12787005D01*
X10374005Y-12612005D02*
X10199005Y-12787005D01*
X10199005Y-14517005D02*
X10374005Y-14692005D01*
X10374005Y-14517005D02*
X10199005Y-14692005D01*
X10262505Y-16422005D02*
X10437505Y-16597005D01*
X10437505Y-16422005D02*
X10262505Y-16597005D01*
X11215005Y-8802005D02*
X11390005Y-8977005D01*
X11390005Y-8802005D02*
X11215005Y-8977005D01*
X11215005Y-10707005D02*
X11390005Y-10882005D01*
X11390005Y-10707005D02*
X11215005Y-10882005D01*
X11215005Y-12612005D02*
X11390005Y-12787005D01*
X11390005Y-12612005D02*
X11215005Y-12787005D01*
X11215005Y-14517005D02*
X11390005Y-14692005D01*
X11390005Y-14517005D02*
X11215005Y-14692005D01*
X12104005Y-8802005D02*
X12279005Y-8977005D01*
X12279005Y-8802005D02*
X12104005Y-8977005D01*
X12104005Y-10707005D02*
X12279005Y-10882005D01*
X12279005Y-10707005D02*
X12104005Y-10882005D01*
X12104005Y-12612005D02*
X12279005Y-12787005D01*
X12279005Y-12612005D02*
X12104005Y-12787005D01*
X12104005Y-14517005D02*
X12279005Y-14692005D01*
X12279005Y-14517005D02*
X12104005Y-14692005D01*
X12104005Y-16422005D02*
X12279005Y-16597005D01*
X12279005Y-16422005D02*
X12104005Y-16597005D01*
X13120005Y-8802005D02*
X13295005Y-8977005D01*
X13295005Y-8802005D02*
X13120005Y-8977005D01*
X13120005Y-10707005D02*
X13295005Y-10882005D01*
X13295005Y-10707005D02*
X13120005Y-10882005D01*
X13120005Y-12612005D02*
X13295005Y-12787005D01*
X13295005Y-12612005D02*
X13120005Y-12787005D01*
X13120005Y-14517005D02*
X13295005Y-14692005D01*
X13295005Y-14517005D02*
X13120005Y-14692005D01*
X13120005Y-16422005D02*
X13295005Y-16597005D01*
X13295005Y-16422005D02*
X13120005Y-16597005D01*
X14009005Y-8802005D02*
X14184005Y-8977005D01*
X14184005Y-8802005D02*
X14009005Y-8977005D01*
X14517005Y-11151505D02*
X14692005Y-11326505D01*
X14692005Y-11151505D02*
X14517005Y-11326505D01*
X14517005Y-12167505D02*
X14692005Y-12342505D01*
X14692005Y-12167505D02*
X14517005Y-12342505D01*
X14517005Y-14961505D02*
X14692005Y-15136505D01*
X14692005Y-14961505D02*
X14517005Y-15136505D01*
X14517005Y-15977505D02*
X14692005Y-16152505D01*
X14692005Y-15977505D02*
X14517005Y-16152505D01*
X15025005Y-8802005D02*
X15200005Y-8977005D01*
X15200005Y-8802005D02*
X15025005Y-8977005D01*
X16390255Y-16422005D02*
X16565255Y-16597005D01*
X16565255Y-16422005D02*
X16390255Y-16597005D01*
X17406255Y-16422005D02*
X17581255Y-16597005D01*
X17581255Y-16422005D02*
X17406255Y-16597005D01*
D13*
X8658505Y-8635505D02*
G75*
G03*
X8658505Y-8635505I-150000J0D01*
G01*
X8658505Y-10540505D02*
G75*
G03*
X8658505Y-10540505I-150000J0D01*
G01*
X8658505Y-12445505D02*
G75*
G03*
X8658505Y-12445505I-150000J0D01*
G01*
X8658505Y-14350505D02*
G75*
G03*
X8658505Y-14350505I-150000J0D01*
G01*
X9293505Y-8381505D02*
G75*
G03*
X9293505Y-8381505I-150000J0D01*
G01*
X9293505Y-10286505D02*
G75*
G03*
X9293505Y-10286505I-150000J0D01*
G01*
X9293505Y-12191505D02*
G75*
G03*
X9293505Y-12191505I-150000J0D01*
G01*
X9293505Y-14096505D02*
G75*
G03*
X9293505Y-14096505I-150000J0D01*
G01*
X9611005Y-16255505D02*
G75*
G03*
X9611005Y-16255505I-150000J0D01*
G01*
X10246005Y-16001505D02*
G75*
G03*
X10246005Y-16001505I-150000J0D01*
G01*
X10563505Y-8635505D02*
G75*
G03*
X10563505Y-8635505I-150000J0D01*
G01*
X10563505Y-10540505D02*
G75*
G03*
X10563505Y-10540505I-150000J0D01*
G01*
X10563505Y-12445505D02*
G75*
G03*
X10563505Y-12445505I-150000J0D01*
G01*
X10563505Y-14350505D02*
G75*
G03*
X10563505Y-14350505I-150000J0D01*
G01*
X11198505Y-8381505D02*
G75*
G03*
X11198505Y-8381505I-150000J0D01*
G01*
X11198505Y-10286505D02*
G75*
G03*
X11198505Y-10286505I-150000J0D01*
G01*
X11198505Y-12191505D02*
G75*
G03*
X11198505Y-12191505I-150000J0D01*
G01*
X11198505Y-14096505D02*
G75*
G03*
X11198505Y-14096505I-150000J0D01*
G01*
X12468505Y-8635505D02*
G75*
G03*
X12468505Y-8635505I-150000J0D01*
G01*
X12468505Y-10540505D02*
G75*
G03*
X12468505Y-10540505I-150000J0D01*
G01*
X12468505Y-12445505D02*
G75*
G03*
X12468505Y-12445505I-150000J0D01*
G01*
X12468505Y-14350505D02*
G75*
G03*
X12468505Y-14350505I-150000J0D01*
G01*
X12468505Y-16255505D02*
G75*
G03*
X12468505Y-16255505I-150000J0D01*
G01*
X13103505Y-8381505D02*
G75*
G03*
X13103505Y-8381505I-150000J0D01*
G01*
X13103505Y-10286505D02*
G75*
G03*
X13103505Y-10286505I-150000J0D01*
G01*
X13103505Y-12191505D02*
G75*
G03*
X13103505Y-12191505I-150000J0D01*
G01*
X13103505Y-14096505D02*
G75*
G03*
X13103505Y-14096505I-150000J0D01*
G01*
X13103505Y-16001505D02*
G75*
G03*
X13103505Y-16001505I-150000J0D01*
G01*
X14373505Y-8635505D02*
G75*
G03*
X14373505Y-8635505I-150000J0D01*
G01*
X15008505Y-8381505D02*
G75*
G03*
X15008505Y-8381505I-150000J0D01*
G01*
X15008505Y-11366005D02*
G75*
G03*
X15008505Y-11366005I-150000J0D01*
G01*
X15008505Y-15176005D02*
G75*
G03*
X15008505Y-15176005I-150000J0D01*
G01*
X15262505Y-12001005D02*
G75*
G03*
X15262505Y-12001005I-150000J0D01*
G01*
X15262505Y-15811005D02*
G75*
G03*
X15262505Y-15811005I-150000J0D01*
G01*
X16754755Y-16255505D02*
G75*
G03*
X16754755Y-16255505I-150000J0D01*
G01*
X17389755Y-16001505D02*
G75*
G03*
X17389755Y-16001505I-150000J0D01*
G01*
D14*
X8648205Y-17057005D02*
X8648205Y-17362005D01*
X8495705Y-17209505D02*
X8800705Y-17209505D01*
X11035805Y-17057005D02*
X11035805Y-17362005D01*
X10883305Y-17209505D02*
X11188305Y-17209505D01*
X15304505Y-10400705D02*
X15304505Y-10705705D01*
X15152005Y-10553205D02*
X15457005Y-10553205D01*
X15304505Y-12788305D02*
X15304505Y-13093305D01*
X15152005Y-12940805D02*
X15457005Y-12940805D01*
X15304505Y-14210705D02*
X15304505Y-14515705D01*
X15152005Y-14363205D02*
X15457005Y-14363205D01*
X15304505Y-16598305D02*
X15304505Y-16903305D01*
X15152005Y-16750805D02*
X15457005Y-16750805D01*
D15*
X8789628Y-15826928D02*
X8789628Y-15544082D01*
X8506782Y-15544082D01*
X8506782Y-15826928D01*
X8789628Y-15826928D01*
X9030928Y-9030928D02*
X9030928Y-8748082D01*
X8748082Y-8748082D01*
X8748082Y-9030928D01*
X9030928Y-9030928D01*
X9030928Y-10935928D02*
X9030928Y-10653082D01*
X8748082Y-10653082D01*
X8748082Y-10935928D01*
X9030928Y-10935928D01*
X9030928Y-12840928D02*
X9030928Y-12558082D01*
X8748082Y-12558082D01*
X8748082Y-12840928D01*
X9030928Y-12840928D01*
X9030928Y-14745928D02*
X9030928Y-14463082D01*
X8748082Y-14463082D01*
X8748082Y-14745928D01*
X9030928Y-14745928D01*
X9983428Y-16650928D02*
X9983428Y-16368082D01*
X9700582Y-16368082D01*
X9700582Y-16650928D01*
X9983428Y-16650928D01*
X10935928Y-9030928D02*
X10935928Y-8748082D01*
X10653082Y-8748082D01*
X10653082Y-9030928D01*
X10935928Y-9030928D01*
X10935928Y-10935928D02*
X10935928Y-10653082D01*
X10653082Y-10653082D01*
X10653082Y-10935928D01*
X10935928Y-10935928D01*
X10935928Y-12840928D02*
X10935928Y-12558082D01*
X10653082Y-12558082D01*
X10653082Y-12840928D01*
X10935928Y-12840928D01*
X10935928Y-14745928D02*
X10935928Y-14463082D01*
X10653082Y-14463082D01*
X10653082Y-14745928D01*
X10935928Y-14745928D01*
X11177228Y-15826928D02*
X11177228Y-15544082D01*
X10894382Y-15544082D01*
X10894382Y-15826928D01*
X11177228Y-15826928D01*
X12840928Y-9030928D02*
X12840928Y-8748082D01*
X12558082Y-8748082D01*
X12558082Y-9030928D01*
X12840928Y-9030928D01*
X12840928Y-10935928D02*
X12840928Y-10653082D01*
X12558082Y-10653082D01*
X12558082Y-10935928D01*
X12840928Y-10935928D01*
X12840928Y-12840928D02*
X12840928Y-12558082D01*
X12558082Y-12558082D01*
X12558082Y-12840928D01*
X12840928Y-12840928D01*
X12840928Y-14745928D02*
X12840928Y-14463082D01*
X12558082Y-14463082D01*
X12558082Y-14745928D01*
X12840928Y-14745928D01*
X12840928Y-16650928D02*
X12840928Y-16368082D01*
X12558082Y-16368082D01*
X12558082Y-16650928D01*
X12840928Y-16650928D01*
X13921928Y-10694628D02*
X13921928Y-10411782D01*
X13639082Y-10411782D01*
X13639082Y-10694628D01*
X13921928Y-10694628D01*
X13921928Y-13082228D02*
X13921928Y-12799382D01*
X13639082Y-12799382D01*
X13639082Y-13082228D01*
X13921928Y-13082228D01*
X13921928Y-14504628D02*
X13921928Y-14221782D01*
X13639082Y-14221782D01*
X13639082Y-14504628D01*
X13921928Y-14504628D01*
X13921928Y-16892228D02*
X13921928Y-16609382D01*
X13639082Y-16609382D01*
X13639082Y-16892228D01*
X13921928Y-16892228D01*
X14745928Y-9030928D02*
X14745928Y-8748082D01*
X14463082Y-8748082D01*
X14463082Y-9030928D01*
X14745928Y-9030928D01*
X14745928Y-11888428D02*
X14745928Y-11605582D01*
X14463082Y-11605582D01*
X14463082Y-11888428D01*
X14745928Y-11888428D01*
X14745928Y-15698428D02*
X14745928Y-15415582D01*
X14463082Y-15415582D01*
X14463082Y-15698428D01*
X14745928Y-15698428D01*
X17127178Y-16650928D02*
X17127178Y-16368082D01*
X16844332Y-16368082D01*
X16844332Y-16650928D01*
X17127178Y-16650928D01*
D11*
X8112749Y-17853746D02*
X8112749Y-17653746D01*
X8160368Y-17653746D01*
X8188939Y-17663270D01*
X8207987Y-17682318D01*
X8217511Y-17701365D01*
X8227035Y-17739460D01*
X8227035Y-17768032D01*
X8217511Y-17806127D01*
X8207987Y-17825175D01*
X8188939Y-17844222D01*
X8160368Y-17853746D01*
X8112749Y-17853746D01*
X8312749Y-17853746D02*
X8312749Y-17720413D01*
X8312749Y-17758508D02*
X8322273Y-17739460D01*
X8331797Y-17729937D01*
X8350844Y-17720413D01*
X8369892Y-17720413D01*
X8436559Y-17853746D02*
X8436559Y-17720413D01*
X8436559Y-17653746D02*
X8427035Y-17663270D01*
X8436559Y-17672794D01*
X8446082Y-17663270D01*
X8436559Y-17653746D01*
X8436559Y-17672794D01*
X8560368Y-17853746D02*
X8541320Y-17844222D01*
X8531797Y-17825175D01*
X8531797Y-17653746D01*
X8665130Y-17853746D02*
X8646082Y-17844222D01*
X8636559Y-17825175D01*
X8636559Y-17653746D01*
X8893701Y-17853746D02*
X8893701Y-17653746D01*
X8960368Y-17796603D01*
X9027035Y-17653746D01*
X9027035Y-17853746D01*
X9207987Y-17853746D02*
X9207987Y-17748984D01*
X9198463Y-17729937D01*
X9179416Y-17720413D01*
X9141320Y-17720413D01*
X9122273Y-17729937D01*
X9207987Y-17844222D02*
X9188940Y-17853746D01*
X9141320Y-17853746D01*
X9122273Y-17844222D01*
X9112749Y-17825175D01*
X9112749Y-17806127D01*
X9122273Y-17787080D01*
X9141320Y-17777556D01*
X9188940Y-17777556D01*
X9207987Y-17768032D01*
X9303225Y-17720413D02*
X9303225Y-17920413D01*
X9303225Y-17729937D02*
X9322273Y-17720413D01*
X9360368Y-17720413D01*
X9379416Y-17729937D01*
X9388940Y-17739460D01*
X9398463Y-17758508D01*
X9398463Y-17815651D01*
X9388940Y-17834699D01*
X9379416Y-17844222D01*
X9360368Y-17853746D01*
X9322273Y-17853746D01*
X9303225Y-17844222D01*
X9484178Y-17834699D02*
X9493701Y-17844222D01*
X9484178Y-17853746D01*
X9474654Y-17844222D01*
X9484178Y-17834699D01*
X9484178Y-17853746D01*
X9484178Y-17729937D02*
X9493701Y-17739460D01*
X9484178Y-17748984D01*
X9474654Y-17739460D01*
X9484178Y-17729937D01*
X9484178Y-17748984D01*
D12*
X7680130Y-18095770D02*
X7855130Y-18270770D01*
X7855130Y-18095770D02*
X7680130Y-18270770D01*
D11*
X8217511Y-18273746D02*
X8103225Y-18273746D01*
X8160368Y-18273746D02*
X8160368Y-18073746D01*
X8141320Y-18102318D01*
X8122273Y-18121365D01*
X8103225Y-18130889D01*
X8303225Y-18254699D02*
X8312749Y-18264222D01*
X8303225Y-18273746D01*
X8293701Y-18264222D01*
X8303225Y-18254699D01*
X8303225Y-18273746D01*
X8379416Y-18073746D02*
X8512749Y-18073746D01*
X8427035Y-18273746D01*
X8684178Y-18073746D02*
X8588940Y-18073746D01*
X8579416Y-18168984D01*
X8588940Y-18159460D01*
X8607987Y-18149937D01*
X8655606Y-18149937D01*
X8674654Y-18159460D01*
X8684178Y-18168984D01*
X8693701Y-18188032D01*
X8693701Y-18235651D01*
X8684178Y-18254699D01*
X8674654Y-18264222D01*
X8655606Y-18273746D01*
X8607987Y-18273746D01*
X8588940Y-18264222D01*
X8579416Y-18254699D01*
X8817511Y-18073746D02*
X8836559Y-18073746D01*
X8855606Y-18083270D01*
X8865130Y-18092794D01*
X8874654Y-18111841D01*
X8884178Y-18149937D01*
X8884178Y-18197556D01*
X8874654Y-18235651D01*
X8865130Y-18254699D01*
X8855606Y-18264222D01*
X8836559Y-18273746D01*
X8817511Y-18273746D01*
X8798463Y-18264222D01*
X8788940Y-18254699D01*
X8779416Y-18235651D01*
X8769892Y-18197556D01*
X8769892Y-18149937D01*
X8779416Y-18111841D01*
X8788940Y-18092794D01*
X8798463Y-18083270D01*
X8817511Y-18073746D01*
X8969892Y-18273746D02*
X8969892Y-18140413D01*
X8969892Y-18159460D02*
X8979416Y-18149937D01*
X8998463Y-18140413D01*
X9027035Y-18140413D01*
X9046082Y-18149937D01*
X9055606Y-18168984D01*
X9055606Y-18273746D01*
X9055606Y-18168984D02*
X9065130Y-18149937D01*
X9084178Y-18140413D01*
X9112749Y-18140413D01*
X9131797Y-18149937D01*
X9141320Y-18168984D01*
X9141320Y-18273746D01*
X9236559Y-18273746D02*
X9236559Y-18140413D01*
X9236559Y-18159460D02*
X9246082Y-18149937D01*
X9265130Y-18140413D01*
X9293701Y-18140413D01*
X9312749Y-18149937D01*
X9322273Y-18168984D01*
X9322273Y-18273746D01*
X9322273Y-18168984D02*
X9331797Y-18149937D01*
X9350844Y-18140413D01*
X9379416Y-18140413D01*
X9398463Y-18149937D01*
X9407987Y-18168984D01*
X9407987Y-18273746D01*
X9798463Y-18064222D02*
X9627035Y-18321365D01*
X10055606Y-18073746D02*
X10074654Y-18073746D01*
X10093701Y-18083270D01*
X10103225Y-18092794D01*
X10112749Y-18111841D01*
X10122273Y-18149937D01*
X10122273Y-18197556D01*
X10112749Y-18235651D01*
X10103225Y-18254699D01*
X10093701Y-18264222D01*
X10074654Y-18273746D01*
X10055606Y-18273746D01*
X10036559Y-18264222D01*
X10027035Y-18254699D01*
X10017511Y-18235651D01*
X10007987Y-18197556D01*
X10007987Y-18149937D01*
X10017511Y-18111841D01*
X10027035Y-18092794D01*
X10036559Y-18083270D01*
X10055606Y-18073746D01*
X10207987Y-18254699D02*
X10217511Y-18264222D01*
X10207987Y-18273746D01*
X10198463Y-18264222D01*
X10207987Y-18254699D01*
X10207987Y-18273746D01*
X10341320Y-18073746D02*
X10360368Y-18073746D01*
X10379416Y-18083270D01*
X10388940Y-18092794D01*
X10398463Y-18111841D01*
X10407987Y-18149937D01*
X10407987Y-18197556D01*
X10398463Y-18235651D01*
X10388940Y-18254699D01*
X10379416Y-18264222D01*
X10360368Y-18273746D01*
X10341320Y-18273746D01*
X10322273Y-18264222D01*
X10312749Y-18254699D01*
X10303225Y-18235651D01*
X10293701Y-18197556D01*
X10293701Y-18149937D01*
X10303225Y-18111841D01*
X10312749Y-18092794D01*
X10322273Y-18083270D01*
X10341320Y-18073746D01*
X10579416Y-18073746D02*
X10541320Y-18073746D01*
X10522273Y-18083270D01*
X10512749Y-18092794D01*
X10493701Y-18121365D01*
X10484178Y-18159460D01*
X10484178Y-18235651D01*
X10493701Y-18254699D01*
X10503225Y-18264222D01*
X10522273Y-18273746D01*
X10560368Y-18273746D01*
X10579416Y-18264222D01*
X10588940Y-18254699D01*
X10598463Y-18235651D01*
X10598463Y-18188032D01*
X10588940Y-18168984D01*
X10579416Y-18159460D01*
X10560368Y-18149937D01*
X10522273Y-18149937D01*
X10503225Y-18159460D01*
X10493701Y-18168984D01*
X10484178Y-18188032D01*
X10712749Y-18159460D02*
X10693701Y-18149937D01*
X10684178Y-18140413D01*
X10674654Y-18121365D01*
X10674654Y-18111841D01*
X10684178Y-18092794D01*
X10693701Y-18083270D01*
X10712749Y-18073746D01*
X10750844Y-18073746D01*
X10769892Y-18083270D01*
X10779416Y-18092794D01*
X10788940Y-18111841D01*
X10788940Y-18121365D01*
X10779416Y-18140413D01*
X10769892Y-18149937D01*
X10750844Y-18159460D01*
X10712749Y-18159460D01*
X10693701Y-18168984D01*
X10684178Y-18178508D01*
X10674654Y-18197556D01*
X10674654Y-18235651D01*
X10684178Y-18254699D01*
X10693701Y-18264222D01*
X10712749Y-18273746D01*
X10750844Y-18273746D01*
X10769892Y-18264222D01*
X10779416Y-18254699D01*
X10788940Y-18235651D01*
X10788940Y-18197556D01*
X10779416Y-18178508D01*
X10769892Y-18168984D01*
X10750844Y-18159460D01*
X10884178Y-18273746D02*
X10922273Y-18273746D01*
X10941320Y-18264222D01*
X10950844Y-18254699D01*
X10969892Y-18226127D01*
X10979416Y-18188032D01*
X10979416Y-18111841D01*
X10969892Y-18092794D01*
X10960368Y-18083270D01*
X10941320Y-18073746D01*
X10903225Y-18073746D01*
X10884178Y-18083270D01*
X10874654Y-18092794D01*
X10865130Y-18111841D01*
X10865130Y-18159460D01*
X10874654Y-18178508D01*
X10884178Y-18188032D01*
X10903225Y-18197556D01*
X10941320Y-18197556D01*
X10960368Y-18188032D01*
X10969892Y-18178508D01*
X10979416Y-18159460D01*
X11055606Y-18073746D02*
X11055606Y-18111841D01*
X11131797Y-18073746D02*
X11131797Y-18111841D01*
X11427035Y-18349937D02*
X11417511Y-18340413D01*
X11398463Y-18311841D01*
X11388939Y-18292794D01*
X11379416Y-18264222D01*
X11369892Y-18216603D01*
X11369892Y-18178508D01*
X11379416Y-18130889D01*
X11388939Y-18102318D01*
X11398463Y-18083270D01*
X11417511Y-18054699D01*
X11427035Y-18045175D01*
X11484178Y-18073746D02*
X11607987Y-18073746D01*
X11541320Y-18149937D01*
X11569892Y-18149937D01*
X11588939Y-18159460D01*
X11598463Y-18168984D01*
X11607987Y-18188032D01*
X11607987Y-18235651D01*
X11598463Y-18254699D01*
X11588939Y-18264222D01*
X11569892Y-18273746D01*
X11512749Y-18273746D01*
X11493701Y-18264222D01*
X11484178Y-18254699D01*
X11779416Y-18073746D02*
X11741320Y-18073746D01*
X11722273Y-18083270D01*
X11712749Y-18092794D01*
X11693701Y-18121365D01*
X11684178Y-18159460D01*
X11684178Y-18235651D01*
X11693701Y-18254699D01*
X11703225Y-18264222D01*
X11722273Y-18273746D01*
X11760368Y-18273746D01*
X11779416Y-18264222D01*
X11788939Y-18254699D01*
X11798463Y-18235651D01*
X11798463Y-18188032D01*
X11788939Y-18168984D01*
X11779416Y-18159460D01*
X11760368Y-18149937D01*
X11722273Y-18149937D01*
X11703225Y-18159460D01*
X11693701Y-18168984D01*
X11684178Y-18188032D01*
X12036558Y-18273746D02*
X12036558Y-18073746D01*
X12122273Y-18273746D02*
X12122273Y-18168984D01*
X12112749Y-18149937D01*
X12093701Y-18140413D01*
X12065130Y-18140413D01*
X12046082Y-18149937D01*
X12036558Y-18159460D01*
X12246082Y-18273746D02*
X12227035Y-18264222D01*
X12217511Y-18254699D01*
X12207987Y-18235651D01*
X12207987Y-18178508D01*
X12217511Y-18159460D01*
X12227035Y-18149937D01*
X12246082Y-18140413D01*
X12274654Y-18140413D01*
X12293701Y-18149937D01*
X12303225Y-18159460D01*
X12312749Y-18178508D01*
X12312749Y-18235651D01*
X12303225Y-18254699D01*
X12293701Y-18264222D01*
X12274654Y-18273746D01*
X12246082Y-18273746D01*
X12427035Y-18273746D02*
X12407987Y-18264222D01*
X12398463Y-18245175D01*
X12398463Y-18073746D01*
X12579416Y-18264222D02*
X12560368Y-18273746D01*
X12522273Y-18273746D01*
X12503225Y-18264222D01*
X12493701Y-18245175D01*
X12493701Y-18168984D01*
X12503225Y-18149937D01*
X12522273Y-18140413D01*
X12560368Y-18140413D01*
X12579416Y-18149937D01*
X12588939Y-18168984D01*
X12588939Y-18188032D01*
X12493701Y-18207080D01*
X12665130Y-18264222D02*
X12684178Y-18273746D01*
X12722273Y-18273746D01*
X12741320Y-18264222D01*
X12750844Y-18245175D01*
X12750844Y-18235651D01*
X12741320Y-18216603D01*
X12722273Y-18207080D01*
X12693701Y-18207080D01*
X12674654Y-18197556D01*
X12665130Y-18178508D01*
X12665130Y-18168984D01*
X12674654Y-18149937D01*
X12693701Y-18140413D01*
X12722273Y-18140413D01*
X12741320Y-18149937D01*
X12817511Y-18349937D02*
X12827035Y-18340413D01*
X12846082Y-18311841D01*
X12855606Y-18292794D01*
X12865130Y-18264222D01*
X12874654Y-18216603D01*
X12874654Y-18178508D01*
X12865130Y-18130889D01*
X12855606Y-18102318D01*
X12846082Y-18083270D01*
X12827035Y-18054699D01*
X12817511Y-18045175D01*
X13179416Y-18349937D02*
X13169892Y-18340413D01*
X13150844Y-18311841D01*
X13141320Y-18292794D01*
X13131797Y-18264222D01*
X13122273Y-18216603D01*
X13122273Y-18178508D01*
X13131797Y-18130889D01*
X13141320Y-18102318D01*
X13150844Y-18083270D01*
X13169892Y-18054699D01*
X13179416Y-18045175D01*
X13255606Y-18140413D02*
X13255606Y-18273746D01*
X13255606Y-18159460D02*
X13265130Y-18149937D01*
X13284178Y-18140413D01*
X13312749Y-18140413D01*
X13331797Y-18149937D01*
X13341320Y-18168984D01*
X13341320Y-18273746D01*
X13465130Y-18273746D02*
X13446082Y-18264222D01*
X13436558Y-18254699D01*
X13427035Y-18235651D01*
X13427035Y-18178508D01*
X13436558Y-18159460D01*
X13446082Y-18149937D01*
X13465130Y-18140413D01*
X13493701Y-18140413D01*
X13512749Y-18149937D01*
X13522273Y-18159460D01*
X13531797Y-18178508D01*
X13531797Y-18235651D01*
X13522273Y-18254699D01*
X13512749Y-18264222D01*
X13493701Y-18273746D01*
X13465130Y-18273746D01*
X13588939Y-18140413D02*
X13665130Y-18140413D01*
X13617511Y-18073746D02*
X13617511Y-18245175D01*
X13627035Y-18264222D01*
X13646082Y-18273746D01*
X13665130Y-18273746D01*
X13884178Y-18140413D02*
X13884178Y-18340413D01*
X13884178Y-18149937D02*
X13903225Y-18140413D01*
X13941320Y-18140413D01*
X13960368Y-18149937D01*
X13969892Y-18159460D01*
X13979416Y-18178508D01*
X13979416Y-18235651D01*
X13969892Y-18254699D01*
X13960368Y-18264222D01*
X13941320Y-18273746D01*
X13903225Y-18273746D01*
X13884178Y-18264222D01*
X14093701Y-18273746D02*
X14074654Y-18264222D01*
X14065130Y-18245175D01*
X14065130Y-18073746D01*
X14255606Y-18273746D02*
X14255606Y-18168984D01*
X14246082Y-18149937D01*
X14227035Y-18140413D01*
X14188939Y-18140413D01*
X14169892Y-18149937D01*
X14255606Y-18264222D02*
X14236558Y-18273746D01*
X14188939Y-18273746D01*
X14169892Y-18264222D01*
X14160368Y-18245175D01*
X14160368Y-18226127D01*
X14169892Y-18207080D01*
X14188939Y-18197556D01*
X14236558Y-18197556D01*
X14255606Y-18188032D01*
X14322273Y-18140413D02*
X14398463Y-18140413D01*
X14350844Y-18073746D02*
X14350844Y-18245175D01*
X14360368Y-18264222D01*
X14379416Y-18273746D01*
X14398463Y-18273746D01*
X14541320Y-18264222D02*
X14522273Y-18273746D01*
X14484178Y-18273746D01*
X14465130Y-18264222D01*
X14455606Y-18245175D01*
X14455606Y-18168984D01*
X14465130Y-18149937D01*
X14484178Y-18140413D01*
X14522273Y-18140413D01*
X14541320Y-18149937D01*
X14550844Y-18168984D01*
X14550844Y-18188032D01*
X14455606Y-18207080D01*
X14722273Y-18273746D02*
X14722273Y-18073746D01*
X14722273Y-18264222D02*
X14703225Y-18273746D01*
X14665130Y-18273746D01*
X14646082Y-18264222D01*
X14636558Y-18254699D01*
X14627035Y-18235651D01*
X14627035Y-18178508D01*
X14636558Y-18159460D01*
X14646082Y-18149937D01*
X14665130Y-18140413D01*
X14703225Y-18140413D01*
X14722273Y-18149937D01*
X14798463Y-18349937D02*
X14807987Y-18340413D01*
X14827035Y-18311841D01*
X14836558Y-18292794D01*
X14846082Y-18264222D01*
X14855606Y-18216603D01*
X14855606Y-18178508D01*
X14846082Y-18130889D01*
X14836558Y-18102318D01*
X14827035Y-18083270D01*
X14807987Y-18054699D01*
X14798463Y-18045175D01*
X7855130Y-18478270D02*
G75*
G03*
X7855130Y-18478270I-100000J0D01*
G01*
X8093701Y-18368746D02*
X8217511Y-18368746D01*
X8150844Y-18444937D01*
X8179416Y-18444937D01*
X8198463Y-18454460D01*
X8207987Y-18463984D01*
X8217511Y-18483032D01*
X8217511Y-18530651D01*
X8207987Y-18549699D01*
X8198463Y-18559222D01*
X8179416Y-18568746D01*
X8122273Y-18568746D01*
X8103225Y-18559222D01*
X8093701Y-18549699D01*
X8303225Y-18549699D02*
X8312749Y-18559222D01*
X8303225Y-18568746D01*
X8293701Y-18559222D01*
X8303225Y-18549699D01*
X8303225Y-18568746D01*
X8436559Y-18368746D02*
X8455606Y-18368746D01*
X8474654Y-18378270D01*
X8484178Y-18387794D01*
X8493701Y-18406841D01*
X8503225Y-18444937D01*
X8503225Y-18492556D01*
X8493701Y-18530651D01*
X8484178Y-18549699D01*
X8474654Y-18559222D01*
X8455606Y-18568746D01*
X8436559Y-18568746D01*
X8417511Y-18559222D01*
X8407987Y-18549699D01*
X8398463Y-18530651D01*
X8388940Y-18492556D01*
X8388940Y-18444937D01*
X8398463Y-18406841D01*
X8407987Y-18387794D01*
X8417511Y-18378270D01*
X8436559Y-18368746D01*
X8627035Y-18368746D02*
X8646082Y-18368746D01*
X8665130Y-18378270D01*
X8674654Y-18387794D01*
X8684178Y-18406841D01*
X8693701Y-18444937D01*
X8693701Y-18492556D01*
X8684178Y-18530651D01*
X8674654Y-18549699D01*
X8665130Y-18559222D01*
X8646082Y-18568746D01*
X8627035Y-18568746D01*
X8607987Y-18559222D01*
X8598463Y-18549699D01*
X8588940Y-18530651D01*
X8579416Y-18492556D01*
X8579416Y-18444937D01*
X8588940Y-18406841D01*
X8598463Y-18387794D01*
X8607987Y-18378270D01*
X8627035Y-18368746D01*
X8817511Y-18368746D02*
X8836559Y-18368746D01*
X8855606Y-18378270D01*
X8865130Y-18387794D01*
X8874654Y-18406841D01*
X8884178Y-18444937D01*
X8884178Y-18492556D01*
X8874654Y-18530651D01*
X8865130Y-18549699D01*
X8855606Y-18559222D01*
X8836559Y-18568746D01*
X8817511Y-18568746D01*
X8798463Y-18559222D01*
X8788940Y-18549699D01*
X8779416Y-18530651D01*
X8769892Y-18492556D01*
X8769892Y-18444937D01*
X8779416Y-18406841D01*
X8788940Y-18387794D01*
X8798463Y-18378270D01*
X8817511Y-18368746D01*
X8969892Y-18568746D02*
X8969892Y-18435413D01*
X8969892Y-18454460D02*
X8979416Y-18444937D01*
X8998463Y-18435413D01*
X9027035Y-18435413D01*
X9046082Y-18444937D01*
X9055606Y-18463984D01*
X9055606Y-18568746D01*
X9055606Y-18463984D02*
X9065130Y-18444937D01*
X9084178Y-18435413D01*
X9112749Y-18435413D01*
X9131797Y-18444937D01*
X9141320Y-18463984D01*
X9141320Y-18568746D01*
X9236559Y-18568746D02*
X9236559Y-18435413D01*
X9236559Y-18454460D02*
X9246082Y-18444937D01*
X9265130Y-18435413D01*
X9293701Y-18435413D01*
X9312749Y-18444937D01*
X9322273Y-18463984D01*
X9322273Y-18568746D01*
X9322273Y-18463984D02*
X9331797Y-18444937D01*
X9350844Y-18435413D01*
X9379416Y-18435413D01*
X9398463Y-18444937D01*
X9407987Y-18463984D01*
X9407987Y-18568746D01*
X9798463Y-18359222D02*
X9627035Y-18616365D01*
X10055606Y-18368746D02*
X10074654Y-18368746D01*
X10093701Y-18378270D01*
X10103225Y-18387794D01*
X10112749Y-18406841D01*
X10122273Y-18444937D01*
X10122273Y-18492556D01*
X10112749Y-18530651D01*
X10103225Y-18549699D01*
X10093701Y-18559222D01*
X10074654Y-18568746D01*
X10055606Y-18568746D01*
X10036559Y-18559222D01*
X10027035Y-18549699D01*
X10017511Y-18530651D01*
X10007987Y-18492556D01*
X10007987Y-18444937D01*
X10017511Y-18406841D01*
X10027035Y-18387794D01*
X10036559Y-18378270D01*
X10055606Y-18368746D01*
X10207987Y-18549699D02*
X10217511Y-18559222D01*
X10207987Y-18568746D01*
X10198463Y-18559222D01*
X10207987Y-18549699D01*
X10207987Y-18568746D01*
X10407987Y-18568746D02*
X10293701Y-18568746D01*
X10350844Y-18568746D02*
X10350844Y-18368746D01*
X10331797Y-18397318D01*
X10312749Y-18416365D01*
X10293701Y-18425889D01*
X10598463Y-18568746D02*
X10484178Y-18568746D01*
X10541320Y-18568746D02*
X10541320Y-18368746D01*
X10522273Y-18397318D01*
X10503225Y-18416365D01*
X10484178Y-18425889D01*
X10712749Y-18454460D02*
X10693701Y-18444937D01*
X10684178Y-18435413D01*
X10674654Y-18416365D01*
X10674654Y-18406841D01*
X10684178Y-18387794D01*
X10693701Y-18378270D01*
X10712749Y-18368746D01*
X10750844Y-18368746D01*
X10769892Y-18378270D01*
X10779416Y-18387794D01*
X10788940Y-18406841D01*
X10788940Y-18416365D01*
X10779416Y-18435413D01*
X10769892Y-18444937D01*
X10750844Y-18454460D01*
X10712749Y-18454460D01*
X10693701Y-18463984D01*
X10684178Y-18473508D01*
X10674654Y-18492556D01*
X10674654Y-18530651D01*
X10684178Y-18549699D01*
X10693701Y-18559222D01*
X10712749Y-18568746D01*
X10750844Y-18568746D01*
X10769892Y-18559222D01*
X10779416Y-18549699D01*
X10788940Y-18530651D01*
X10788940Y-18492556D01*
X10779416Y-18473508D01*
X10769892Y-18463984D01*
X10750844Y-18454460D01*
X10979416Y-18568746D02*
X10865130Y-18568746D01*
X10922273Y-18568746D02*
X10922273Y-18368746D01*
X10903225Y-18397318D01*
X10884178Y-18416365D01*
X10865130Y-18425889D01*
X11055606Y-18368746D02*
X11055606Y-18406841D01*
X11131797Y-18368746D02*
X11131797Y-18406841D01*
X11427035Y-18644937D02*
X11417511Y-18635413D01*
X11398463Y-18606841D01*
X11388939Y-18587794D01*
X11379416Y-18559222D01*
X11369892Y-18511603D01*
X11369892Y-18473508D01*
X11379416Y-18425889D01*
X11388939Y-18397318D01*
X11398463Y-18378270D01*
X11417511Y-18349699D01*
X11427035Y-18340175D01*
X11484178Y-18368746D02*
X11607987Y-18368746D01*
X11541320Y-18444937D01*
X11569892Y-18444937D01*
X11588939Y-18454460D01*
X11598463Y-18463984D01*
X11607987Y-18483032D01*
X11607987Y-18530651D01*
X11598463Y-18549699D01*
X11588939Y-18559222D01*
X11569892Y-18568746D01*
X11512749Y-18568746D01*
X11493701Y-18559222D01*
X11484178Y-18549699D01*
X11779416Y-18368746D02*
X11741320Y-18368746D01*
X11722273Y-18378270D01*
X11712749Y-18387794D01*
X11693701Y-18416365D01*
X11684178Y-18454460D01*
X11684178Y-18530651D01*
X11693701Y-18549699D01*
X11703225Y-18559222D01*
X11722273Y-18568746D01*
X11760368Y-18568746D01*
X11779416Y-18559222D01*
X11788939Y-18549699D01*
X11798463Y-18530651D01*
X11798463Y-18483032D01*
X11788939Y-18463984D01*
X11779416Y-18454460D01*
X11760368Y-18444937D01*
X11722273Y-18444937D01*
X11703225Y-18454460D01*
X11693701Y-18463984D01*
X11684178Y-18483032D01*
X12036558Y-18568746D02*
X12036558Y-18368746D01*
X12122273Y-18568746D02*
X12122273Y-18463984D01*
X12112749Y-18444937D01*
X12093701Y-18435413D01*
X12065130Y-18435413D01*
X12046082Y-18444937D01*
X12036558Y-18454460D01*
X12246082Y-18568746D02*
X12227035Y-18559222D01*
X12217511Y-18549699D01*
X12207987Y-18530651D01*
X12207987Y-18473508D01*
X12217511Y-18454460D01*
X12227035Y-18444937D01*
X12246082Y-18435413D01*
X12274654Y-18435413D01*
X12293701Y-18444937D01*
X12303225Y-18454460D01*
X12312749Y-18473508D01*
X12312749Y-18530651D01*
X12303225Y-18549699D01*
X12293701Y-18559222D01*
X12274654Y-18568746D01*
X12246082Y-18568746D01*
X12427035Y-18568746D02*
X12407987Y-18559222D01*
X12398463Y-18540175D01*
X12398463Y-18368746D01*
X12579416Y-18559222D02*
X12560368Y-18568746D01*
X12522273Y-18568746D01*
X12503225Y-18559222D01*
X12493701Y-18540175D01*
X12493701Y-18463984D01*
X12503225Y-18444937D01*
X12522273Y-18435413D01*
X12560368Y-18435413D01*
X12579416Y-18444937D01*
X12588939Y-18463984D01*
X12588939Y-18483032D01*
X12493701Y-18502080D01*
X12665130Y-18559222D02*
X12684178Y-18568746D01*
X12722273Y-18568746D01*
X12741320Y-18559222D01*
X12750844Y-18540175D01*
X12750844Y-18530651D01*
X12741320Y-18511603D01*
X12722273Y-18502080D01*
X12693701Y-18502080D01*
X12674654Y-18492556D01*
X12665130Y-18473508D01*
X12665130Y-18463984D01*
X12674654Y-18444937D01*
X12693701Y-18435413D01*
X12722273Y-18435413D01*
X12741320Y-18444937D01*
X12817511Y-18644937D02*
X12827035Y-18635413D01*
X12846082Y-18606841D01*
X12855606Y-18587794D01*
X12865130Y-18559222D01*
X12874654Y-18511603D01*
X12874654Y-18473508D01*
X12865130Y-18425889D01*
X12855606Y-18397318D01*
X12846082Y-18378270D01*
X12827035Y-18349699D01*
X12817511Y-18340175D01*
X13179416Y-18644937D02*
X13169892Y-18635413D01*
X13150844Y-18606841D01*
X13141320Y-18587794D01*
X13131797Y-18559222D01*
X13122273Y-18511603D01*
X13122273Y-18473508D01*
X13131797Y-18425889D01*
X13141320Y-18397318D01*
X13150844Y-18378270D01*
X13169892Y-18349699D01*
X13179416Y-18340175D01*
X13255606Y-18435413D02*
X13255606Y-18568746D01*
X13255606Y-18454460D02*
X13265130Y-18444937D01*
X13284178Y-18435413D01*
X13312749Y-18435413D01*
X13331797Y-18444937D01*
X13341320Y-18463984D01*
X13341320Y-18568746D01*
X13465130Y-18568746D02*
X13446082Y-18559222D01*
X13436558Y-18549699D01*
X13427035Y-18530651D01*
X13427035Y-18473508D01*
X13436558Y-18454460D01*
X13446082Y-18444937D01*
X13465130Y-18435413D01*
X13493701Y-18435413D01*
X13512749Y-18444937D01*
X13522273Y-18454460D01*
X13531797Y-18473508D01*
X13531797Y-18530651D01*
X13522273Y-18549699D01*
X13512749Y-18559222D01*
X13493701Y-18568746D01*
X13465130Y-18568746D01*
X13588939Y-18435413D02*
X13665130Y-18435413D01*
X13617511Y-18368746D02*
X13617511Y-18540175D01*
X13627035Y-18559222D01*
X13646082Y-18568746D01*
X13665130Y-18568746D01*
X13884178Y-18435413D02*
X13884178Y-18635413D01*
X13884178Y-18444937D02*
X13903225Y-18435413D01*
X13941320Y-18435413D01*
X13960368Y-18444937D01*
X13969892Y-18454460D01*
X13979416Y-18473508D01*
X13979416Y-18530651D01*
X13969892Y-18549699D01*
X13960368Y-18559222D01*
X13941320Y-18568746D01*
X13903225Y-18568746D01*
X13884178Y-18559222D01*
X14093701Y-18568746D02*
X14074654Y-18559222D01*
X14065130Y-18540175D01*
X14065130Y-18368746D01*
X14255606Y-18568746D02*
X14255606Y-18463984D01*
X14246082Y-18444937D01*
X14227035Y-18435413D01*
X14188939Y-18435413D01*
X14169892Y-18444937D01*
X14255606Y-18559222D02*
X14236558Y-18568746D01*
X14188939Y-18568746D01*
X14169892Y-18559222D01*
X14160368Y-18540175D01*
X14160368Y-18521127D01*
X14169892Y-18502080D01*
X14188939Y-18492556D01*
X14236558Y-18492556D01*
X14255606Y-18483032D01*
X14322273Y-18435413D02*
X14398463Y-18435413D01*
X14350844Y-18368746D02*
X14350844Y-18540175D01*
X14360368Y-18559222D01*
X14379416Y-18568746D01*
X14398463Y-18568746D01*
X14541320Y-18559222D02*
X14522273Y-18568746D01*
X14484178Y-18568746D01*
X14465130Y-18559222D01*
X14455606Y-18540175D01*
X14455606Y-18463984D01*
X14465130Y-18444937D01*
X14484178Y-18435413D01*
X14522273Y-18435413D01*
X14541320Y-18444937D01*
X14550844Y-18463984D01*
X14550844Y-18483032D01*
X14455606Y-18502080D01*
X14722273Y-18568746D02*
X14722273Y-18368746D01*
X14722273Y-18559222D02*
X14703225Y-18568746D01*
X14665130Y-18568746D01*
X14646082Y-18559222D01*
X14636558Y-18549699D01*
X14627035Y-18530651D01*
X14627035Y-18473508D01*
X14636558Y-18454460D01*
X14646082Y-18444937D01*
X14665130Y-18435413D01*
X14703225Y-18435413D01*
X14722273Y-18444937D01*
X14798463Y-18644937D02*
X14807987Y-18635413D01*
X14827035Y-18606841D01*
X14836558Y-18587794D01*
X14846082Y-18559222D01*
X14855606Y-18511603D01*
X14855606Y-18473508D01*
X14846082Y-18425889D01*
X14836558Y-18397318D01*
X14827035Y-18378270D01*
X14807987Y-18349699D01*
X14798463Y-18340175D01*
X7755130Y-18698270D02*
X7755130Y-18898270D01*
X7655130Y-18798270D02*
X7855130Y-18798270D01*
X8093701Y-18688746D02*
X8217511Y-18688746D01*
X8150844Y-18764937D01*
X8179416Y-18764937D01*
X8198463Y-18774460D01*
X8207987Y-18783984D01*
X8217511Y-18803032D01*
X8217511Y-18850651D01*
X8207987Y-18869699D01*
X8198463Y-18879222D01*
X8179416Y-18888746D01*
X8122273Y-18888746D01*
X8103225Y-18879222D01*
X8093701Y-18869699D01*
X8303225Y-18869699D02*
X8312749Y-18879222D01*
X8303225Y-18888746D01*
X8293701Y-18879222D01*
X8303225Y-18869699D01*
X8303225Y-18888746D01*
X8436559Y-18688746D02*
X8455606Y-18688746D01*
X8474654Y-18698270D01*
X8484178Y-18707794D01*
X8493701Y-18726841D01*
X8503225Y-18764937D01*
X8503225Y-18812556D01*
X8493701Y-18850651D01*
X8484178Y-18869699D01*
X8474654Y-18879222D01*
X8455606Y-18888746D01*
X8436559Y-18888746D01*
X8417511Y-18879222D01*
X8407987Y-18869699D01*
X8398463Y-18850651D01*
X8388940Y-18812556D01*
X8388940Y-18764937D01*
X8398463Y-18726841D01*
X8407987Y-18707794D01*
X8417511Y-18698270D01*
X8436559Y-18688746D01*
X8684178Y-18688746D02*
X8588940Y-18688746D01*
X8579416Y-18783984D01*
X8588940Y-18774460D01*
X8607987Y-18764937D01*
X8655606Y-18764937D01*
X8674654Y-18774460D01*
X8684178Y-18783984D01*
X8693701Y-18803032D01*
X8693701Y-18850651D01*
X8684178Y-18869699D01*
X8674654Y-18879222D01*
X8655606Y-18888746D01*
X8607987Y-18888746D01*
X8588940Y-18879222D01*
X8579416Y-18869699D01*
X8817511Y-18688746D02*
X8836559Y-18688746D01*
X8855606Y-18698270D01*
X8865130Y-18707794D01*
X8874654Y-18726841D01*
X8884178Y-18764937D01*
X8884178Y-18812556D01*
X8874654Y-18850651D01*
X8865130Y-18869699D01*
X8855606Y-18879222D01*
X8836559Y-18888746D01*
X8817511Y-18888746D01*
X8798463Y-18879222D01*
X8788940Y-18869699D01*
X8779416Y-18850651D01*
X8769892Y-18812556D01*
X8769892Y-18764937D01*
X8779416Y-18726841D01*
X8788940Y-18707794D01*
X8798463Y-18698270D01*
X8817511Y-18688746D01*
X8969892Y-18888746D02*
X8969892Y-18755413D01*
X8969892Y-18774460D02*
X8979416Y-18764937D01*
X8998463Y-18755413D01*
X9027035Y-18755413D01*
X9046082Y-18764937D01*
X9055606Y-18783984D01*
X9055606Y-18888746D01*
X9055606Y-18783984D02*
X9065130Y-18764937D01*
X9084178Y-18755413D01*
X9112749Y-18755413D01*
X9131797Y-18764937D01*
X9141320Y-18783984D01*
X9141320Y-18888746D01*
X9236559Y-18888746D02*
X9236559Y-18755413D01*
X9236559Y-18774460D02*
X9246082Y-18764937D01*
X9265130Y-18755413D01*
X9293701Y-18755413D01*
X9312749Y-18764937D01*
X9322273Y-18783984D01*
X9322273Y-18888746D01*
X9322273Y-18783984D02*
X9331797Y-18764937D01*
X9350844Y-18755413D01*
X9379416Y-18755413D01*
X9398463Y-18764937D01*
X9407987Y-18783984D01*
X9407987Y-18888746D01*
X9798463Y-18679222D02*
X9627035Y-18936365D01*
X10055606Y-18688746D02*
X10074654Y-18688746D01*
X10093701Y-18698270D01*
X10103225Y-18707794D01*
X10112749Y-18726841D01*
X10122273Y-18764937D01*
X10122273Y-18812556D01*
X10112749Y-18850651D01*
X10103225Y-18869699D01*
X10093701Y-18879222D01*
X10074654Y-18888746D01*
X10055606Y-18888746D01*
X10036559Y-18879222D01*
X10027035Y-18869699D01*
X10017511Y-18850651D01*
X10007987Y-18812556D01*
X10007987Y-18764937D01*
X10017511Y-18726841D01*
X10027035Y-18707794D01*
X10036559Y-18698270D01*
X10055606Y-18688746D01*
X10207987Y-18869699D02*
X10217511Y-18879222D01*
X10207987Y-18888746D01*
X10198463Y-18879222D01*
X10207987Y-18869699D01*
X10207987Y-18888746D01*
X10407987Y-18888746D02*
X10293701Y-18888746D01*
X10350844Y-18888746D02*
X10350844Y-18688746D01*
X10331797Y-18717318D01*
X10312749Y-18736365D01*
X10293701Y-18745889D01*
X10484178Y-18707794D02*
X10493701Y-18698270D01*
X10512749Y-18688746D01*
X10560368Y-18688746D01*
X10579416Y-18698270D01*
X10588940Y-18707794D01*
X10598463Y-18726841D01*
X10598463Y-18745889D01*
X10588940Y-18774460D01*
X10474654Y-18888746D01*
X10598463Y-18888746D01*
X10722273Y-18688746D02*
X10741320Y-18688746D01*
X10760368Y-18698270D01*
X10769892Y-18707794D01*
X10779416Y-18726841D01*
X10788940Y-18764937D01*
X10788940Y-18812556D01*
X10779416Y-18850651D01*
X10769892Y-18869699D01*
X10760368Y-18879222D01*
X10741320Y-18888746D01*
X10722273Y-18888746D01*
X10703225Y-18879222D01*
X10693701Y-18869699D01*
X10684178Y-18850651D01*
X10674654Y-18812556D01*
X10674654Y-18764937D01*
X10684178Y-18726841D01*
X10693701Y-18707794D01*
X10703225Y-18698270D01*
X10722273Y-18688746D01*
X10979416Y-18888746D02*
X10865130Y-18888746D01*
X10922273Y-18888746D02*
X10922273Y-18688746D01*
X10903225Y-18717318D01*
X10884178Y-18736365D01*
X10865130Y-18745889D01*
X11055606Y-18688746D02*
X11055606Y-18726841D01*
X11131797Y-18688746D02*
X11131797Y-18726841D01*
X11427035Y-18964937D02*
X11417511Y-18955413D01*
X11398463Y-18926841D01*
X11388939Y-18907794D01*
X11379416Y-18879222D01*
X11369892Y-18831603D01*
X11369892Y-18793508D01*
X11379416Y-18745889D01*
X11388939Y-18717318D01*
X11398463Y-18698270D01*
X11417511Y-18669699D01*
X11427035Y-18660175D01*
X11588939Y-18688746D02*
X11550844Y-18688746D01*
X11531797Y-18698270D01*
X11522273Y-18707794D01*
X11503225Y-18736365D01*
X11493701Y-18774460D01*
X11493701Y-18850651D01*
X11503225Y-18869699D01*
X11512749Y-18879222D01*
X11531797Y-18888746D01*
X11569892Y-18888746D01*
X11588939Y-18879222D01*
X11598463Y-18869699D01*
X11607987Y-18850651D01*
X11607987Y-18803032D01*
X11598463Y-18783984D01*
X11588939Y-18774460D01*
X11569892Y-18764937D01*
X11531797Y-18764937D01*
X11512749Y-18774460D01*
X11503225Y-18783984D01*
X11493701Y-18803032D01*
X11846082Y-18888746D02*
X11846082Y-18688746D01*
X11931797Y-18888746D02*
X11931797Y-18783984D01*
X11922273Y-18764937D01*
X11903225Y-18755413D01*
X11874654Y-18755413D01*
X11855606Y-18764937D01*
X11846082Y-18774460D01*
X12055606Y-18888746D02*
X12036558Y-18879222D01*
X12027035Y-18869699D01*
X12017511Y-18850651D01*
X12017511Y-18793508D01*
X12027035Y-18774460D01*
X12036558Y-18764937D01*
X12055606Y-18755413D01*
X12084178Y-18755413D01*
X12103225Y-18764937D01*
X12112749Y-18774460D01*
X12122273Y-18793508D01*
X12122273Y-18850651D01*
X12112749Y-18869699D01*
X12103225Y-18879222D01*
X12084178Y-18888746D01*
X12055606Y-18888746D01*
X12236558Y-18888746D02*
X12217511Y-18879222D01*
X12207987Y-18860175D01*
X12207987Y-18688746D01*
X12388939Y-18879222D02*
X12369892Y-18888746D01*
X12331797Y-18888746D01*
X12312749Y-18879222D01*
X12303225Y-18860175D01*
X12303225Y-18783984D01*
X12312749Y-18764937D01*
X12331797Y-18755413D01*
X12369892Y-18755413D01*
X12388939Y-18764937D01*
X12398463Y-18783984D01*
X12398463Y-18803032D01*
X12303225Y-18822080D01*
X12474654Y-18879222D02*
X12493701Y-18888746D01*
X12531797Y-18888746D01*
X12550844Y-18879222D01*
X12560368Y-18860175D01*
X12560368Y-18850651D01*
X12550844Y-18831603D01*
X12531797Y-18822080D01*
X12503225Y-18822080D01*
X12484178Y-18812556D01*
X12474654Y-18793508D01*
X12474654Y-18783984D01*
X12484178Y-18764937D01*
X12503225Y-18755413D01*
X12531797Y-18755413D01*
X12550844Y-18764937D01*
X12627035Y-18964937D02*
X12636558Y-18955413D01*
X12655606Y-18926841D01*
X12665130Y-18907794D01*
X12674654Y-18879222D01*
X12684178Y-18831603D01*
X12684178Y-18793508D01*
X12674654Y-18745889D01*
X12665130Y-18717318D01*
X12655606Y-18698270D01*
X12636558Y-18669699D01*
X12627035Y-18660175D01*
X12988939Y-18964937D02*
X12979416Y-18955413D01*
X12960368Y-18926841D01*
X12950844Y-18907794D01*
X12941320Y-18879222D01*
X12931797Y-18831603D01*
X12931797Y-18793508D01*
X12941320Y-18745889D01*
X12950844Y-18717318D01*
X12960368Y-18698270D01*
X12979416Y-18669699D01*
X12988939Y-18660175D01*
X13065130Y-18755413D02*
X13065130Y-18888746D01*
X13065130Y-18774460D02*
X13074654Y-18764937D01*
X13093701Y-18755413D01*
X13122273Y-18755413D01*
X13141320Y-18764937D01*
X13150844Y-18783984D01*
X13150844Y-18888746D01*
X13274654Y-18888746D02*
X13255606Y-18879222D01*
X13246082Y-18869699D01*
X13236558Y-18850651D01*
X13236558Y-18793508D01*
X13246082Y-18774460D01*
X13255606Y-18764937D01*
X13274654Y-18755413D01*
X13303225Y-18755413D01*
X13322273Y-18764937D01*
X13331797Y-18774460D01*
X13341320Y-18793508D01*
X13341320Y-18850651D01*
X13331797Y-18869699D01*
X13322273Y-18879222D01*
X13303225Y-18888746D01*
X13274654Y-18888746D01*
X13398463Y-18755413D02*
X13474654Y-18755413D01*
X13427035Y-18688746D02*
X13427035Y-18860175D01*
X13436558Y-18879222D01*
X13455606Y-18888746D01*
X13474654Y-18888746D01*
X13693701Y-18755413D02*
X13693701Y-18955413D01*
X13693701Y-18764937D02*
X13712749Y-18755413D01*
X13750844Y-18755413D01*
X13769892Y-18764937D01*
X13779416Y-18774460D01*
X13788939Y-18793508D01*
X13788939Y-18850651D01*
X13779416Y-18869699D01*
X13769892Y-18879222D01*
X13750844Y-18888746D01*
X13712749Y-18888746D01*
X13693701Y-18879222D01*
X13903225Y-18888746D02*
X13884178Y-18879222D01*
X13874654Y-18860175D01*
X13874654Y-18688746D01*
X14065130Y-18888746D02*
X14065130Y-18783984D01*
X14055606Y-18764937D01*
X14036558Y-18755413D01*
X13998463Y-18755413D01*
X13979416Y-18764937D01*
X14065130Y-18879222D02*
X14046082Y-18888746D01*
X13998463Y-18888746D01*
X13979416Y-18879222D01*
X13969892Y-18860175D01*
X13969892Y-18841127D01*
X13979416Y-18822080D01*
X13998463Y-18812556D01*
X14046082Y-18812556D01*
X14065130Y-18803032D01*
X14131797Y-18755413D02*
X14207987Y-18755413D01*
X14160368Y-18688746D02*
X14160368Y-18860175D01*
X14169892Y-18879222D01*
X14188939Y-18888746D01*
X14207987Y-18888746D01*
X14350844Y-18879222D02*
X14331797Y-18888746D01*
X14293701Y-18888746D01*
X14274654Y-18879222D01*
X14265130Y-18860175D01*
X14265130Y-18783984D01*
X14274654Y-18764937D01*
X14293701Y-18755413D01*
X14331797Y-18755413D01*
X14350844Y-18764937D01*
X14360368Y-18783984D01*
X14360368Y-18803032D01*
X14265130Y-18822080D01*
X14531797Y-18888746D02*
X14531797Y-18688746D01*
X14531797Y-18879222D02*
X14512749Y-18888746D01*
X14474654Y-18888746D01*
X14455606Y-18879222D01*
X14446082Y-18869699D01*
X14436558Y-18850651D01*
X14436558Y-18793508D01*
X14446082Y-18774460D01*
X14455606Y-18764937D01*
X14474654Y-18755413D01*
X14512749Y-18755413D01*
X14531797Y-18764937D01*
X14607987Y-18964937D02*
X14617511Y-18955413D01*
X14636558Y-18926841D01*
X14646082Y-18907794D01*
X14655606Y-18879222D01*
X14665130Y-18831603D01*
X14665130Y-18793508D01*
X14655606Y-18745889D01*
X14646082Y-18717318D01*
X14636558Y-18698270D01*
X14617511Y-18669699D01*
X14607987Y-18660175D01*
X7825841Y-19188981D02*
X7825841Y-19047559D01*
X7684419Y-19047559D01*
X7684419Y-19188981D01*
X7825841Y-19188981D01*
X8198463Y-19075413D02*
X8198463Y-19208746D01*
X8150844Y-18999222D02*
X8103225Y-19142080D01*
X8227035Y-19142080D01*
X8303225Y-19189699D02*
X8312749Y-19199222D01*
X8303225Y-19208746D01*
X8293701Y-19199222D01*
X8303225Y-19189699D01*
X8303225Y-19208746D01*
X8436559Y-19008746D02*
X8455606Y-19008746D01*
X8474654Y-19018270D01*
X8484178Y-19027794D01*
X8493701Y-19046841D01*
X8503225Y-19084937D01*
X8503225Y-19132556D01*
X8493701Y-19170651D01*
X8484178Y-19189699D01*
X8474654Y-19199222D01*
X8455606Y-19208746D01*
X8436559Y-19208746D01*
X8417511Y-19199222D01*
X8407987Y-19189699D01*
X8398463Y-19170651D01*
X8388940Y-19132556D01*
X8388940Y-19084937D01*
X8398463Y-19046841D01*
X8407987Y-19027794D01*
X8417511Y-19018270D01*
X8436559Y-19008746D01*
X8627035Y-19008746D02*
X8646082Y-19008746D01*
X8665130Y-19018270D01*
X8674654Y-19027794D01*
X8684178Y-19046841D01*
X8693701Y-19084937D01*
X8693701Y-19132556D01*
X8684178Y-19170651D01*
X8674654Y-19189699D01*
X8665130Y-19199222D01*
X8646082Y-19208746D01*
X8627035Y-19208746D01*
X8607987Y-19199222D01*
X8598463Y-19189699D01*
X8588940Y-19170651D01*
X8579416Y-19132556D01*
X8579416Y-19084937D01*
X8588940Y-19046841D01*
X8598463Y-19027794D01*
X8607987Y-19018270D01*
X8627035Y-19008746D01*
X8817511Y-19008746D02*
X8836559Y-19008746D01*
X8855606Y-19018270D01*
X8865130Y-19027794D01*
X8874654Y-19046841D01*
X8884178Y-19084937D01*
X8884178Y-19132556D01*
X8874654Y-19170651D01*
X8865130Y-19189699D01*
X8855606Y-19199222D01*
X8836559Y-19208746D01*
X8817511Y-19208746D01*
X8798463Y-19199222D01*
X8788940Y-19189699D01*
X8779416Y-19170651D01*
X8769892Y-19132556D01*
X8769892Y-19084937D01*
X8779416Y-19046841D01*
X8788940Y-19027794D01*
X8798463Y-19018270D01*
X8817511Y-19008746D01*
X8969892Y-19208746D02*
X8969892Y-19075413D01*
X8969892Y-19094460D02*
X8979416Y-19084937D01*
X8998463Y-19075413D01*
X9027035Y-19075413D01*
X9046082Y-19084937D01*
X9055606Y-19103984D01*
X9055606Y-19208746D01*
X9055606Y-19103984D02*
X9065130Y-19084937D01*
X9084178Y-19075413D01*
X9112749Y-19075413D01*
X9131797Y-19084937D01*
X9141320Y-19103984D01*
X9141320Y-19208746D01*
X9236559Y-19208746D02*
X9236559Y-19075413D01*
X9236559Y-19094460D02*
X9246082Y-19084937D01*
X9265130Y-19075413D01*
X9293701Y-19075413D01*
X9312749Y-19084937D01*
X9322273Y-19103984D01*
X9322273Y-19208746D01*
X9322273Y-19103984D02*
X9331797Y-19084937D01*
X9350844Y-19075413D01*
X9379416Y-19075413D01*
X9398463Y-19084937D01*
X9407987Y-19103984D01*
X9407987Y-19208746D01*
X9798463Y-18999222D02*
X9627035Y-19256365D01*
X10055606Y-19008746D02*
X10074654Y-19008746D01*
X10093701Y-19018270D01*
X10103225Y-19027794D01*
X10112749Y-19046841D01*
X10122273Y-19084937D01*
X10122273Y-19132556D01*
X10112749Y-19170651D01*
X10103225Y-19189699D01*
X10093701Y-19199222D01*
X10074654Y-19208746D01*
X10055606Y-19208746D01*
X10036559Y-19199222D01*
X10027035Y-19189699D01*
X10017511Y-19170651D01*
X10007987Y-19132556D01*
X10007987Y-19084937D01*
X10017511Y-19046841D01*
X10027035Y-19027794D01*
X10036559Y-19018270D01*
X10055606Y-19008746D01*
X10207987Y-19189699D02*
X10217511Y-19199222D01*
X10207987Y-19208746D01*
X10198463Y-19199222D01*
X10207987Y-19189699D01*
X10207987Y-19208746D01*
X10407987Y-19208746D02*
X10293701Y-19208746D01*
X10350844Y-19208746D02*
X10350844Y-19008746D01*
X10331797Y-19037318D01*
X10312749Y-19056365D01*
X10293701Y-19065889D01*
X10588940Y-19008746D02*
X10493701Y-19008746D01*
X10484178Y-19103984D01*
X10493701Y-19094460D01*
X10512749Y-19084937D01*
X10560368Y-19084937D01*
X10579416Y-19094460D01*
X10588940Y-19103984D01*
X10598463Y-19123032D01*
X10598463Y-19170651D01*
X10588940Y-19189699D01*
X10579416Y-19199222D01*
X10560368Y-19208746D01*
X10512749Y-19208746D01*
X10493701Y-19199222D01*
X10484178Y-19189699D01*
X10665130Y-19008746D02*
X10798463Y-19008746D01*
X10712749Y-19208746D01*
X10969892Y-19008746D02*
X10874654Y-19008746D01*
X10865130Y-19103984D01*
X10874654Y-19094460D01*
X10893701Y-19084937D01*
X10941320Y-19084937D01*
X10960368Y-19094460D01*
X10969892Y-19103984D01*
X10979416Y-19123032D01*
X10979416Y-19170651D01*
X10969892Y-19189699D01*
X10960368Y-19199222D01*
X10941320Y-19208746D01*
X10893701Y-19208746D01*
X10874654Y-19199222D01*
X10865130Y-19189699D01*
X11055606Y-19008746D02*
X11055606Y-19046841D01*
X11131797Y-19008746D02*
X11131797Y-19046841D01*
X11427035Y-19284937D02*
X11417511Y-19275413D01*
X11398463Y-19246841D01*
X11388939Y-19227794D01*
X11379416Y-19199222D01*
X11369892Y-19151603D01*
X11369892Y-19113508D01*
X11379416Y-19065889D01*
X11388939Y-19037318D01*
X11398463Y-19018270D01*
X11417511Y-18989699D01*
X11427035Y-18980175D01*
X11493701Y-19027794D02*
X11503225Y-19018270D01*
X11522273Y-19008746D01*
X11569892Y-19008746D01*
X11588939Y-19018270D01*
X11598463Y-19027794D01*
X11607987Y-19046841D01*
X11607987Y-19065889D01*
X11598463Y-19094460D01*
X11484178Y-19208746D01*
X11607987Y-19208746D01*
X11779416Y-19075413D02*
X11779416Y-19208746D01*
X11731797Y-18999222D02*
X11684178Y-19142080D01*
X11807987Y-19142080D01*
X12036558Y-19208746D02*
X12036558Y-19008746D01*
X12122273Y-19208746D02*
X12122273Y-19103984D01*
X12112749Y-19084937D01*
X12093701Y-19075413D01*
X12065130Y-19075413D01*
X12046082Y-19084937D01*
X12036558Y-19094460D01*
X12246082Y-19208746D02*
X12227035Y-19199222D01*
X12217511Y-19189699D01*
X12207987Y-19170651D01*
X12207987Y-19113508D01*
X12217511Y-19094460D01*
X12227035Y-19084937D01*
X12246082Y-19075413D01*
X12274654Y-19075413D01*
X12293701Y-19084937D01*
X12303225Y-19094460D01*
X12312749Y-19113508D01*
X12312749Y-19170651D01*
X12303225Y-19189699D01*
X12293701Y-19199222D01*
X12274654Y-19208746D01*
X12246082Y-19208746D01*
X12427035Y-19208746D02*
X12407987Y-19199222D01*
X12398463Y-19180175D01*
X12398463Y-19008746D01*
X12579416Y-19199222D02*
X12560368Y-19208746D01*
X12522273Y-19208746D01*
X12503225Y-19199222D01*
X12493701Y-19180175D01*
X12493701Y-19103984D01*
X12503225Y-19084937D01*
X12522273Y-19075413D01*
X12560368Y-19075413D01*
X12579416Y-19084937D01*
X12588939Y-19103984D01*
X12588939Y-19123032D01*
X12493701Y-19142080D01*
X12665130Y-19199222D02*
X12684178Y-19208746D01*
X12722273Y-19208746D01*
X12741320Y-19199222D01*
X12750844Y-19180175D01*
X12750844Y-19170651D01*
X12741320Y-19151603D01*
X12722273Y-19142080D01*
X12693701Y-19142080D01*
X12674654Y-19132556D01*
X12665130Y-19113508D01*
X12665130Y-19103984D01*
X12674654Y-19084937D01*
X12693701Y-19075413D01*
X12722273Y-19075413D01*
X12741320Y-19084937D01*
X12817511Y-19284937D02*
X12827035Y-19275413D01*
X12846082Y-19246841D01*
X12855606Y-19227794D01*
X12865130Y-19199222D01*
X12874654Y-19151603D01*
X12874654Y-19113508D01*
X12865130Y-19065889D01*
X12855606Y-19037318D01*
X12846082Y-19018270D01*
X12827035Y-18989699D01*
X12817511Y-18980175D01*
X13179416Y-19284937D02*
X13169892Y-19275413D01*
X13150844Y-19246841D01*
X13141320Y-19227794D01*
X13131797Y-19199222D01*
X13122273Y-19151603D01*
X13122273Y-19113508D01*
X13131797Y-19065889D01*
X13141320Y-19037318D01*
X13150844Y-19018270D01*
X13169892Y-18989699D01*
X13179416Y-18980175D01*
X13255606Y-19075413D02*
X13255606Y-19208746D01*
X13255606Y-19094460D02*
X13265130Y-19084937D01*
X13284178Y-19075413D01*
X13312749Y-19075413D01*
X13331797Y-19084937D01*
X13341320Y-19103984D01*
X13341320Y-19208746D01*
X13465130Y-19208746D02*
X13446082Y-19199222D01*
X13436558Y-19189699D01*
X13427035Y-19170651D01*
X13427035Y-19113508D01*
X13436558Y-19094460D01*
X13446082Y-19084937D01*
X13465130Y-19075413D01*
X13493701Y-19075413D01*
X13512749Y-19084937D01*
X13522273Y-19094460D01*
X13531797Y-19113508D01*
X13531797Y-19170651D01*
X13522273Y-19189699D01*
X13512749Y-19199222D01*
X13493701Y-19208746D01*
X13465130Y-19208746D01*
X13588939Y-19075413D02*
X13665130Y-19075413D01*
X13617511Y-19008746D02*
X13617511Y-19180175D01*
X13627035Y-19199222D01*
X13646082Y-19208746D01*
X13665130Y-19208746D01*
X13884178Y-19075413D02*
X13884178Y-19275413D01*
X13884178Y-19084937D02*
X13903225Y-19075413D01*
X13941320Y-19075413D01*
X13960368Y-19084937D01*
X13969892Y-19094460D01*
X13979416Y-19113508D01*
X13979416Y-19170651D01*
X13969892Y-19189699D01*
X13960368Y-19199222D01*
X13941320Y-19208746D01*
X13903225Y-19208746D01*
X13884178Y-19199222D01*
X14093701Y-19208746D02*
X14074654Y-19199222D01*
X14065130Y-19180175D01*
X14065130Y-19008746D01*
X14255606Y-19208746D02*
X14255606Y-19103984D01*
X14246082Y-19084937D01*
X14227035Y-19075413D01*
X14188939Y-19075413D01*
X14169892Y-19084937D01*
X14255606Y-19199222D02*
X14236558Y-19208746D01*
X14188939Y-19208746D01*
X14169892Y-19199222D01*
X14160368Y-19180175D01*
X14160368Y-19161127D01*
X14169892Y-19142080D01*
X14188939Y-19132556D01*
X14236558Y-19132556D01*
X14255606Y-19123032D01*
X14322273Y-19075413D02*
X14398463Y-19075413D01*
X14350844Y-19008746D02*
X14350844Y-19180175D01*
X14360368Y-19199222D01*
X14379416Y-19208746D01*
X14398463Y-19208746D01*
X14541320Y-19199222D02*
X14522273Y-19208746D01*
X14484178Y-19208746D01*
X14465130Y-19199222D01*
X14455606Y-19180175D01*
X14455606Y-19103984D01*
X14465130Y-19084937D01*
X14484178Y-19075413D01*
X14522273Y-19075413D01*
X14541320Y-19084937D01*
X14550844Y-19103984D01*
X14550844Y-19123032D01*
X14455606Y-19142080D01*
X14722273Y-19208746D02*
X14722273Y-19008746D01*
X14722273Y-19199222D02*
X14703225Y-19208746D01*
X14665130Y-19208746D01*
X14646082Y-19199222D01*
X14636558Y-19189699D01*
X14627035Y-19170651D01*
X14627035Y-19113508D01*
X14636558Y-19094460D01*
X14646082Y-19084937D01*
X14665130Y-19075413D01*
X14703225Y-19075413D01*
X14722273Y-19084937D01*
X14798463Y-19284937D02*
X14807987Y-19275413D01*
X14827035Y-19246841D01*
X14836558Y-19227794D01*
X14846082Y-19199222D01*
X14855606Y-19151603D01*
X14855606Y-19113508D01*
X14846082Y-19065889D01*
X14836558Y-19037318D01*
X14827035Y-19018270D01*
X14807987Y-18989699D01*
X14798463Y-18980175D01*
M02*
