%TF.GenerationSoftware,KiCad,Pcbnew,(6.0.0)*%
%TF.CreationDate,2022-02-03T18:25:37-05:00*%
%TF.ProjectId,numpad,6e756d70-6164-42e6-9b69-6361645f7063,rev?*%
%TF.SameCoordinates,Original*%
%TF.FileFunction,Paste,Bot*%
%TF.FilePolarity,Positive*%
%FSLAX46Y46*%
G04 Gerber Fmt 4.6, Leading zero omitted, Abs format (unit mm)*
G04 Created by KiCad (PCBNEW (6.0.0)) date 2022-02-03 18:25:37*
%MOMM*%
%LPD*%
G01*
G04 APERTURE LIST*
G04 Aperture macros list*
%AMRoundRect*
0 Rectangle with rounded corners*
0 $1 Rounding radius*
0 $2 $3 $4 $5 $6 $7 $8 $9 X,Y pos of 4 corners*
0 Add a 4 corners polygon primitive as box body*
4,1,4,$2,$3,$4,$5,$6,$7,$8,$9,$2,$3,0*
0 Add four circle primitives for the rounded corners*
1,1,$1+$1,$2,$3*
1,1,$1+$1,$4,$5*
1,1,$1+$1,$6,$7*
1,1,$1+$1,$8,$9*
0 Add four rect primitives between the rounded corners*
20,1,$1+$1,$2,$3,$4,$5,0*
20,1,$1+$1,$4,$5,$6,$7,0*
20,1,$1+$1,$6,$7,$8,$9,0*
20,1,$1+$1,$8,$9,$2,$3,0*%
G04 Aperture macros list end*
%ADD10R,2.550000X2.500000*%
%ADD11R,2.500000X2.550000*%
%ADD12RoundRect,0.200000X0.200000X0.275000X-0.200000X0.275000X-0.200000X-0.275000X0.200000X-0.275000X0*%
%ADD13R,1.800000X1.100000*%
%ADD14R,1.200000X0.900000*%
%ADD15R,1.000000X1.700000*%
%ADD16R,1.700000X1.000000*%
%ADD17RoundRect,0.225000X-0.225000X-0.250000X0.225000X-0.250000X0.225000X0.250000X-0.225000X0.250000X0*%
%ADD18RoundRect,0.200000X-0.200000X-0.275000X0.200000X-0.275000X0.200000X0.275000X-0.200000X0.275000X0*%
%ADD19RoundRect,0.225000X-0.250000X0.225000X-0.250000X-0.225000X0.250000X-0.225000X0.250000X0.225000X0*%
%ADD20RoundRect,0.225000X0.225000X0.250000X-0.225000X0.250000X-0.225000X-0.250000X0.225000X-0.250000X0*%
G04 APERTURE END LIST*
D10*
%TO.C,MX1*%
X81485050Y-86355050D03*
X94910050Y-83815050D03*
%TD*%
%TO.C,MX12*%
X81485050Y-143505050D03*
X94910050Y-140965050D03*
%TD*%
%TO.C,MX16*%
X119585050Y-162555050D03*
X133010050Y-160015050D03*
%TD*%
%TO.C,MX7*%
X138635050Y-86355050D03*
X152060050Y-83815050D03*
%TD*%
%TO.C,MX2*%
X100535050Y-86355050D03*
X113960050Y-83815050D03*
%TD*%
%TO.C,MX18*%
X162447550Y-162555050D03*
X175872550Y-160015050D03*
%TD*%
%TO.C,MX15*%
X91010050Y-162555050D03*
X104435050Y-160015050D03*
%TD*%
D11*
%TO.C,MX17*%
X148585050Y-148160050D03*
X151125050Y-161585050D03*
%TD*%
D10*
%TO.C,MX3*%
X119585050Y-86355050D03*
X133010050Y-83815050D03*
%TD*%
%TO.C,MX6*%
X119585050Y-105405050D03*
X133010050Y-102865050D03*
%TD*%
%TO.C,MX13*%
X100535050Y-143505050D03*
X113960050Y-140965050D03*
%TD*%
D11*
%TO.C,MX11*%
X148585050Y-110060050D03*
X151125050Y-123485050D03*
%TD*%
D10*
%TO.C,MX5*%
X100535050Y-105405050D03*
X113960050Y-102865050D03*
%TD*%
%TO.C,MX9*%
X100535050Y-124455050D03*
X113960050Y-121915050D03*
%TD*%
%TO.C,MX10*%
X119585050Y-124455050D03*
X133010050Y-121915050D03*
%TD*%
%TO.C,MX14*%
X119585050Y-143505050D03*
X133010050Y-140965050D03*
%TD*%
%TO.C,MX4*%
X81485050Y-105405050D03*
X94910050Y-102865050D03*
%TD*%
%TO.C,MX8*%
X81485050Y-124455050D03*
X94910050Y-121915050D03*
%TD*%
D12*
%TO.C,R2*%
X174656150Y-76195450D03*
X173006150Y-76195450D03*
%TD*%
D13*
%TO.C,SW1*%
X166762650Y-73283250D03*
X172962650Y-73283250D03*
X166762650Y-69583250D03*
X172962650Y-69583250D03*
%TD*%
D14*
%TO.C,D5*%
X115882550Y-109595050D03*
X115882550Y-106295050D03*
%TD*%
%TO.C,D6*%
X134932550Y-111182550D03*
X134932550Y-107882550D03*
%TD*%
%TO.C,D4*%
X96832550Y-109595050D03*
X96832550Y-106295050D03*
%TD*%
D15*
%TO.C,LED8*%
X140582550Y-120220050D03*
X141982550Y-120220050D03*
X141982550Y-114720050D03*
X140582550Y-114720050D03*
%TD*%
D16*
%TO.C,LED18*%
X172607550Y-170557550D03*
X172607550Y-169157550D03*
X167107550Y-169157550D03*
X167107550Y-170557550D03*
%TD*%
%TO.C,LED9*%
X91645050Y-132457550D03*
X91645050Y-131057550D03*
X86145050Y-131057550D03*
X86145050Y-132457550D03*
%TD*%
%TO.C,LED6*%
X110695050Y-113407550D03*
X110695050Y-112007550D03*
X105195050Y-112007550D03*
X105195050Y-113407550D03*
%TD*%
%TO.C,LED1*%
X91645050Y-94357550D03*
X91645050Y-92957550D03*
X86145050Y-92957550D03*
X86145050Y-94357550D03*
%TD*%
D17*
%TO.C,C7*%
X131781250Y-113506250D03*
X133331250Y-113506250D03*
%TD*%
D18*
%TO.C,R3*%
X174593750Y-169068750D03*
X176243750Y-169068750D03*
%TD*%
D14*
%TO.C,D8*%
X96832550Y-128645050D03*
X96832550Y-125345050D03*
%TD*%
%TO.C,RD2*%
X169857550Y-147695050D03*
X169857550Y-144395050D03*
%TD*%
D17*
%TO.C,C11*%
X131781250Y-132551300D03*
X133331250Y-132551300D03*
%TD*%
%TO.C,C9*%
X93681250Y-132556250D03*
X95231250Y-132556250D03*
%TD*%
D14*
%TO.C,D10*%
X136520050Y-125470050D03*
X136520050Y-122170050D03*
%TD*%
%TO.C,D12*%
X96832550Y-147695050D03*
X96832550Y-144395050D03*
%TD*%
D17*
%TO.C,C10*%
X112731250Y-132556250D03*
X114281250Y-132556250D03*
%TD*%
D14*
%TO.C,D18*%
X177795050Y-166745050D03*
X177795050Y-163445050D03*
%TD*%
D15*
%TO.C,LED15*%
X140582550Y-158320050D03*
X141982550Y-158320050D03*
X141982550Y-152820050D03*
X140582550Y-152820050D03*
%TD*%
D17*
%TO.C,C18*%
X174643750Y-170651300D03*
X176193750Y-170651300D03*
%TD*%
%TO.C,C6*%
X112731250Y-113501300D03*
X114281250Y-113501300D03*
%TD*%
D14*
%TO.C,D3*%
X134932550Y-90545050D03*
X134932550Y-87245050D03*
%TD*%
%TO.C,D2*%
X115882550Y-90545050D03*
X115882550Y-87245050D03*
%TD*%
%TO.C,D15*%
X106357550Y-166745050D03*
X106357550Y-163445050D03*
%TD*%
D19*
%TO.C,C8*%
X140493750Y-122256250D03*
X140493750Y-123806250D03*
%TD*%
D17*
%TO.C,C16*%
X103206250Y-170656250D03*
X104756250Y-170656250D03*
%TD*%
D14*
%TO.C,D9*%
X115882550Y-128645050D03*
X115882550Y-125345050D03*
%TD*%
D16*
%TO.C,LED2*%
X110695050Y-94357550D03*
X110695050Y-92957550D03*
X105195050Y-92957550D03*
X105195050Y-94357550D03*
%TD*%
%TO.C,LED4*%
X148795050Y-94357550D03*
X148795050Y-92957550D03*
X143295050Y-92957550D03*
X143295050Y-94357550D03*
%TD*%
D17*
%TO.C,C2*%
X112731250Y-94456250D03*
X114281250Y-94456250D03*
%TD*%
%TO.C,C3*%
X131781250Y-94456250D03*
X133331250Y-94456250D03*
%TD*%
D14*
%TO.C,D1*%
X96832550Y-90545050D03*
X96832550Y-87245050D03*
%TD*%
%TO.C,D13*%
X115882550Y-147695050D03*
X115882550Y-144395050D03*
%TD*%
D16*
%TO.C,LED11*%
X129745050Y-132457550D03*
X129745050Y-131057550D03*
X124245050Y-131057550D03*
X124245050Y-132457550D03*
%TD*%
%TO.C,LED10*%
X110695050Y-132457550D03*
X110695050Y-131057550D03*
X105195050Y-131057550D03*
X105195050Y-132457550D03*
%TD*%
%TO.C,LED14*%
X129745050Y-151507550D03*
X129745050Y-150107550D03*
X124245050Y-150107550D03*
X124245050Y-151507550D03*
%TD*%
%TO.C,LED7*%
X129745050Y-113407550D03*
X129745050Y-112007550D03*
X124245050Y-112007550D03*
X124245050Y-113407550D03*
%TD*%
D17*
%TO.C,C12*%
X93681250Y-151601300D03*
X95231250Y-151601300D03*
%TD*%
D16*
%TO.C,LED17*%
X129745050Y-170557550D03*
X129745050Y-169157550D03*
X124245050Y-169157550D03*
X124245050Y-170557550D03*
%TD*%
%TO.C,LED5*%
X91645050Y-113407550D03*
X91645050Y-112007550D03*
X86145050Y-112007550D03*
X86145050Y-113407550D03*
%TD*%
D14*
%TO.C,D14*%
X134932550Y-149282550D03*
X134932550Y-145982550D03*
%TD*%
%TO.C,RD1*%
X138112500Y-81025000D03*
X138112500Y-77725000D03*
%TD*%
D17*
%TO.C,C14*%
X131781250Y-151601300D03*
X133331250Y-151601300D03*
%TD*%
%TO.C,C17*%
X131781250Y-170651300D03*
X133331250Y-170651300D03*
%TD*%
%TO.C,C13*%
X112731250Y-151606250D03*
X114281250Y-151606250D03*
%TD*%
D19*
%TO.C,C15*%
X140493750Y-160356250D03*
X140493750Y-161906250D03*
%TD*%
D16*
%TO.C,LED12*%
X91645050Y-151507550D03*
X91645050Y-150107550D03*
X86145050Y-150107550D03*
X86145050Y-151507550D03*
%TD*%
D14*
%TO.C,D16*%
X136520050Y-163570050D03*
X136520050Y-160270050D03*
%TD*%
D20*
%TO.C,C1*%
X93643750Y-96837500D03*
X92093750Y-96837500D03*
%TD*%
D16*
%TO.C,LED16*%
X101170050Y-170557550D03*
X101170050Y-169157550D03*
X95670050Y-169157550D03*
X95670050Y-170557550D03*
%TD*%
D18*
%TO.C,R1*%
X82518750Y-94456250D03*
X84168750Y-94456250D03*
%TD*%
D16*
%TO.C,LED3*%
X129745050Y-94357550D03*
X129745050Y-92957550D03*
X124245050Y-92957550D03*
X124245050Y-94357550D03*
%TD*%
D14*
%TO.C,D7*%
X153982550Y-90545050D03*
X153982550Y-87245050D03*
%TD*%
D16*
%TO.C,LED13*%
X110695050Y-151507550D03*
X110695050Y-150107550D03*
X105195050Y-150107550D03*
X105195050Y-151507550D03*
%TD*%
D17*
%TO.C,C5*%
X93681250Y-113501300D03*
X95231250Y-113501300D03*
%TD*%
D14*
%TO.C,D11*%
X148426300Y-131026300D03*
X148426300Y-127726300D03*
%TD*%
%TO.C,D17*%
X148426300Y-169126300D03*
X148426300Y-165826300D03*
%TD*%
D17*
%TO.C,C4*%
X150831250Y-94451300D03*
X152381250Y-94451300D03*
%TD*%
M02*
