%TF.GenerationSoftware,KiCad,Pcbnew,(6.0.0)*%
%TF.CreationDate,2022-02-13T19:48:52-05:00*%
%TF.ProjectId,numpad,6e756d70-6164-42e6-9b69-6361645f7063,rev?*%
%TF.SameCoordinates,Original*%
%TF.FileFunction,Soldermask,Bot*%
%TF.FilePolarity,Negative*%
%FSLAX46Y46*%
G04 Gerber Fmt 4.6, Leading zero omitted, Abs format (unit mm)*
G04 Created by KiCad (PCBNEW (6.0.0)) date 2022-02-13 19:48:52*
%MOMM*%
%LPD*%
G01*
G04 APERTURE LIST*
G04 Aperture macros list*
%AMRoundRect*
0 Rectangle with rounded corners*
0 $1 Rounding radius*
0 $2 $3 $4 $5 $6 $7 $8 $9 X,Y pos of 4 corners*
0 Add a 4 corners polygon primitive as box body*
4,1,4,$2,$3,$4,$5,$6,$7,$8,$9,$2,$3,0*
0 Add four circle primitives for the rounded corners*
1,1,$1+$1,$2,$3*
1,1,$1+$1,$4,$5*
1,1,$1+$1,$6,$7*
1,1,$1+$1,$8,$9*
0 Add four rect primitives between the rounded corners*
20,1,$1+$1,$2,$3,$4,$5,0*
20,1,$1+$1,$4,$5,$6,$7,0*
20,1,$1+$1,$6,$7,$8,$9,0*
20,1,$1+$1,$8,$9,$2,$3,0*%
G04 Aperture macros list end*
%ADD10R,1.700000X1.700000*%
%ADD11O,1.700000X1.700000*%
%ADD12O,1.600000X2.000000*%
%ADD13R,2.000000X2.000000*%
%ADD14C,2.000000*%
%ADD15R,3.200000X2.000000*%
%ADD16R,1.600000X1.600000*%
%ADD17C,1.600000*%
%ADD18C,6.400000*%
%ADD19C,4.000000*%
%ADD20C,1.750000*%
%ADD21C,3.000000*%
%ADD22R,2.550000X2.500000*%
%ADD23C,3.050000*%
%ADD24R,2.500000X2.550000*%
%ADD25R,1.800000X1.100000*%
%ADD26R,1.200000X0.900000*%
%ADD27R,1.000000X1.700000*%
%ADD28R,1.700000X1.000000*%
%ADD29RoundRect,0.225000X-0.225000X-0.250000X0.225000X-0.250000X0.225000X0.250000X-0.225000X0.250000X0*%
%ADD30RoundRect,0.200000X-0.200000X-0.275000X0.200000X-0.275000X0.200000X0.275000X-0.200000X0.275000X0*%
%ADD31RoundRect,0.225000X-0.250000X0.225000X-0.250000X-0.225000X0.250000X-0.225000X0.250000X0.225000X0*%
%ADD32RoundRect,0.225000X0.225000X0.250000X-0.225000X0.250000X-0.225000X-0.250000X0.225000X-0.250000X0*%
G04 APERTURE END LIST*
D10*
%TO.C,J1*%
X175418600Y-92069437D03*
D11*
X175418600Y-94609437D03*
X172878600Y-92069437D03*
X172878600Y-94609437D03*
X170338600Y-92069437D03*
X170338600Y-94609437D03*
%TD*%
D12*
%TO.C,OLED1*%
X166231800Y-105280200D03*
X168771800Y-105280200D03*
X171311800Y-105280200D03*
X173851800Y-105280200D03*
%TD*%
D13*
%TO.C,ROT2*%
X177391950Y-148545050D03*
D14*
X177391950Y-143545050D03*
X177391950Y-146045050D03*
D15*
X169891950Y-140445050D03*
X169891950Y-151645050D03*
D14*
X162891950Y-143545050D03*
X162891950Y-148545050D03*
%TD*%
D10*
%TO.C,J2*%
X161924850Y-65722500D03*
D11*
X161924850Y-68262500D03*
X161924850Y-70802500D03*
X161924850Y-73342500D03*
%TD*%
D16*
%TO.C,U1*%
X165417500Y-68575050D03*
D17*
X165417500Y-71115050D03*
X165417500Y-73655050D03*
X165417500Y-76195050D03*
X165417500Y-78735050D03*
X165417500Y-81275050D03*
X165417500Y-83815050D03*
X165417500Y-86355050D03*
X165417500Y-88895050D03*
X165417500Y-91435050D03*
X165417500Y-93975050D03*
X165417500Y-96515050D03*
X180657500Y-96515050D03*
X180657500Y-93975050D03*
X180657500Y-91435050D03*
X180657500Y-88895050D03*
X180657500Y-86355050D03*
X180657500Y-83815050D03*
X180657500Y-81275050D03*
X180657500Y-78735050D03*
X180657500Y-76195050D03*
X180657500Y-73655050D03*
X180657500Y-71115050D03*
X180657500Y-68575050D03*
%TD*%
D18*
%TO.C,H1*%
X115882550Y-168270050D03*
%TD*%
%TO.C,H2*%
X158750000Y-136520050D03*
%TD*%
%TO.C,H3*%
X98420050Y-98420050D03*
%TD*%
%TO.C,H4*%
X158750000Y-98425000D03*
%TD*%
D19*
%TO.C,MX1*%
X88895050Y-88895050D03*
D20*
X93975050Y-88895050D03*
D21*
X85085050Y-86355050D03*
X91435050Y-83815050D03*
D20*
X83815050Y-88895050D03*
D22*
X81485050Y-86355050D03*
X94910050Y-83815050D03*
%TD*%
D20*
%TO.C,MX12*%
X83815050Y-146045050D03*
D19*
X88895050Y-146045050D03*
D21*
X91435050Y-140965050D03*
X85085050Y-143505050D03*
D20*
X93975050Y-146045050D03*
D22*
X81485050Y-143505050D03*
X94910050Y-140965050D03*
%TD*%
D21*
%TO.C,MX16*%
X129535050Y-160015050D03*
D20*
X132075050Y-165095050D03*
X121915050Y-165095050D03*
D21*
X123185050Y-162555050D03*
D19*
X126995050Y-165095050D03*
D22*
X119585050Y-162555050D03*
X133010050Y-160015050D03*
%TD*%
D21*
%TO.C,MX7*%
X148585050Y-83815050D03*
X142235050Y-86355050D03*
D20*
X140965050Y-88895050D03*
X151125050Y-88895050D03*
D19*
X146045050Y-88895050D03*
D22*
X138635050Y-86355050D03*
X152060050Y-83815050D03*
%TD*%
D20*
%TO.C,MX2*%
X102865050Y-88895050D03*
D19*
X107945050Y-88895050D03*
D21*
X110485050Y-83815050D03*
X104135050Y-86355050D03*
D20*
X113025050Y-88895050D03*
D22*
X100535050Y-86355050D03*
X113960050Y-83815050D03*
%TD*%
D21*
%TO.C,MX18*%
X166047550Y-162555050D03*
X172397550Y-160015050D03*
D19*
X169857550Y-165095050D03*
D20*
X164777550Y-165095050D03*
X174937550Y-165095050D03*
D22*
X162447550Y-162555050D03*
X175872550Y-160015050D03*
%TD*%
D20*
%TO.C,MX15*%
X93340050Y-165095050D03*
D19*
X98420050Y-165095050D03*
X110358050Y-156855050D03*
D23*
X86482050Y-172095050D03*
X110358050Y-172095050D03*
D20*
X103500050Y-165095050D03*
D19*
X86482050Y-156855050D03*
D21*
X94610050Y-162555050D03*
X100960050Y-160015050D03*
D22*
X91010050Y-162555050D03*
X104435050Y-160015050D03*
%TD*%
D19*
%TO.C,MX17*%
X137805050Y-167508050D03*
D21*
X148585050Y-151760050D03*
D19*
X146045050Y-155570050D03*
D21*
X151125050Y-158110050D03*
D23*
X153045050Y-167508050D03*
D20*
X146045050Y-150490050D03*
D23*
X153045050Y-143632050D03*
D19*
X137805050Y-143632050D03*
D20*
X146045050Y-160650050D03*
D24*
X148585050Y-148160050D03*
X151125050Y-161585050D03*
%TD*%
D13*
%TO.C,ROT1*%
X153545050Y-72345050D03*
D14*
X153545050Y-67345050D03*
X153545050Y-69845050D03*
D15*
X146045050Y-64245050D03*
X146045050Y-75445050D03*
D14*
X139045050Y-67345050D03*
X139045050Y-72345050D03*
%TD*%
D21*
%TO.C,MX3*%
X129535050Y-83815050D03*
D19*
X126995050Y-88895050D03*
D20*
X132075050Y-88895050D03*
X121915050Y-88895050D03*
D21*
X123185050Y-86355050D03*
D22*
X119585050Y-86355050D03*
X133010050Y-83815050D03*
%TD*%
D19*
%TO.C,MX6*%
X126995050Y-107945050D03*
D20*
X132075050Y-107945050D03*
X121915050Y-107945050D03*
D21*
X129535050Y-102865050D03*
X123185050Y-105405050D03*
D22*
X119585050Y-105405050D03*
X133010050Y-102865050D03*
%TD*%
D20*
%TO.C,MX13*%
X113025050Y-146045050D03*
D19*
X107945050Y-146045050D03*
D20*
X102865050Y-146045050D03*
D21*
X110485050Y-140965050D03*
X104135050Y-143505050D03*
D22*
X100535050Y-143505050D03*
X113960050Y-140965050D03*
%TD*%
D21*
%TO.C,MX11*%
X151125050Y-120010050D03*
D23*
X153045050Y-105532050D03*
X153045050Y-129408050D03*
D20*
X146045050Y-112390050D03*
D21*
X148585050Y-113660050D03*
D19*
X137805050Y-129408050D03*
X137805050Y-105532050D03*
D20*
X146045050Y-122550050D03*
D19*
X146045050Y-117470050D03*
D24*
X148585050Y-110060050D03*
X151125050Y-123485050D03*
%TD*%
D19*
%TO.C,MX5*%
X107945050Y-107945050D03*
D20*
X113025050Y-107945050D03*
D21*
X104135050Y-105405050D03*
X110485050Y-102865050D03*
D20*
X102865050Y-107945050D03*
D22*
X100535050Y-105405050D03*
X113960050Y-102865050D03*
%TD*%
D20*
%TO.C,MX9*%
X102865050Y-126995050D03*
X113025050Y-126995050D03*
D19*
X107945050Y-126995050D03*
D21*
X110485050Y-121915050D03*
X104135050Y-124455050D03*
D22*
X100535050Y-124455050D03*
X113960050Y-121915050D03*
%TD*%
D20*
%TO.C,MX10*%
X132075050Y-126995050D03*
D21*
X123185050Y-124455050D03*
D19*
X126995050Y-126995050D03*
D20*
X121915050Y-126995050D03*
D21*
X129535050Y-121915050D03*
D22*
X119585050Y-124455050D03*
X133010050Y-121915050D03*
%TD*%
D21*
%TO.C,MX14*%
X123185050Y-143505050D03*
D20*
X121915050Y-146045050D03*
X132075050Y-146045050D03*
D21*
X129535050Y-140965050D03*
D19*
X126995050Y-146045050D03*
D22*
X119585050Y-143505050D03*
X133010050Y-140965050D03*
%TD*%
D21*
%TO.C,MX4*%
X91435050Y-102865050D03*
D20*
X83815050Y-107945050D03*
X93975050Y-107945050D03*
D21*
X85085050Y-105405050D03*
D19*
X88895050Y-107945050D03*
D22*
X81485050Y-105405050D03*
X94910050Y-102865050D03*
%TD*%
D19*
%TO.C,MX8*%
X88895050Y-126995050D03*
D20*
X93975050Y-126995050D03*
D21*
X85085050Y-124455050D03*
D20*
X83815050Y-126995050D03*
D21*
X91435050Y-121915050D03*
D22*
X81485050Y-124455050D03*
X94910050Y-121915050D03*
%TD*%
D25*
%TO.C,SW1*%
X169937500Y-73283250D03*
X176137500Y-73283250D03*
X169937500Y-69583250D03*
X176137500Y-69583250D03*
%TD*%
D26*
%TO.C,D5*%
X115882550Y-109595050D03*
X115882550Y-106295050D03*
%TD*%
%TO.C,D6*%
X134932550Y-111182550D03*
X134932550Y-107882550D03*
%TD*%
%TO.C,D4*%
X96832550Y-109595050D03*
X96832550Y-106295050D03*
%TD*%
D27*
%TO.C,LED8*%
X140582550Y-120220050D03*
X141982550Y-120220050D03*
X141982550Y-114720050D03*
X140582550Y-114720050D03*
%TD*%
D28*
%TO.C,LED18*%
X172607550Y-170557550D03*
X172607550Y-169157550D03*
X167107550Y-169157550D03*
X167107550Y-170557550D03*
%TD*%
%TO.C,LED9*%
X91645050Y-132457550D03*
X91645050Y-131057550D03*
X86145050Y-131057550D03*
X86145050Y-132457550D03*
%TD*%
%TO.C,LED6*%
X110695050Y-113407550D03*
X110695050Y-112007550D03*
X105195050Y-112007550D03*
X105195050Y-113407550D03*
%TD*%
%TO.C,LED1*%
X91645050Y-94357550D03*
X91645050Y-92957550D03*
X86145050Y-92957550D03*
X86145050Y-94357550D03*
%TD*%
D29*
%TO.C,C7*%
X131781250Y-113506250D03*
X133331250Y-113506250D03*
%TD*%
D30*
%TO.C,R3*%
X174593750Y-169068750D03*
X176243750Y-169068750D03*
%TD*%
D26*
%TO.C,D8*%
X96832550Y-128645050D03*
X96832550Y-125345050D03*
%TD*%
%TO.C,RD2*%
X169857550Y-147695050D03*
X169857550Y-144395050D03*
%TD*%
D29*
%TO.C,C11*%
X131781250Y-132551300D03*
X133331250Y-132551300D03*
%TD*%
%TO.C,C9*%
X93681250Y-132556250D03*
X95231250Y-132556250D03*
%TD*%
D26*
%TO.C,D10*%
X136520050Y-125470050D03*
X136520050Y-122170050D03*
%TD*%
%TO.C,D12*%
X96832550Y-147695050D03*
X96832550Y-144395050D03*
%TD*%
D29*
%TO.C,C10*%
X112731250Y-132556250D03*
X114281250Y-132556250D03*
%TD*%
D26*
%TO.C,D18*%
X177795050Y-166745050D03*
X177795050Y-163445050D03*
%TD*%
D27*
%TO.C,LED15*%
X140582550Y-158320050D03*
X141982550Y-158320050D03*
X141982550Y-152820050D03*
X140582550Y-152820050D03*
%TD*%
D29*
%TO.C,C18*%
X174643750Y-170651300D03*
X176193750Y-170651300D03*
%TD*%
%TO.C,C6*%
X112731250Y-113501300D03*
X114281250Y-113501300D03*
%TD*%
D26*
%TO.C,D3*%
X134932550Y-90545050D03*
X134932550Y-87245050D03*
%TD*%
%TO.C,D2*%
X115882550Y-90545050D03*
X115882550Y-87245050D03*
%TD*%
%TO.C,D15*%
X106357550Y-166745050D03*
X106357550Y-163445050D03*
%TD*%
D31*
%TO.C,C8*%
X140493750Y-122256250D03*
X140493750Y-123806250D03*
%TD*%
D29*
%TO.C,C16*%
X103206250Y-170656250D03*
X104756250Y-170656250D03*
%TD*%
D26*
%TO.C,D9*%
X115882550Y-128645050D03*
X115882550Y-125345050D03*
%TD*%
D28*
%TO.C,LED2*%
X110695050Y-94357550D03*
X110695050Y-92957550D03*
X105195050Y-92957550D03*
X105195050Y-94357550D03*
%TD*%
%TO.C,LED4*%
X148795050Y-94357550D03*
X148795050Y-92957550D03*
X143295050Y-92957550D03*
X143295050Y-94357550D03*
%TD*%
D29*
%TO.C,C2*%
X112731250Y-94456250D03*
X114281250Y-94456250D03*
%TD*%
%TO.C,C3*%
X131781250Y-94456250D03*
X133331250Y-94456250D03*
%TD*%
D26*
%TO.C,D1*%
X96832550Y-90545050D03*
X96832550Y-87245050D03*
%TD*%
%TO.C,D13*%
X115882550Y-147695050D03*
X115882550Y-144395050D03*
%TD*%
D28*
%TO.C,LED11*%
X129745050Y-132457550D03*
X129745050Y-131057550D03*
X124245050Y-131057550D03*
X124245050Y-132457550D03*
%TD*%
%TO.C,LED10*%
X110695050Y-132457550D03*
X110695050Y-131057550D03*
X105195050Y-131057550D03*
X105195050Y-132457550D03*
%TD*%
%TO.C,LED14*%
X129745050Y-151507550D03*
X129745050Y-150107550D03*
X124245050Y-150107550D03*
X124245050Y-151507550D03*
%TD*%
%TO.C,LED7*%
X129745050Y-113407550D03*
X129745050Y-112007550D03*
X124245050Y-112007550D03*
X124245050Y-113407550D03*
%TD*%
D29*
%TO.C,C12*%
X93681250Y-151601300D03*
X95231250Y-151601300D03*
%TD*%
D28*
%TO.C,LED17*%
X129745050Y-170557550D03*
X129745050Y-169157550D03*
X124245050Y-169157550D03*
X124245050Y-170557550D03*
%TD*%
%TO.C,LED5*%
X91645050Y-113407550D03*
X91645050Y-112007550D03*
X86145050Y-112007550D03*
X86145050Y-113407550D03*
%TD*%
D26*
%TO.C,D14*%
X134932550Y-149282550D03*
X134932550Y-145982550D03*
%TD*%
%TO.C,RD1*%
X138112500Y-81025000D03*
X138112500Y-77725000D03*
%TD*%
D29*
%TO.C,C14*%
X131781250Y-151601300D03*
X133331250Y-151601300D03*
%TD*%
%TO.C,C17*%
X131781250Y-170651300D03*
X133331250Y-170651300D03*
%TD*%
%TO.C,C13*%
X112731250Y-151606250D03*
X114281250Y-151606250D03*
%TD*%
D31*
%TO.C,C15*%
X140493750Y-160356250D03*
X140493750Y-161906250D03*
%TD*%
D28*
%TO.C,LED12*%
X91645050Y-151507550D03*
X91645050Y-150107550D03*
X86145050Y-150107550D03*
X86145050Y-151507550D03*
%TD*%
D26*
%TO.C,D16*%
X136520050Y-163570050D03*
X136520050Y-160270050D03*
%TD*%
D32*
%TO.C,C1*%
X93643750Y-96837500D03*
X92093750Y-96837500D03*
%TD*%
D28*
%TO.C,LED16*%
X101170050Y-170557550D03*
X101170050Y-169157550D03*
X95670050Y-169157550D03*
X95670050Y-170557550D03*
%TD*%
D30*
%TO.C,R1*%
X82518750Y-94456250D03*
X84168750Y-94456250D03*
%TD*%
D28*
%TO.C,LED3*%
X129745050Y-94357550D03*
X129745050Y-92957550D03*
X124245050Y-92957550D03*
X124245050Y-94357550D03*
%TD*%
D26*
%TO.C,D7*%
X153982550Y-90545050D03*
X153982550Y-87245050D03*
%TD*%
D28*
%TO.C,LED13*%
X110695050Y-151507550D03*
X110695050Y-150107550D03*
X105195050Y-150107550D03*
X105195050Y-151507550D03*
%TD*%
D29*
%TO.C,C5*%
X93681250Y-113501300D03*
X95231250Y-113501300D03*
%TD*%
D26*
%TO.C,D11*%
X148426300Y-131026300D03*
X148426300Y-127726300D03*
%TD*%
%TO.C,D17*%
X148426300Y-169126300D03*
X148426300Y-165826300D03*
%TD*%
D29*
%TO.C,C4*%
X150831250Y-94451300D03*
X152381250Y-94451300D03*
%TD*%
M02*
