M48
; DRILL file {KiCad (5.1.10)-1} date 11/21/21 22:57:47
; FORMAT={-:-/ absolute / metric / decimal}
; #@! TF.CreationDate,2021-11-21T22:57:47-05:00
; #@! TF.GenerationSoftware,Kicad,Pcbnew,(5.1.10)-1
; #@! TF.FileFunction,Plated,1,2,PTH
FMAT,2
METRIC
T1C0.400
T2C1.000
T3C1.100
T4C1.500
T5C3.200
%
G90
G05
T1
X80.957Y-80.957
X80.957Y-83.338
X80.957Y-102.387
X80.957Y-121.436
X80.957Y-140.485
X80.957Y-173.027
X82.545Y-96.038
X82.545Y-116.674
X82.545Y-134.135
X82.545Y-154.772
X84.132Y-82.545
X84.132Y-100.8
X84.132Y-111.118
X84.132Y-130.167
X84.132Y-138.897
X84.132Y-149.216
X85.72Y-90.482
X89.688Y-169.058
X92.069Y-115.087
X92.863Y-153.184
X93.657Y-167.471
X98.419Y-115.087
X98.419Y-134.135
X98.419Y-153.184
X100.006Y-83.338
X100.006Y-102.387
X100.006Y-121.436
X100.006Y-140.485
X103.181Y-93.657
X103.181Y-112.705
X103.181Y-131.754
X103.181Y-150.803
X103.181Y-156.359
X104.768Y-170.645
X106.356Y-160.327
X107.149Y-155.565
X110.324Y-165.883
X116.674Y-162.708
X117.468Y-96.038
X117.468Y-115.087
X117.468Y-134.135
X117.468Y-153.184
X119.055Y-83.338
X119.055Y-102.387
X119.055Y-121.436
X119.055Y-140.485
X120.642Y-153.184
X122.23Y-93.657
X122.23Y-112.705
X122.23Y-131.754
X122.23Y-150.803
X123.817Y-146.834
X125.405Y-157.946
X126.992Y-173.027
X130.96Y-161.915
X131.754Y-169.058
X132.548Y-151.597
X133.342Y-117.468
X133.342Y-137.31
X134.135Y-129.373
X134.135Y-150.803
X135.723Y-79.914
X135.723Y-83.338
X136.516Y-96.038
X136.516Y-115.087
X136.516Y-132.548
X136.516Y-139.691
X137.31Y-134.135
X137.31Y-150.803
X138.104Y-83.338
X138.897Y-149.216
X141.279Y-93.657
X142.072Y-122.23
X142.072Y-160.327
X142.072Y-162.708
X142.866Y-69.846
X142.866Y-76.989
X142.866Y-140.485
X144.453Y-103.181
X145.247Y-127.786
X145.247Y-147.628
X146.041Y-109.531
X146.834Y-129.373
X146.834Y-173.027
X148.422Y-123.817
X155.565Y-123.817
X155.565Y-132.548
X155.565Y-150.803
X155.565Y-161.121
X155.565Y-169.058
X158.74Y-62.702
X160.327Y-80.164
X160.327Y-89.688
X160.327Y-165.883
X161.915Y-159.534
X164.296Y-170.645
X169.058Y-80.164
X169.852Y-118.261
X172.233Y-87.307
X173.027Y-78.576
X173.82Y-131.754
X176.201Y-98.419
X176.201Y-169.852
X176.995Y-82.545
X176.995Y-92.069
X177.789Y-169.058
X178.582Y-95.244
X181.757Y-63.496
X181.757Y-116.674
X181.757Y-135.723
X181.757Y-155.565
X181.757Y-173.027
T2
X139.081Y-67.227
X139.081Y-72.227
X153.581Y-67.227
X153.581Y-69.727
X153.581Y-72.227
X159.534Y-66.671
X159.534Y-69.211
X159.534Y-71.751
X159.534Y-74.291
X162.892Y-143.422
X162.892Y-148.422
X166.232Y-105.28
X168.772Y-105.28
X170.328Y-93.657
X170.328Y-96.197
X171.312Y-105.28
X172.868Y-93.657
X172.868Y-96.197
X173.852Y-105.28
X175.408Y-93.657
X175.408Y-96.197
X177.392Y-143.422
X177.392Y-145.922
X177.392Y-148.422
T3
X165.407Y-70.162
X165.407Y-72.702
X165.407Y-75.242
X165.407Y-77.782
X165.407Y-80.322
X165.407Y-82.862
X165.407Y-85.402
X165.407Y-87.942
X165.407Y-90.482
X165.407Y-93.022
X165.407Y-95.562
X165.407Y-98.102
X180.647Y-70.162
X180.647Y-72.702
X180.647Y-75.242
X180.647Y-77.782
X180.647Y-80.322
X180.647Y-82.862
X180.647Y-85.402
X180.647Y-87.942
X180.647Y-90.482
X180.647Y-93.022
X180.647Y-95.562
X180.647Y-98.102
T5
X98.419Y-98.419
X116.674Y-170.645
X156.359Y-99.212
X169.852Y-134.929
T4
X146.731Y-64.127G85X145.431Y-64.127
G05
X146.731Y-75.327G85X145.431Y-75.327
G05
X170.542Y-140.322G85X169.242Y-140.322
G05
X170.542Y-151.522G85X169.242Y-151.522
G05
T0
M30
