M48
; DRILL file {KiCad (6.0.0)} date Thu Feb  3 18:25:40 2022
; FORMAT={-:-/ absolute / metric / decimal}
; #@! TF.CreationDate,2022-02-03T18:25:40-05:00
; #@! TF.GenerationSoftware,Kicad,Pcbnew,(6.0.0)
; #@! TF.FileFunction,Plated,1,2,PTH
FMAT,2
METRIC
; #@! TA.AperFunction,Plated,PTH,ViaDrill
T1C0.400
; #@! TA.AperFunction,Plated,PTH,ComponentDrill
T2C1.000
; #@! TA.AperFunction,Plated,PTH,ComponentDrill
T3C1.100
; #@! TA.AperFunction,Plated,PTH,ComponentDrill
T4C1.500
; #@! TA.AperFunction,Plated,PTH,ComponentDrill
T5C3.200
%
G90
G05
T1
X80.169Y-80.169
X80.958Y-83.339
X80.958Y-102.389
X80.958Y-121.439
X80.958Y-140.489
X82.55Y-164.306
X83.344Y-96.837
X83.344Y-115.887
X83.344Y-134.938
X84.138Y-92.869
X84.138Y-111.919
X84.138Y-130.969
X84.138Y-150.019
X87.312Y-82.55
X87.312Y-102.394
X87.312Y-121.444
X87.312Y-140.494
X90.483Y-159.539
X90.879Y-96.833
X93.662Y-169.069
X96.441Y-113.506
X96.441Y-132.556
X96.441Y-151.606
X96.837Y-159.544
X100.008Y-83.339
X100.008Y-121.439
X100.008Y-140.489
X100.801Y-102.389
X103.188Y-92.869
X103.188Y-111.919
X103.188Y-130.969
X103.188Y-150.019
X105.966Y-170.656
X106.362Y-82.55
X106.362Y-102.394
X106.362Y-121.444
X106.362Y-140.494
X115.491Y-94.456
X115.491Y-113.506
X115.491Y-132.556
X115.491Y-151.606
X119.058Y-83.339
X119.058Y-102.389
X119.058Y-121.439
X119.058Y-140.489
X119.058Y-159.539
X119.856Y-165.1
X122.237Y-92.869
X122.237Y-111.919
X122.237Y-130.969
X122.237Y-150.019
X122.237Y-169.069
X123.825Y-165.894
X124.619Y-82.55
X125.412Y-102.394
X125.412Y-121.444
X125.412Y-140.494
X125.412Y-159.544
X133.35Y-134.144
X134.144Y-167.481
X134.541Y-94.456
X134.541Y-113.506
X134.541Y-132.556
X134.541Y-151.606
X134.541Y-170.656
X135.731Y-84.138
X136.525Y-117.475
X136.525Y-155.575
X138.108Y-83.339
X140.494Y-125.016
X140.494Y-163.116
X141.287Y-92.869
X141.287Y-169.069
X142.081Y-112.712
X142.081Y-150.812
X143.669Y-120.65
X143.669Y-158.75
X146.05Y-69.85
X146.05Y-129.381
X146.05Y-148.431
X151.606Y-110.331
X151.606Y-115.887
X151.606Y-153.987
X152.4Y-96.044
X153.591Y-94.456
X157.162Y-92.075
X161.92Y-159.539
X161.925Y-105.569
X165.1Y-169.069
X168.275Y-159.544
X172.244Y-108.744
X173.037Y-83.344
X173.037Y-88.106
X173.037Y-99.219
X177.403Y-170.656
X177.8Y-132.556
X179.0Y-77.5
T2
X139.045Y-67.345
X139.045Y-72.345
X153.545Y-67.345
X153.545Y-69.845
X153.545Y-72.345
X158.75Y-65.722
X158.75Y-68.263
X158.75Y-70.802
X158.75Y-73.343
X162.892Y-143.545
X162.892Y-148.545
X166.232Y-105.28
X167.164Y-92.069
X167.164Y-94.609
X168.772Y-105.28
X169.704Y-92.069
X169.704Y-94.609
X171.312Y-105.28
X172.244Y-92.069
X172.244Y-94.609
X173.852Y-105.28
X177.392Y-143.545
X177.392Y-146.045
X177.392Y-148.545
T3
X162.243Y-68.575
X162.243Y-71.115
X162.243Y-73.655
X162.243Y-76.195
X162.243Y-78.735
X162.243Y-81.275
X162.243Y-83.815
X162.243Y-86.355
X162.243Y-88.895
X162.243Y-91.435
X162.243Y-93.975
X162.243Y-96.515
X177.483Y-68.575
X177.483Y-71.115
X177.483Y-73.655
X177.483Y-76.195
X177.483Y-78.735
X177.483Y-81.275
X177.483Y-83.815
X177.483Y-86.355
X177.483Y-88.895
X177.483Y-91.435
X177.483Y-93.975
X177.483Y-96.515
T5
X98.42Y-98.42
X115.883Y-168.27
X146.045Y-136.52
X146.05Y-100.806
T4
X146.695Y-64.245G85X145.395Y-64.245
G05
X146.695Y-75.445G85X145.395Y-75.445
G05
X170.542Y-140.445G85X169.242Y-140.445
G05
X170.542Y-151.645G85X169.242Y-151.645
G05
T0
M30
