%TF.GenerationSoftware,KiCad,Pcbnew,(5.1.10)-1*%
%TF.CreationDate,2021-11-21T22:57:30-05:00*%
%TF.ProjectId,numpad,6e756d70-6164-42e6-9b69-6361645f7063,rev?*%
%TF.SameCoordinates,Original*%
%TF.FileFunction,Paste,Bot*%
%TF.FilePolarity,Positive*%
%FSLAX46Y46*%
G04 Gerber Fmt 4.6, Leading zero omitted, Abs format (unit mm)*
G04 Created by KiCad (PCBNEW (5.1.10)-1) date 2021-11-21 22:57:30*
%MOMM*%
%LPD*%
G01*
G04 APERTURE LIST*
%ADD10R,0.900000X1.800000*%
%ADD11R,2.500000X2.550000*%
%ADD12R,1.800000X0.900000*%
%ADD13R,2.550000X2.500000*%
%ADD14R,0.900000X1.200000*%
%ADD15R,1.200000X0.900000*%
%ADD16R,1.800000X1.100000*%
G04 APERTURE END LIST*
D10*
%TO.C,MX17*%
X140240800Y-158165200D03*
X141740800Y-158165200D03*
X140240800Y-152965200D03*
X141740800Y-152965200D03*
D11*
X151120800Y-161580200D03*
X148580800Y-148155200D03*
%TD*%
D12*
%TO.C,MX15*%
X95818800Y-159289600D03*
X95818800Y-160789600D03*
X101018800Y-159289600D03*
X101018800Y-160789600D03*
D13*
X92403800Y-170169600D03*
X105828800Y-167629600D03*
%TD*%
D10*
%TO.C,MX11*%
X140240800Y-120067600D03*
X141740800Y-120067600D03*
X140240800Y-114867600D03*
X141740800Y-114867600D03*
D11*
X151120800Y-123482600D03*
X148580800Y-110057600D03*
%TD*%
D14*
%TO.C,D6*%
X136453800Y-99212500D03*
X139753800Y-99212500D03*
%TD*%
D12*
%TO.C,MX18*%
X172451800Y-170889600D03*
X172451800Y-169389600D03*
X167251800Y-170889600D03*
X167251800Y-169389600D03*
D13*
X175866800Y-160009600D03*
X162441800Y-162549600D03*
%TD*%
D12*
%TO.C,MX16*%
X129592000Y-170889600D03*
X129592000Y-169389600D03*
X124392000Y-170889600D03*
X124392000Y-169389600D03*
D13*
X133007000Y-160009600D03*
X119582000Y-162549600D03*
%TD*%
D12*
%TO.C,MX10*%
X129592000Y-132792000D03*
X129592000Y-131292000D03*
X124392000Y-132792000D03*
X124392000Y-131292000D03*
D13*
X133007000Y-121912000D03*
X119582000Y-124452000D03*
%TD*%
D12*
%TO.C,MX9*%
X110543200Y-132792000D03*
X110543200Y-131292000D03*
X105343200Y-132792000D03*
X105343200Y-131292000D03*
D13*
X113958200Y-121912000D03*
X100533200Y-124452000D03*
%TD*%
D12*
%TO.C,MX8*%
X91494400Y-132792000D03*
X91494400Y-131292000D03*
X86294400Y-132792000D03*
X86294400Y-131292000D03*
D13*
X94909400Y-121912000D03*
X81484400Y-124452000D03*
%TD*%
D12*
%TO.C,MX7*%
X148640800Y-94694400D03*
X148640800Y-93194400D03*
X143440800Y-94694400D03*
X143440800Y-93194400D03*
D13*
X152055800Y-83814400D03*
X138630800Y-86354400D03*
%TD*%
D12*
%TO.C,MX3*%
X129592000Y-94694400D03*
X129592000Y-93194400D03*
X124392000Y-94694400D03*
X124392000Y-93194400D03*
D13*
X133007000Y-83814400D03*
X119582000Y-86354400D03*
%TD*%
D12*
%TO.C,MX2*%
X110543200Y-94694400D03*
X110543200Y-93194400D03*
X105343200Y-94694400D03*
X105343200Y-93194400D03*
D13*
X113958200Y-83814400D03*
X100533200Y-86354400D03*
%TD*%
D12*
%TO.C,MX1*%
X91494400Y-94694400D03*
X91494400Y-93194400D03*
X86294400Y-94694400D03*
X86294400Y-93194400D03*
D13*
X94909400Y-83814400D03*
X81484400Y-86354400D03*
%TD*%
D14*
%TO.C,RD2*%
X159596300Y-138103800D03*
X156296300Y-138103800D03*
%TD*%
%TO.C,RD1*%
X137247500Y-78576300D03*
X140547500Y-78576300D03*
%TD*%
%TO.C,LC11*%
G36*
G01*
X140009900Y-124423500D02*
X140959900Y-124423500D01*
G75*
G02*
X141209900Y-124673500I0J-250000D01*
G01*
X141209900Y-125173500D01*
G75*
G02*
X140959900Y-125423500I-250000J0D01*
G01*
X140009900Y-125423500D01*
G75*
G02*
X139759900Y-125173500I0J250000D01*
G01*
X139759900Y-124673500D01*
G75*
G02*
X140009900Y-124423500I250000J0D01*
G01*
G37*
G36*
G01*
X140009900Y-122523500D02*
X140959900Y-122523500D01*
G75*
G02*
X141209900Y-122773500I0J-250000D01*
G01*
X141209900Y-123273500D01*
G75*
G02*
X140959900Y-123523500I-250000J0D01*
G01*
X140009900Y-123523500D01*
G75*
G02*
X139759900Y-123273500I0J250000D01*
G01*
X139759900Y-122773500D01*
G75*
G02*
X140009900Y-122523500I250000J0D01*
G01*
G37*
%TD*%
%TO.C,D11*%
X147690800Y-126198300D03*
X144390800Y-126198300D03*
%TD*%
D12*
%TO.C,MX4*%
X91494400Y-113743200D03*
X91494400Y-112243200D03*
X86294400Y-113743200D03*
X86294400Y-112243200D03*
D13*
X94909400Y-102863200D03*
X81484400Y-105403200D03*
%TD*%
%TO.C,LC16*%
G36*
G01*
X133791600Y-172707900D02*
X133791600Y-171757900D01*
G75*
G02*
X134041600Y-171507900I250000J0D01*
G01*
X134541600Y-171507900D01*
G75*
G02*
X134791600Y-171757900I0J-250000D01*
G01*
X134791600Y-172707900D01*
G75*
G02*
X134541600Y-172957900I-250000J0D01*
G01*
X134041600Y-172957900D01*
G75*
G02*
X133791600Y-172707900I0J250000D01*
G01*
G37*
G36*
G01*
X131891600Y-172707900D02*
X131891600Y-171757900D01*
G75*
G02*
X132141600Y-171507900I250000J0D01*
G01*
X132641600Y-171507900D01*
G75*
G02*
X132891600Y-171757900I0J-250000D01*
G01*
X132891600Y-172707900D01*
G75*
G02*
X132641600Y-172957900I-250000J0D01*
G01*
X132141600Y-172957900D01*
G75*
G02*
X131891600Y-172707900I0J250000D01*
G01*
G37*
%TD*%
D15*
%TO.C,D16*%
X136516400Y-158677400D03*
X136516400Y-161977400D03*
%TD*%
%TO.C,LC18*%
G36*
G01*
X176651400Y-172707900D02*
X176651400Y-171757900D01*
G75*
G02*
X176901400Y-171507900I250000J0D01*
G01*
X177401400Y-171507900D01*
G75*
G02*
X177651400Y-171757900I0J-250000D01*
G01*
X177651400Y-172707900D01*
G75*
G02*
X177401400Y-172957900I-250000J0D01*
G01*
X176901400Y-172957900D01*
G75*
G02*
X176651400Y-172707900I0J250000D01*
G01*
G37*
G36*
G01*
X174751400Y-172707900D02*
X174751400Y-171757900D01*
G75*
G02*
X175001400Y-171507900I250000J0D01*
G01*
X175501400Y-171507900D01*
G75*
G02*
X175751400Y-171757900I0J-250000D01*
G01*
X175751400Y-172707900D01*
G75*
G02*
X175501400Y-172957900I-250000J0D01*
G01*
X175001400Y-172957900D01*
G75*
G02*
X174751400Y-172707900I0J250000D01*
G01*
G37*
%TD*%
%TO.C,D18*%
X177788800Y-163439600D03*
X177788800Y-166739600D03*
%TD*%
%TO.C,LC17*%
G36*
G01*
X138422500Y-162364800D02*
X139372500Y-162364800D01*
G75*
G02*
X139622500Y-162614800I0J-250000D01*
G01*
X139622500Y-163114800D01*
G75*
G02*
X139372500Y-163364800I-250000J0D01*
G01*
X138422500Y-163364800D01*
G75*
G02*
X138172500Y-163114800I0J250000D01*
G01*
X138172500Y-162614800D01*
G75*
G02*
X138422500Y-162364800I250000J0D01*
G01*
G37*
G36*
G01*
X138422500Y-160464800D02*
X139372500Y-160464800D01*
G75*
G02*
X139622500Y-160714800I0J-250000D01*
G01*
X139622500Y-161214800D01*
G75*
G02*
X139372500Y-161464800I-250000J0D01*
G01*
X138422500Y-161464800D01*
G75*
G02*
X138172500Y-161214800I0J250000D01*
G01*
X138172500Y-160714800D01*
G75*
G02*
X138422500Y-160464800I250000J0D01*
G01*
G37*
%TD*%
%TO.C,LC10*%
G36*
G01*
X133947900Y-134610300D02*
X133947900Y-133660300D01*
G75*
G02*
X134197900Y-133410300I250000J0D01*
G01*
X134697900Y-133410300D01*
G75*
G02*
X134947900Y-133660300I0J-250000D01*
G01*
X134947900Y-134610300D01*
G75*
G02*
X134697900Y-134860300I-250000J0D01*
G01*
X134197900Y-134860300D01*
G75*
G02*
X133947900Y-134610300I0J250000D01*
G01*
G37*
G36*
G01*
X132047900Y-134610300D02*
X132047900Y-133660300D01*
G75*
G02*
X132297900Y-133410300I250000J0D01*
G01*
X132797900Y-133410300D01*
G75*
G02*
X133047900Y-133660300I0J-250000D01*
G01*
X133047900Y-134610300D01*
G75*
G02*
X132797900Y-134860300I-250000J0D01*
G01*
X132297900Y-134860300D01*
G75*
G02*
X132047900Y-134610300I0J250000D01*
G01*
G37*
%TD*%
%TO.C,LC9*%
G36*
G01*
X114899100Y-134610300D02*
X114899100Y-133660300D01*
G75*
G02*
X115149100Y-133410300I250000J0D01*
G01*
X115649100Y-133410300D01*
G75*
G02*
X115899100Y-133660300I0J-250000D01*
G01*
X115899100Y-134610300D01*
G75*
G02*
X115649100Y-134860300I-250000J0D01*
G01*
X115149100Y-134860300D01*
G75*
G02*
X114899100Y-134610300I0J250000D01*
G01*
G37*
G36*
G01*
X112999100Y-134610300D02*
X112999100Y-133660300D01*
G75*
G02*
X113249100Y-133410300I250000J0D01*
G01*
X113749100Y-133410300D01*
G75*
G02*
X113999100Y-133660300I0J-250000D01*
G01*
X113999100Y-134610300D01*
G75*
G02*
X113749100Y-134860300I-250000J0D01*
G01*
X113249100Y-134860300D01*
G75*
G02*
X112999100Y-134610300I0J250000D01*
G01*
G37*
%TD*%
%TO.C,LC4*%
G36*
G01*
X95694000Y-115561500D02*
X95694000Y-114611500D01*
G75*
G02*
X95944000Y-114361500I250000J0D01*
G01*
X96444000Y-114361500D01*
G75*
G02*
X96694000Y-114611500I0J-250000D01*
G01*
X96694000Y-115561500D01*
G75*
G02*
X96444000Y-115811500I-250000J0D01*
G01*
X95944000Y-115811500D01*
G75*
G02*
X95694000Y-115561500I0J250000D01*
G01*
G37*
G36*
G01*
X93794000Y-115561500D02*
X93794000Y-114611500D01*
G75*
G02*
X94044000Y-114361500I250000J0D01*
G01*
X94544000Y-114361500D01*
G75*
G02*
X94794000Y-114611500I0J-250000D01*
G01*
X94794000Y-115561500D01*
G75*
G02*
X94544000Y-115811500I-250000J0D01*
G01*
X94044000Y-115811500D01*
G75*
G02*
X93794000Y-115561500I0J250000D01*
G01*
G37*
%TD*%
%TO.C,LC3*%
G36*
G01*
X133947900Y-96512700D02*
X133947900Y-95562700D01*
G75*
G02*
X134197900Y-95312700I250000J0D01*
G01*
X134697900Y-95312700D01*
G75*
G02*
X134947900Y-95562700I0J-250000D01*
G01*
X134947900Y-96512700D01*
G75*
G02*
X134697900Y-96762700I-250000J0D01*
G01*
X134197900Y-96762700D01*
G75*
G02*
X133947900Y-96512700I0J250000D01*
G01*
G37*
G36*
G01*
X132047900Y-96512700D02*
X132047900Y-95562700D01*
G75*
G02*
X132297900Y-95312700I250000J0D01*
G01*
X132797900Y-95312700D01*
G75*
G02*
X133047900Y-95562700I0J-250000D01*
G01*
X133047900Y-96512700D01*
G75*
G02*
X132797900Y-96762700I-250000J0D01*
G01*
X132297900Y-96762700D01*
G75*
G02*
X132047900Y-96512700I0J250000D01*
G01*
G37*
%TD*%
%TO.C,LC2*%
G36*
G01*
X114899100Y-96512700D02*
X114899100Y-95562700D01*
G75*
G02*
X115149100Y-95312700I250000J0D01*
G01*
X115649100Y-95312700D01*
G75*
G02*
X115899100Y-95562700I0J-250000D01*
G01*
X115899100Y-96512700D01*
G75*
G02*
X115649100Y-96762700I-250000J0D01*
G01*
X115149100Y-96762700D01*
G75*
G02*
X114899100Y-96512700I0J250000D01*
G01*
G37*
G36*
G01*
X112999100Y-96512700D02*
X112999100Y-95562700D01*
G75*
G02*
X113249100Y-95312700I250000J0D01*
G01*
X113749100Y-95312700D01*
G75*
G02*
X113999100Y-95562700I0J-250000D01*
G01*
X113999100Y-96512700D01*
G75*
G02*
X113749100Y-96762700I-250000J0D01*
G01*
X113249100Y-96762700D01*
G75*
G02*
X112999100Y-96512700I0J250000D01*
G01*
G37*
%TD*%
D14*
%TO.C,D17*%
X147690800Y-164295900D03*
X144390800Y-164295900D03*
%TD*%
D15*
%TO.C,D10*%
X136516400Y-121373500D03*
X136516400Y-124673500D03*
%TD*%
%TO.C,D9*%
X115880200Y-125342000D03*
X115880200Y-128642000D03*
%TD*%
%TO.C,D4*%
X96831400Y-106293200D03*
X96831400Y-109593200D03*
%TD*%
%TO.C,D3*%
X134929000Y-87244400D03*
X134929000Y-90544400D03*
%TD*%
%TO.C,D2*%
X115880200Y-87244400D03*
X115880200Y-90544400D03*
%TD*%
D12*
%TO.C,MX14*%
X129592000Y-151840800D03*
X129592000Y-150340800D03*
X124392000Y-151840800D03*
X124392000Y-150340800D03*
D13*
X133007000Y-140960800D03*
X119582000Y-143500800D03*
%TD*%
D12*
%TO.C,MX13*%
X110543200Y-151840800D03*
X110543200Y-150340800D03*
X105343200Y-151840800D03*
X105343200Y-150340800D03*
D13*
X113958200Y-140960800D03*
X100533200Y-143500800D03*
%TD*%
D12*
%TO.C,MX12*%
X91494400Y-151840800D03*
X91494400Y-150340800D03*
X86294400Y-151840800D03*
X86294400Y-150340800D03*
D13*
X94909400Y-140960800D03*
X81484400Y-143500800D03*
%TD*%
D12*
%TO.C,MX6*%
X129592000Y-113743200D03*
X129592000Y-112243200D03*
X124392000Y-113743200D03*
X124392000Y-112243200D03*
D13*
X133007000Y-102863200D03*
X119582000Y-105403200D03*
%TD*%
D12*
%TO.C,MX5*%
X110543200Y-113743200D03*
X110543200Y-112243200D03*
X105343200Y-113743200D03*
X105343200Y-112243200D03*
D13*
X113958200Y-102863200D03*
X100533200Y-105403200D03*
%TD*%
%TO.C,R1*%
G36*
G01*
X83788502Y-92462900D02*
X82888498Y-92462900D01*
G75*
G02*
X82638500Y-92212902I0J249998D01*
G01*
X82638500Y-91687898D01*
G75*
G02*
X82888498Y-91437900I249998J0D01*
G01*
X83788502Y-91437900D01*
G75*
G02*
X84038500Y-91687898I0J-249998D01*
G01*
X84038500Y-92212902D01*
G75*
G02*
X83788502Y-92462900I-249998J0D01*
G01*
G37*
G36*
G01*
X83788502Y-94287900D02*
X82888498Y-94287900D01*
G75*
G02*
X82638500Y-94037902I0J249998D01*
G01*
X82638500Y-93512898D01*
G75*
G02*
X82888498Y-93262900I249998J0D01*
G01*
X83788502Y-93262900D01*
G75*
G02*
X84038500Y-93512898I0J-249998D01*
G01*
X84038500Y-94037902D01*
G75*
G02*
X83788502Y-94287900I-249998J0D01*
G01*
G37*
%TD*%
%TO.C,LC15*%
G36*
G01*
X91619200Y-157471300D02*
X91619200Y-158421300D01*
G75*
G02*
X91369200Y-158671300I-250000J0D01*
G01*
X90869200Y-158671300D01*
G75*
G02*
X90619200Y-158421300I0J250000D01*
G01*
X90619200Y-157471300D01*
G75*
G02*
X90869200Y-157221300I250000J0D01*
G01*
X91369200Y-157221300D01*
G75*
G02*
X91619200Y-157471300I0J-250000D01*
G01*
G37*
G36*
G01*
X93519200Y-157471300D02*
X93519200Y-158421300D01*
G75*
G02*
X93269200Y-158671300I-250000J0D01*
G01*
X92769200Y-158671300D01*
G75*
G02*
X92519200Y-158421300I0J250000D01*
G01*
X92519200Y-157471300D01*
G75*
G02*
X92769200Y-157221300I250000J0D01*
G01*
X93269200Y-157221300D01*
G75*
G02*
X93519200Y-157471300I0J-250000D01*
G01*
G37*
%TD*%
%TO.C,LC14*%
G36*
G01*
X133791600Y-153659100D02*
X133791600Y-152709100D01*
G75*
G02*
X134041600Y-152459100I250000J0D01*
G01*
X134541600Y-152459100D01*
G75*
G02*
X134791600Y-152709100I0J-250000D01*
G01*
X134791600Y-153659100D01*
G75*
G02*
X134541600Y-153909100I-250000J0D01*
G01*
X134041600Y-153909100D01*
G75*
G02*
X133791600Y-153659100I0J250000D01*
G01*
G37*
G36*
G01*
X131891600Y-153659100D02*
X131891600Y-152709100D01*
G75*
G02*
X132141600Y-152459100I250000J0D01*
G01*
X132641600Y-152459100D01*
G75*
G02*
X132891600Y-152709100I0J-250000D01*
G01*
X132891600Y-153659100D01*
G75*
G02*
X132641600Y-153909100I-250000J0D01*
G01*
X132141600Y-153909100D01*
G75*
G02*
X131891600Y-153659100I0J250000D01*
G01*
G37*
%TD*%
%TO.C,LC13*%
G36*
G01*
X114742800Y-153659100D02*
X114742800Y-152709100D01*
G75*
G02*
X114992800Y-152459100I250000J0D01*
G01*
X115492800Y-152459100D01*
G75*
G02*
X115742800Y-152709100I0J-250000D01*
G01*
X115742800Y-153659100D01*
G75*
G02*
X115492800Y-153909100I-250000J0D01*
G01*
X114992800Y-153909100D01*
G75*
G02*
X114742800Y-153659100I0J250000D01*
G01*
G37*
G36*
G01*
X112842800Y-153659100D02*
X112842800Y-152709100D01*
G75*
G02*
X113092800Y-152459100I250000J0D01*
G01*
X113592800Y-152459100D01*
G75*
G02*
X113842800Y-152709100I0J-250000D01*
G01*
X113842800Y-153659100D01*
G75*
G02*
X113592800Y-153909100I-250000J0D01*
G01*
X113092800Y-153909100D01*
G75*
G02*
X112842800Y-153659100I0J250000D01*
G01*
G37*
%TD*%
%TO.C,LC12*%
G36*
G01*
X95850300Y-153659100D02*
X95850300Y-152709100D01*
G75*
G02*
X96100300Y-152459100I250000J0D01*
G01*
X96600300Y-152459100D01*
G75*
G02*
X96850300Y-152709100I0J-250000D01*
G01*
X96850300Y-153659100D01*
G75*
G02*
X96600300Y-153909100I-250000J0D01*
G01*
X96100300Y-153909100D01*
G75*
G02*
X95850300Y-153659100I0J250000D01*
G01*
G37*
G36*
G01*
X93950300Y-153659100D02*
X93950300Y-152709100D01*
G75*
G02*
X94200300Y-152459100I250000J0D01*
G01*
X94700300Y-152459100D01*
G75*
G02*
X94950300Y-152709100I0J-250000D01*
G01*
X94950300Y-153659100D01*
G75*
G02*
X94700300Y-153909100I-250000J0D01*
G01*
X94200300Y-153909100D01*
G75*
G02*
X93950300Y-153659100I0J250000D01*
G01*
G37*
%TD*%
%TO.C,LC8*%
G36*
G01*
X95850300Y-134610300D02*
X95850300Y-133660300D01*
G75*
G02*
X96100300Y-133410300I250000J0D01*
G01*
X96600300Y-133410300D01*
G75*
G02*
X96850300Y-133660300I0J-250000D01*
G01*
X96850300Y-134610300D01*
G75*
G02*
X96600300Y-134860300I-250000J0D01*
G01*
X96100300Y-134860300D01*
G75*
G02*
X95850300Y-134610300I0J250000D01*
G01*
G37*
G36*
G01*
X93950300Y-134610300D02*
X93950300Y-133660300D01*
G75*
G02*
X94200300Y-133410300I250000J0D01*
G01*
X94700300Y-133410300D01*
G75*
G02*
X94950300Y-133660300I0J-250000D01*
G01*
X94950300Y-134610300D01*
G75*
G02*
X94700300Y-134860300I-250000J0D01*
G01*
X94200300Y-134860300D01*
G75*
G02*
X93950300Y-134610300I0J250000D01*
G01*
G37*
%TD*%
%TO.C,LC7*%
G36*
G01*
X152071700Y-92412900D02*
X151121700Y-92412900D01*
G75*
G02*
X150871700Y-92162900I0J250000D01*
G01*
X150871700Y-91662900D01*
G75*
G02*
X151121700Y-91412900I250000J0D01*
G01*
X152071700Y-91412900D01*
G75*
G02*
X152321700Y-91662900I0J-250000D01*
G01*
X152321700Y-92162900D01*
G75*
G02*
X152071700Y-92412900I-250000J0D01*
G01*
G37*
G36*
G01*
X152071700Y-94312900D02*
X151121700Y-94312900D01*
G75*
G02*
X150871700Y-94062900I0J250000D01*
G01*
X150871700Y-93562900D01*
G75*
G02*
X151121700Y-93312900I250000J0D01*
G01*
X152071700Y-93312900D01*
G75*
G02*
X152321700Y-93562900I0J-250000D01*
G01*
X152321700Y-94062900D01*
G75*
G02*
X152071700Y-94312900I-250000J0D01*
G01*
G37*
%TD*%
%TO.C,LC6*%
G36*
G01*
X133791600Y-115561500D02*
X133791600Y-114611500D01*
G75*
G02*
X134041600Y-114361500I250000J0D01*
G01*
X134541600Y-114361500D01*
G75*
G02*
X134791600Y-114611500I0J-250000D01*
G01*
X134791600Y-115561500D01*
G75*
G02*
X134541600Y-115811500I-250000J0D01*
G01*
X134041600Y-115811500D01*
G75*
G02*
X133791600Y-115561500I0J250000D01*
G01*
G37*
G36*
G01*
X131891600Y-115561500D02*
X131891600Y-114611500D01*
G75*
G02*
X132141600Y-114361500I250000J0D01*
G01*
X132641600Y-114361500D01*
G75*
G02*
X132891600Y-114611500I0J-250000D01*
G01*
X132891600Y-115561500D01*
G75*
G02*
X132641600Y-115811500I-250000J0D01*
G01*
X132141600Y-115811500D01*
G75*
G02*
X131891600Y-115561500I0J250000D01*
G01*
G37*
%TD*%
%TO.C,LC5*%
G36*
G01*
X114742800Y-115561500D02*
X114742800Y-114611500D01*
G75*
G02*
X114992800Y-114361500I250000J0D01*
G01*
X115492800Y-114361500D01*
G75*
G02*
X115742800Y-114611500I0J-250000D01*
G01*
X115742800Y-115561500D01*
G75*
G02*
X115492800Y-115811500I-250000J0D01*
G01*
X114992800Y-115811500D01*
G75*
G02*
X114742800Y-115561500I0J250000D01*
G01*
G37*
G36*
G01*
X112842800Y-115561500D02*
X112842800Y-114611500D01*
G75*
G02*
X113092800Y-114361500I250000J0D01*
G01*
X113592800Y-114361500D01*
G75*
G02*
X113842800Y-114611500I0J-250000D01*
G01*
X113842800Y-115561500D01*
G75*
G02*
X113592800Y-115811500I-250000J0D01*
G01*
X113092800Y-115811500D01*
G75*
G02*
X112842800Y-115561500I0J250000D01*
G01*
G37*
%TD*%
%TO.C,LC1*%
G36*
G01*
X94925300Y-93206600D02*
X93975300Y-93206600D01*
G75*
G02*
X93725300Y-92956600I0J250000D01*
G01*
X93725300Y-92456600D01*
G75*
G02*
X93975300Y-92206600I250000J0D01*
G01*
X94925300Y-92206600D01*
G75*
G02*
X95175300Y-92456600I0J-250000D01*
G01*
X95175300Y-92956600D01*
G75*
G02*
X94925300Y-93206600I-250000J0D01*
G01*
G37*
G36*
G01*
X94925300Y-95106600D02*
X93975300Y-95106600D01*
G75*
G02*
X93725300Y-94856600I0J250000D01*
G01*
X93725300Y-94356600D01*
G75*
G02*
X93975300Y-94106600I250000J0D01*
G01*
X94925300Y-94106600D01*
G75*
G02*
X95175300Y-94356600I0J-250000D01*
G01*
X95175300Y-94856600D01*
G75*
G02*
X94925300Y-95106600I-250000J0D01*
G01*
G37*
%TD*%
D15*
%TO.C,D15*%
X90481800Y-166739600D03*
X90481800Y-163439600D03*
%TD*%
D14*
%TO.C,D14*%
X136391200Y-137310100D03*
X139691200Y-137310100D03*
%TD*%
D15*
%TO.C,D13*%
X115880200Y-144390800D03*
X115880200Y-147690800D03*
%TD*%
%TO.C,D12*%
X96831400Y-144390800D03*
X96831400Y-147690800D03*
%TD*%
%TO.C,D8*%
X96831400Y-125342000D03*
X96831400Y-128642000D03*
%TD*%
%TO.C,D7*%
X153977800Y-87244400D03*
X153977800Y-90544400D03*
%TD*%
%TO.C,D5*%
X115880200Y-106293200D03*
X115880200Y-109593200D03*
%TD*%
%TO.C,D1*%
X96831400Y-87244400D03*
X96831400Y-90544400D03*
%TD*%
D16*
%TO.C,SW1*%
X176126600Y-74870400D03*
X169926600Y-71170400D03*
X176126600Y-71170400D03*
X169926600Y-74870400D03*
%TD*%
%TO.C,R2*%
G36*
G01*
X176595100Y-77332598D02*
X176595100Y-78232602D01*
G75*
G02*
X176345102Y-78482600I-249998J0D01*
G01*
X175820098Y-78482600D01*
G75*
G02*
X175570100Y-78232602I0J249998D01*
G01*
X175570100Y-77332598D01*
G75*
G02*
X175820098Y-77082600I249998J0D01*
G01*
X176345102Y-77082600D01*
G75*
G02*
X176595100Y-77332598I0J-249998D01*
G01*
G37*
G36*
G01*
X178420100Y-77332598D02*
X178420100Y-78232602D01*
G75*
G02*
X178170102Y-78482600I-249998J0D01*
G01*
X177645098Y-78482600D01*
G75*
G02*
X177395100Y-78232602I0J249998D01*
G01*
X177395100Y-77332598D01*
G75*
G02*
X177645098Y-77082600I249998J0D01*
G01*
X178170102Y-77082600D01*
G75*
G02*
X178420100Y-77332598I0J-249998D01*
G01*
G37*
%TD*%
M02*
