%TF.GenerationSoftware,KiCad,Pcbnew,(5.1.10)-1*%
%TF.CreationDate,2021-11-21T17:13:45-05:00*%
%TF.ProjectId,numpad,6e756d70-6164-42e6-9b69-6361645f7063,rev?*%
%TF.SameCoordinates,Original*%
%TF.FileFunction,Profile,NP*%
%FSLAX46Y46*%
G04 Gerber Fmt 4.6, Leading zero omitted, Abs format (unit mm)*
G04 Created by KiCad (PCBNEW (5.1.10)-1) date 2021-11-21 17:13:45*
%MOMM*%
%LPD*%
G01*
G04 APERTURE LIST*
%TA.AperFunction,Profile*%
%ADD10C,0.050000*%
%TD*%
G04 APERTURE END LIST*
D10*
X184138400Y-172232900D02*
X184138400Y-63496000D01*
X81751100Y-175407700D02*
X180963600Y-175407700D01*
X78576300Y-81751100D02*
X78576300Y-172232900D01*
X133341600Y-78576300D02*
X81751100Y-78576300D01*
X136516400Y-63496000D02*
X136516400Y-75401500D01*
X139691200Y-60321200D02*
X180963600Y-60321200D01*
X180963600Y-60321200D02*
G75*
G02*
X184138400Y-63496000I0J-3174800D01*
G01*
X136516400Y-63496000D02*
G75*
G02*
X139691200Y-60321200I3174800J0D01*
G01*
X136516400Y-75401500D02*
G75*
G02*
X133341600Y-78576300I-3174800J0D01*
G01*
X184138400Y-172232900D02*
G75*
G02*
X180963600Y-175407700I-3174800J0D01*
G01*
X81751100Y-175407700D02*
G75*
G02*
X78576300Y-172232900I0J3174800D01*
G01*
X78576300Y-81751100D02*
G75*
G02*
X81751100Y-78576300I3174800J0D01*
G01*
%TO.C,MX17*%
X142490800Y-153865200D02*
X142490800Y-157265200D01*
X142490800Y-157265200D02*
X139490800Y-157265200D01*
X139490800Y-157265200D02*
X139490800Y-153865200D01*
X139490800Y-153865200D02*
X142490800Y-153865200D01*
%TO.C,MX11*%
X142490800Y-115767600D02*
X142490800Y-119167600D01*
X142490800Y-119167600D02*
X139490800Y-119167600D01*
X139490800Y-119167600D02*
X139490800Y-115767600D01*
X139490800Y-115767600D02*
X142490800Y-115767600D01*
%TO.C,MX15*%
X100118800Y-161539600D02*
X96718800Y-161539600D01*
X96718800Y-161539600D02*
X96718800Y-158539600D01*
X96718800Y-158539600D02*
X100118800Y-158539600D01*
X100118800Y-158539600D02*
X100118800Y-161539600D01*
%TO.C,MX18*%
X168151800Y-168639600D02*
X171551800Y-168639600D01*
X171551800Y-168639600D02*
X171551800Y-171639600D01*
X171551800Y-171639600D02*
X168151800Y-171639600D01*
X168151800Y-171639600D02*
X168151800Y-168639600D01*
%TO.C,MX16*%
X125292000Y-168639600D02*
X128692000Y-168639600D01*
X128692000Y-168639600D02*
X128692000Y-171639600D01*
X128692000Y-171639600D02*
X125292000Y-171639600D01*
X125292000Y-171639600D02*
X125292000Y-168639600D01*
%TO.C,MX10*%
X125292000Y-130542000D02*
X128692000Y-130542000D01*
X128692000Y-130542000D02*
X128692000Y-133542000D01*
X128692000Y-133542000D02*
X125292000Y-133542000D01*
X125292000Y-133542000D02*
X125292000Y-130542000D01*
%TO.C,MX9*%
X106243200Y-130542000D02*
X109643200Y-130542000D01*
X109643200Y-130542000D02*
X109643200Y-133542000D01*
X109643200Y-133542000D02*
X106243200Y-133542000D01*
X106243200Y-133542000D02*
X106243200Y-130542000D01*
%TO.C,MX8*%
X87194400Y-130542000D02*
X90594400Y-130542000D01*
X90594400Y-130542000D02*
X90594400Y-133542000D01*
X90594400Y-133542000D02*
X87194400Y-133542000D01*
X87194400Y-133542000D02*
X87194400Y-130542000D01*
%TO.C,MX7*%
X144340800Y-92444400D02*
X147740800Y-92444400D01*
X147740800Y-92444400D02*
X147740800Y-95444400D01*
X147740800Y-95444400D02*
X144340800Y-95444400D01*
X144340800Y-95444400D02*
X144340800Y-92444400D01*
%TO.C,MX3*%
X125292000Y-92444400D02*
X128692000Y-92444400D01*
X128692000Y-92444400D02*
X128692000Y-95444400D01*
X128692000Y-95444400D02*
X125292000Y-95444400D01*
X125292000Y-95444400D02*
X125292000Y-92444400D01*
%TO.C,MX2*%
X106243200Y-92444400D02*
X109643200Y-92444400D01*
X109643200Y-92444400D02*
X109643200Y-95444400D01*
X109643200Y-95444400D02*
X106243200Y-95444400D01*
X106243200Y-95444400D02*
X106243200Y-92444400D01*
%TO.C,MX1*%
X87194400Y-92444400D02*
X90594400Y-92444400D01*
X90594400Y-92444400D02*
X90594400Y-95444400D01*
X90594400Y-95444400D02*
X87194400Y-95444400D01*
X87194400Y-95444400D02*
X87194400Y-92444400D01*
%TO.C,MX4*%
X87194400Y-111493200D02*
X90594400Y-111493200D01*
X90594400Y-111493200D02*
X90594400Y-114493200D01*
X90594400Y-114493200D02*
X87194400Y-114493200D01*
X87194400Y-114493200D02*
X87194400Y-111493200D01*
%TO.C,MX14*%
X125292000Y-149590800D02*
X128692000Y-149590800D01*
X128692000Y-149590800D02*
X128692000Y-152590800D01*
X128692000Y-152590800D02*
X125292000Y-152590800D01*
X125292000Y-152590800D02*
X125292000Y-149590800D01*
%TO.C,MX13*%
X106243200Y-149590800D02*
X109643200Y-149590800D01*
X109643200Y-149590800D02*
X109643200Y-152590800D01*
X109643200Y-152590800D02*
X106243200Y-152590800D01*
X106243200Y-152590800D02*
X106243200Y-149590800D01*
%TO.C,MX12*%
X87194400Y-149590800D02*
X90594400Y-149590800D01*
X90594400Y-149590800D02*
X90594400Y-152590800D01*
X90594400Y-152590800D02*
X87194400Y-152590800D01*
X87194400Y-152590800D02*
X87194400Y-149590800D01*
%TO.C,MX6*%
X125292000Y-111493200D02*
X128692000Y-111493200D01*
X128692000Y-111493200D02*
X128692000Y-114493200D01*
X128692000Y-114493200D02*
X125292000Y-114493200D01*
X125292000Y-114493200D02*
X125292000Y-111493200D01*
%TO.C,MX5*%
X106243200Y-111493200D02*
X109643200Y-111493200D01*
X109643200Y-111493200D02*
X109643200Y-114493200D01*
X109643200Y-114493200D02*
X106243200Y-114493200D01*
X106243200Y-114493200D02*
X106243200Y-111493200D01*
%TD*%
M02*
