%FSLAX45Y45*%
G04 Gerber Fmt 4.5, Leading zero omitted, Abs format (unit mm)*
G04 Created by KiCad (PCBNEW (5.1.10)-1) date 2021-11-21 17:13:47*
%MOMM*%
%LPD*%
G01*
G04 APERTURE LIST*
%TA.AperFunction,Profile*%
%ADD10C,0.050000*%
%TD*%
%ADD11C,0.200000*%
%ADD12C,0.300000*%
G04 APERTURE END LIST*
D10*
X18413840Y-17223290D02*
X18413840Y-6349600D01*
X8175110Y-17540770D02*
X18096360Y-17540770D01*
X7857630Y-8175110D02*
X7857630Y-17223290D01*
X13334160Y-7857630D02*
X8175110Y-7857630D01*
X13651640Y-6349600D02*
X13651640Y-7540150D01*
X13969120Y-6032120D02*
X18096360Y-6032120D01*
X18096360Y-6032120D02*
G75*
G02*
X18413840Y-6349600I0J-317480D01*
G01*
X13651640Y-6349600D02*
G75*
G02*
X13969120Y-6032120I317480J0D01*
G01*
X13651640Y-7540150D02*
G75*
G02*
X13334160Y-7857630I-317480J0D01*
G01*
X18413840Y-17223290D02*
G75*
G02*
X18096360Y-17540770I-317480J0D01*
G01*
X8175110Y-17540770D02*
G75*
G02*
X7857630Y-17223290I0J317480D01*
G01*
X7857630Y-8175110D02*
G75*
G02*
X8175110Y-7857630I317480J0D01*
G01*
D11*
X8075740Y-8075740D02*
X8115740Y-8115740D01*
X8115740Y-8075740D02*
X8075740Y-8115740D01*
X8075740Y-8313850D02*
X8115740Y-8353850D01*
X8115740Y-8313850D02*
X8075740Y-8353850D01*
X8075740Y-10218730D02*
X8115740Y-10258730D01*
X8115740Y-10218730D02*
X8075740Y-10258730D01*
X8075740Y-12123610D02*
X8115740Y-12163610D01*
X8115740Y-12123610D02*
X8075740Y-12163610D01*
X8075740Y-14028490D02*
X8115740Y-14068490D01*
X8115740Y-14028490D02*
X8075740Y-14068490D01*
X8075740Y-17282660D02*
X8115740Y-17322660D01*
X8115740Y-17282660D02*
X8075740Y-17322660D01*
X8234480Y-9583770D02*
X8274480Y-9623770D01*
X8274480Y-9583770D02*
X8234480Y-9623770D01*
X8234480Y-11647390D02*
X8274480Y-11687390D01*
X8274480Y-11647390D02*
X8234480Y-11687390D01*
X8234480Y-13393530D02*
X8274480Y-13433530D01*
X8274480Y-13393530D02*
X8234480Y-13433530D01*
X8234480Y-15457150D02*
X8274480Y-15497150D01*
X8274480Y-15457150D02*
X8234480Y-15497150D01*
X8393220Y-8234480D02*
X8433220Y-8274480D01*
X8433220Y-8234480D02*
X8393220Y-8274480D01*
X8393220Y-10059990D02*
X8433220Y-10099990D01*
X8433220Y-10059990D02*
X8393220Y-10099990D01*
X8393220Y-11091800D02*
X8433220Y-11131800D01*
X8433220Y-11091800D02*
X8393220Y-11131800D01*
X8393220Y-12996680D02*
X8433220Y-13036680D01*
X8433220Y-12996680D02*
X8393220Y-13036680D01*
X8393220Y-13869750D02*
X8433220Y-13909750D01*
X8433220Y-13869750D02*
X8393220Y-13909750D01*
X8393220Y-14901560D02*
X8433220Y-14941560D01*
X8433220Y-14901560D02*
X8393220Y-14941560D01*
X8551960Y-9028180D02*
X8591960Y-9068180D01*
X8591960Y-9028180D02*
X8551960Y-9068180D01*
X8948810Y-16885810D02*
X8988810Y-16925810D01*
X8988810Y-16885810D02*
X8948810Y-16925810D01*
X9186920Y-11488650D02*
X9226920Y-11528650D01*
X9226920Y-11488650D02*
X9186920Y-11528650D01*
X9266290Y-15298410D02*
X9306290Y-15338410D01*
X9306290Y-15298410D02*
X9266290Y-15338410D01*
X9345660Y-16727070D02*
X9385660Y-16767070D01*
X9385660Y-16727070D02*
X9345660Y-16767070D01*
X9821880Y-9583770D02*
X9861880Y-9623770D01*
X9861880Y-9583770D02*
X9821880Y-9623770D01*
X9821880Y-11488650D02*
X9861880Y-11528650D01*
X9861880Y-11488650D02*
X9821880Y-11528650D01*
X9821880Y-13393530D02*
X9861880Y-13433530D01*
X9861880Y-13393530D02*
X9821880Y-13433530D01*
X9821880Y-15298410D02*
X9861880Y-15338410D01*
X9861880Y-15298410D02*
X9821880Y-15338410D01*
X9980620Y-8313850D02*
X10020620Y-8353850D01*
X10020620Y-8313850D02*
X9980620Y-8353850D01*
X9980620Y-10218730D02*
X10020620Y-10258730D01*
X10020620Y-10218730D02*
X9980620Y-10258730D01*
X9980620Y-12123610D02*
X10020620Y-12163610D01*
X10020620Y-12123610D02*
X9980620Y-12163610D01*
X9980620Y-14028490D02*
X10020620Y-14068490D01*
X10020620Y-14028490D02*
X9980620Y-14068490D01*
X10298100Y-9345660D02*
X10338100Y-9385660D01*
X10338100Y-9345660D02*
X10298100Y-9385660D01*
X10298100Y-11250540D02*
X10338100Y-11290540D01*
X10338100Y-11250540D02*
X10298100Y-11290540D01*
X10298100Y-13155420D02*
X10338100Y-13195420D01*
X10338100Y-13155420D02*
X10298100Y-13195420D01*
X10298100Y-15060300D02*
X10338100Y-15100300D01*
X10338100Y-15060300D02*
X10298100Y-15100300D01*
X10298100Y-15615890D02*
X10338100Y-15655890D01*
X10338100Y-15615890D02*
X10298100Y-15655890D01*
X10456840Y-17044550D02*
X10496840Y-17084550D01*
X10496840Y-17044550D02*
X10456840Y-17084550D01*
X10615580Y-16012740D02*
X10655580Y-16052740D01*
X10655580Y-16012740D02*
X10615580Y-16052740D01*
X10694950Y-15536520D02*
X10734950Y-15576520D01*
X10734950Y-15536520D02*
X10694950Y-15576520D01*
X11726760Y-9583770D02*
X11766760Y-9623770D01*
X11766760Y-9583770D02*
X11726760Y-9623770D01*
X11726760Y-11488650D02*
X11766760Y-11528650D01*
X11766760Y-11488650D02*
X11726760Y-11528650D01*
X11726760Y-13393530D02*
X11766760Y-13433530D01*
X11766760Y-13393530D02*
X11726760Y-13433530D01*
X11726760Y-15298410D02*
X11766760Y-15338410D01*
X11766760Y-15298410D02*
X11726760Y-15338410D01*
X11885500Y-8313850D02*
X11925500Y-8353850D01*
X11925500Y-8313850D02*
X11885500Y-8353850D01*
X11885500Y-10218730D02*
X11925500Y-10258730D01*
X11925500Y-10218730D02*
X11885500Y-10258730D01*
X11885500Y-12123610D02*
X11925500Y-12163610D01*
X11925500Y-12123610D02*
X11885500Y-12163610D01*
X11885500Y-14028490D02*
X11925500Y-14068490D01*
X11925500Y-14028490D02*
X11885500Y-14068490D01*
X11885500Y-16488960D02*
X11925500Y-16528960D01*
X11925500Y-16488960D02*
X11885500Y-16528960D01*
X12044240Y-15298410D02*
X12084240Y-15338410D01*
X12084240Y-15298410D02*
X12044240Y-15338410D01*
X12044240Y-16885810D02*
X12084240Y-16925810D01*
X12084240Y-16885810D02*
X12044240Y-16925810D01*
X12202980Y-9345660D02*
X12242980Y-9385660D01*
X12242980Y-9345660D02*
X12202980Y-9385660D01*
X12202980Y-11250540D02*
X12242980Y-11290540D01*
X12242980Y-11250540D02*
X12202980Y-11290540D01*
X12202980Y-13155420D02*
X12242980Y-13195420D01*
X12242980Y-13155420D02*
X12202980Y-13195420D01*
X12202980Y-15060300D02*
X12242980Y-15100300D01*
X12242980Y-15060300D02*
X12202980Y-15100300D01*
X12361720Y-14663450D02*
X12401720Y-14703450D01*
X12401720Y-14663450D02*
X12361720Y-14703450D01*
X12679200Y-17282660D02*
X12719200Y-17322660D01*
X12719200Y-17282660D02*
X12679200Y-17322660D01*
X13076050Y-16171480D02*
X13116050Y-16211480D01*
X13116050Y-16171480D02*
X13076050Y-16211480D01*
X13155420Y-16885810D02*
X13195420Y-16925810D01*
X13195420Y-16885810D02*
X13155420Y-16925810D01*
X13234790Y-15139670D02*
X13274790Y-15179670D01*
X13274790Y-15139670D02*
X13234790Y-15179670D01*
X13314160Y-11726760D02*
X13354160Y-11766760D01*
X13354160Y-11726760D02*
X13314160Y-11766760D01*
X13314160Y-13711010D02*
X13354160Y-13751010D01*
X13354160Y-13711010D02*
X13314160Y-13751010D01*
X13393530Y-12917310D02*
X13433530Y-12957310D01*
X13433530Y-12917310D02*
X13393530Y-12957310D01*
X13393530Y-15060300D02*
X13433530Y-15100300D01*
X13433530Y-15060300D02*
X13393530Y-15100300D01*
X13552270Y-7971437D02*
X13592270Y-8011437D01*
X13592270Y-7971437D02*
X13552270Y-8011437D01*
X13552270Y-8313850D02*
X13592270Y-8353850D01*
X13592270Y-8313850D02*
X13552270Y-8353850D01*
X13631640Y-9583770D02*
X13671640Y-9623770D01*
X13671640Y-9583770D02*
X13631640Y-9623770D01*
X13631640Y-11488650D02*
X13671640Y-11528650D01*
X13671640Y-11488650D02*
X13631640Y-11528650D01*
X13631640Y-13234790D02*
X13671640Y-13274790D01*
X13671640Y-13234790D02*
X13631640Y-13274790D01*
X13631640Y-13949120D02*
X13671640Y-13989120D01*
X13671640Y-13949120D02*
X13631640Y-13989120D01*
X13711010Y-13393530D02*
X13751010Y-13433530D01*
X13751010Y-13393530D02*
X13711010Y-13433530D01*
X13711010Y-15060300D02*
X13751010Y-15100300D01*
X13751010Y-15060300D02*
X13711010Y-15100300D01*
X13790380Y-8313850D02*
X13830380Y-8353850D01*
X13830380Y-8313850D02*
X13790380Y-8353850D01*
X13869750Y-14901560D02*
X13909750Y-14941560D01*
X13909750Y-14901560D02*
X13869750Y-14941560D01*
X14107860Y-9345660D02*
X14147860Y-9385660D01*
X14147860Y-9345660D02*
X14107860Y-9385660D01*
X14187230Y-12202980D02*
X14227230Y-12242980D01*
X14227230Y-12202980D02*
X14187230Y-12242980D01*
X14187230Y-16012740D02*
X14227230Y-16052740D01*
X14227230Y-16012740D02*
X14187230Y-16052740D01*
X14187230Y-16250850D02*
X14227230Y-16290850D01*
X14227230Y-16250850D02*
X14187230Y-16290850D01*
X14266600Y-6964560D02*
X14306600Y-7004560D01*
X14306600Y-6964560D02*
X14266600Y-7004560D01*
X14266600Y-7678890D02*
X14306600Y-7718890D01*
X14306600Y-7678890D02*
X14266600Y-7718890D01*
X14266600Y-14028490D02*
X14306600Y-14068490D01*
X14306600Y-14028490D02*
X14266600Y-14068490D01*
X14425340Y-10298100D02*
X14465340Y-10338100D01*
X14465340Y-10298100D02*
X14425340Y-10338100D01*
X14504710Y-12044240D02*
X14544710Y-12084240D01*
X14544710Y-12044240D02*
X14504710Y-12084240D01*
X14504710Y-12758570D02*
X14544710Y-12798570D01*
X14544710Y-12758570D02*
X14504710Y-12798570D01*
X14504710Y-14742820D02*
X14544710Y-14782820D01*
X14544710Y-14742820D02*
X14504710Y-14782820D01*
X14584080Y-10933060D02*
X14624080Y-10973060D01*
X14624080Y-10933060D02*
X14584080Y-10973060D01*
X14663450Y-12917310D02*
X14703450Y-12957310D01*
X14703450Y-12917310D02*
X14663450Y-12957310D01*
X14663450Y-17282660D02*
X14703450Y-17322660D01*
X14703450Y-17282660D02*
X14663450Y-17322660D01*
X14742820Y-12202980D02*
X14782820Y-12242980D01*
X14782820Y-12202980D02*
X14742820Y-12242980D01*
X15536520Y-7599520D02*
X15576520Y-7639520D01*
X15576520Y-7599520D02*
X15536520Y-7639520D01*
X15536520Y-9583770D02*
X15576520Y-9623770D01*
X15576520Y-9583770D02*
X15536520Y-9623770D01*
X15536520Y-12361720D02*
X15576520Y-12401720D01*
X15576520Y-12361720D02*
X15536520Y-12401720D01*
X15536520Y-13234790D02*
X15576520Y-13274790D01*
X15576520Y-13234790D02*
X15536520Y-13274790D01*
X15536520Y-15060300D02*
X15576520Y-15100300D01*
X15576520Y-15060300D02*
X15536520Y-15100300D01*
X15536520Y-16092110D02*
X15576520Y-16132110D01*
X15576520Y-16092110D02*
X15536520Y-16132110D01*
X15536520Y-16885810D02*
X15576520Y-16925810D01*
X15576520Y-16885810D02*
X15536520Y-16925810D01*
X15854000Y-6329600D02*
X15894000Y-6369600D01*
X15894000Y-6329600D02*
X15854000Y-6369600D01*
X15933370Y-10298100D02*
X15973370Y-10338100D01*
X15973370Y-10298100D02*
X15933370Y-10338100D01*
X16012740Y-16568330D02*
X16052740Y-16608330D01*
X16052740Y-16568330D02*
X16012740Y-16608330D01*
X16171480Y-15933370D02*
X16211480Y-15973370D01*
X16211480Y-15933370D02*
X16171480Y-15973370D01*
X16409590Y-17044550D02*
X16449590Y-17084550D01*
X16449590Y-17044550D02*
X16409590Y-17084550D01*
X16727070Y-8234480D02*
X16767070Y-8274480D01*
X16767070Y-8234480D02*
X16727070Y-8274480D01*
X16806440Y-8710700D02*
X16846440Y-8750700D01*
X16846440Y-8710700D02*
X16806440Y-8750700D01*
X16885810Y-8155110D02*
X16925810Y-8195110D01*
X16925810Y-8155110D02*
X16885810Y-8195110D01*
X16965180Y-7202670D02*
X17005180Y-7242670D01*
X17005180Y-7202670D02*
X16965180Y-7242670D01*
X16965180Y-7758260D02*
X17005180Y-7798260D01*
X17005180Y-7758260D02*
X16965180Y-7798260D01*
X16965180Y-11806130D02*
X17005180Y-11846130D01*
X17005180Y-11806130D02*
X16965180Y-11846130D01*
X17282660Y-10258415D02*
X17322660Y-10298415D01*
X17322660Y-10258415D02*
X17282660Y-10298415D01*
X17362030Y-8313850D02*
X17402030Y-8353850D01*
X17402030Y-8313850D02*
X17362030Y-8353850D01*
X17362030Y-9186920D02*
X17402030Y-9226920D01*
X17402030Y-9186920D02*
X17362030Y-9226920D01*
X17362030Y-9901250D02*
X17402030Y-9941250D01*
X17402030Y-9901250D02*
X17362030Y-9941250D01*
X17362030Y-13155420D02*
X17402030Y-13195420D01*
X17402030Y-13155420D02*
X17362030Y-13195420D01*
X17520770Y-9583770D02*
X17560770Y-9623770D01*
X17560770Y-9583770D02*
X17520770Y-9623770D01*
X17600140Y-16965180D02*
X17640140Y-17005180D01*
X17640140Y-16965180D02*
X17600140Y-17005180D01*
X17758880Y-16885810D02*
X17798880Y-16925810D01*
X17798880Y-16885810D02*
X17758880Y-16925810D01*
X18155730Y-6250230D02*
X18195730Y-6290230D01*
X18195730Y-6250230D02*
X18155730Y-6290230D01*
X18155730Y-7996370D02*
X18195730Y-8036370D01*
X18195730Y-7996370D02*
X18155730Y-8036370D01*
X18155730Y-9821880D02*
X18195730Y-9861880D01*
X18195730Y-9821880D02*
X18155730Y-9861880D01*
X18155730Y-11647390D02*
X18195730Y-11687390D01*
X18195730Y-11647390D02*
X18155730Y-11687390D01*
X18155730Y-13552270D02*
X18195730Y-13592270D01*
X18195730Y-13552270D02*
X18155730Y-13592270D01*
X18155730Y-15536520D02*
X18195730Y-15576520D01*
X18195730Y-15536520D02*
X18155730Y-15576520D01*
X18155730Y-17282660D02*
X18195730Y-17322660D01*
X18195730Y-17282660D02*
X18155730Y-17322660D01*
X13918410Y-6802040D02*
G75*
G03*
X13918410Y-6802040I-50000J0D01*
G01*
X13918410Y-7302040D02*
G75*
G03*
X13918410Y-7302040I-50000J0D01*
G01*
X15368410Y-6802040D02*
G75*
G03*
X15368410Y-6802040I-50000J0D01*
G01*
X15368410Y-7052040D02*
G75*
G03*
X15368410Y-7052040I-50000J0D01*
G01*
X15368410Y-7302040D02*
G75*
G03*
X15368410Y-7302040I-50000J0D01*
G01*
X15924000Y-6746450D02*
G75*
G03*
X15924000Y-6746450I-50000J0D01*
G01*
X15924000Y-7000450D02*
G75*
G03*
X15924000Y-7000450I-50000J0D01*
G01*
X15924000Y-7254450D02*
G75*
G03*
X15924000Y-7254450I-50000J0D01*
G01*
X15924000Y-7508450D02*
G75*
G03*
X15924000Y-7508450I-50000J0D01*
G01*
X16299510Y-14342190D02*
G75*
G03*
X16299510Y-14342190I-50000J0D01*
G01*
X16299510Y-14842190D02*
G75*
G03*
X16299510Y-14842190I-50000J0D01*
G01*
X16673180Y-10528020D02*
G75*
G03*
X16673180Y-10528020I-50000J0D01*
G01*
X16765290Y-9365660D02*
G75*
G03*
X16765290Y-9365660I-50000J0D01*
G01*
X16765290Y-9619660D02*
G75*
G03*
X16765290Y-9619660I-50000J0D01*
G01*
X16927180Y-10528020D02*
G75*
G03*
X16927180Y-10528020I-50000J0D01*
G01*
X17019290Y-9365660D02*
G75*
G03*
X17019290Y-9365660I-50000J0D01*
G01*
X17019290Y-9619660D02*
G75*
G03*
X17019290Y-9619660I-50000J0D01*
G01*
X17181180Y-10528020D02*
G75*
G03*
X17181180Y-10528020I-50000J0D01*
G01*
X17273290Y-9365660D02*
G75*
G03*
X17273290Y-9365660I-50000J0D01*
G01*
X17273290Y-9619660D02*
G75*
G03*
X17273290Y-9619660I-50000J0D01*
G01*
X17435180Y-10528020D02*
G75*
G03*
X17435180Y-10528020I-50000J0D01*
G01*
X17749510Y-14342190D02*
G75*
G03*
X17749510Y-14342190I-50000J0D01*
G01*
X17749510Y-14592190D02*
G75*
G03*
X17749510Y-14592190I-50000J0D01*
G01*
X17749510Y-14842190D02*
G75*
G03*
X17749510Y-14842190I-50000J0D01*
G01*
X16223180Y-6961220D02*
X16223180Y-7071220D01*
X16168180Y-7016220D02*
X16278180Y-7016220D01*
X16223180Y-7215220D02*
X16223180Y-7325220D01*
X16168180Y-7270220D02*
X16278180Y-7270220D01*
X16223180Y-7469220D02*
X16223180Y-7579220D01*
X16168180Y-7524220D02*
X16278180Y-7524220D01*
X16223180Y-7723220D02*
X16223180Y-7833220D01*
X16168180Y-7778220D02*
X16278180Y-7778220D01*
X16223180Y-7977220D02*
X16223180Y-8087220D01*
X16168180Y-8032220D02*
X16278180Y-8032220D01*
X16223180Y-8231220D02*
X16223180Y-8341220D01*
X16168180Y-8286220D02*
X16278180Y-8286220D01*
X16223180Y-8485220D02*
X16223180Y-8595220D01*
X16168180Y-8540220D02*
X16278180Y-8540220D01*
X16223180Y-8739220D02*
X16223180Y-8849220D01*
X16168180Y-8794220D02*
X16278180Y-8794220D01*
X16223180Y-8993220D02*
X16223180Y-9103220D01*
X16168180Y-9048220D02*
X16278180Y-9048220D01*
X16223180Y-9247220D02*
X16223180Y-9357220D01*
X16168180Y-9302220D02*
X16278180Y-9302220D01*
X16223180Y-9501220D02*
X16223180Y-9611220D01*
X16168180Y-9556220D02*
X16278180Y-9556220D01*
X16223180Y-9755220D02*
X16223180Y-9865220D01*
X16168180Y-9810220D02*
X16278180Y-9810220D01*
X17747180Y-6961220D02*
X17747180Y-7071220D01*
X17692180Y-7016220D02*
X17802180Y-7016220D01*
X17747180Y-7215220D02*
X17747180Y-7325220D01*
X17692180Y-7270220D02*
X17802180Y-7270220D01*
X17747180Y-7469220D02*
X17747180Y-7579220D01*
X17692180Y-7524220D02*
X17802180Y-7524220D01*
X17747180Y-7723220D02*
X17747180Y-7833220D01*
X17692180Y-7778220D02*
X17802180Y-7778220D01*
X17747180Y-7977220D02*
X17747180Y-8087220D01*
X17692180Y-8032220D02*
X17802180Y-8032220D01*
X17747180Y-8231220D02*
X17747180Y-8341220D01*
X17692180Y-8286220D02*
X17802180Y-8286220D01*
X17747180Y-8485220D02*
X17747180Y-8595220D01*
X17692180Y-8540220D02*
X17802180Y-8540220D01*
X17747180Y-8739220D02*
X17747180Y-8849220D01*
X17692180Y-8794220D02*
X17802180Y-8794220D01*
X17747180Y-8993220D02*
X17747180Y-9103220D01*
X17692180Y-9048220D02*
X17802180Y-9048220D01*
X17747180Y-9247220D02*
X17747180Y-9357220D01*
X17692180Y-9302220D02*
X17802180Y-9302220D01*
X17747180Y-9501220D02*
X17747180Y-9611220D01*
X17692180Y-9556220D02*
X17802180Y-9556220D01*
X17747180Y-9755220D02*
X17747180Y-9865220D01*
X17692180Y-9810220D02*
X17802180Y-9810220D01*
X14621443Y-6545073D02*
X14621443Y-6439006D01*
X14515376Y-6439006D01*
X14515376Y-6545073D01*
X14621443Y-6545073D01*
X14633410Y-6427040D02*
X14503410Y-6427040D01*
X14633410Y-6557040D02*
X14503410Y-6557040D01*
X14503410Y-6427040D02*
G75*
G03*
X14503410Y-6557040I0J-65000D01*
G01*
X14633410Y-6557040D02*
G75*
G03*
X14633410Y-6427040I0J65000D01*
G01*
X14621443Y-7665073D02*
X14621443Y-7559006D01*
X14515376Y-7559006D01*
X14515376Y-7665073D01*
X14621443Y-7665073D01*
X14633410Y-7547040D02*
X14503410Y-7547040D01*
X14633410Y-7677040D02*
X14503410Y-7677040D01*
X14503410Y-7547040D02*
G75*
G03*
X14503410Y-7677040I0J-65000D01*
G01*
X14633410Y-7677040D02*
G75*
G03*
X14633410Y-7547040I0J65000D01*
G01*
X17002544Y-14085223D02*
X17002544Y-13979156D01*
X16896477Y-13979156D01*
X16896477Y-14085223D01*
X17002544Y-14085223D01*
X17014510Y-13967190D02*
X16884510Y-13967190D01*
X17014510Y-14097190D02*
X16884510Y-14097190D01*
X16884510Y-13967190D02*
G75*
G03*
X16884510Y-14097190I0J-65000D01*
G01*
X17014510Y-14097190D02*
G75*
G03*
X17014510Y-13967190I0J65000D01*
G01*
X17002544Y-15205223D02*
X17002544Y-15099156D01*
X16896477Y-15099156D01*
X16896477Y-15205223D01*
X17002544Y-15205223D01*
X17014510Y-15087190D02*
X16884510Y-15087190D01*
X17014510Y-15217190D02*
X16884510Y-15217190D01*
X16884510Y-15087190D02*
G75*
G03*
X16884510Y-15217190I0J-65000D01*
G01*
X17014510Y-15217190D02*
G75*
G03*
X17014510Y-15087190I0J65000D01*
G01*
D12*
X8141558Y-18008984D02*
X8141558Y-17708984D01*
X8212987Y-17708984D01*
X8255844Y-17723270D01*
X8284416Y-17751842D01*
X8298701Y-17780413D01*
X8312987Y-17837556D01*
X8312987Y-17880413D01*
X8298701Y-17937556D01*
X8284416Y-17966127D01*
X8255844Y-17994699D01*
X8212987Y-18008984D01*
X8141558Y-18008984D01*
X8441558Y-18008984D02*
X8441558Y-17808984D01*
X8441558Y-17866127D02*
X8455844Y-17837556D01*
X8470130Y-17823270D01*
X8498701Y-17808984D01*
X8527273Y-17808984D01*
X8627273Y-18008984D02*
X8627273Y-17808984D01*
X8627273Y-17708984D02*
X8612987Y-17723270D01*
X8627273Y-17737556D01*
X8641558Y-17723270D01*
X8627273Y-17708984D01*
X8627273Y-17737556D01*
X8812987Y-18008984D02*
X8784416Y-17994699D01*
X8770130Y-17966127D01*
X8770130Y-17708984D01*
X8970130Y-18008984D02*
X8941558Y-17994699D01*
X8927273Y-17966127D01*
X8927273Y-17708984D01*
X9312987Y-18008984D02*
X9312987Y-17708984D01*
X9412987Y-17923270D01*
X9512987Y-17708984D01*
X9512987Y-18008984D01*
X9784416Y-18008984D02*
X9784416Y-17851842D01*
X9770130Y-17823270D01*
X9741558Y-17808984D01*
X9684416Y-17808984D01*
X9655844Y-17823270D01*
X9784416Y-17994699D02*
X9755844Y-18008984D01*
X9684416Y-18008984D01*
X9655844Y-17994699D01*
X9641558Y-17966127D01*
X9641558Y-17937556D01*
X9655844Y-17908984D01*
X9684416Y-17894699D01*
X9755844Y-17894699D01*
X9784416Y-17880413D01*
X9927273Y-17808984D02*
X9927273Y-18108984D01*
X9927273Y-17823270D02*
X9955844Y-17808984D01*
X10012987Y-17808984D01*
X10041558Y-17823270D01*
X10055844Y-17837556D01*
X10070130Y-17866127D01*
X10070130Y-17951842D01*
X10055844Y-17980413D01*
X10041558Y-17994699D01*
X10012987Y-18008984D01*
X9955844Y-18008984D01*
X9927273Y-17994699D01*
X10198701Y-17980413D02*
X10212987Y-17994699D01*
X10198701Y-18008984D01*
X10184416Y-17994699D01*
X10198701Y-17980413D01*
X10198701Y-18008984D01*
X10198701Y-17823270D02*
X10212987Y-17837556D01*
X10198701Y-17851842D01*
X10184416Y-17837556D01*
X10198701Y-17823270D01*
X10198701Y-17851842D01*
X7815130Y-18483270D02*
X7855130Y-18523270D01*
X7855130Y-18483270D02*
X7815130Y-18523270D01*
X8198701Y-18338984D02*
X8227273Y-18338984D01*
X8255844Y-18353270D01*
X8270130Y-18367556D01*
X8284416Y-18396127D01*
X8298701Y-18453270D01*
X8298701Y-18524699D01*
X8284416Y-18581842D01*
X8270130Y-18610413D01*
X8255844Y-18624699D01*
X8227273Y-18638984D01*
X8198701Y-18638984D01*
X8170130Y-18624699D01*
X8155844Y-18610413D01*
X8141558Y-18581842D01*
X8127273Y-18524699D01*
X8127273Y-18453270D01*
X8141558Y-18396127D01*
X8155844Y-18367556D01*
X8170130Y-18353270D01*
X8198701Y-18338984D01*
X8427273Y-18610413D02*
X8441558Y-18624699D01*
X8427273Y-18638984D01*
X8412987Y-18624699D01*
X8427273Y-18610413D01*
X8427273Y-18638984D01*
X8698701Y-18438984D02*
X8698701Y-18638984D01*
X8627273Y-18324699D02*
X8555844Y-18538984D01*
X8741558Y-18538984D01*
X8912987Y-18338984D02*
X8941558Y-18338984D01*
X8970130Y-18353270D01*
X8984416Y-18367556D01*
X8998701Y-18396127D01*
X9012987Y-18453270D01*
X9012987Y-18524699D01*
X8998701Y-18581842D01*
X8984416Y-18610413D01*
X8970130Y-18624699D01*
X8941558Y-18638984D01*
X8912987Y-18638984D01*
X8884416Y-18624699D01*
X8870130Y-18610413D01*
X8855844Y-18581842D01*
X8841558Y-18524699D01*
X8841558Y-18453270D01*
X8855844Y-18396127D01*
X8870130Y-18367556D01*
X8884416Y-18353270D01*
X8912987Y-18338984D01*
X9198701Y-18338984D02*
X9227273Y-18338984D01*
X9255844Y-18353270D01*
X9270130Y-18367556D01*
X9284416Y-18396127D01*
X9298701Y-18453270D01*
X9298701Y-18524699D01*
X9284416Y-18581842D01*
X9270130Y-18610413D01*
X9255844Y-18624699D01*
X9227273Y-18638984D01*
X9198701Y-18638984D01*
X9170130Y-18624699D01*
X9155844Y-18610413D01*
X9141558Y-18581842D01*
X9127273Y-18524699D01*
X9127273Y-18453270D01*
X9141558Y-18396127D01*
X9155844Y-18367556D01*
X9170130Y-18353270D01*
X9198701Y-18338984D01*
X9427273Y-18638984D02*
X9427273Y-18438984D01*
X9427273Y-18467556D02*
X9441558Y-18453270D01*
X9470130Y-18438984D01*
X9512987Y-18438984D01*
X9541558Y-18453270D01*
X9555844Y-18481842D01*
X9555844Y-18638984D01*
X9555844Y-18481842D02*
X9570130Y-18453270D01*
X9598701Y-18438984D01*
X9641558Y-18438984D01*
X9670130Y-18453270D01*
X9684416Y-18481842D01*
X9684416Y-18638984D01*
X9827273Y-18638984D02*
X9827273Y-18438984D01*
X9827273Y-18467556D02*
X9841558Y-18453270D01*
X9870130Y-18438984D01*
X9912987Y-18438984D01*
X9941558Y-18453270D01*
X9955844Y-18481842D01*
X9955844Y-18638984D01*
X9955844Y-18481842D02*
X9970130Y-18453270D01*
X9998701Y-18438984D01*
X10041558Y-18438984D01*
X10070130Y-18453270D01*
X10084416Y-18481842D01*
X10084416Y-18638984D01*
X10670130Y-18324699D02*
X10412987Y-18710413D01*
X11055844Y-18338984D02*
X11084416Y-18338984D01*
X11112987Y-18353270D01*
X11127273Y-18367556D01*
X11141558Y-18396127D01*
X11155844Y-18453270D01*
X11155844Y-18524699D01*
X11141558Y-18581842D01*
X11127273Y-18610413D01*
X11112987Y-18624699D01*
X11084416Y-18638984D01*
X11055844Y-18638984D01*
X11027273Y-18624699D01*
X11012987Y-18610413D01*
X10998701Y-18581842D01*
X10984416Y-18524699D01*
X10984416Y-18453270D01*
X10998701Y-18396127D01*
X11012987Y-18367556D01*
X11027273Y-18353270D01*
X11055844Y-18338984D01*
X11284416Y-18610413D02*
X11298701Y-18624699D01*
X11284416Y-18638984D01*
X11270130Y-18624699D01*
X11284416Y-18610413D01*
X11284416Y-18638984D01*
X11484416Y-18338984D02*
X11512987Y-18338984D01*
X11541558Y-18353270D01*
X11555844Y-18367556D01*
X11570130Y-18396127D01*
X11584416Y-18453270D01*
X11584416Y-18524699D01*
X11570130Y-18581842D01*
X11555844Y-18610413D01*
X11541558Y-18624699D01*
X11512987Y-18638984D01*
X11484416Y-18638984D01*
X11455844Y-18624699D01*
X11441558Y-18610413D01*
X11427273Y-18581842D01*
X11412987Y-18524699D01*
X11412987Y-18453270D01*
X11427273Y-18396127D01*
X11441558Y-18367556D01*
X11455844Y-18353270D01*
X11484416Y-18338984D01*
X11870130Y-18638984D02*
X11698701Y-18638984D01*
X11784416Y-18638984D02*
X11784416Y-18338984D01*
X11755844Y-18381842D01*
X11727273Y-18410413D01*
X11698701Y-18424699D01*
X12141558Y-18338984D02*
X11998701Y-18338984D01*
X11984416Y-18481842D01*
X11998701Y-18467556D01*
X12027273Y-18453270D01*
X12098701Y-18453270D01*
X12127273Y-18467556D01*
X12141558Y-18481842D01*
X12155844Y-18510413D01*
X12155844Y-18581842D01*
X12141558Y-18610413D01*
X12127273Y-18624699D01*
X12098701Y-18638984D01*
X12027273Y-18638984D01*
X11998701Y-18624699D01*
X11984416Y-18610413D01*
X12255844Y-18338984D02*
X12455844Y-18338984D01*
X12327273Y-18638984D01*
X12555844Y-18338984D02*
X12555844Y-18396127D01*
X12670130Y-18338984D02*
X12670130Y-18396127D01*
X13112987Y-18753270D02*
X13098701Y-18738984D01*
X13070130Y-18696127D01*
X13055844Y-18667556D01*
X13041558Y-18624699D01*
X13027273Y-18553270D01*
X13027273Y-18496127D01*
X13041558Y-18424699D01*
X13055844Y-18381842D01*
X13070130Y-18353270D01*
X13098701Y-18310413D01*
X13112987Y-18296127D01*
X13384416Y-18638984D02*
X13212987Y-18638984D01*
X13298701Y-18638984D02*
X13298701Y-18338984D01*
X13270130Y-18381842D01*
X13241558Y-18410413D01*
X13212987Y-18424699D01*
X13670130Y-18638984D02*
X13498701Y-18638984D01*
X13584416Y-18638984D02*
X13584416Y-18338984D01*
X13555844Y-18381842D01*
X13527273Y-18410413D01*
X13498701Y-18424699D01*
X13812987Y-18638984D02*
X13870130Y-18638984D01*
X13898701Y-18624699D01*
X13912987Y-18610413D01*
X13941558Y-18567556D01*
X13955844Y-18510413D01*
X13955844Y-18396127D01*
X13941558Y-18367556D01*
X13927273Y-18353270D01*
X13898701Y-18338984D01*
X13841558Y-18338984D01*
X13812987Y-18353270D01*
X13798701Y-18367556D01*
X13784416Y-18396127D01*
X13784416Y-18467556D01*
X13798701Y-18496127D01*
X13812987Y-18510413D01*
X13841558Y-18524699D01*
X13898701Y-18524699D01*
X13927273Y-18510413D01*
X13941558Y-18496127D01*
X13955844Y-18467556D01*
X14312987Y-18638984D02*
X14312987Y-18338984D01*
X14441558Y-18638984D02*
X14441558Y-18481842D01*
X14427273Y-18453270D01*
X14398701Y-18438984D01*
X14355844Y-18438984D01*
X14327273Y-18453270D01*
X14312987Y-18467556D01*
X14627273Y-18638984D02*
X14598701Y-18624699D01*
X14584416Y-18610413D01*
X14570130Y-18581842D01*
X14570130Y-18496127D01*
X14584416Y-18467556D01*
X14598701Y-18453270D01*
X14627273Y-18438984D01*
X14670130Y-18438984D01*
X14698701Y-18453270D01*
X14712987Y-18467556D01*
X14727273Y-18496127D01*
X14727273Y-18581842D01*
X14712987Y-18610413D01*
X14698701Y-18624699D01*
X14670130Y-18638984D01*
X14627273Y-18638984D01*
X14898701Y-18638984D02*
X14870130Y-18624699D01*
X14855844Y-18596127D01*
X14855844Y-18338984D01*
X15127273Y-18624699D02*
X15098701Y-18638984D01*
X15041558Y-18638984D01*
X15012987Y-18624699D01*
X14998701Y-18596127D01*
X14998701Y-18481842D01*
X15012987Y-18453270D01*
X15041558Y-18438984D01*
X15098701Y-18438984D01*
X15127273Y-18453270D01*
X15141558Y-18481842D01*
X15141558Y-18510413D01*
X14998701Y-18538984D01*
X15255844Y-18624699D02*
X15284416Y-18638984D01*
X15341558Y-18638984D01*
X15370130Y-18624699D01*
X15384416Y-18596127D01*
X15384416Y-18581842D01*
X15370130Y-18553270D01*
X15341558Y-18538984D01*
X15298701Y-18538984D01*
X15270130Y-18524699D01*
X15255844Y-18496127D01*
X15255844Y-18481842D01*
X15270130Y-18453270D01*
X15298701Y-18438984D01*
X15341558Y-18438984D01*
X15370130Y-18453270D01*
X15484416Y-18753270D02*
X15498701Y-18738984D01*
X15527273Y-18696127D01*
X15541558Y-18667556D01*
X15555844Y-18624699D01*
X15570130Y-18553270D01*
X15570130Y-18496127D01*
X15555844Y-18424699D01*
X15541558Y-18381842D01*
X15527273Y-18353270D01*
X15498701Y-18310413D01*
X15484416Y-18296127D01*
X7855130Y-18899270D02*
G75*
G03*
X7855130Y-18899270I-50000J0D01*
G01*
X8298701Y-19034984D02*
X8127273Y-19034984D01*
X8212987Y-19034984D02*
X8212987Y-18734984D01*
X8184416Y-18777842D01*
X8155844Y-18806413D01*
X8127273Y-18820699D01*
X8427273Y-19006413D02*
X8441558Y-19020699D01*
X8427273Y-19034984D01*
X8412987Y-19020699D01*
X8427273Y-19006413D01*
X8427273Y-19034984D01*
X8627273Y-18734984D02*
X8655844Y-18734984D01*
X8684416Y-18749270D01*
X8698701Y-18763556D01*
X8712987Y-18792127D01*
X8727273Y-18849270D01*
X8727273Y-18920699D01*
X8712987Y-18977842D01*
X8698701Y-19006413D01*
X8684416Y-19020699D01*
X8655844Y-19034984D01*
X8627273Y-19034984D01*
X8598701Y-19020699D01*
X8584416Y-19006413D01*
X8570130Y-18977842D01*
X8555844Y-18920699D01*
X8555844Y-18849270D01*
X8570130Y-18792127D01*
X8584416Y-18763556D01*
X8598701Y-18749270D01*
X8627273Y-18734984D01*
X8912987Y-18734984D02*
X8941558Y-18734984D01*
X8970130Y-18749270D01*
X8984416Y-18763556D01*
X8998701Y-18792127D01*
X9012987Y-18849270D01*
X9012987Y-18920699D01*
X8998701Y-18977842D01*
X8984416Y-19006413D01*
X8970130Y-19020699D01*
X8941558Y-19034984D01*
X8912987Y-19034984D01*
X8884416Y-19020699D01*
X8870130Y-19006413D01*
X8855844Y-18977842D01*
X8841558Y-18920699D01*
X8841558Y-18849270D01*
X8855844Y-18792127D01*
X8870130Y-18763556D01*
X8884416Y-18749270D01*
X8912987Y-18734984D01*
X9198701Y-18734984D02*
X9227273Y-18734984D01*
X9255844Y-18749270D01*
X9270130Y-18763556D01*
X9284416Y-18792127D01*
X9298701Y-18849270D01*
X9298701Y-18920699D01*
X9284416Y-18977842D01*
X9270130Y-19006413D01*
X9255844Y-19020699D01*
X9227273Y-19034984D01*
X9198701Y-19034984D01*
X9170130Y-19020699D01*
X9155844Y-19006413D01*
X9141558Y-18977842D01*
X9127273Y-18920699D01*
X9127273Y-18849270D01*
X9141558Y-18792127D01*
X9155844Y-18763556D01*
X9170130Y-18749270D01*
X9198701Y-18734984D01*
X9427273Y-19034984D02*
X9427273Y-18834984D01*
X9427273Y-18863556D02*
X9441558Y-18849270D01*
X9470130Y-18834984D01*
X9512987Y-18834984D01*
X9541558Y-18849270D01*
X9555844Y-18877842D01*
X9555844Y-19034984D01*
X9555844Y-18877842D02*
X9570130Y-18849270D01*
X9598701Y-18834984D01*
X9641558Y-18834984D01*
X9670130Y-18849270D01*
X9684416Y-18877842D01*
X9684416Y-19034984D01*
X9827273Y-19034984D02*
X9827273Y-18834984D01*
X9827273Y-18863556D02*
X9841558Y-18849270D01*
X9870130Y-18834984D01*
X9912987Y-18834984D01*
X9941558Y-18849270D01*
X9955844Y-18877842D01*
X9955844Y-19034984D01*
X9955844Y-18877842D02*
X9970130Y-18849270D01*
X9998701Y-18834984D01*
X10041558Y-18834984D01*
X10070130Y-18849270D01*
X10084416Y-18877842D01*
X10084416Y-19034984D01*
X10670130Y-18720699D02*
X10412987Y-19106413D01*
X11055844Y-18734984D02*
X11084416Y-18734984D01*
X11112987Y-18749270D01*
X11127273Y-18763556D01*
X11141558Y-18792127D01*
X11155844Y-18849270D01*
X11155844Y-18920699D01*
X11141558Y-18977842D01*
X11127273Y-19006413D01*
X11112987Y-19020699D01*
X11084416Y-19034984D01*
X11055844Y-19034984D01*
X11027273Y-19020699D01*
X11012987Y-19006413D01*
X10998701Y-18977842D01*
X10984416Y-18920699D01*
X10984416Y-18849270D01*
X10998701Y-18792127D01*
X11012987Y-18763556D01*
X11027273Y-18749270D01*
X11055844Y-18734984D01*
X11284416Y-19006413D02*
X11298701Y-19020699D01*
X11284416Y-19034984D01*
X11270130Y-19020699D01*
X11284416Y-19006413D01*
X11284416Y-19034984D01*
X11484416Y-18734984D02*
X11512987Y-18734984D01*
X11541558Y-18749270D01*
X11555844Y-18763556D01*
X11570130Y-18792127D01*
X11584416Y-18849270D01*
X11584416Y-18920699D01*
X11570130Y-18977842D01*
X11555844Y-19006413D01*
X11541558Y-19020699D01*
X11512987Y-19034984D01*
X11484416Y-19034984D01*
X11455844Y-19020699D01*
X11441558Y-19006413D01*
X11427273Y-18977842D01*
X11412987Y-18920699D01*
X11412987Y-18849270D01*
X11427273Y-18792127D01*
X11441558Y-18763556D01*
X11455844Y-18749270D01*
X11484416Y-18734984D01*
X11684416Y-18734984D02*
X11870130Y-18734984D01*
X11770130Y-18849270D01*
X11812987Y-18849270D01*
X11841558Y-18863556D01*
X11855844Y-18877842D01*
X11870130Y-18906413D01*
X11870130Y-18977842D01*
X11855844Y-19006413D01*
X11841558Y-19020699D01*
X11812987Y-19034984D01*
X11727273Y-19034984D01*
X11698701Y-19020699D01*
X11684416Y-19006413D01*
X12012987Y-19034984D02*
X12070130Y-19034984D01*
X12098701Y-19020699D01*
X12112987Y-19006413D01*
X12141558Y-18963556D01*
X12155844Y-18906413D01*
X12155844Y-18792127D01*
X12141558Y-18763556D01*
X12127273Y-18749270D01*
X12098701Y-18734984D01*
X12041558Y-18734984D01*
X12012987Y-18749270D01*
X11998701Y-18763556D01*
X11984416Y-18792127D01*
X11984416Y-18863556D01*
X11998701Y-18892127D01*
X12012987Y-18906413D01*
X12041558Y-18920699D01*
X12098701Y-18920699D01*
X12127273Y-18906413D01*
X12141558Y-18892127D01*
X12155844Y-18863556D01*
X12412987Y-18834984D02*
X12412987Y-19034984D01*
X12341558Y-18720699D02*
X12270130Y-18934984D01*
X12455844Y-18934984D01*
X12555844Y-18734984D02*
X12555844Y-18792127D01*
X12670130Y-18734984D02*
X12670130Y-18792127D01*
X13112987Y-19149270D02*
X13098701Y-19134984D01*
X13070130Y-19092127D01*
X13055844Y-19063556D01*
X13041558Y-19020699D01*
X13027273Y-18949270D01*
X13027273Y-18892127D01*
X13041558Y-18820699D01*
X13055844Y-18777842D01*
X13070130Y-18749270D01*
X13098701Y-18706413D01*
X13112987Y-18692127D01*
X13212987Y-18763556D02*
X13227273Y-18749270D01*
X13255844Y-18734984D01*
X13327273Y-18734984D01*
X13355844Y-18749270D01*
X13370130Y-18763556D01*
X13384416Y-18792127D01*
X13384416Y-18820699D01*
X13370130Y-18863556D01*
X13198701Y-19034984D01*
X13384416Y-19034984D01*
X13641558Y-18834984D02*
X13641558Y-19034984D01*
X13570130Y-18720699D02*
X13498701Y-18934984D01*
X13684416Y-18934984D01*
X14027273Y-19034984D02*
X14027273Y-18734984D01*
X14155844Y-19034984D02*
X14155844Y-18877842D01*
X14141558Y-18849270D01*
X14112987Y-18834984D01*
X14070130Y-18834984D01*
X14041558Y-18849270D01*
X14027273Y-18863556D01*
X14341558Y-19034984D02*
X14312987Y-19020699D01*
X14298701Y-19006413D01*
X14284416Y-18977842D01*
X14284416Y-18892127D01*
X14298701Y-18863556D01*
X14312987Y-18849270D01*
X14341558Y-18834984D01*
X14384416Y-18834984D01*
X14412987Y-18849270D01*
X14427273Y-18863556D01*
X14441558Y-18892127D01*
X14441558Y-18977842D01*
X14427273Y-19006413D01*
X14412987Y-19020699D01*
X14384416Y-19034984D01*
X14341558Y-19034984D01*
X14612987Y-19034984D02*
X14584416Y-19020699D01*
X14570130Y-18992127D01*
X14570130Y-18734984D01*
X14841558Y-19020699D02*
X14812987Y-19034984D01*
X14755844Y-19034984D01*
X14727273Y-19020699D01*
X14712987Y-18992127D01*
X14712987Y-18877842D01*
X14727273Y-18849270D01*
X14755844Y-18834984D01*
X14812987Y-18834984D01*
X14841558Y-18849270D01*
X14855844Y-18877842D01*
X14855844Y-18906413D01*
X14712987Y-18934984D01*
X14970130Y-19020699D02*
X14998701Y-19034984D01*
X15055844Y-19034984D01*
X15084416Y-19020699D01*
X15098701Y-18992127D01*
X15098701Y-18977842D01*
X15084416Y-18949270D01*
X15055844Y-18934984D01*
X15012987Y-18934984D01*
X14984416Y-18920699D01*
X14970130Y-18892127D01*
X14970130Y-18877842D01*
X14984416Y-18849270D01*
X15012987Y-18834984D01*
X15055844Y-18834984D01*
X15084416Y-18849270D01*
X15198701Y-19149270D02*
X15212987Y-19134984D01*
X15241558Y-19092127D01*
X15255844Y-19063556D01*
X15270130Y-19020699D01*
X15284416Y-18949270D01*
X15284416Y-18892127D01*
X15270130Y-18820699D01*
X15255844Y-18777842D01*
X15241558Y-18749270D01*
X15212987Y-18706413D01*
X15198701Y-18692127D01*
X7800130Y-19240270D02*
X7800130Y-19350270D01*
X7745130Y-19295270D02*
X7855130Y-19295270D01*
X8298701Y-19430984D02*
X8127273Y-19430984D01*
X8212987Y-19430984D02*
X8212987Y-19130984D01*
X8184416Y-19173842D01*
X8155844Y-19202413D01*
X8127273Y-19216699D01*
X8427273Y-19402413D02*
X8441558Y-19416699D01*
X8427273Y-19430984D01*
X8412987Y-19416699D01*
X8427273Y-19402413D01*
X8427273Y-19430984D01*
X8727273Y-19430984D02*
X8555844Y-19430984D01*
X8641558Y-19430984D02*
X8641558Y-19130984D01*
X8612987Y-19173842D01*
X8584416Y-19202413D01*
X8555844Y-19216699D01*
X8912987Y-19130984D02*
X8941558Y-19130984D01*
X8970130Y-19145270D01*
X8984416Y-19159556D01*
X8998701Y-19188127D01*
X9012987Y-19245270D01*
X9012987Y-19316699D01*
X8998701Y-19373842D01*
X8984416Y-19402413D01*
X8970130Y-19416699D01*
X8941558Y-19430984D01*
X8912987Y-19430984D01*
X8884416Y-19416699D01*
X8870130Y-19402413D01*
X8855844Y-19373842D01*
X8841558Y-19316699D01*
X8841558Y-19245270D01*
X8855844Y-19188127D01*
X8870130Y-19159556D01*
X8884416Y-19145270D01*
X8912987Y-19130984D01*
X9198701Y-19130984D02*
X9227273Y-19130984D01*
X9255844Y-19145270D01*
X9270130Y-19159556D01*
X9284416Y-19188127D01*
X9298701Y-19245270D01*
X9298701Y-19316699D01*
X9284416Y-19373842D01*
X9270130Y-19402413D01*
X9255844Y-19416699D01*
X9227273Y-19430984D01*
X9198701Y-19430984D01*
X9170130Y-19416699D01*
X9155844Y-19402413D01*
X9141558Y-19373842D01*
X9127273Y-19316699D01*
X9127273Y-19245270D01*
X9141558Y-19188127D01*
X9155844Y-19159556D01*
X9170130Y-19145270D01*
X9198701Y-19130984D01*
X9427273Y-19430984D02*
X9427273Y-19230984D01*
X9427273Y-19259556D02*
X9441558Y-19245270D01*
X9470130Y-19230984D01*
X9512987Y-19230984D01*
X9541558Y-19245270D01*
X9555844Y-19273842D01*
X9555844Y-19430984D01*
X9555844Y-19273842D02*
X9570130Y-19245270D01*
X9598701Y-19230984D01*
X9641558Y-19230984D01*
X9670130Y-19245270D01*
X9684416Y-19273842D01*
X9684416Y-19430984D01*
X9827273Y-19430984D02*
X9827273Y-19230984D01*
X9827273Y-19259556D02*
X9841558Y-19245270D01*
X9870130Y-19230984D01*
X9912987Y-19230984D01*
X9941558Y-19245270D01*
X9955844Y-19273842D01*
X9955844Y-19430984D01*
X9955844Y-19273842D02*
X9970130Y-19245270D01*
X9998701Y-19230984D01*
X10041558Y-19230984D01*
X10070130Y-19245270D01*
X10084416Y-19273842D01*
X10084416Y-19430984D01*
X10670130Y-19116699D02*
X10412987Y-19502413D01*
X11055844Y-19130984D02*
X11084416Y-19130984D01*
X11112987Y-19145270D01*
X11127273Y-19159556D01*
X11141558Y-19188127D01*
X11155844Y-19245270D01*
X11155844Y-19316699D01*
X11141558Y-19373842D01*
X11127273Y-19402413D01*
X11112987Y-19416699D01*
X11084416Y-19430984D01*
X11055844Y-19430984D01*
X11027273Y-19416699D01*
X11012987Y-19402413D01*
X10998701Y-19373842D01*
X10984416Y-19316699D01*
X10984416Y-19245270D01*
X10998701Y-19188127D01*
X11012987Y-19159556D01*
X11027273Y-19145270D01*
X11055844Y-19130984D01*
X11284416Y-19402413D02*
X11298701Y-19416699D01*
X11284416Y-19430984D01*
X11270130Y-19416699D01*
X11284416Y-19402413D01*
X11284416Y-19430984D01*
X11484416Y-19130984D02*
X11512987Y-19130984D01*
X11541558Y-19145270D01*
X11555844Y-19159556D01*
X11570130Y-19188127D01*
X11584416Y-19245270D01*
X11584416Y-19316699D01*
X11570130Y-19373842D01*
X11555844Y-19402413D01*
X11541558Y-19416699D01*
X11512987Y-19430984D01*
X11484416Y-19430984D01*
X11455844Y-19416699D01*
X11441558Y-19402413D01*
X11427273Y-19373842D01*
X11412987Y-19316699D01*
X11412987Y-19245270D01*
X11427273Y-19188127D01*
X11441558Y-19159556D01*
X11455844Y-19145270D01*
X11484416Y-19130984D01*
X11841558Y-19230984D02*
X11841558Y-19430984D01*
X11770130Y-19116699D02*
X11698701Y-19330984D01*
X11884416Y-19330984D01*
X11970130Y-19130984D02*
X12155844Y-19130984D01*
X12055844Y-19245270D01*
X12098701Y-19245270D01*
X12127273Y-19259556D01*
X12141558Y-19273842D01*
X12155844Y-19302413D01*
X12155844Y-19373842D01*
X12141558Y-19402413D01*
X12127273Y-19416699D01*
X12098701Y-19430984D01*
X12012987Y-19430984D01*
X11984416Y-19416699D01*
X11970130Y-19402413D01*
X12255844Y-19130984D02*
X12441558Y-19130984D01*
X12341558Y-19245270D01*
X12384416Y-19245270D01*
X12412987Y-19259556D01*
X12427273Y-19273842D01*
X12441558Y-19302413D01*
X12441558Y-19373842D01*
X12427273Y-19402413D01*
X12412987Y-19416699D01*
X12384416Y-19430984D01*
X12298701Y-19430984D01*
X12270130Y-19416699D01*
X12255844Y-19402413D01*
X12555844Y-19130984D02*
X12555844Y-19188127D01*
X12670130Y-19130984D02*
X12670130Y-19188127D01*
X13112987Y-19545270D02*
X13098701Y-19530984D01*
X13070130Y-19488127D01*
X13055844Y-19459556D01*
X13041558Y-19416699D01*
X13027273Y-19345270D01*
X13027273Y-19288127D01*
X13041558Y-19216699D01*
X13055844Y-19173842D01*
X13070130Y-19145270D01*
X13098701Y-19102413D01*
X13112987Y-19088127D01*
X13212987Y-19159556D02*
X13227273Y-19145270D01*
X13255844Y-19130984D01*
X13327273Y-19130984D01*
X13355844Y-19145270D01*
X13370130Y-19159556D01*
X13384416Y-19188127D01*
X13384416Y-19216699D01*
X13370130Y-19259556D01*
X13198701Y-19430984D01*
X13384416Y-19430984D01*
X13641558Y-19230984D02*
X13641558Y-19430984D01*
X13570130Y-19116699D02*
X13498701Y-19330984D01*
X13684416Y-19330984D01*
X14027273Y-19430984D02*
X14027273Y-19130984D01*
X14155844Y-19430984D02*
X14155844Y-19273842D01*
X14141558Y-19245270D01*
X14112987Y-19230984D01*
X14070130Y-19230984D01*
X14041558Y-19245270D01*
X14027273Y-19259556D01*
X14341558Y-19430984D02*
X14312987Y-19416699D01*
X14298701Y-19402413D01*
X14284416Y-19373842D01*
X14284416Y-19288127D01*
X14298701Y-19259556D01*
X14312987Y-19245270D01*
X14341558Y-19230984D01*
X14384416Y-19230984D01*
X14412987Y-19245270D01*
X14427273Y-19259556D01*
X14441558Y-19288127D01*
X14441558Y-19373842D01*
X14427273Y-19402413D01*
X14412987Y-19416699D01*
X14384416Y-19430984D01*
X14341558Y-19430984D01*
X14612987Y-19430984D02*
X14584416Y-19416699D01*
X14570130Y-19388127D01*
X14570130Y-19130984D01*
X14841558Y-19416699D02*
X14812987Y-19430984D01*
X14755844Y-19430984D01*
X14727273Y-19416699D01*
X14712987Y-19388127D01*
X14712987Y-19273842D01*
X14727273Y-19245270D01*
X14755844Y-19230984D01*
X14812987Y-19230984D01*
X14841558Y-19245270D01*
X14855844Y-19273842D01*
X14855844Y-19302413D01*
X14712987Y-19330984D01*
X14970130Y-19416699D02*
X14998701Y-19430984D01*
X15055844Y-19430984D01*
X15084416Y-19416699D01*
X15098701Y-19388127D01*
X15098701Y-19373842D01*
X15084416Y-19345270D01*
X15055844Y-19330984D01*
X15012987Y-19330984D01*
X14984416Y-19316699D01*
X14970130Y-19288127D01*
X14970130Y-19273842D01*
X14984416Y-19245270D01*
X15012987Y-19230984D01*
X15055844Y-19230984D01*
X15084416Y-19245270D01*
X15198701Y-19545270D02*
X15212987Y-19530984D01*
X15241558Y-19488127D01*
X15255844Y-19459556D01*
X15270130Y-19416699D01*
X15284416Y-19345270D01*
X15284416Y-19288127D01*
X15270130Y-19216699D01*
X15255844Y-19173842D01*
X15241558Y-19145270D01*
X15212987Y-19102413D01*
X15198701Y-19088127D01*
X7833163Y-19744304D02*
X7833163Y-19638237D01*
X7727096Y-19638237D01*
X7727096Y-19744304D01*
X7833163Y-19744304D01*
X8298701Y-19826984D02*
X8127273Y-19826984D01*
X8212987Y-19826984D02*
X8212987Y-19526984D01*
X8184416Y-19569842D01*
X8155844Y-19598413D01*
X8127273Y-19612699D01*
X8427273Y-19798413D02*
X8441558Y-19812699D01*
X8427273Y-19826984D01*
X8412987Y-19812699D01*
X8427273Y-19798413D01*
X8427273Y-19826984D01*
X8712987Y-19526984D02*
X8570130Y-19526984D01*
X8555844Y-19669842D01*
X8570130Y-19655556D01*
X8598701Y-19641270D01*
X8670130Y-19641270D01*
X8698701Y-19655556D01*
X8712987Y-19669842D01*
X8727273Y-19698413D01*
X8727273Y-19769842D01*
X8712987Y-19798413D01*
X8698701Y-19812699D01*
X8670130Y-19826984D01*
X8598701Y-19826984D01*
X8570130Y-19812699D01*
X8555844Y-19798413D01*
X8912987Y-19526984D02*
X8941558Y-19526984D01*
X8970130Y-19541270D01*
X8984416Y-19555556D01*
X8998701Y-19584127D01*
X9012987Y-19641270D01*
X9012987Y-19712699D01*
X8998701Y-19769842D01*
X8984416Y-19798413D01*
X8970130Y-19812699D01*
X8941558Y-19826984D01*
X8912987Y-19826984D01*
X8884416Y-19812699D01*
X8870130Y-19798413D01*
X8855844Y-19769842D01*
X8841558Y-19712699D01*
X8841558Y-19641270D01*
X8855844Y-19584127D01*
X8870130Y-19555556D01*
X8884416Y-19541270D01*
X8912987Y-19526984D01*
X9198701Y-19526984D02*
X9227273Y-19526984D01*
X9255844Y-19541270D01*
X9270130Y-19555556D01*
X9284416Y-19584127D01*
X9298701Y-19641270D01*
X9298701Y-19712699D01*
X9284416Y-19769842D01*
X9270130Y-19798413D01*
X9255844Y-19812699D01*
X9227273Y-19826984D01*
X9198701Y-19826984D01*
X9170130Y-19812699D01*
X9155844Y-19798413D01*
X9141558Y-19769842D01*
X9127273Y-19712699D01*
X9127273Y-19641270D01*
X9141558Y-19584127D01*
X9155844Y-19555556D01*
X9170130Y-19541270D01*
X9198701Y-19526984D01*
X9427273Y-19826984D02*
X9427273Y-19626984D01*
X9427273Y-19655556D02*
X9441558Y-19641270D01*
X9470130Y-19626984D01*
X9512987Y-19626984D01*
X9541558Y-19641270D01*
X9555844Y-19669842D01*
X9555844Y-19826984D01*
X9555844Y-19669842D02*
X9570130Y-19641270D01*
X9598701Y-19626984D01*
X9641558Y-19626984D01*
X9670130Y-19641270D01*
X9684416Y-19669842D01*
X9684416Y-19826984D01*
X9827273Y-19826984D02*
X9827273Y-19626984D01*
X9827273Y-19655556D02*
X9841558Y-19641270D01*
X9870130Y-19626984D01*
X9912987Y-19626984D01*
X9941558Y-19641270D01*
X9955844Y-19669842D01*
X9955844Y-19826984D01*
X9955844Y-19669842D02*
X9970130Y-19641270D01*
X9998701Y-19626984D01*
X10041558Y-19626984D01*
X10070130Y-19641270D01*
X10084416Y-19669842D01*
X10084416Y-19826984D01*
X10670130Y-19512699D02*
X10412987Y-19898413D01*
X11055844Y-19526984D02*
X11084416Y-19526984D01*
X11112987Y-19541270D01*
X11127273Y-19555556D01*
X11141558Y-19584127D01*
X11155844Y-19641270D01*
X11155844Y-19712699D01*
X11141558Y-19769842D01*
X11127273Y-19798413D01*
X11112987Y-19812699D01*
X11084416Y-19826984D01*
X11055844Y-19826984D01*
X11027273Y-19812699D01*
X11012987Y-19798413D01*
X10998701Y-19769842D01*
X10984416Y-19712699D01*
X10984416Y-19641270D01*
X10998701Y-19584127D01*
X11012987Y-19555556D01*
X11027273Y-19541270D01*
X11055844Y-19526984D01*
X11284416Y-19798413D02*
X11298701Y-19812699D01*
X11284416Y-19826984D01*
X11270130Y-19812699D01*
X11284416Y-19798413D01*
X11284416Y-19826984D01*
X11484416Y-19526984D02*
X11512987Y-19526984D01*
X11541558Y-19541270D01*
X11555844Y-19555556D01*
X11570130Y-19584127D01*
X11584416Y-19641270D01*
X11584416Y-19712699D01*
X11570130Y-19769842D01*
X11555844Y-19798413D01*
X11541558Y-19812699D01*
X11512987Y-19826984D01*
X11484416Y-19826984D01*
X11455844Y-19812699D01*
X11441558Y-19798413D01*
X11427273Y-19769842D01*
X11412987Y-19712699D01*
X11412987Y-19641270D01*
X11427273Y-19584127D01*
X11441558Y-19555556D01*
X11455844Y-19541270D01*
X11484416Y-19526984D01*
X11855844Y-19526984D02*
X11712987Y-19526984D01*
X11698701Y-19669842D01*
X11712987Y-19655556D01*
X11741558Y-19641270D01*
X11812987Y-19641270D01*
X11841558Y-19655556D01*
X11855844Y-19669842D01*
X11870130Y-19698413D01*
X11870130Y-19769842D01*
X11855844Y-19798413D01*
X11841558Y-19812699D01*
X11812987Y-19826984D01*
X11741558Y-19826984D01*
X11712987Y-19812699D01*
X11698701Y-19798413D01*
X12012987Y-19826984D02*
X12070130Y-19826984D01*
X12098701Y-19812699D01*
X12112987Y-19798413D01*
X12141558Y-19755556D01*
X12155844Y-19698413D01*
X12155844Y-19584127D01*
X12141558Y-19555556D01*
X12127273Y-19541270D01*
X12098701Y-19526984D01*
X12041558Y-19526984D01*
X12012987Y-19541270D01*
X11998701Y-19555556D01*
X11984416Y-19584127D01*
X11984416Y-19655556D01*
X11998701Y-19684127D01*
X12012987Y-19698413D01*
X12041558Y-19712699D01*
X12098701Y-19712699D01*
X12127273Y-19698413D01*
X12141558Y-19684127D01*
X12155844Y-19655556D01*
X12441558Y-19826984D02*
X12270130Y-19826984D01*
X12355844Y-19826984D02*
X12355844Y-19526984D01*
X12327273Y-19569842D01*
X12298701Y-19598413D01*
X12270130Y-19612699D01*
X12555844Y-19526984D02*
X12555844Y-19584127D01*
X12670130Y-19526984D02*
X12670130Y-19584127D01*
X13112987Y-19941270D02*
X13098701Y-19926984D01*
X13070130Y-19884127D01*
X13055844Y-19855556D01*
X13041558Y-19812699D01*
X13027273Y-19741270D01*
X13027273Y-19684127D01*
X13041558Y-19612699D01*
X13055844Y-19569842D01*
X13070130Y-19541270D01*
X13098701Y-19498413D01*
X13112987Y-19484127D01*
X13284416Y-19526984D02*
X13312987Y-19526984D01*
X13341558Y-19541270D01*
X13355844Y-19555556D01*
X13370130Y-19584127D01*
X13384416Y-19641270D01*
X13384416Y-19712699D01*
X13370130Y-19769842D01*
X13355844Y-19798413D01*
X13341558Y-19812699D01*
X13312987Y-19826984D01*
X13284416Y-19826984D01*
X13255844Y-19812699D01*
X13241558Y-19798413D01*
X13227273Y-19769842D01*
X13212987Y-19712699D01*
X13212987Y-19641270D01*
X13227273Y-19584127D01*
X13241558Y-19555556D01*
X13255844Y-19541270D01*
X13284416Y-19526984D01*
X13741558Y-19826984D02*
X13741558Y-19526984D01*
X13870130Y-19826984D02*
X13870130Y-19669842D01*
X13855844Y-19641270D01*
X13827273Y-19626984D01*
X13784416Y-19626984D01*
X13755844Y-19641270D01*
X13741558Y-19655556D01*
X14055844Y-19826984D02*
X14027273Y-19812699D01*
X14012987Y-19798413D01*
X13998701Y-19769842D01*
X13998701Y-19684127D01*
X14012987Y-19655556D01*
X14027273Y-19641270D01*
X14055844Y-19626984D01*
X14098701Y-19626984D01*
X14127273Y-19641270D01*
X14141558Y-19655556D01*
X14155844Y-19684127D01*
X14155844Y-19769842D01*
X14141558Y-19798413D01*
X14127273Y-19812699D01*
X14098701Y-19826984D01*
X14055844Y-19826984D01*
X14327273Y-19826984D02*
X14298701Y-19812699D01*
X14284416Y-19784127D01*
X14284416Y-19526984D01*
X14555844Y-19812699D02*
X14527273Y-19826984D01*
X14470130Y-19826984D01*
X14441558Y-19812699D01*
X14427273Y-19784127D01*
X14427273Y-19669842D01*
X14441558Y-19641270D01*
X14470130Y-19626984D01*
X14527273Y-19626984D01*
X14555844Y-19641270D01*
X14570130Y-19669842D01*
X14570130Y-19698413D01*
X14427273Y-19726984D01*
X14684416Y-19812699D02*
X14712987Y-19826984D01*
X14770130Y-19826984D01*
X14798701Y-19812699D01*
X14812987Y-19784127D01*
X14812987Y-19769842D01*
X14798701Y-19741270D01*
X14770130Y-19726984D01*
X14727273Y-19726984D01*
X14698701Y-19712699D01*
X14684416Y-19684127D01*
X14684416Y-19669842D01*
X14698701Y-19641270D01*
X14727273Y-19626984D01*
X14770130Y-19626984D01*
X14798701Y-19641270D01*
X15170130Y-19712699D02*
X15398701Y-19712699D01*
X15284416Y-19826984D02*
X15284416Y-19598413D01*
X15898701Y-19626984D02*
X15898701Y-19826984D01*
X15827273Y-19512699D02*
X15755844Y-19726984D01*
X15941558Y-19726984D01*
X16270130Y-19812699D02*
X16298701Y-19826984D01*
X16355844Y-19826984D01*
X16384416Y-19812699D01*
X16398701Y-19784127D01*
X16398701Y-19769842D01*
X16384416Y-19741270D01*
X16355844Y-19726984D01*
X16312987Y-19726984D01*
X16284416Y-19712699D01*
X16270130Y-19684127D01*
X16270130Y-19669842D01*
X16284416Y-19641270D01*
X16312987Y-19626984D01*
X16355844Y-19626984D01*
X16384416Y-19641270D01*
X16570130Y-19826984D02*
X16541558Y-19812699D01*
X16527273Y-19784127D01*
X16527273Y-19526984D01*
X16727273Y-19826984D02*
X16698701Y-19812699D01*
X16684416Y-19798413D01*
X16670130Y-19769842D01*
X16670130Y-19684127D01*
X16684416Y-19655556D01*
X16698701Y-19641270D01*
X16727273Y-19626984D01*
X16770130Y-19626984D01*
X16798701Y-19641270D01*
X16812987Y-19655556D01*
X16827273Y-19684127D01*
X16827273Y-19769842D01*
X16812987Y-19798413D01*
X16798701Y-19812699D01*
X16770130Y-19826984D01*
X16727273Y-19826984D01*
X16912987Y-19626984D02*
X17027273Y-19626984D01*
X16955844Y-19526984D02*
X16955844Y-19784127D01*
X16970130Y-19812699D01*
X16998701Y-19826984D01*
X17027273Y-19826984D01*
X17112987Y-19812699D02*
X17141558Y-19826984D01*
X17198701Y-19826984D01*
X17227273Y-19812699D01*
X17241558Y-19784127D01*
X17241558Y-19769842D01*
X17227273Y-19741270D01*
X17198701Y-19726984D01*
X17155844Y-19726984D01*
X17127273Y-19712699D01*
X17112987Y-19684127D01*
X17112987Y-19669842D01*
X17127273Y-19641270D01*
X17155844Y-19626984D01*
X17198701Y-19626984D01*
X17227273Y-19641270D01*
X17341558Y-19941270D02*
X17355844Y-19926984D01*
X17384416Y-19884127D01*
X17398701Y-19855556D01*
X17412987Y-19812699D01*
X17427273Y-19741270D01*
X17427273Y-19684127D01*
X17412987Y-19612699D01*
X17398701Y-19569842D01*
X17384416Y-19541270D01*
X17355844Y-19498413D01*
X17341558Y-19484127D01*
M02*
