M48
; DRILL file {KiCad (5.1.10)-1} date 11/21/21 17:13:47
; FORMAT={-:-/ absolute / metric / decimal}
; #@! TF.CreationDate,2021-11-21T17:13:47-05:00
; #@! TF.GenerationSoftware,Kicad,Pcbnew,(5.1.10)-1
; #@! TF.FileFunction,Plated,1,2,PTH
FMAT,2
METRIC
T1C0.400
T2C1.000
T3C1.100
T4C1.500
%
G90
G05
T1
X80.957Y-80.957
X80.957Y-83.338
X80.957Y-102.387
X80.957Y-121.436
X80.957Y-140.485
X80.957Y-173.027
X82.545Y-96.038
X82.545Y-116.674
X82.545Y-134.135
X82.545Y-154.772
X84.132Y-82.545
X84.132Y-100.8
X84.132Y-111.118
X84.132Y-130.167
X84.132Y-138.897
X84.132Y-149.216
X85.72Y-90.482
X89.688Y-169.058
X92.069Y-115.087
X92.863Y-153.184
X93.657Y-167.471
X98.419Y-96.038
X98.419Y-115.087
X98.419Y-134.135
X98.419Y-153.184
X100.006Y-83.338
X100.006Y-102.387
X100.006Y-121.436
X100.006Y-140.485
X103.181Y-93.657
X103.181Y-112.705
X103.181Y-131.754
X103.181Y-150.803
X103.181Y-156.359
X104.768Y-170.645
X106.356Y-160.327
X107.149Y-155.565
X117.468Y-96.038
X117.468Y-115.087
X117.468Y-134.135
X117.468Y-153.184
X119.055Y-83.338
X119.055Y-102.387
X119.055Y-121.436
X119.055Y-140.485
X119.055Y-165.09
X120.642Y-153.184
X120.642Y-169.058
X122.23Y-93.657
X122.23Y-112.705
X122.23Y-131.754
X122.23Y-150.803
X123.817Y-146.834
X126.992Y-173.027
X130.96Y-161.915
X131.754Y-169.058
X132.548Y-151.597
X133.342Y-117.468
X133.342Y-137.31
X134.135Y-129.373
X134.135Y-150.803
X135.723Y-79.914
X135.723Y-83.338
X136.516Y-96.038
X136.516Y-115.087
X136.516Y-132.548
X136.516Y-139.691
X137.31Y-134.135
X137.31Y-150.803
X138.104Y-83.338
X138.897Y-149.216
X141.279Y-93.657
X142.072Y-122.23
X142.072Y-160.327
X142.072Y-162.708
X142.866Y-69.846
X142.866Y-76.989
X142.866Y-140.485
X144.453Y-103.181
X145.247Y-120.642
X145.247Y-127.786
X145.247Y-147.628
X146.041Y-109.531
X146.834Y-129.373
X146.834Y-173.027
X147.628Y-122.23
X155.565Y-76.195
X155.565Y-96.038
X155.565Y-123.817
X155.565Y-132.548
X155.565Y-150.803
X155.565Y-161.121
X155.565Y-169.058
X158.74Y-63.496
X159.534Y-103.181
X160.327Y-165.883
X161.915Y-159.534
X164.296Y-170.645
X167.471Y-82.545
X168.264Y-87.307
X169.058Y-81.751
X169.852Y-72.227
X169.852Y-77.783
X169.852Y-118.261
X173.027Y-102.784
X173.82Y-83.338
X173.82Y-92.069
X173.82Y-99.212
X173.82Y-131.754
X175.408Y-96.038
X176.201Y-169.852
X177.789Y-169.058
X181.757Y-62.702
X181.757Y-80.164
X181.757Y-98.419
X181.757Y-116.674
X181.757Y-135.723
X181.757Y-155.565
X181.757Y-173.027
T2
X138.684Y-68.02
X138.684Y-73.02
X153.184Y-68.02
X153.184Y-70.52
X153.184Y-73.02
X158.74Y-67.465
X158.74Y-70.004
X158.74Y-72.544
X158.74Y-75.084
X162.495Y-143.422
X162.495Y-148.422
X166.232Y-105.28
X167.153Y-93.657
X167.153Y-96.197
X168.772Y-105.28
X169.693Y-93.657
X169.693Y-96.197
X171.312Y-105.28
X172.233Y-93.657
X172.233Y-96.197
X173.852Y-105.28
X176.995Y-143.422
X176.995Y-145.922
X176.995Y-148.422
T3
X162.232Y-70.162
X162.232Y-72.702
X162.232Y-75.242
X162.232Y-77.782
X162.232Y-80.322
X162.232Y-82.862
X162.232Y-85.402
X162.232Y-87.942
X162.232Y-90.482
X162.232Y-93.022
X162.232Y-95.562
X162.232Y-98.102
X177.472Y-70.162
X177.472Y-72.702
X177.472Y-75.242
X177.472Y-77.782
X177.472Y-80.322
X177.472Y-82.862
X177.472Y-85.402
X177.472Y-87.942
X177.472Y-90.482
X177.472Y-93.022
X177.472Y-95.562
X177.472Y-98.102
T4
X146.334Y-64.92G85X145.034Y-64.92
G05
X146.334Y-76.12G85X145.034Y-76.12
G05
X170.145Y-140.322G85X168.845Y-140.322
G05
X170.145Y-151.522G85X168.845Y-151.522
G05
T0
M30
