M48
; DRILL file {KiCad (6.0.0)} date Thu Feb  3 18:25:40 2022
; FORMAT={-:-/ absolute / metric / decimal}
; #@! TF.CreationDate,2022-02-03T18:25:40-05:00
; #@! TF.GenerationSoftware,Kicad,Pcbnew,(6.0.0)
; #@! TF.FileFunction,NonPlated,1,2,NPTH
FMAT,2
METRIC
; #@! TA.AperFunction,NonPlated,NPTH,ComponentDrill
T1C1.750
; #@! TA.AperFunction,NonPlated,NPTH,ComponentDrill
T2C3.000
; #@! TA.AperFunction,NonPlated,NPTH,ComponentDrill
T3C3.050
; #@! TA.AperFunction,NonPlated,NPTH,ComponentDrill
T4C4.000
%
G90
G05
T1
X83.815Y-88.895
X83.815Y-107.945
X83.815Y-126.995
X83.815Y-146.045
X93.34Y-165.095
X93.975Y-88.895
X93.975Y-107.945
X93.975Y-126.995
X93.975Y-146.045
X102.865Y-88.895
X102.865Y-107.945
X102.865Y-126.995
X102.865Y-146.045
X103.5Y-165.095
X113.025Y-88.895
X113.025Y-107.945
X113.025Y-126.995
X113.025Y-146.045
X121.915Y-88.895
X121.915Y-107.945
X121.915Y-126.995
X121.915Y-146.045
X121.915Y-165.095
X132.075Y-88.895
X132.075Y-107.945
X132.075Y-126.995
X132.075Y-146.045
X132.075Y-165.095
X140.965Y-88.895
X146.045Y-112.39
X146.045Y-122.55
X146.045Y-150.49
X146.045Y-160.65
X151.125Y-88.895
X164.778Y-165.095
X174.938Y-165.095
T2
X85.085Y-86.355
X85.085Y-105.405
X85.085Y-124.455
X85.085Y-143.505
X91.435Y-83.815
X91.435Y-102.865
X91.435Y-121.915
X91.435Y-140.965
X94.61Y-162.555
X100.96Y-160.015
X104.135Y-86.355
X104.135Y-105.405
X104.135Y-124.455
X104.135Y-143.505
X110.485Y-83.815
X110.485Y-102.865
X110.485Y-121.915
X110.485Y-140.965
X123.185Y-86.355
X123.185Y-105.405
X123.185Y-124.455
X123.185Y-143.505
X123.185Y-162.555
X129.535Y-83.815
X129.535Y-102.865
X129.535Y-121.915
X129.535Y-140.965
X129.535Y-160.015
X142.235Y-86.355
X148.585Y-83.815
X148.585Y-113.66
X148.585Y-151.76
X151.125Y-120.01
X151.125Y-158.11
X166.048Y-162.555
X172.398Y-160.015
T3
X86.482Y-172.095
X110.358Y-172.095
X153.045Y-105.532
X153.045Y-129.408
X153.045Y-143.632
X153.045Y-167.508
T4
X86.482Y-156.855
X88.895Y-88.895
X88.895Y-107.945
X88.895Y-126.995
X88.895Y-146.045
X98.42Y-165.095
X107.945Y-88.895
X107.945Y-107.945
X107.945Y-126.995
X107.945Y-146.045
X110.358Y-156.855
X126.995Y-88.895
X126.995Y-107.945
X126.995Y-126.995
X126.995Y-146.045
X126.995Y-165.095
X137.805Y-105.532
X137.805Y-129.408
X137.805Y-143.632
X137.805Y-167.508
X146.045Y-88.895
X146.045Y-117.47
X146.045Y-155.57
X169.858Y-165.095
T0
M30
