%FSLAX45Y45*%
G04 Gerber Fmt 4.5, Leading zero omitted, Abs format (unit mm)*
G04 Created by KiCad (PCBNEW (5.1.10)-1) date 2021-11-21 22:53:39*
%MOMM*%
%LPD*%
G01*
G04 APERTURE LIST*
%TA.AperFunction,Profile*%
%ADD10C,0.050000*%
%TD*%
%ADD11C,0.200000*%
%ADD12C,0.300000*%
G04 APERTURE END LIST*
D10*
X13969120Y-6032120D02*
X15874000Y-6032120D01*
X15635890Y-10318100D02*
X16112110Y-10318100D01*
X16191480Y-6349600D02*
X16191480Y-10238730D01*
X15556520Y-13135735D02*
X15556520Y-10397470D01*
X15635890Y-13215105D02*
X18334470Y-13215105D01*
X15874000Y-6032120D02*
G75*
G02*
X16191480Y-6349600I0J-317480D01*
G01*
X16191480Y-10238730D02*
G75*
G02*
X16112110Y-10318100I-79370J0D01*
G01*
X15556520Y-10397470D02*
G75*
G02*
X15635890Y-10318100I79370J0D01*
G01*
X18413840Y-13294475D02*
X18413840Y-17223290D01*
X18334470Y-13215105D02*
G75*
G02*
X18413840Y-13294475I0J-79370D01*
G01*
X15635890Y-13215105D02*
G75*
G02*
X15556520Y-13135735I0J79370D01*
G01*
X9589500Y-9539650D02*
G75*
G02*
X9539500Y-9589650I-50000J0D01*
G01*
X8239500Y-8189650D02*
X9539500Y-8189650D01*
X8239500Y-9589650D02*
X9539500Y-9589650D01*
X8189500Y-8239650D02*
G75*
G02*
X8239500Y-8189650I50000J0D01*
G01*
X8239500Y-9589650D02*
G75*
G02*
X8189500Y-9539650I0J50000D01*
G01*
X8189500Y-8239650D02*
X8189500Y-9539650D01*
X9589500Y-8239650D02*
X9589500Y-9539650D01*
X9539500Y-8189650D02*
G75*
G02*
X9589500Y-8239650I0J-50000D01*
G01*
X17685750Y-17159650D02*
G75*
G02*
X17635750Y-17209650I-50000J0D01*
G01*
X16335750Y-17209650D02*
G75*
G02*
X16285750Y-17159650I0J50000D01*
G01*
X17635750Y-15809650D02*
G75*
G02*
X17685750Y-15859650I0J-50000D01*
G01*
X16285750Y-15859650D02*
G75*
G02*
X16335750Y-15809650I50000J0D01*
G01*
X17685750Y-15859650D02*
X17685750Y-17159650D01*
X16285750Y-15859650D02*
X16285750Y-17159650D01*
X16335750Y-17209650D02*
X17635750Y-17209650D01*
X16335750Y-15809650D02*
X17635750Y-15809650D01*
X13399500Y-17159650D02*
G75*
G02*
X13349500Y-17209650I-50000J0D01*
G01*
X12049500Y-17209650D02*
G75*
G02*
X11999500Y-17159650I0J50000D01*
G01*
X13349500Y-15809650D02*
G75*
G02*
X13399500Y-15859650I0J-50000D01*
G01*
X11999500Y-15859650D02*
G75*
G02*
X12049500Y-15809650I50000J0D01*
G01*
X13399500Y-15859650D02*
X13399500Y-17159650D01*
X11999500Y-15859650D02*
X11999500Y-17159650D01*
X12049500Y-17209650D02*
X13349500Y-17209650D01*
X12049500Y-15809650D02*
X13349500Y-15809650D01*
X10685560Y-15658270D02*
G75*
G02*
X10735560Y-15608270I50000J0D01*
G01*
X11335560Y-15608270D02*
G75*
G02*
X11385560Y-15658270I0J-50000D01*
G01*
X10735560Y-17108270D02*
G75*
G02*
X10685560Y-17058270I0J50000D01*
G01*
X11385560Y-17058270D02*
G75*
G02*
X11335560Y-17108270I-50000J0D01*
G01*
X10685560Y-17058270D02*
X10685560Y-15658270D01*
X11385560Y-17058270D02*
X11385560Y-15658270D01*
X11335560Y-15608270D02*
X10735560Y-15608270D01*
X11335560Y-17108270D02*
X10735560Y-17108270D01*
X8297960Y-15658270D02*
G75*
G02*
X8347960Y-15608270I50000J0D01*
G01*
X8947960Y-15608270D02*
G75*
G02*
X8997960Y-15658270I0J-50000D01*
G01*
X8347960Y-17108270D02*
G75*
G02*
X8297960Y-17058270I0J50000D01*
G01*
X8997960Y-17058270D02*
G75*
G02*
X8947960Y-17108270I-50000J0D01*
G01*
X8297960Y-17058270D02*
X8297960Y-15658270D01*
X8997960Y-17058270D02*
X8997960Y-15658270D01*
X8947960Y-15608270D02*
X8347960Y-15608270D01*
X8947960Y-17108270D02*
X8347960Y-17108270D01*
X9141760Y-15858270D02*
G75*
G02*
X9191760Y-15808270I50000J0D01*
G01*
X10491760Y-15808270D02*
G75*
G02*
X10541760Y-15858270I0J-50000D01*
G01*
X9191760Y-17208270D02*
G75*
G02*
X9141760Y-17158270I0J50000D01*
G01*
X10541760Y-17158270D02*
G75*
G02*
X10491760Y-17208270I-50000J0D01*
G01*
X9141760Y-17158270D02*
X9141760Y-15858270D01*
X10541760Y-17158270D02*
X10541760Y-15858270D01*
X10491760Y-15808270D02*
X9191760Y-15808270D01*
X10491760Y-17208270D02*
X9191760Y-17208270D01*
X17685750Y-15254650D02*
G75*
G02*
X17635750Y-15304650I-50000J0D01*
G01*
X16335750Y-15304650D02*
G75*
G02*
X16285750Y-15254650I0J50000D01*
G01*
X17635750Y-13904650D02*
G75*
G02*
X17685750Y-13954650I0J-50000D01*
G01*
X16285750Y-13954650D02*
G75*
G02*
X16335750Y-13904650I50000J0D01*
G01*
X17685750Y-13954650D02*
X17685750Y-15254650D01*
X16285750Y-13954650D02*
X16285750Y-15254650D01*
X16335750Y-15304650D02*
X17635750Y-15304650D01*
X16335750Y-13904650D02*
X17635750Y-13904650D01*
X13754500Y-14713350D02*
G75*
G02*
X13704500Y-14663350I0J50000D01*
G01*
X13704500Y-14063350D02*
G75*
G02*
X13754500Y-14013350I50000J0D01*
G01*
X15204500Y-14663350D02*
G75*
G02*
X15154500Y-14713350I-50000J0D01*
G01*
X15154500Y-14013350D02*
G75*
G02*
X15204500Y-14063350I0J-50000D01*
G01*
X15154500Y-14713350D02*
X13754500Y-14713350D01*
X15154500Y-14013350D02*
X13754500Y-14013350D01*
X13704500Y-14063350D02*
X13704500Y-14663350D01*
X15204500Y-14063350D02*
X15204500Y-14663350D01*
X13754500Y-17100950D02*
G75*
G02*
X13704500Y-17050950I0J50000D01*
G01*
X13704500Y-16450950D02*
G75*
G02*
X13754500Y-16400950I50000J0D01*
G01*
X15204500Y-17050950D02*
G75*
G02*
X15154500Y-17100950I-50000J0D01*
G01*
X15154500Y-16400950D02*
G75*
G02*
X15204500Y-16450950I0J-50000D01*
G01*
X15154500Y-17100950D02*
X13754500Y-17100950D01*
X15154500Y-16400950D02*
X13754500Y-16400950D01*
X13704500Y-16450950D02*
X13704500Y-17050950D01*
X15204500Y-16450950D02*
X15204500Y-17050950D01*
X13954500Y-16257150D02*
G75*
G02*
X13904500Y-16207150I0J50000D01*
G01*
X13904500Y-14907150D02*
G75*
G02*
X13954500Y-14857150I50000J0D01*
G01*
X15304500Y-16207150D02*
G75*
G02*
X15254500Y-16257150I-50000J0D01*
G01*
X15254500Y-14857150D02*
G75*
G02*
X15304500Y-14907150I0J-50000D01*
G01*
X15254500Y-16257150D02*
X13954500Y-16257150D01*
X15254500Y-14857150D02*
X13954500Y-14857150D01*
X13904500Y-14907150D02*
X13904500Y-16207150D01*
X15304500Y-14907150D02*
X15304500Y-16207150D01*
X13399500Y-15254650D02*
G75*
G02*
X13349500Y-15304650I-50000J0D01*
G01*
X12049500Y-15304650D02*
G75*
G02*
X11999500Y-15254650I0J50000D01*
G01*
X13349500Y-13904650D02*
G75*
G02*
X13399500Y-13954650I0J-50000D01*
G01*
X11999500Y-13954650D02*
G75*
G02*
X12049500Y-13904650I50000J0D01*
G01*
X13399500Y-13954650D02*
X13399500Y-15254650D01*
X11999500Y-13954650D02*
X11999500Y-15254650D01*
X12049500Y-15304650D02*
X13349500Y-15304650D01*
X12049500Y-13904650D02*
X13349500Y-13904650D01*
X11494500Y-15254650D02*
G75*
G02*
X11444500Y-15304650I-50000J0D01*
G01*
X10144500Y-15304650D02*
G75*
G02*
X10094500Y-15254650I0J50000D01*
G01*
X11444500Y-13904650D02*
G75*
G02*
X11494500Y-13954650I0J-50000D01*
G01*
X10094500Y-13954650D02*
G75*
G02*
X10144500Y-13904650I50000J0D01*
G01*
X11494500Y-13954650D02*
X11494500Y-15254650D01*
X10094500Y-13954650D02*
X10094500Y-15254650D01*
X10144500Y-15304650D02*
X11444500Y-15304650D01*
X10144500Y-13904650D02*
X11444500Y-13904650D01*
X9589500Y-15254650D02*
G75*
G02*
X9539500Y-15304650I-50000J0D01*
G01*
X8239500Y-15304650D02*
G75*
G02*
X8189500Y-15254650I0J50000D01*
G01*
X9539500Y-13904650D02*
G75*
G02*
X9589500Y-13954650I0J-50000D01*
G01*
X8189500Y-13954650D02*
G75*
G02*
X8239500Y-13904650I50000J0D01*
G01*
X9589500Y-13954650D02*
X9589500Y-15254650D01*
X8189500Y-13954650D02*
X8189500Y-15254650D01*
X8239500Y-15304650D02*
X9539500Y-15304650D01*
X8239500Y-13904650D02*
X9539500Y-13904650D01*
X13399500Y-13349650D02*
G75*
G02*
X13349500Y-13399650I-50000J0D01*
G01*
X12049500Y-13399650D02*
G75*
G02*
X11999500Y-13349650I0J50000D01*
G01*
X13349500Y-11999650D02*
G75*
G02*
X13399500Y-12049650I0J-50000D01*
G01*
X11999500Y-12049650D02*
G75*
G02*
X12049500Y-11999650I50000J0D01*
G01*
X13399500Y-12049650D02*
X13399500Y-13349650D01*
X11999500Y-12049650D02*
X11999500Y-13349650D01*
X12049500Y-13399650D02*
X13349500Y-13399650D01*
X12049500Y-11999650D02*
X13349500Y-11999650D01*
X11494500Y-13349650D02*
G75*
G02*
X11444500Y-13399650I-50000J0D01*
G01*
X10144500Y-13399650D02*
G75*
G02*
X10094500Y-13349650I0J50000D01*
G01*
X11444500Y-11999650D02*
G75*
G02*
X11494500Y-12049650I0J-50000D01*
G01*
X10094500Y-12049650D02*
G75*
G02*
X10144500Y-11999650I50000J0D01*
G01*
X11494500Y-12049650D02*
X11494500Y-13349650D01*
X10094500Y-12049650D02*
X10094500Y-13349650D01*
X10144500Y-13399650D02*
X11444500Y-13399650D01*
X10144500Y-11999650D02*
X11444500Y-11999650D01*
X9589500Y-13349650D02*
G75*
G02*
X9539500Y-13399650I-50000J0D01*
G01*
X8239500Y-13399650D02*
G75*
G02*
X8189500Y-13349650I0J50000D01*
G01*
X9539500Y-11999650D02*
G75*
G02*
X9589500Y-12049650I0J-50000D01*
G01*
X8189500Y-12049650D02*
G75*
G02*
X8239500Y-11999650I50000J0D01*
G01*
X9589500Y-12049650D02*
X9589500Y-13349650D01*
X8189500Y-12049650D02*
X8189500Y-13349650D01*
X8239500Y-13399650D02*
X9539500Y-13399650D01*
X8239500Y-11999650D02*
X9539500Y-11999650D01*
X13754500Y-10903350D02*
G75*
G02*
X13704500Y-10853350I0J50000D01*
G01*
X13704500Y-10253350D02*
G75*
G02*
X13754500Y-10203350I50000J0D01*
G01*
X15204500Y-10853350D02*
G75*
G02*
X15154500Y-10903350I-50000J0D01*
G01*
X15154500Y-10203350D02*
G75*
G02*
X15204500Y-10253350I0J-50000D01*
G01*
X15154500Y-10903350D02*
X13754500Y-10903350D01*
X15154500Y-10203350D02*
X13754500Y-10203350D01*
X13704500Y-10253350D02*
X13704500Y-10853350D01*
X15204500Y-10253350D02*
X15204500Y-10853350D01*
X13754500Y-13290950D02*
G75*
G02*
X13704500Y-13240950I0J50000D01*
G01*
X13704500Y-12640950D02*
G75*
G02*
X13754500Y-12590950I50000J0D01*
G01*
X15204500Y-13240950D02*
G75*
G02*
X15154500Y-13290950I-50000J0D01*
G01*
X15154500Y-12590950D02*
G75*
G02*
X15204500Y-12640950I0J-50000D01*
G01*
X15154500Y-13290950D02*
X13754500Y-13290950D01*
X15154500Y-12590950D02*
X13754500Y-12590950D01*
X13704500Y-12640950D02*
X13704500Y-13240950D01*
X15204500Y-12640950D02*
X15204500Y-13240950D01*
X13954500Y-12447150D02*
G75*
G02*
X13904500Y-12397150I0J50000D01*
G01*
X13904500Y-11097150D02*
G75*
G02*
X13954500Y-11047150I50000J0D01*
G01*
X15304500Y-12397150D02*
G75*
G02*
X15254500Y-12447150I-50000J0D01*
G01*
X15254500Y-11047150D02*
G75*
G02*
X15304500Y-11097150I0J-50000D01*
G01*
X15254500Y-12447150D02*
X13954500Y-12447150D01*
X15254500Y-11047150D02*
X13954500Y-11047150D01*
X13904500Y-11097150D02*
X13904500Y-12397150D01*
X15304500Y-11097150D02*
X15304500Y-12397150D01*
X13399500Y-11444650D02*
G75*
G02*
X13349500Y-11494650I-50000J0D01*
G01*
X12049500Y-11494650D02*
G75*
G02*
X11999500Y-11444650I0J50000D01*
G01*
X13349500Y-10094650D02*
G75*
G02*
X13399500Y-10144650I0J-50000D01*
G01*
X11999500Y-10144650D02*
G75*
G02*
X12049500Y-10094650I50000J0D01*
G01*
X13399500Y-10144650D02*
X13399500Y-11444650D01*
X11999500Y-10144650D02*
X11999500Y-11444650D01*
X12049500Y-11494650D02*
X13349500Y-11494650D01*
X12049500Y-10094650D02*
X13349500Y-10094650D01*
X11494500Y-11444650D02*
G75*
G02*
X11444500Y-11494650I-50000J0D01*
G01*
X10144500Y-11494650D02*
G75*
G02*
X10094500Y-11444650I0J50000D01*
G01*
X11444500Y-10094650D02*
G75*
G02*
X11494500Y-10144650I0J-50000D01*
G01*
X10094500Y-10144650D02*
G75*
G02*
X10144500Y-10094650I50000J0D01*
G01*
X11494500Y-10144650D02*
X11494500Y-11444650D01*
X10094500Y-10144650D02*
X10094500Y-11444650D01*
X10144500Y-11494650D02*
X11444500Y-11494650D01*
X10144500Y-10094650D02*
X11444500Y-10094650D01*
X9589500Y-11444650D02*
G75*
G02*
X9539500Y-11494650I-50000J0D01*
G01*
X8239500Y-11494650D02*
G75*
G02*
X8189500Y-11444650I0J50000D01*
G01*
X9539500Y-10094650D02*
G75*
G02*
X9589500Y-10144650I0J-50000D01*
G01*
X8189500Y-10144650D02*
G75*
G02*
X8239500Y-10094650I50000J0D01*
G01*
X9589500Y-10144650D02*
X9589500Y-11444650D01*
X8189500Y-10144650D02*
X8189500Y-11444650D01*
X8239500Y-11494650D02*
X9539500Y-11494650D01*
X8239500Y-10094650D02*
X9539500Y-10094650D01*
X15304500Y-9539650D02*
G75*
G02*
X15254500Y-9589650I-50000J0D01*
G01*
X13954500Y-9589650D02*
G75*
G02*
X13904500Y-9539650I0J50000D01*
G01*
X15254500Y-8189650D02*
G75*
G02*
X15304500Y-8239650I0J-50000D01*
G01*
X13904500Y-8239650D02*
G75*
G02*
X13954500Y-8189650I50000J0D01*
G01*
X15304500Y-8239650D02*
X15304500Y-9539650D01*
X13904500Y-8239650D02*
X13904500Y-9539650D01*
X13954500Y-9589650D02*
X15254500Y-9589650D01*
X13954500Y-8189650D02*
X15254500Y-8189650D01*
X13399500Y-9539650D02*
G75*
G02*
X13349500Y-9589650I-50000J0D01*
G01*
X12049500Y-9589650D02*
G75*
G02*
X11999500Y-9539650I0J50000D01*
G01*
X13349500Y-8189650D02*
G75*
G02*
X13399500Y-8239650I0J-50000D01*
G01*
X11999500Y-8239650D02*
G75*
G02*
X12049500Y-8189650I50000J0D01*
G01*
X13399500Y-8239650D02*
X13399500Y-9539650D01*
X11999500Y-8239650D02*
X11999500Y-9539650D01*
X12049500Y-9589650D02*
X13349500Y-9589650D01*
X12049500Y-8189650D02*
X13349500Y-8189650D01*
X11494500Y-9539650D02*
G75*
G02*
X11444500Y-9589650I-50000J0D01*
G01*
X10144500Y-9589650D02*
G75*
G02*
X10094500Y-9539650I0J50000D01*
G01*
X11444500Y-8189650D02*
G75*
G02*
X11494500Y-8239650I0J-50000D01*
G01*
X10094500Y-8239650D02*
G75*
G02*
X10144500Y-8189650I50000J0D01*
G01*
X11494500Y-8239650D02*
X11494500Y-9539650D01*
X10094500Y-8239650D02*
X10094500Y-9539650D01*
X10144500Y-9589650D02*
X11444500Y-9589650D01*
X10144500Y-8189650D02*
X11444500Y-8189650D01*
X15304500Y-7634620D02*
G75*
G02*
X15254500Y-7684620I-50000J0D01*
G01*
X13954500Y-7684620D02*
G75*
G02*
X13904500Y-7634620I0J50000D01*
G01*
X15254500Y-6284620D02*
G75*
G02*
X15304500Y-6334620I0J-50000D01*
G01*
X13904500Y-6334620D02*
G75*
G02*
X13954500Y-6284620I50000J0D01*
G01*
X15304500Y-6334620D02*
X15304500Y-7634620D01*
X13904500Y-6334620D02*
X13904500Y-7634620D01*
X13954500Y-7684620D02*
X15254500Y-7684620D01*
X13954500Y-6284620D02*
X15254500Y-6284620D01*
X8175110Y-17540770D02*
X18096360Y-17540770D01*
X7857630Y-8175110D02*
X7857630Y-17223290D01*
X13334160Y-7857630D02*
X8175110Y-7857630D01*
X13651640Y-6349600D02*
X13651640Y-7540150D01*
X13651640Y-6349600D02*
G75*
G02*
X13969120Y-6032120I317480J0D01*
G01*
X13651640Y-7540150D02*
G75*
G02*
X13334160Y-7857630I-317480J0D01*
G01*
X18413840Y-17223290D02*
G75*
G02*
X18096360Y-17540770I-317480J0D01*
G01*
X8175110Y-17540770D02*
G75*
G02*
X7857630Y-17223290I0J317480D01*
G01*
X7857630Y-8175110D02*
G75*
G02*
X8175110Y-7857630I317480J0D01*
G01*
D11*
D12*
X8141558Y-18008984D02*
X8141558Y-17708984D01*
X8212987Y-17708984D01*
X8255844Y-17723270D01*
X8284416Y-17751842D01*
X8298701Y-17780413D01*
X8312987Y-17837556D01*
X8312987Y-17880413D01*
X8298701Y-17937556D01*
X8284416Y-17966127D01*
X8255844Y-17994699D01*
X8212987Y-18008984D01*
X8141558Y-18008984D01*
X8441558Y-18008984D02*
X8441558Y-17808984D01*
X8441558Y-17866127D02*
X8455844Y-17837556D01*
X8470130Y-17823270D01*
X8498701Y-17808984D01*
X8527273Y-17808984D01*
X8627273Y-18008984D02*
X8627273Y-17808984D01*
X8627273Y-17708984D02*
X8612987Y-17723270D01*
X8627273Y-17737556D01*
X8641558Y-17723270D01*
X8627273Y-17708984D01*
X8627273Y-17737556D01*
X8812987Y-18008984D02*
X8784416Y-17994699D01*
X8770130Y-17966127D01*
X8770130Y-17708984D01*
X8970130Y-18008984D02*
X8941558Y-17994699D01*
X8927273Y-17966127D01*
X8927273Y-17708984D01*
X9312987Y-18008984D02*
X9312987Y-17708984D01*
X9412987Y-17923270D01*
X9512987Y-17708984D01*
X9512987Y-18008984D01*
X9784416Y-18008984D02*
X9784416Y-17851842D01*
X9770130Y-17823270D01*
X9741558Y-17808984D01*
X9684416Y-17808984D01*
X9655844Y-17823270D01*
X9784416Y-17994699D02*
X9755844Y-18008984D01*
X9684416Y-18008984D01*
X9655844Y-17994699D01*
X9641558Y-17966127D01*
X9641558Y-17937556D01*
X9655844Y-17908984D01*
X9684416Y-17894699D01*
X9755844Y-17894699D01*
X9784416Y-17880413D01*
X9927273Y-17808984D02*
X9927273Y-18108984D01*
X9927273Y-17823270D02*
X9955844Y-17808984D01*
X10012987Y-17808984D01*
X10041558Y-17823270D01*
X10055844Y-17837556D01*
X10070130Y-17866127D01*
X10070130Y-17951842D01*
X10055844Y-17980413D01*
X10041558Y-17994699D01*
X10012987Y-18008984D01*
X9955844Y-18008984D01*
X9927273Y-17994699D01*
X10198701Y-17980413D02*
X10212987Y-17994699D01*
X10198701Y-18008984D01*
X10184416Y-17994699D01*
X10198701Y-17980413D01*
X10198701Y-18008984D01*
X10198701Y-17823270D02*
X10212987Y-17837556D01*
X10198701Y-17851842D01*
X10184416Y-17837556D01*
X10198701Y-17823270D01*
X10198701Y-17851842D01*
M02*
