%TF.GenerationSoftware,KiCad,Pcbnew,(5.1.10)-1*%
%TF.CreationDate,2021-11-21T23:01:24-05:00*%
%TF.ProjectId,numpad - plate,6e756d70-6164-4202-9d20-706c6174652e,rev?*%
%TF.SameCoordinates,Original*%
%TF.FileFunction,Profile,NP*%
%FSLAX46Y46*%
G04 Gerber Fmt 4.6, Leading zero omitted, Abs format (unit mm)*
G04 Created by KiCad (PCBNEW (5.1.10)-1) date 2021-11-21 23:01:24*
%MOMM*%
%LPD*%
G01*
G04 APERTURE LIST*
%TA.AperFunction,Profile*%
%ADD10C,0.050000*%
%TD*%
G04 APERTURE END LIST*
D10*
X139691200Y-60321200D02*
X158740000Y-60321200D01*
X156358900Y-103181000D02*
X161121100Y-103181000D01*
X161914800Y-63496000D02*
X161914800Y-102387300D01*
X155565200Y-131357350D02*
X155565200Y-103974700D01*
X156358900Y-132151050D02*
X183344700Y-132151050D01*
X158740000Y-60321200D02*
G75*
G02*
X161914800Y-63496000I0J-3174800D01*
G01*
X161914800Y-102387300D02*
G75*
G02*
X161121100Y-103181000I-793700J0D01*
G01*
X155565200Y-103974700D02*
G75*
G02*
X156358900Y-103181000I793700J0D01*
G01*
X184138400Y-132944750D02*
X184138400Y-172232900D01*
X183344700Y-132151050D02*
G75*
G02*
X184138400Y-132944750I0J-793700D01*
G01*
X156358900Y-132151050D02*
G75*
G02*
X155565200Y-131357350I0J793700D01*
G01*
X95894999Y-95396500D02*
G75*
G02*
X95394999Y-95896500I-500000J0D01*
G01*
X82395000Y-81896500D02*
X95394999Y-81896500D01*
X82395000Y-95896500D02*
X95394999Y-95896500D01*
X81895000Y-82396500D02*
G75*
G02*
X82395000Y-81896500I500000J0D01*
G01*
X82395000Y-95896500D02*
G75*
G02*
X81895000Y-95396500I0J500000D01*
G01*
X81895000Y-82396500D02*
X81895000Y-95396500D01*
X95894999Y-82396500D02*
X95894999Y-95396500D01*
X95394999Y-81896500D02*
G75*
G02*
X95894999Y-82396500I0J-500000D01*
G01*
X176857500Y-171596500D02*
G75*
G02*
X176357500Y-172096500I-500000J0D01*
G01*
X163357500Y-172096500D02*
G75*
G02*
X162857500Y-171596500I0J500000D01*
G01*
X176357500Y-158096500D02*
G75*
G02*
X176857500Y-158596500I0J-500000D01*
G01*
X162857500Y-158596500D02*
G75*
G02*
X163357500Y-158096500I500000J0D01*
G01*
X176857500Y-158596500D02*
X176857500Y-171596500D01*
X162857500Y-158596500D02*
X162857500Y-171596500D01*
X163357500Y-172096500D02*
X176357500Y-172096500D01*
X163357500Y-158096500D02*
X176357500Y-158096500D01*
X133995000Y-171596500D02*
G75*
G02*
X133495000Y-172096500I-500000J0D01*
G01*
X120495000Y-172096500D02*
G75*
G02*
X119995000Y-171596500I0J500000D01*
G01*
X133495000Y-158096500D02*
G75*
G02*
X133995000Y-158596500I0J-500000D01*
G01*
X119995000Y-158596500D02*
G75*
G02*
X120495000Y-158096500I500000J0D01*
G01*
X133995000Y-158596500D02*
X133995000Y-171596500D01*
X119995000Y-158596500D02*
X119995000Y-171596500D01*
X120495000Y-172096500D02*
X133495000Y-172096500D01*
X120495000Y-158096500D02*
X133495000Y-158096500D01*
X106855600Y-156582700D02*
G75*
G02*
X107355600Y-156082700I500000J0D01*
G01*
X113355601Y-156082700D02*
G75*
G02*
X113855601Y-156582700I0J-500000D01*
G01*
X107355600Y-171082700D02*
G75*
G02*
X106855600Y-170582700I0J500000D01*
G01*
X113855601Y-170582700D02*
G75*
G02*
X113355601Y-171082700I-500000J0D01*
G01*
X106855600Y-170582700D02*
X106855600Y-156582700D01*
X113855601Y-170582700D02*
X113855601Y-156582700D01*
X113355601Y-156082700D02*
X107355600Y-156082700D01*
X113355601Y-171082700D02*
X107355600Y-171082700D01*
X82979600Y-156582700D02*
G75*
G02*
X83479600Y-156082700I500000J0D01*
G01*
X89479600Y-156082700D02*
G75*
G02*
X89979600Y-156582700I0J-500000D01*
G01*
X83479600Y-171082700D02*
G75*
G02*
X82979600Y-170582700I0J500000D01*
G01*
X89979600Y-170582700D02*
G75*
G02*
X89479600Y-171082700I-500000J0D01*
G01*
X82979600Y-170582700D02*
X82979600Y-156582700D01*
X89979600Y-170582700D02*
X89979600Y-156582700D01*
X89479600Y-156082700D02*
X83479600Y-156082700D01*
X89479600Y-171082700D02*
X83479600Y-171082700D01*
X91417600Y-158582700D02*
G75*
G02*
X91917600Y-158082700I500000J0D01*
G01*
X104917600Y-158082700D02*
G75*
G02*
X105417600Y-158582700I0J-500000D01*
G01*
X91917600Y-172082700D02*
G75*
G02*
X91417600Y-171582700I0J500000D01*
G01*
X105417600Y-171582700D02*
G75*
G02*
X104917600Y-172082700I-500000J0D01*
G01*
X91417600Y-171582700D02*
X91417600Y-158582700D01*
X105417600Y-171582700D02*
X105417600Y-158582700D01*
X104917600Y-158082700D02*
X91917600Y-158082700D01*
X104917600Y-172082700D02*
X91917600Y-172082700D01*
X176857500Y-152546500D02*
G75*
G02*
X176357500Y-153046500I-500000J0D01*
G01*
X163357500Y-153046500D02*
G75*
G02*
X162857500Y-152546500I0J500000D01*
G01*
X176357500Y-139046500D02*
G75*
G02*
X176857500Y-139546500I0J-500000D01*
G01*
X162857500Y-139546500D02*
G75*
G02*
X163357500Y-139046500I500000J0D01*
G01*
X176857500Y-139546500D02*
X176857500Y-152546500D01*
X162857500Y-139546500D02*
X162857500Y-152546500D01*
X163357500Y-153046500D02*
X176357500Y-153046500D01*
X163357500Y-139046500D02*
X176357500Y-139046500D01*
X137545000Y-147133500D02*
G75*
G02*
X137045000Y-146633500I0J500000D01*
G01*
X137045000Y-140633500D02*
G75*
G02*
X137545000Y-140133500I500000J0D01*
G01*
X152045000Y-146633500D02*
G75*
G02*
X151545000Y-147133500I-500000J0D01*
G01*
X151545000Y-140133500D02*
G75*
G02*
X152045000Y-140633500I0J-500000D01*
G01*
X151545000Y-147133500D02*
X137545000Y-147133500D01*
X151545000Y-140133500D02*
X137545000Y-140133500D01*
X137045000Y-140633500D02*
X137045000Y-146633500D01*
X152045000Y-140633500D02*
X152045000Y-146633500D01*
X137545000Y-171009500D02*
G75*
G02*
X137045000Y-170509500I0J500000D01*
G01*
X137045000Y-164509500D02*
G75*
G02*
X137545000Y-164009500I500000J0D01*
G01*
X152045000Y-170509500D02*
G75*
G02*
X151545000Y-171009500I-500000J0D01*
G01*
X151545000Y-164009500D02*
G75*
G02*
X152045000Y-164509500I0J-500000D01*
G01*
X151545000Y-171009500D02*
X137545000Y-171009500D01*
X151545000Y-164009500D02*
X137545000Y-164009500D01*
X137045000Y-164509500D02*
X137045000Y-170509500D01*
X152045000Y-164509500D02*
X152045000Y-170509500D01*
X139545000Y-162571500D02*
G75*
G02*
X139045000Y-162071500I0J500000D01*
G01*
X139045000Y-149071500D02*
G75*
G02*
X139545000Y-148571500I500000J0D01*
G01*
X153045000Y-162071500D02*
G75*
G02*
X152545000Y-162571500I-500000J0D01*
G01*
X152545000Y-148571500D02*
G75*
G02*
X153045000Y-149071500I0J-500000D01*
G01*
X152545000Y-162571500D02*
X139545000Y-162571500D01*
X152545000Y-148571500D02*
X139545000Y-148571500D01*
X139045000Y-149071500D02*
X139045000Y-162071500D01*
X153045000Y-149071500D02*
X153045000Y-162071500D01*
X133995000Y-152546500D02*
G75*
G02*
X133495000Y-153046500I-500000J0D01*
G01*
X120495000Y-153046500D02*
G75*
G02*
X119995000Y-152546500I0J500000D01*
G01*
X133495000Y-139046500D02*
G75*
G02*
X133995000Y-139546500I0J-500000D01*
G01*
X119995000Y-139546500D02*
G75*
G02*
X120495000Y-139046500I500000J0D01*
G01*
X133995000Y-139546500D02*
X133995000Y-152546500D01*
X119995000Y-139546500D02*
X119995000Y-152546500D01*
X120495000Y-153046500D02*
X133495000Y-153046500D01*
X120495000Y-139046500D02*
X133495000Y-139046500D01*
X114945000Y-152546500D02*
G75*
G02*
X114445000Y-153046500I-500000J0D01*
G01*
X101445000Y-153046500D02*
G75*
G02*
X100945000Y-152546500I0J500000D01*
G01*
X114445000Y-139046500D02*
G75*
G02*
X114945000Y-139546500I0J-500000D01*
G01*
X100945000Y-139546500D02*
G75*
G02*
X101445000Y-139046500I500000J0D01*
G01*
X114945000Y-139546500D02*
X114945000Y-152546500D01*
X100945000Y-139546500D02*
X100945000Y-152546500D01*
X101445000Y-153046500D02*
X114445000Y-153046500D01*
X101445000Y-139046500D02*
X114445000Y-139046500D01*
X95894999Y-152546500D02*
G75*
G02*
X95394999Y-153046500I-500000J0D01*
G01*
X82395000Y-153046500D02*
G75*
G02*
X81895000Y-152546500I0J500000D01*
G01*
X95394999Y-139046500D02*
G75*
G02*
X95894999Y-139546500I0J-500000D01*
G01*
X81895000Y-139546500D02*
G75*
G02*
X82395000Y-139046500I500000J0D01*
G01*
X95894999Y-139546500D02*
X95894999Y-152546500D01*
X81895000Y-139546500D02*
X81895000Y-152546500D01*
X82395000Y-153046500D02*
X95394999Y-153046500D01*
X82395000Y-139046500D02*
X95394999Y-139046500D01*
X133995000Y-133496500D02*
G75*
G02*
X133495000Y-133996500I-500000J0D01*
G01*
X120495000Y-133996500D02*
G75*
G02*
X119995000Y-133496500I0J500000D01*
G01*
X133495000Y-119996500D02*
G75*
G02*
X133995000Y-120496500I0J-500000D01*
G01*
X119995000Y-120496500D02*
G75*
G02*
X120495000Y-119996500I500000J0D01*
G01*
X133995000Y-120496500D02*
X133995000Y-133496500D01*
X119995000Y-120496500D02*
X119995000Y-133496500D01*
X120495000Y-133996500D02*
X133495000Y-133996500D01*
X120495000Y-119996500D02*
X133495000Y-119996500D01*
X114945000Y-133496500D02*
G75*
G02*
X114445000Y-133996500I-500000J0D01*
G01*
X101445000Y-133996500D02*
G75*
G02*
X100945000Y-133496500I0J500000D01*
G01*
X114445000Y-119996500D02*
G75*
G02*
X114945000Y-120496500I0J-500000D01*
G01*
X100945000Y-120496500D02*
G75*
G02*
X101445000Y-119996500I500000J0D01*
G01*
X114945000Y-120496500D02*
X114945000Y-133496500D01*
X100945000Y-120496500D02*
X100945000Y-133496500D01*
X101445000Y-133996500D02*
X114445000Y-133996500D01*
X101445000Y-119996500D02*
X114445000Y-119996500D01*
X95894999Y-133496500D02*
G75*
G02*
X95394999Y-133996500I-500000J0D01*
G01*
X82395000Y-133996500D02*
G75*
G02*
X81895000Y-133496500I0J500000D01*
G01*
X95394999Y-119996500D02*
G75*
G02*
X95894999Y-120496500I0J-500000D01*
G01*
X81895000Y-120496500D02*
G75*
G02*
X82395000Y-119996500I500000J0D01*
G01*
X95894999Y-120496500D02*
X95894999Y-133496500D01*
X81895000Y-120496500D02*
X81895000Y-133496500D01*
X82395000Y-133996500D02*
X95394999Y-133996500D01*
X82395000Y-119996500D02*
X95394999Y-119996500D01*
X137545000Y-109033500D02*
G75*
G02*
X137045000Y-108533500I0J500000D01*
G01*
X137045000Y-102533500D02*
G75*
G02*
X137545000Y-102033500I500000J0D01*
G01*
X152045000Y-108533500D02*
G75*
G02*
X151545000Y-109033500I-500000J0D01*
G01*
X151545000Y-102033500D02*
G75*
G02*
X152045000Y-102533500I0J-500000D01*
G01*
X151545000Y-109033500D02*
X137545000Y-109033500D01*
X151545000Y-102033500D02*
X137545000Y-102033500D01*
X137045000Y-102533500D02*
X137045000Y-108533500D01*
X152045000Y-102533500D02*
X152045000Y-108533500D01*
X137545000Y-132909500D02*
G75*
G02*
X137045000Y-132409500I0J500000D01*
G01*
X137045000Y-126409500D02*
G75*
G02*
X137545000Y-125909500I500000J0D01*
G01*
X152045000Y-132409500D02*
G75*
G02*
X151545000Y-132909500I-500000J0D01*
G01*
X151545000Y-125909500D02*
G75*
G02*
X152045000Y-126409500I0J-500000D01*
G01*
X151545000Y-132909500D02*
X137545000Y-132909500D01*
X151545000Y-125909500D02*
X137545000Y-125909500D01*
X137045000Y-126409500D02*
X137045000Y-132409500D01*
X152045000Y-126409500D02*
X152045000Y-132409500D01*
X139545000Y-124471500D02*
G75*
G02*
X139045000Y-123971500I0J500000D01*
G01*
X139045000Y-110971500D02*
G75*
G02*
X139545000Y-110471500I500000J0D01*
G01*
X153045000Y-123971500D02*
G75*
G02*
X152545000Y-124471500I-500000J0D01*
G01*
X152545000Y-110471500D02*
G75*
G02*
X153045000Y-110971500I0J-500000D01*
G01*
X152545000Y-124471500D02*
X139545000Y-124471500D01*
X152545000Y-110471500D02*
X139545000Y-110471500D01*
X139045000Y-110971500D02*
X139045000Y-123971500D01*
X153045000Y-110971500D02*
X153045000Y-123971500D01*
X133995000Y-114446500D02*
G75*
G02*
X133495000Y-114946500I-500000J0D01*
G01*
X120495000Y-114946500D02*
G75*
G02*
X119995000Y-114446500I0J500000D01*
G01*
X133495000Y-100946500D02*
G75*
G02*
X133995000Y-101446500I0J-500000D01*
G01*
X119995000Y-101446500D02*
G75*
G02*
X120495000Y-100946500I500000J0D01*
G01*
X133995000Y-101446500D02*
X133995000Y-114446500D01*
X119995000Y-101446500D02*
X119995000Y-114446500D01*
X120495000Y-114946500D02*
X133495000Y-114946500D01*
X120495000Y-100946500D02*
X133495000Y-100946500D01*
X114945000Y-114446500D02*
G75*
G02*
X114445000Y-114946500I-500000J0D01*
G01*
X101445000Y-114946500D02*
G75*
G02*
X100945000Y-114446500I0J500000D01*
G01*
X114445000Y-100946500D02*
G75*
G02*
X114945000Y-101446500I0J-500000D01*
G01*
X100945000Y-101446500D02*
G75*
G02*
X101445000Y-100946500I500000J0D01*
G01*
X114945000Y-101446500D02*
X114945000Y-114446500D01*
X100945000Y-101446500D02*
X100945000Y-114446500D01*
X101445000Y-114946500D02*
X114445000Y-114946500D01*
X101445000Y-100946500D02*
X114445000Y-100946500D01*
X95894999Y-114446500D02*
G75*
G02*
X95394999Y-114946500I-500000J0D01*
G01*
X82395000Y-114946500D02*
G75*
G02*
X81895000Y-114446500I0J500000D01*
G01*
X95394999Y-100946500D02*
G75*
G02*
X95894999Y-101446500I0J-500000D01*
G01*
X81895000Y-101446500D02*
G75*
G02*
X82395000Y-100946500I500000J0D01*
G01*
X95894999Y-101446500D02*
X95894999Y-114446500D01*
X81895000Y-101446500D02*
X81895000Y-114446500D01*
X82395000Y-114946500D02*
X95394999Y-114946500D01*
X82395000Y-100946500D02*
X95394999Y-100946500D01*
X153045000Y-95396500D02*
G75*
G02*
X152545000Y-95896500I-500000J0D01*
G01*
X139545000Y-95896500D02*
G75*
G02*
X139045000Y-95396500I0J500000D01*
G01*
X152545000Y-81896500D02*
G75*
G02*
X153045000Y-82396500I0J-500000D01*
G01*
X139045000Y-82396500D02*
G75*
G02*
X139545000Y-81896500I500000J0D01*
G01*
X153045000Y-82396500D02*
X153045000Y-95396500D01*
X139045000Y-82396500D02*
X139045000Y-95396500D01*
X139545000Y-95896500D02*
X152545000Y-95896500D01*
X139545000Y-81896500D02*
X152545000Y-81896500D01*
X133995000Y-95396500D02*
G75*
G02*
X133495000Y-95896500I-500000J0D01*
G01*
X120495000Y-95896500D02*
G75*
G02*
X119995000Y-95396500I0J500000D01*
G01*
X133495000Y-81896500D02*
G75*
G02*
X133995000Y-82396500I0J-500000D01*
G01*
X119995000Y-82396500D02*
G75*
G02*
X120495000Y-81896500I500000J0D01*
G01*
X133995000Y-82396500D02*
X133995000Y-95396500D01*
X119995000Y-82396500D02*
X119995000Y-95396500D01*
X120495000Y-95896500D02*
X133495000Y-95896500D01*
X120495000Y-81896500D02*
X133495000Y-81896500D01*
X114945000Y-95396500D02*
G75*
G02*
X114445000Y-95896500I-500000J0D01*
G01*
X101445000Y-95896500D02*
G75*
G02*
X100945000Y-95396500I0J500000D01*
G01*
X114445000Y-81896500D02*
G75*
G02*
X114945000Y-82396500I0J-500000D01*
G01*
X100945000Y-82396500D02*
G75*
G02*
X101445000Y-81896500I500000J0D01*
G01*
X114945000Y-82396500D02*
X114945000Y-95396500D01*
X100945000Y-82396500D02*
X100945000Y-95396500D01*
X101445000Y-95896500D02*
X114445000Y-95896500D01*
X101445000Y-81896500D02*
X114445000Y-81896500D01*
X153045000Y-76346199D02*
G75*
G02*
X152545000Y-76846199I-500000J0D01*
G01*
X139545000Y-76846199D02*
G75*
G02*
X139045000Y-76346199I0J500000D01*
G01*
X152545000Y-62846200D02*
G75*
G02*
X153045000Y-63346200I0J-500000D01*
G01*
X139045000Y-63346200D02*
G75*
G02*
X139545000Y-62846200I500000J0D01*
G01*
X153045000Y-63346200D02*
X153045000Y-76346199D01*
X139045000Y-63346200D02*
X139045000Y-76346199D01*
X139545000Y-76846199D02*
X152545000Y-76846199D01*
X139545000Y-62846200D02*
X152545000Y-62846200D01*
X81751100Y-175407700D02*
X180963600Y-175407700D01*
X78576300Y-81751100D02*
X78576300Y-172232900D01*
X133341600Y-78576300D02*
X81751100Y-78576300D01*
X136516400Y-63496000D02*
X136516400Y-75401500D01*
X136516400Y-63496000D02*
G75*
G02*
X139691200Y-60321200I3174800J0D01*
G01*
X136516400Y-75401500D02*
G75*
G02*
X133341600Y-78576300I-3174800J0D01*
G01*
X184138400Y-172232900D02*
G75*
G02*
X180963600Y-175407700I-3174800J0D01*
G01*
X81751100Y-175407700D02*
G75*
G02*
X78576300Y-172232900I0J3174800D01*
G01*
X78576300Y-81751100D02*
G75*
G02*
X81751100Y-78576300I3174800J0D01*
G01*
M02*
