%TF.GenerationSoftware,KiCad,Pcbnew,(5.1.10)-1*%
%TF.CreationDate,2021-11-21T23:01:24-05:00*%
%TF.ProjectId,numpad - plate,6e756d70-6164-4202-9d20-706c6174652e,rev?*%
%TF.SameCoordinates,Original*%
%TF.FileFunction,Legend,Bot*%
%TF.FilePolarity,Positive*%
%FSLAX46Y46*%
G04 Gerber Fmt 4.6, Leading zero omitted, Abs format (unit mm)*
G04 Created by KiCad (PCBNEW (5.1.10)-1) date 2021-11-21 23:01:24*
%MOMM*%
%LPD*%
G01*
G04 APERTURE LIST*
%ADD10C,0.100000*%
G04 APERTURE END LIST*
%LPC*%
D10*
G36*
X153580950Y-81354250D02*
G01*
X153977800Y-82147950D01*
X153977800Y-95640850D01*
X153580950Y-96434550D01*
X152787250Y-96831400D01*
X139294350Y-96831400D01*
X138500650Y-96434550D01*
X138103800Y-95640850D01*
X138103800Y-82147950D01*
X138500650Y-81354250D01*
X139294350Y-80957400D01*
X152787250Y-80957400D01*
X153580950Y-81354250D01*
G37*
X153580950Y-81354250D02*
X153977800Y-82147950D01*
X153977800Y-95640850D01*
X153580950Y-96434550D01*
X152787250Y-96831400D01*
X139294350Y-96831400D01*
X138500650Y-96434550D01*
X138103800Y-95640850D01*
X138103800Y-82147950D01*
X138500650Y-81354250D01*
X139294350Y-80957400D01*
X152787250Y-80957400D01*
X153580950Y-81354250D01*
G36*
X134532150Y-138500650D02*
G01*
X134929000Y-139294350D01*
X134929000Y-152787250D01*
X134532150Y-153580950D01*
X133738450Y-153977800D01*
X120245550Y-153977800D01*
X119451850Y-153580950D01*
X119055000Y-152787250D01*
X119055000Y-139294350D01*
X119451850Y-138500650D01*
X120245550Y-138103800D01*
X133738450Y-138103800D01*
X134532150Y-138500650D01*
G37*
X134532150Y-138500650D02*
X134929000Y-139294350D01*
X134929000Y-152787250D01*
X134532150Y-153580950D01*
X133738450Y-153977800D01*
X120245550Y-153977800D01*
X119451850Y-153580950D01*
X119055000Y-152787250D01*
X119055000Y-139294350D01*
X119451850Y-138500650D01*
X120245550Y-138103800D01*
X133738450Y-138103800D01*
X134532150Y-138500650D01*
G36*
X115483350Y-119451850D02*
G01*
X115880200Y-120245550D01*
X115880200Y-133738450D01*
X115483350Y-134532150D01*
X114689650Y-134929000D01*
X101196750Y-134929000D01*
X100403050Y-134532150D01*
X100006200Y-133738450D01*
X100006200Y-120245550D01*
X100403050Y-119451850D01*
X101196750Y-119055000D01*
X114689650Y-119055000D01*
X115483350Y-119451850D01*
G37*
X115483350Y-119451850D02*
X115880200Y-120245550D01*
X115880200Y-133738450D01*
X115483350Y-134532150D01*
X114689650Y-134929000D01*
X101196750Y-134929000D01*
X100403050Y-134532150D01*
X100006200Y-133738450D01*
X100006200Y-120245550D01*
X100403050Y-119451850D01*
X101196750Y-119055000D01*
X114689650Y-119055000D01*
X115483350Y-119451850D01*
G36*
X115483350Y-138500650D02*
G01*
X115880200Y-139294350D01*
X115880200Y-152787250D01*
X115483350Y-153580950D01*
X114689650Y-153977800D01*
X101196750Y-153977800D01*
X100403050Y-153580950D01*
X100006200Y-152787250D01*
X100006200Y-139294350D01*
X100403050Y-138500650D01*
X101196750Y-138103800D01*
X114689650Y-138103800D01*
X115483350Y-138500650D01*
G37*
X115483350Y-138500650D02*
X115880200Y-139294350D01*
X115880200Y-152787250D01*
X115483350Y-153580950D01*
X114689650Y-153977800D01*
X101196750Y-153977800D01*
X100403050Y-153580950D01*
X100006200Y-152787250D01*
X100006200Y-139294350D01*
X100403050Y-138500650D01*
X101196750Y-138103800D01*
X114689650Y-138103800D01*
X115483350Y-138500650D01*
G36*
X96434550Y-138500650D02*
G01*
X96831400Y-139294350D01*
X96831400Y-152787250D01*
X96434550Y-153580950D01*
X95640850Y-153977800D01*
X82147950Y-153977800D01*
X81354250Y-153580950D01*
X80957400Y-152787250D01*
X80957400Y-139294350D01*
X81354250Y-138500650D01*
X82147950Y-138103800D01*
X95640850Y-138103800D01*
X96434550Y-138500650D01*
G37*
X96434550Y-138500650D02*
X96831400Y-139294350D01*
X96831400Y-152787250D01*
X96434550Y-153580950D01*
X95640850Y-153977800D01*
X82147950Y-153977800D01*
X81354250Y-153580950D01*
X80957400Y-152787250D01*
X80957400Y-139294350D01*
X81354250Y-138500650D01*
X82147950Y-138103800D01*
X95640850Y-138103800D01*
X96434550Y-138500650D01*
G36*
X152787250Y-163502200D02*
G01*
X153184100Y-164295900D01*
X153184100Y-170645500D01*
X152787250Y-171439200D01*
X151993550Y-171836050D01*
X137310100Y-171836050D01*
X136516400Y-171439200D01*
X136119550Y-170645500D01*
X136119550Y-164295900D01*
X136516400Y-163502200D01*
X137310100Y-163105350D01*
X151993550Y-163105350D01*
X152787250Y-163502200D01*
G37*
X152787250Y-163502200D02*
X153184100Y-164295900D01*
X153184100Y-170645500D01*
X152787250Y-171439200D01*
X151993550Y-171836050D01*
X137310100Y-171836050D01*
X136516400Y-171439200D01*
X136119550Y-170645500D01*
X136119550Y-164295900D01*
X136516400Y-163502200D01*
X137310100Y-163105350D01*
X151993550Y-163105350D01*
X152787250Y-163502200D01*
G36*
X153580950Y-62305450D02*
G01*
X153977800Y-63099150D01*
X153977800Y-76592050D01*
X153580950Y-77385750D01*
X152787250Y-77782600D01*
X139294350Y-77782600D01*
X138500650Y-77385750D01*
X138103800Y-76592050D01*
X138103800Y-63099150D01*
X138500650Y-62305450D01*
X139294350Y-61908600D01*
X152787250Y-61908600D01*
X153580950Y-62305450D01*
G37*
X153580950Y-62305450D02*
X153977800Y-63099150D01*
X153977800Y-76592050D01*
X153580950Y-77385750D01*
X152787250Y-77782600D01*
X139294350Y-77782600D01*
X138500650Y-77385750D01*
X138103800Y-76592050D01*
X138103800Y-63099150D01*
X138500650Y-62305450D01*
X139294350Y-61908600D01*
X152787250Y-61908600D01*
X153580950Y-62305450D01*
G36*
X114292800Y-155565200D02*
G01*
X114689650Y-156358900D01*
X114689650Y-171042350D01*
X114292800Y-171836050D01*
X113499100Y-172232900D01*
X107149500Y-172232900D01*
X106355800Y-171836050D01*
X105958950Y-171042350D01*
X105958950Y-156358900D01*
X106355800Y-155565200D01*
X107149500Y-155168350D01*
X113499100Y-155168350D01*
X114292800Y-155565200D01*
G37*
X114292800Y-155565200D02*
X114689650Y-156358900D01*
X114689650Y-171042350D01*
X114292800Y-171836050D01*
X113499100Y-172232900D01*
X107149500Y-172232900D01*
X106355800Y-171836050D01*
X105958950Y-171042350D01*
X105958950Y-156358900D01*
X106355800Y-155565200D01*
X107149500Y-155168350D01*
X113499100Y-155168350D01*
X114292800Y-155565200D01*
G36*
X152787250Y-101593600D02*
G01*
X153184100Y-102387300D01*
X153184100Y-108736900D01*
X152787250Y-109530600D01*
X151993550Y-109927450D01*
X137310100Y-109927450D01*
X136516400Y-109530600D01*
X136119550Y-108736900D01*
X136119550Y-102387300D01*
X136516400Y-101593600D01*
X137310100Y-101196750D01*
X151993550Y-101196750D01*
X152787250Y-101593600D01*
G37*
X152787250Y-101593600D02*
X153184100Y-102387300D01*
X153184100Y-108736900D01*
X152787250Y-109530600D01*
X151993550Y-109927450D01*
X137310100Y-109927450D01*
X136516400Y-109530600D01*
X136119550Y-108736900D01*
X136119550Y-102387300D01*
X136516400Y-101593600D01*
X137310100Y-101196750D01*
X151993550Y-101196750D01*
X152787250Y-101593600D01*
G36*
X153580950Y-109927450D02*
G01*
X153977800Y-110721150D01*
X153977800Y-124214050D01*
X153580950Y-125007750D01*
X152787250Y-125404600D01*
X139294350Y-125404600D01*
X138500650Y-125007750D01*
X138103800Y-124214050D01*
X138103800Y-110721150D01*
X138500650Y-109927450D01*
X139294350Y-109530600D01*
X152787250Y-109530600D01*
X153580950Y-109927450D01*
G37*
X153580950Y-109927450D02*
X153977800Y-110721150D01*
X153977800Y-124214050D01*
X153580950Y-125007750D01*
X152787250Y-125404600D01*
X139294350Y-125404600D01*
X138500650Y-125007750D01*
X138103800Y-124214050D01*
X138103800Y-110721150D01*
X138500650Y-109927450D01*
X139294350Y-109530600D01*
X152787250Y-109530600D01*
X153580950Y-109927450D01*
G36*
X177391950Y-157549450D02*
G01*
X177788800Y-158343150D01*
X177788800Y-171836050D01*
X177391950Y-172629750D01*
X176598250Y-173026600D01*
X163105350Y-173026600D01*
X162311650Y-172629750D01*
X161914800Y-171836050D01*
X161914800Y-158343150D01*
X162311650Y-157549450D01*
X163105350Y-157152600D01*
X176598250Y-157152600D01*
X177391950Y-157549450D01*
G37*
X177391950Y-157549450D02*
X177788800Y-158343150D01*
X177788800Y-171836050D01*
X177391950Y-172629750D01*
X176598250Y-173026600D01*
X163105350Y-173026600D01*
X162311650Y-172629750D01*
X161914800Y-171836050D01*
X161914800Y-158343150D01*
X162311650Y-157549450D01*
X163105350Y-157152600D01*
X176598250Y-157152600D01*
X177391950Y-157549450D01*
G36*
X153580950Y-148025050D02*
G01*
X153977800Y-148818750D01*
X153977800Y-162311650D01*
X153580950Y-163105350D01*
X152787250Y-163502200D01*
X139294350Y-163502200D01*
X138500650Y-163105350D01*
X138103800Y-162311650D01*
X138103800Y-148818750D01*
X138500650Y-148025050D01*
X139294350Y-147628200D01*
X152787250Y-147628200D01*
X153580950Y-148025050D01*
G37*
X153580950Y-148025050D02*
X153977800Y-148818750D01*
X153977800Y-162311650D01*
X153580950Y-163105350D01*
X152787250Y-163502200D01*
X139294350Y-163502200D01*
X138500650Y-163105350D01*
X138103800Y-162311650D01*
X138103800Y-148818750D01*
X138500650Y-148025050D01*
X139294350Y-147628200D01*
X152787250Y-147628200D01*
X153580950Y-148025050D01*
G36*
X105958950Y-157549450D02*
G01*
X106355800Y-158343150D01*
X106355800Y-171836050D01*
X105958950Y-172629750D01*
X105165250Y-173026600D01*
X91672350Y-173026600D01*
X90878650Y-172629750D01*
X90481800Y-171836050D01*
X90481800Y-158343150D01*
X90878650Y-157549450D01*
X91672350Y-157152600D01*
X105165250Y-157152600D01*
X105958950Y-157549450D01*
G37*
X105958950Y-157549450D02*
X106355800Y-158343150D01*
X106355800Y-171836050D01*
X105958950Y-172629750D01*
X105165250Y-173026600D01*
X91672350Y-173026600D01*
X90878650Y-172629750D01*
X90481800Y-171836050D01*
X90481800Y-158343150D01*
X90878650Y-157549450D01*
X91672350Y-157152600D01*
X105165250Y-157152600D01*
X105958950Y-157549450D01*
G36*
X134532150Y-157549450D02*
G01*
X134929000Y-158343150D01*
X134929000Y-171836050D01*
X134532150Y-172629750D01*
X133738450Y-173026600D01*
X120245550Y-173026600D01*
X119451850Y-172629750D01*
X119055000Y-171836050D01*
X119055000Y-158343150D01*
X119451850Y-157549450D01*
X120245550Y-157152600D01*
X133738450Y-157152600D01*
X134532150Y-157549450D01*
G37*
X134532150Y-157549450D02*
X134929000Y-158343150D01*
X134929000Y-171836050D01*
X134532150Y-172629750D01*
X133738450Y-173026600D01*
X120245550Y-173026600D01*
X119451850Y-172629750D01*
X119055000Y-171836050D01*
X119055000Y-158343150D01*
X119451850Y-157549450D01*
X120245550Y-157152600D01*
X133738450Y-157152600D01*
X134532150Y-157549450D01*
G36*
X96434550Y-119451850D02*
G01*
X96831400Y-120245550D01*
X96831400Y-133738450D01*
X96434550Y-134532150D01*
X95640850Y-134929000D01*
X82147950Y-134929000D01*
X81354250Y-134532150D01*
X80957400Y-133738450D01*
X80957400Y-120245550D01*
X81354250Y-119451850D01*
X82147950Y-119055000D01*
X95640850Y-119055000D01*
X96434550Y-119451850D01*
G37*
X96434550Y-119451850D02*
X96831400Y-120245550D01*
X96831400Y-133738450D01*
X96434550Y-134532150D01*
X95640850Y-134929000D01*
X82147950Y-134929000D01*
X81354250Y-134532150D01*
X80957400Y-133738450D01*
X80957400Y-120245550D01*
X81354250Y-119451850D01*
X82147950Y-119055000D01*
X95640850Y-119055000D01*
X96434550Y-119451850D01*
G36*
X134532150Y-119451850D02*
G01*
X134929000Y-120245550D01*
X134929000Y-133738450D01*
X134532150Y-134532150D01*
X133738450Y-134929000D01*
X120245550Y-134929000D01*
X119451850Y-134532150D01*
X119055000Y-133738450D01*
X119055000Y-120245550D01*
X119451850Y-119451850D01*
X120245550Y-119055000D01*
X133738450Y-119055000D01*
X134532150Y-119451850D01*
G37*
X134532150Y-119451850D02*
X134929000Y-120245550D01*
X134929000Y-133738450D01*
X134532150Y-134532150D01*
X133738450Y-134929000D01*
X120245550Y-134929000D01*
X119451850Y-134532150D01*
X119055000Y-133738450D01*
X119055000Y-120245550D01*
X119451850Y-119451850D01*
X120245550Y-119055000D01*
X133738450Y-119055000D01*
X134532150Y-119451850D01*
G36*
X134532150Y-81354250D02*
G01*
X134929000Y-82147950D01*
X134929000Y-95640850D01*
X134532150Y-96434550D01*
X133738450Y-96831400D01*
X120245550Y-96831400D01*
X119451850Y-96434550D01*
X119055000Y-95640850D01*
X119055000Y-82147950D01*
X119451850Y-81354250D01*
X120245550Y-80957400D01*
X133738450Y-80957400D01*
X134532150Y-81354250D01*
G37*
X134532150Y-81354250D02*
X134929000Y-82147950D01*
X134929000Y-95640850D01*
X134532150Y-96434550D01*
X133738450Y-96831400D01*
X120245550Y-96831400D01*
X119451850Y-96434550D01*
X119055000Y-95640850D01*
X119055000Y-82147950D01*
X119451850Y-81354250D01*
X120245550Y-80957400D01*
X133738450Y-80957400D01*
X134532150Y-81354250D01*
G36*
X152787250Y-139691200D02*
G01*
X153184100Y-140484900D01*
X153184100Y-146834500D01*
X152787250Y-147628200D01*
X151993550Y-148025050D01*
X137310100Y-148025050D01*
X136516400Y-147628200D01*
X136119550Y-146834500D01*
X136119550Y-140484900D01*
X136516400Y-139691200D01*
X137310100Y-139294350D01*
X151993550Y-139294350D01*
X152787250Y-139691200D01*
G37*
X152787250Y-139691200D02*
X153184100Y-140484900D01*
X153184100Y-146834500D01*
X152787250Y-147628200D01*
X151993550Y-148025050D01*
X137310100Y-148025050D01*
X136516400Y-147628200D01*
X136119550Y-146834500D01*
X136119550Y-140484900D01*
X136516400Y-139691200D01*
X137310100Y-139294350D01*
X151993550Y-139294350D01*
X152787250Y-139691200D01*
G36*
X152787250Y-125404600D02*
G01*
X153184100Y-126198300D01*
X153184100Y-132547900D01*
X152787250Y-133341600D01*
X151993550Y-133738450D01*
X137310100Y-133738450D01*
X136516400Y-133341600D01*
X136119550Y-132547900D01*
X136119550Y-126198300D01*
X136516400Y-125404600D01*
X137310100Y-125007750D01*
X151993550Y-125007750D01*
X152787250Y-125404600D01*
G37*
X152787250Y-125404600D02*
X153184100Y-126198300D01*
X153184100Y-132547900D01*
X152787250Y-133341600D01*
X151993550Y-133738450D01*
X137310100Y-133738450D01*
X136516400Y-133341600D01*
X136119550Y-132547900D01*
X136119550Y-126198300D01*
X136516400Y-125404600D01*
X137310100Y-125007750D01*
X151993550Y-125007750D01*
X152787250Y-125404600D01*
G36*
X134532150Y-100403050D02*
G01*
X134929000Y-101196750D01*
X134929000Y-114689650D01*
X134532150Y-115483350D01*
X133738450Y-115880200D01*
X120245550Y-115880200D01*
X119451850Y-115483350D01*
X119055000Y-114689650D01*
X119055000Y-101196750D01*
X119451850Y-100403050D01*
X120245550Y-100006200D01*
X133738450Y-100006200D01*
X134532150Y-100403050D01*
G37*
X134532150Y-100403050D02*
X134929000Y-101196750D01*
X134929000Y-114689650D01*
X134532150Y-115483350D01*
X133738450Y-115880200D01*
X120245550Y-115880200D01*
X119451850Y-115483350D01*
X119055000Y-114689650D01*
X119055000Y-101196750D01*
X119451850Y-100403050D01*
X120245550Y-100006200D01*
X133738450Y-100006200D01*
X134532150Y-100403050D01*
G36*
X90481800Y-155565200D02*
G01*
X90878650Y-156358900D01*
X90878650Y-171042350D01*
X90481800Y-171836050D01*
X89688100Y-172232900D01*
X83338500Y-172232900D01*
X82544800Y-171836050D01*
X82147950Y-171042350D01*
X82147950Y-156358900D01*
X82544800Y-155565200D01*
X83338500Y-155168350D01*
X89688100Y-155168350D01*
X90481800Y-155565200D01*
G37*
X90481800Y-155565200D02*
X90878650Y-156358900D01*
X90878650Y-171042350D01*
X90481800Y-171836050D01*
X89688100Y-172232900D01*
X83338500Y-172232900D01*
X82544800Y-171836050D01*
X82147950Y-171042350D01*
X82147950Y-156358900D01*
X82544800Y-155565200D01*
X83338500Y-155168350D01*
X89688100Y-155168350D01*
X90481800Y-155565200D01*
G36*
X177391950Y-138500650D02*
G01*
X177788800Y-139294350D01*
X177788800Y-152787250D01*
X177391950Y-153580950D01*
X176598250Y-153977800D01*
X163105350Y-153977800D01*
X162311650Y-153580950D01*
X161914800Y-152787250D01*
X161914800Y-139294350D01*
X162311650Y-138500650D01*
X163105350Y-138103800D01*
X176598250Y-138103800D01*
X177391950Y-138500650D01*
G37*
X177391950Y-138500650D02*
X177788800Y-139294350D01*
X177788800Y-152787250D01*
X177391950Y-153580950D01*
X176598250Y-153977800D01*
X163105350Y-153977800D01*
X162311650Y-153580950D01*
X161914800Y-152787250D01*
X161914800Y-139294350D01*
X162311650Y-138500650D01*
X163105350Y-138103800D01*
X176598250Y-138103800D01*
X177391950Y-138500650D01*
G36*
X115483350Y-100403050D02*
G01*
X115880200Y-101196750D01*
X115880200Y-114689650D01*
X115483350Y-115483350D01*
X114689650Y-115880200D01*
X101196750Y-115880200D01*
X100403050Y-115483350D01*
X100006200Y-114689650D01*
X100006200Y-101196750D01*
X100403050Y-100403050D01*
X101196750Y-100006200D01*
X114689650Y-100006200D01*
X115483350Y-100403050D01*
G37*
X115483350Y-100403050D02*
X115880200Y-101196750D01*
X115880200Y-114689650D01*
X115483350Y-115483350D01*
X114689650Y-115880200D01*
X101196750Y-115880200D01*
X100403050Y-115483350D01*
X100006200Y-114689650D01*
X100006200Y-101196750D01*
X100403050Y-100403050D01*
X101196750Y-100006200D01*
X114689650Y-100006200D01*
X115483350Y-100403050D01*
G36*
X96434550Y-100403050D02*
G01*
X96831400Y-101196750D01*
X96831400Y-114689650D01*
X96434550Y-115483350D01*
X95640850Y-115880200D01*
X82147950Y-115880200D01*
X81354250Y-115483350D01*
X80957400Y-114689650D01*
X80957400Y-101196750D01*
X81354250Y-100403050D01*
X82147950Y-100006200D01*
X95640850Y-100006200D01*
X96434550Y-100403050D01*
G37*
X96434550Y-100403050D02*
X96831400Y-101196750D01*
X96831400Y-114689650D01*
X96434550Y-115483350D01*
X95640850Y-115880200D01*
X82147950Y-115880200D01*
X81354250Y-115483350D01*
X80957400Y-114689650D01*
X80957400Y-101196750D01*
X81354250Y-100403050D01*
X82147950Y-100006200D01*
X95640850Y-100006200D01*
X96434550Y-100403050D01*
G36*
X96434550Y-81354250D02*
G01*
X96831400Y-82147950D01*
X96831400Y-95640850D01*
X96434550Y-96434550D01*
X95640850Y-96831400D01*
X82147950Y-96831400D01*
X81354250Y-96434550D01*
X80957400Y-95640850D01*
X80957400Y-82147950D01*
X81354250Y-81354250D01*
X82147950Y-80957400D01*
X95640850Y-80957400D01*
X96434550Y-81354250D01*
G37*
X96434550Y-81354250D02*
X96831400Y-82147950D01*
X96831400Y-95640850D01*
X96434550Y-96434550D01*
X95640850Y-96831400D01*
X82147950Y-96831400D01*
X81354250Y-96434550D01*
X80957400Y-95640850D01*
X80957400Y-82147950D01*
X81354250Y-81354250D01*
X82147950Y-80957400D01*
X95640850Y-80957400D01*
X96434550Y-81354250D01*
G36*
X115483350Y-81354250D02*
G01*
X115880200Y-82147950D01*
X115880200Y-95640850D01*
X115483350Y-96434550D01*
X114689650Y-96831400D01*
X101196750Y-96831400D01*
X100403050Y-96434550D01*
X100006200Y-95640850D01*
X100006200Y-82147950D01*
X100403050Y-81354250D01*
X101196750Y-80957400D01*
X114689650Y-80957400D01*
X115483350Y-81354250D01*
G37*
X115483350Y-81354250D02*
X115880200Y-82147950D01*
X115880200Y-95640850D01*
X115483350Y-96434550D01*
X114689650Y-96831400D01*
X101196750Y-96831400D01*
X100403050Y-96434550D01*
X100006200Y-95640850D01*
X100006200Y-82147950D01*
X100403050Y-81354250D01*
X101196750Y-80957400D01*
X114689650Y-80957400D01*
X115483350Y-81354250D01*
M02*
